<svg xmlns="http://www.w3.org/2000/svg" viewBox="0 0 203.84 201.07"><defs><style>.cls-1{fill:#fff;}</style></defs><g id="Layer_10" data-name="Layer 10"><path d="M103.1,66.3c-4.48.67-8-3.88-12.18-4.92a118.86,118.86,0,0,0-23.16-3.15l.37.15c1.32-4.07,3.06-21.26,8.56-19.71,6.64,1.45,13.49-2.51,19.71-1.32,3,3.08,7.28,8.18,11.36,8.27A23.85,23.85,0,0,1,99,39.27c-2-3.63-5.91-3-9.24-1.81-5,1.25-10.13,1.1-15.19.82-5,4.54-5.3,13.65-7.13,20.1,7.76.74,16,1.22,23.65,3.43,4.17,1.33,7.93,5.89,12.58,4.7.35-.16-.34-.29-.52-.21Z"/><path d="M88.06,51.68C86,57.12,93.8,59,95.59,54c.5-.9.79-2.36-.56-2.62a11.51,11.51,0,0,0-7.43.11c1.56.1,3.28-.57,4.91-.32,8.61.73-5.4,11.62-3.73.49.06-.21-.66-.2-.72,0Z"/><path d="M95.61,47.65c-3.19-.26-7.15-.77-10,.76-.48,2.11,8.9,0,14.37,4,1.86.49,1-.91,1.27-1.78,2-1.43-6.27-2.56-7.43-3.36"/><path d="M78.3,49.69c-6.51-2.11-10.89,7.08-2.16,5,4.11-.11,4.71-5.79.1-4.82-.2.23.46.34.61.24,1.33-.49,2.2,1.07,1.93,2.2-.88,2.29-4.16,2.38-6.24,2.26-1.05-1-.07-3.45,1.1-4.13.65-1.11,6.06-.15,4.66-.77Z"/><path d="M67.2,48.13c1.73-1,15.73-3.25,11.26,1.07-1.51-.83-16.79,3.83-12.1.45-.26-.69,0-1.78,1-1.48"/><path d="M81.78,46.47A17.19,17.19,0,0,1,73,58.5c4.58-.69,8.57-7.21,9.51-12.07,0-.16-.69-.19-.74,0Z"/><path d="M67.89,58.06c-3.55,6.43-2.51,14.62-1.62,21.59,6.29,11.46,22.28,6.56,30.08-.78,2.13-1.61,9.19-11.78,6.85-12.87-2.81,12.92-21.77,26.59-33.42,17-5.38-4.4-4.32-19-1.2-24.76.12-.2-.58-.38-.69-.2Z"/><path d="M111.67,52.88c.43,0,.91-.42.22-.42-.43,0-.9.42-.22.42Z"/><path d="M103.89,66.49c1.08-1.43,8.37-10.55,6.32-10.45-.29,1.9-8.23,11.2-6.32,10.45Z"/><path d="M74.11,32.7c-4,1.33-7.48,9.69-.71,7.48-.76-.33-1.75.13-2.57.06-.84-.89-.59-2.43-.14-3.48-.09-1.41,5.46-4.3,3.42-4.06Z"/><path d="M75.44,32.61c1.64-4.61,6.22-10,11.3-6.33,2.42.84,4.33-1.75,6.77-1.18,2.62.17,3.26,3.12,5.43,3.95,2.41.71,5.1.08,7.38,1.34,2.58,1.12,2.81,3.75,2.55,6.16,3.2,3,9.46,6.92,5.21,12-.85,1.07-6.51,9.58-4,8.91.67-4.41,4.55-7.54,6-11.57.69-4.21-3.15-6.81-6.17-8.82-.58-4.65-.29-6.85-6-7.77-6.52,1.05-6.67-6-12.73-4.31-4.06,2.93-6.39-1.89-10.59.38-1.73,0-7.33,7.85-5.13,7.27Z"/><path d="M65.87,79.83c-2.07,1.9-2.36,4.94-4.11,7.1-1.31,2.38-4.4,3.35-5.39,5.86C61,109.43,86.68,108.6,98.32,100c3.6-2.34,6.75-5.27,10.22-7.78-2.33-.44-6.34,4.9-8.93,6.13-9.86,8.16-31.73,11.41-39.87-.37-1.47-1.92-4.2-4.71-1.44-6.76,4.33-2.54,5.39-7.46,8.22-11.12.16-.14-.49-.44-.65-.3Z"/><path d="M107.1,67.62c5.8,8-4.52,11.56.76,24.53.12.18.82.07.7-.09-.54-2.46-1.27-5-1.67-7.48-.3-5.16,6.42-14.08.21-17Z"/><path d="M57.09,91.52c-9.33-.82-22.16,2.73-24.51,13-.3,1.82-3.74,10.8-1.83,10.9.63-1.24-.82-1.57-.69-.2l.71.16C33,96.78,40.59,92.13,57.09,91.52Z"/><path d="M45.12,95.49c-3.51,9.65-7.63,23.88-4.66,32.72a74.18,74.18,0,0,1,5.37-32.63c.09-.21-.63-.28-.71-.09Z"/><path d="M52,102.47c-2.48,9.88-7.2,23-5.86,32a160.07,160.07,0,0,1,6.58-31.82c.06-.18-.65-.38-.72-.17Z"/><path d="M59.55,108.55q-1.69,14-4.61,27.76c0,.19.69.33.73.12q2.92-13.77,4.61-27.76c0-.21-.71-.33-.73-.12Z"/><path d="M70.18,112.57l-.83,27.27c0,.18.73.13.73-.1l.65-21.19c-.3-1.16,1-6.89-.55-6Z"/><path d="M79.3,111.46q.42,10.35-.09,20.7c0,.23.69.4.7.24.34-6.92.37-13.86.09-20.78,0-.2-.71-.39-.7-.16Z"/><path d="M90,109.56c.19,3.55-2,16.1.13,17.35q-.1-8.67.6-17.32c0-.2-.72-.24-.73,0Z"/><path d="M111.25,54.46c3.79-2.41,5,5.6,3.1,7.92-1.57,2.43-4.11,4.66-7.06,5,4.5,1.1,10.73-6.53,8.1-11.68-2.15-3.85-6.65-1.16-4.14-1.28Z"/><path d="M110.09,57.58c2.83-5.78,3.15,3.39,1.42,5.26-.27,1.06-4.33,1.52-2.67,1.74,6.57.75,5.13-15.16.55-7.18-.11.2.59.35.7.18Z"/><path d="M74.36,35.3c.66-.55,6.36-1.89,4.51-2C78.14,33.45,72.22,35.25,74.36,35.3Z"/><path d="M80.93,31.23c2.89-.62,6-.32,8.84-.58C88.93,30.05,79.1,30.7,80.93,31.23Z"/><path d="M83.8,34.66c2.27-.71,5.51-.53,7.36-1.21C90.4,33,81.53,34.23,83.8,34.66Z"/><path d="M94.56,33.3c2.46-.29,5.34,0,7.61-.58C101.53,32.5,92.8,32.89,94.56,33.3Z"/><path d="M101.85,36.38c1.49,1,2.77,2.49,4.39,3.14-.49-1.09-2.76-2.12-3.83-3.19-.11-.14-.82-.27-.56.05Z"/><path d="M107.53,41.9c4.28,5.3,6.24,6,.65,0-.1-.16-.77-.28-.65,0Z"/><path d="M109.76,41.49c.87.77,2.64,3.41,3.64,2.58-1.19-.34-2.69-3.37-3.64-2.58Z"/><path d="M109.45,48.81c.28.72-.17,3.6,1.06,2.67-.29-.73.17-3.6-1.06-2.67Z"/><path d="M110.61,49c-.06.64-.15,2.68.86,2.11-.39-.65.32-2.55-.86-2.11Z"/><path d="M95,34.86c1.15-.11,2.81.11,3.71-.51C98.48,34.27,93.8,34.55,95,34.86Z"/><path d="M93.42,31.22c1-.55,2.66-.54,3.33-1.14C96.17,29.74,91.55,31.25,93.42,31.22Z"/><path d="M81.88,29.2c.29-.28,1.83-.67,1.34-1C82.61,28.06,80.25,29.55,81.88,29.2Z"/><path d="M78.24,30.87c.39-.28,1.83-.41,1.63-.84C79.36,29.84,76.54,31.11,78.24,30.87Z"/><path d="M77.78,36c.85-.4,3.11-.62,3.19-1.39C80.59,34.38,75.67,36.08,77.78,36Z"/><path d="M81.32,36.18c2.2-.15,5,.24,6.94-.38C87.7,35.65,79.55,35.73,81.32,36.18Z"/><path d="M91.44,29.53c.67-.39,2.8-1,2.58-1.61C93.6,27.84,89.6,29.83,91.44,29.53Z"/><path d="M88.82,28.27c.76-.39,2.57-.39,2.81-1C91.13,27,87,28.24,88.82,28.27Z"/><path d="M68,87.14c.33,1.92-3.53,11.37-1.79,10.88.3-2,3.73-10.65,1.79-10.88Z"/><path d="M70.61,92.69c.43,2.14-1.38,10.55.4,10.76-.42-2.14,1.38-10.55-.4-10.76Z"/><path d="M78.28,91.85c-1.29,16,.15,16.7.72.19,0-.23-.7-.37-.72-.19Z"/><path d="M84.05,90.85c4.12,17.35,6.1,18.93.74-.06,0-.22-.77-.14-.74.06Z"/><path d="M92.16,87.43c.38,1.83-1.33,8.29.36,8.54-.37-1.83,1.34-8.29-.36-8.54Z"/><path d="M115.88,81c1.05-1.78.21-4.14,1.68-5.74a10.84,10.84,0,0,0,1.79-2.21c2.52-8.78,6.39,6.89,10.57,6.49,3.69.24,7.46,1.12,11.14.85,6.75-3.2,12.1-6.15,6.85,4-1.42,5.45.28,11.22.32,16.78,1.75.63-.18-6.66.15-8.13C145.56,81.76,160,72,139.55,80.23c-17.51-.53-8.5-3.69-18.44-10.2-2.59-.1-1.85,3.3-3.61,4.46-2.11,1.63-1.3,4.33-2.33,6.45-.11.17.59.27.71.09Z"/><path d="M108.4,93A77.24,77.24,0,0,0,148,97.85C135.8,99,119.36,97.24,108.4,93Z"/><path d="M108.18,92.83c-4.8,9.07,4.63,17.94,12.22,21.64,8.54,2.89,17.63-2.25,23.72-8,1.34-1,5.28-9,3.17-8.64a18.93,18.93,0,0,1-2.79,7.24c-7.31,8.89-22.25,14.63-30.74,4.15-4.64-4-8.22-10.35-4.86-16.31.11-.16-.59-.25-.72-.06Z"/><path d="M117.69,89c-2.42-.29-4.52,3.42-2.94,5.28,2.57,2.64,9.47,1.35,7.14-3.22-.69-1.34-3.44-2.64-4.49-1.91,1.32.37,3,.26,3.77,1.71,2.9,4.47-6.35,6.38-6.27,1.79.27-1.41,1.33-3.48,3-3.29.51,0,0-.4-.26-.36Z"/><path d="M133.27,91.41c-2.82-1.3-7.89,3.53-4.3,5.51,2.12.57,5.87,2.15,6.77-.86,1.42-3.23-.73-5.23-3.91-4.75,1,.76,3.35-.13,3.56,1.77s-.44,5-2.92,4.37c-2-.21-5.38-1-3.54-3.63.77-1.23,2.53-2.71,4.08-2.17.27.17.76-.06.26-.24Z"/><path d="M129.36,89.11c1.88-1.56,7.9-1.39,7.63,1.86-.06.21.64.44.7.24,1.17-4.6-11.52-3.39-8.33-2.1Z"/><path d="M115.87,87.21a4.26,4.26,0,0,1,6.74.6c2.68.07-4.45-4.67-7.45-.65,0,.25.58.21.71,0Z"/><path d="M92,53.33c-2.45-.18-.76,3.34,1,1.9,1-.51.76-2.41-.51-2-.27.13-.56.42-.79.24"/><path d="M75.37,51.71c-2.48.1-.78,3.5,1,2.09,1.22-.91-.18-2.87-1.34-1.79"/><path d="M146.39,102.87c6.49,0,13.2,1.26,19.44,2C160.38,103.67,149.93,102,146.39,102.87Z"/><path d="M144.76,105.49c7.51.63,16.07,3.66,22.81,4.37C160.41,108.19,151.25,105.32,144.76,105.49Z"/><path d="M142.13,108.18c7.33,2.26,16.08,6.42,22.73,7.75C157.53,113.68,148.78,109.51,142.13,108.18Z"/><path d="M108.65,93.31c-3.93-2.55-8.32-4.88-12.87-5.78,4,1.66,8.61,3.14,12.31,5.87.12.15.84.2.56-.09Z"/><path d="M107.73,96.27c-6.1-1.14-12.83-2.49-18.81-2.22,5.77.24,14.42,2,18.81,2.22Z"/><path d="M107.13,99.72a83.42,83.42,0,0,0-18.42,0c2.17.91,6.61-.52,9.53-.18,1.28-.36,10.4.91,8.89.13Z"/><path d="M148.05,100.32c.3,11.88-12.84,17.82-23.09,15.94,8.14,2.1,18.54-1.2,22.37-9.23.59-1.43,2.67-6.5.72-6.71Z"/><path d="M141.75,114.28a42.59,42.59,0,0,1,8.82,18.84c.72,1.35-.86,6.94.64,6.55,1.64-6.59-4.26-22.61-9.46-25.39Z"/><path d="M112.11,113.72c-5.26,2.79-15,23.4-10.65,27.42-1-9.32,4.32-21.1,11.25-27.16.24-.12-.43-.35-.6-.26Z"/><path d="M115.16,80.94c-3.35,6.31-9.22,12.12-8,19.94.68,7.22,6.4,14.52,13.93,14.63-10.31-1.37-16-13.48-12.08-22.83,0-2.42,8.57-11.76,6.11-11.74Z"/><path d="M104.52,126.4c3.27,1.5,6.9,3.29,10.4,3.64-3.25-1.15-6.86-2.09-10-3.82C104.73,126.12,104.09,126.18,104.52,126.4Z"/><path d="M132.86,125.72a40.54,40.54,0,0,0,9.39-2.3c.36-.14-.33-.3-.51-.24C140.63,124.12,131.14,125.48,132.86,125.72Z"/><path d="M138.3,130.69c1.2-.2,10-2,8.15-2.65C145.43,128.91,136.45,130.27,138.3,130.69Z"/><path d="M141,137.18a67.88,67.88,0,0,0,10.21-1.85c.49-.13.09-.35-.22-.26C148.32,136.21,142.26,136.2,141,137.18Z"/><path d="M101.47,103.3l-1,23.19c0,.23.72.33.73.15l1-23.2c0-.23-.72-.33-.73-.14Z"/><path d="M101.92,80.87c-.06,3.76-1.71,12.9.53,15.08a67.47,67.47,0,0,1,.17-14.83c0-.23-.68-.42-.7-.25Z"/><path d="M118.15,91.33a1,1,0,1,0,.45,2c1.45-.65.25-2.54-1.08-1.93"/><path d="M131.86,93.53c-1.51.28-.59,2.37.74,2,2-.48.35-2.35-1-1.75"/><path d="M147.34,98.17c-4.43-4.81-4.07-12-4.66-18.1-2.31-.85,1.34,19.52,4.66,18.1Z"/><path d="M109.09,92c4.36-6.24,12-9.84,18.24-14,.61-2.32-23.18,14.74-18.24,14Z"/><path d="M147.05,98.13c2.14.11.79-.61-.33-.92-1,.14.64.64,1,.85l.27-.25C147.58,97.76,146.07,97.9,147.05,98.13Z"/><path d="M107.38,122.39c4.07.93,11.08,3.5,13.9,3C116.93,125,110.6,122.43,107.38,122.39Z"/><path d="M101.88,134.43c3.91,1.17,8.14,2.47,12.19,2.39-3.58-.82-8-1.22-11.69-2.66C102.2,134.1,101.52,134.3,101.88,134.43Z"/><path d="M123.6,96.86a.76.76,0,0,1,.56-.58c1-.28,1.63,2.14,2.38,1.13-1.77-3.28-5.09.21-2.94-.55Z"/><path d="M123.56,97.16c2.39.78,2.34-.13,0-.49l.27.28a1.75,1.75,0,0,1,.64-.18c-.13,0,.23,0,.07,0,0,0,.17,0,0,0h0c.08,0-.13,0,0,0h0c.06,0,0,0,0,0s.09.09,0,0a.44.44,0,0,1,.13.21c.1.17.66.32.71.06-.27-1.18-3.61-.31-1.52,0a4.45,4.45,0,0,1,.94.36l.14-.24c-.13,0-.48,0-.46,0a3.29,3.29,0,0,1-.43-.09h0C124,96.88,122.9,96.8,123.56,97.16Z"/><path d="M119.09,72.47c3.38,8.83-1.36,11.74,7.11,6.2,1.77-.82.51-2.64-.49-3.55-1.34-1.85-2.61-6.1-5.6-4.67"/><path d="M142,79.65c13.49-7,9.48,3.67.94,7.61-.21-2.25-1.36-4.63-.53-7.05"/><path d="M103.64,67.44c.59,0,.58-.4,0-.4s-.57.4,0,.4Z"/><path d="M67.79,59.76c7.4.5,15,.68,22.13,2.92,4.38,1.52,8,6.24,13.06,4.83-4.37.57-8.47-3.46-12.92-5.19C83.32,60.53,73.52,59.21,67.79,59.76Z"/><path d="M107.31,46c-1.61,3.49-1.39,10.74,2.75,11.45-5.79-4-.8-12.19-2.75-11.45Z"/><path d="M113.67,45.65a4,4,0,0,0-1.29,2.18c1,.78,1-1.66,1.93-2,.17-.26-.51-.29-.64-.17Z"/><path d="M101.23,38.63c1.09.91,2.23,2.27,3.63,2.56-.56-.86-2.21-1.53-3-2.52-.1-.16-.75-.34-.65,0Z"/><path d="M103.94,32.83c.63.31,2.48,2,2.72,1.12-.81-.16-2.18-1.89-2.72-1.12Z"/><path d="M104.09,34.15c1.39.7,3,3.72,4.4,3.28-1.21-.76-3.22-3.93-4.4-3.28Z"/><path d="M89.34,31.8c-1.1,0-2.69-.31-3.55.28.24.06,4.79.1,3.55-.28Z"/><path d="M91.87,34.73c-.5-.07-3.79,0-2.37.34.47-.14,3.51.14,2.37-.34Z"/><path d="M96.93,36.42c.5.25,2.52,2.21,2.41,1.34-.49-.25-2.51-2.21-2.41-1.34Z"/><path d="M99.21,31.46c1.15-.17,2.49.08,3.54-.32C102.71,30.81,97.94,31.12,99.21,31.46Z"/><path d="M94.25,80.93c6.64-2.33,18.86-17.82,15.23-24C110.49,66.91,99.38,76.9,94.25,80.93Z"/><path d="M31.45,154.8c-2.62-.94-5.4-1.36-8-2.33a8.73,8.73,0,0,1-3.65-2.1,6,6,0,0,1-1.29-2.45c-.75-3.3,3.7-4,6-4a17,17,0,0,1,4.71.46,9.79,9.79,0,0,1,3,.94,4.06,4.06,0,0,1,1.86,2.57c.55,2.69-2,4.37-4,5.54a24.83,24.83,0,0,1-7.34,2.7c-5.83,1.23-11.87,1-17.78.69-.13,0-.68.06-.44.29a54.17,54.17,0,0,0,9.71,7.11,42.5,42.5,0,0,0,6.46,3.26,15.67,15.67,0,0,0,5.87,1.27A4.84,4.84,0,0,0,31,166.36c.14-.26-.83-.39-1-.13-1.79,3.33-6.17,1.94-8.92.84A52.63,52.63,0,0,1,9.6,160.32a40.33,40.33,0,0,1-4.19-3.42l-.44.29c5.72.26,11.52.49,17.19-.52A27.84,27.84,0,0,0,30,154.14c2.13-1.08,5-2.69,5.16-5.39.11-2.4-2.06-4.06-4.22-4.49a31.19,31.19,0,0,0-5.36-.77,15.56,15.56,0,0,0-5.3.64c-1.23.41-2.56,1.18-2.83,2.55a3.89,3.89,0,0,0,.52,2.49,6.14,6.14,0,0,0,1,1.53,8.11,8.11,0,0,0,2,1.3c3,1.56,6.51,1.92,9.71,3.06a.9.9,0,0,0,.7,0c.13-.09.24-.2,0-.28Z"/><path d="M93.76,160.66a23.57,23.57,0,0,1-5.11-.15c-.62-.11-1.57-.26-1.91-.87-.66-1.17,1.49-2.32,2.25-2.68a12.12,12.12,0,0,1,6.18-1.21,6.72,6.72,0,0,1,3,.93,1.07,1.07,0,0,1,.56.71c.12.41.23.82.32,1.24a12,12,0,0,1,.26,2.46c0,6.56-5.28,11.78-10.92,14.32a19.71,19.71,0,0,1-9.5,1.84c-.37,0-.74-.07-1.11-.12a1.63,1.63,0,0,1-.58-.13c-.32-.18-.26-.48-.14-.8a2.41,2.41,0,0,1,1.81-1.41c1.69-.39,3.38.24,5,.73,6.14,1.9,14.07,5,20,.95a11.54,11.54,0,0,0,2.06-1.83c.19-.22-.73-.54-.92-.32-5.92,6.61-15.26,2.49-22.31.44a8.21,8.21,0,0,0-5-.24A2.55,2.55,0,0,0,76.08,176c-.34.89.41,1.36,1.2,1.49a20.51,20.51,0,0,0,10.21-1c6.26-2.23,12.51-7.63,12.77-14.72a12.12,12.12,0,0,0-.16-2.48c-.07-.44-.17-.88-.28-1.31a2.12,2.12,0,0,0-.49-1.12,7.45,7.45,0,0,0-3.26-1.38,13,13,0,0,0-7,.73,8.42,8.42,0,0,0-2.5,1.4,2,2,0,0,0-.89,1.54c.07.71.81,1.11,1.39,1.34a11.67,11.67,0,0,0,3.93.66c1.06.05,2.13,0,3.19,0,.65,0-.1-.47-.41-.45Z"/><path d="M54.89,175.89c-15.36-.08-15.36-23.42,0-23.5C70.25,152.47,70.25,175.81,54.89,175.89Zm0-23c-14.56-.2-14.56,22.66,0,22.45C69.45,175.56,69.45,152.71,54.89,152.91Z"/><path d="M59.51,153.31c.89-.3,1.21-1.37,2.1-1.67l-.44-.09c.2.75-.59,3.35.51,3-.11-1.4.59-4.54-1.51-2.26C60,152.69,58.47,153.41,59.51,153.31Z"/><path d="M63.55,156.3a3,3,0,0,1,.52-.09h.21l-.26-.1a2.36,2.36,0,0,1-.08.45v0c-.3.82.74.23.59-.43C64.28,155.74,62.5,156.29,63.55,156.3Z"/><path d="M61.84,151.69c5.38.44.38-3.87-1.39-1.61-.23.74.64,1.59,1.34,1.52-.11-.35-1-.59-.86-1.24.44-2,5,.89,1.65,1.12C62.2,151.33,60.82,151.54,61.84,151.69Z"/><path d="M64.37,156.13c.51.91,2.14.43,1.8-.67a1.66,1.66,0,0,0-2.48-.77c-.42.55.33,1.48.92,1.43.1,0,.11-.09,0-.14-.63-.3-.8-1.38,0-1.37h.08c.91,0,1.36,1.65.36,1.76h0c-.12,0-.52-.6-.74-.25Z"/><path d="M65.59,159.43a23.63,23.63,0,0,1,3.26.07l-.13-.1c-4.06,3.52-2.16,2.8.51,0C69,159.1,64.65,159.08,65.59,159.43Z"/><path d="M68.83,159.66c0,1.41,2.31,1.17,2.76.16.8-2.09-3.57-2-2.59-.12.09.09.58.11.46-.08-.32-.27,0-.79.25-1a.9.9,0,0,1,1.42.92c-.11.89-1.89,1.28-1.77.11,0-.13-.49-.18-.53,0Z"/><path d="M55.58,152.37a1.87,1.87,0,0,1,.07-.22v0a1.77,1.77,0,0,1,.38-.58s0,0,0,0c-.29-.08-.39-.09-.3,0s0,.05,0,.06v0c0,1.34,1.09.74.38-.15-.7-.46-1.56,1.45-.54.93Z"/><path d="M55.79,151.41c1.61.7,2-1.63.28-1.64-2.11-.49-2.27,1.89-.07,1.45.67-.36-1,0-1-.46-.49-1.5,2.73-.72,1.57.46C56.38,151.44,55.58,151,55.79,151.41Z"/><path d="M51,148.37c-3-.48-2.68,2.83.11,2.15a1,1,0,1,0-.64-1.88c-.14.18.34.21.44.14.3-.1.56.31.57.57.1,1.66-2.94,1.08-2-.37.13-.57,2.37-.28,1.49-.61Z"/><path d="M50.82,153.38a15.23,15.23,0,0,1,.13-2.86l-.48.08a12,12,0,0,1,2.26,1.94l.24-.15c-.45-.1-3.29.55-2.11.64,3.59-.69,2.31-.63,0-2.56-.85-.53-1,3.81-.09,2.91Z"/><path d="M66.62,164.32l1.54.77-.1-.2c-3.15.18-1.59.63.39.25C68.68,164.93,66,163.71,66.62,164.32Z"/><path d="M68.18,165.2c-.46,2.14,2.43.86,1.74-1-.23-1.32-2,.06-1.81.93.75.43.51-1.14,1.26-1.25h-.11a2.06,2.06,0,0,1-.25,2.14c-.41.08-.57-.58-.32-.86,0-.18-.42-.11-.51,0Z"/><path d="M64.5,170.67c1.22.13,2.66.66,3.8.38-.44-1.16-1.51-2.56-2.83-2.58.62.61,2.06,1.36,2.3,2.6l.33-.11C67.13,171.09,64.8,170.11,64.5,170.67Z"/><path d="M67.71,171.11a1.07,1.07,0,0,0,1.56,1.4c1.47-1.32-.63-3.28-1.53-1.35.39.54.64-.43,1-.55.88,0,.49,1.69-.12,1.92h0c-1-.11.07-1.91-.91-1.42Z"/><path d="M62.25,173.46c.46.19,1.13.66,1.59.43-.12-.56.18-1.6-.32-1.89-1.93.89-1.58,2.45.19.16l-.5-.1c.06.59.1,1.17.12,1.76l.34-.06C63.3,173.79,62.25,173,62.25,173.46Z"/><path d="M63.38,173.78c-1.38,1.49,1.79,2.34,2.21.7.26-1.16-2-1-2.53-.38,0,.18.39.21.5.1,2.47-1.54,1.47,1.91.11.69-.48-.48.69-1.32-.29-1.11Z"/><path d="M57.32,175.42c.67.94,1.42,2.68,2.57,2.86.31-2.73,1.26-4.54-2.32-3.11.32.69,1.85-.27,2.54-.36l-.44-.18a14.52,14.52,0,0,1-.27,3.48l.45.08c-1-.56-1.58-2.82-2.53-2.77Z"/><path d="M59.36,178.1c-2.17,2.06,2.28,2.56,1.27.29-.16-.38-1.6-.39-1.07,0,.21.11.44-.11.48-.08s0,0,0,0h0c-.08,0,.08,0,0,0,.76.45-.26,1.4-.5,1.4l0,0c-.84-.56,1.09-1.83-.14-1.6Z"/><path d="M53.9,175.88c1,4.87,3-3.65.53,1.42l.5.07c-.26-.44-.35-2-1-1.49Z"/><path d="M54.63,177.22c-2.7,1,1.14,3.13,1.14.62,0-1.19-2.08-.36-.7-.48h-.13c.6.29.2,1.41-.25,1.46h0l-.1,0c-1.46-.78,1.4-1.69.06-1.58Z"/><path d="M47.07,155.53c.13-.39-.29-.59-.51-.26s.29.59.51.26Z"/><path d="M47.06,155.44l-.23-1.57-.21.08a2,2,0,0,1,.21,0l.14.06,0,0c1.63.6-1.48,1.33,0,1.41,1.53-.68.82-1.54-.52-1.76-.49.1.09,1.18,0,1.64.07.13.45.26.5.08Z"/><path d="M47,153.56c1.27-2-4.19-1.24-2,.39.53.39,2.12.46,1.73-.53-.09-.12-.52-.15-.51,0,.23,1.4-2.17-.18-.79-.8.51-.34,1.68.15,1.08.79-.13.18.35.2.45.12Z"/><path d="M42.07,157.12a.7.7,0,0,0,0-1.37c-1.16-.56-4.12,1.16-2.62,2.38,4.36,3.21,2.55-4.72,2.21.2-.57.83-1.65-.11-2.07-.66-.31-.92,1-1.6,1.77-1.82s1.08.84.44,1.09C41.47,157.05,41.93,157.2,42.07,157.12Z"/><path d="M41.64,157.79c.36.88,1.79,2.91,2.67,2.3-1.2-.16-2-2.8-2.67-2.3Z"/><path d="M42.07,158a18.92,18.92,0,0,0,2.68.43l-.25-.14c-.21.42-1.39,2.16-.28,1.71,0-.54,1.13-1.61.54-1.78C44.13,158.37,42,157.49,42.07,158Z"/><path d="M43.19,163c-.52.29-1.56.37-1.8.81.53.26,1.33.59,1.86.27-.34-.22-1-.1-1.42-.45l-.08.16c.39-.18,2.48-.82,1.44-.79Z"/><path d="M41.93,163.73c.14-3.21-4.42-.07-1.34.92,1.06.42,1.8-1.47.65-.85a.45.45,0,0,1-.29.65s-.06,0,0,0c-.92,0-1.3-1.76-.11-1.9H41a.86.86,0,0,1,.28.13l0,0c.1.43,0,1.63.7,1.08Z"/><path d="M43.32,167.1c-5.43,1.94-1.47,2.6,1.47,2.37a15.69,15.69,0,0,1-4-.73l.1.13c.3-.56,3.89-1.82,2.47-1.77Z"/><path d="M40.59,168.7c.8-1.17-2-1.21-2.11-.21-1.09,3.92,5.31,2.12,2-.28-1.29-.31,1.83,1.38-.39,2.39-1.25.31-1.69-2.29-.57-2.55.36-.2,1,.15.62.54-.12.18.35.19.45.11Z"/><path d="M46.24,172c-1.23,1.91-.87,2.11,1.15,1.34.18-.53-1.32.32-1.73.24l.27.09c0-.51,1.41-2.19.31-1.67Z"/><path d="M45.74,173.74c-.76-.65-2.66-.51-2.61.75a1.49,1.49,0,0,0,2.86-.82c0-.14-.54-.2-.5,0,.53,2.37-3.28,1.69-1.28.08.45-.49,1.46.51,1.53,0Z"/><path d="M48.85,174c-1.25,4.85.4,4.24,3.14,1.19-.88-.58-2.29,2-3.43,2.37l.48.14c-.51-.87.88-3.92-.19-3.7Z"/><path d="M48.9,177.55c-2.43-.53-2.74,2.58-.17,1.73,1.27-.34,1.07-2.25-.34-1.78-.24.16.26.24.36.16l0,0h-.06c1.65,1.14-2.34,2.53-1.11.4.14-.43,2.13-.17,1.27-.49Z"/><path d="M49.17,174.53c.86,0,1.62.6,2.43.67C51.91,174.84,48.44,174,49.17,174.53Z"/><path d="M48.29,158.83c-2.41,3.5,5,3.95,3.28.16-.6-2-5.47-.49-2.85.6.38,0,.08-.27-.13-.21-.32-.47.25-1.21,1-1.21,2-.17,2.22,3.45.19,3.3-3-.17-.21-3.07-1.54-2.64Z"/><path d="M55.34,158.78c-2.35,2,1.06,3.89,2.83,2.52.92-1.2-.65-2.39-1.81-2.43-.76-.1-2-.12-2.29.74,0,.12.45.27.51.12.24-.6,1-.7,1.55-.66,1,0,2.18.8,1.68,1.88-1.5,1.56-4.05-.32-2-2,.1-.1-.37-.28-.48-.18Z"/><path d="M53.23,165.13c-5,4.3,5,5.82,1.66.67-.58-.53-1.77-.79-2.27,0-.07.14.43.24.5.12.34-.61,1-.33,1.42.07,2.43,4.76-5.24,3.05-.81-.7,0-.17-.38-.22-.5-.12Z"/><path d="M49.14,164.93c.64.72,2.28-.26,1.28-1-.48-.31-1.43.13-1.07.76.65.25.35-.31.53-.57,0,0,.1-.08.06-.06h0s0,0,0,0h0s0,0,0,0a.49.49,0,0,1,.07.87l-.07,0s.05,0,0,0,.05,0,0,0,0,0,0,0-.05,0,0,0h-.1c-.17-.15-.63-.3-.68,0Z"/><path d="M62,166.81c-1.09,1.1,1.17,2,1.54.68.16-1.91-2.94-.13-1.14-.67l.11,0h0a.41.41,0,0,1,.17,0s.17.09.14.09a.62.62,0,0,1-.19,1c.07,0-.07,0,0,0s-.07,0,0,0h0s-.09,0,0,0a.54.54,0,0,1-.11-.06.67.67,0,0,1,0-1c.11-.2-.36-.16-.46-.07Z"/><path d="M56.63,170.84c-2.85,4.55,7.36,1.13,1.75-.45-.6,0-2.31.1-1.91,1,.82.29.12-.54.83-.66,1.58-.86,3.23,1.33,1.22,2-1.48.58-2.57-.65-1.38-1.89,0-.18-.43-.15-.51,0Z"/><path d="M48.05,170.11c-.06.86,1,1.57,1.62.79s-.88-1.89-1.48-1c-.29.4.39.72.52.35a.37.37,0,0,1,.15-.51s.09,0,0,0,0,0,0,0h0c.61.22.36,1.33.18,1.2-.51-.11-.3-1.48-1-.88Z"/><path d="M61.1,160.66a.84.84,0,0,0,1.44.84,1.1,1.1,0,1,0-1.66-1.43c-.42.52.47,2.1,1,1.42-.39-.39-.87-1.19-.29-1.61h.14c.8.16.71,1.43.17,1.79-.49-.14,0-1.64-.77-1Z"/><path d="M52.88,155.81c.85.52,3,0,1.9-1.19-.71-.63-2.72-.64-2.46.69.49,1.13,2.33-.19.69.25h0s0,0,0,0c-1.2-1.41,2.47-1.49,1.3,0C54.12,156.1,52.25,155.3,52.88,155.81Z"/><path d="M105.79,175.15a17.51,17.51,0,0,1,8.67-7.23,27.71,27.71,0,0,1,11.14-1.5,66.47,66.47,0,0,1,11.65,1.74c1.8.41,3.65.79,5.41,1.36a36.22,36.22,0,0,0,5.91,1.38,31,31,0,0,0,20.68-4.52c6.48-4,11.76-9.66,16.36-15.63a210.5,210.5,0,0,0,12.65-19.06l1.39-2.27c.12-.2-.79-.58-1-.31-4,6.49-7.89,13-12.39,19.13s-9.66,12.09-16,16.47c-6,4.19-13.19,6.59-20.6,5.89-3.92-.37-7.64-1.72-11.45-2.62A76.24,76.24,0,0,0,126.76,166c-7.29-.57-15.25.56-20.23,6.46a20.56,20.56,0,0,0-1.69,2.35c-.12.2.78.59,1,.31Z"/><path class="cls-1" d="M140.31,167.8c-.07,15.22-23.2,15.22-23.27,0S140.25,152.59,140.31,167.8Z"/><path d="M127,179.55c-15.16-2.44-11.58-25.5,3.61-23.22C145.74,158.77,142.15,181.83,127,179.55Zm3.53-22.7c-14.36-2.44-17.86,20.15-3.44,22.18C141.4,181.47,144.91,158.88,130.49,156.85Z"/><path d="M135,158c.92-.16,1.41-1.17,2.33-1.32l-.42-.16c.08.77-1.1,3.21,0,3,.11-1.4,1.29-4.4-1.14-2.46C135.6,157.41,134,157.89,135,158Z"/><path d="M138.53,161.52a3,3,0,0,1,.53,0l.21,0-.25-.14a2.16,2.16,0,0,1-.14.43v0c-.42.77.7.34.65-.33C139.34,161.09,137.49,161.36,138.53,161.52Z"/><path d="M137.55,156.71c5.25,1.26,1-3.77-1.13-1.8a1.35,1.35,0,0,0,1.1,1.7c-.06-.36-.92-.74-.66-1.36.74-1.91,4.76,1.65,1.45,1.37C138,156.41,136.56,156.41,137.55,156.71Z"/><path d="M139.37,161.49c.36,1,2,.75,1.88-.39a1.65,1.65,0,0,0-2.33-1.14c-.5.48.1,1.51.69,1.56.1,0,.12-.08,0-.14-.57-.4-.58-1.49.23-1.35l.08,0c.91.14,1.09,1.84.09,1.8h0c-.11,0-.42-.68-.69-.36Z"/><path d="M140.07,164.93a23.49,23.49,0,0,1,3.21.58l-.12-.13c-4.54,2.86-2.56,2.44.5.09C143.44,165.12,139.19,164.44,140.07,164.93Z"/><path d="M143.24,165.65c-.26,1.39,2.1,1.52,2.69.59,1.12-1.94-3.21-2.56-2.53-.52.07.11.55.2.46,0-.28-.31.11-.78.4-.92a.9.9,0,0,1,1.26,1.13c-.24.86-2.06,1-1.77-.16.05-.12-.46-.26-.51-.11Z"/><path d="M131.26,156.42l.1-.21v0a1.75,1.75,0,0,1,.46-.51s.06,0,0,0c-.28-.13-.38-.15-.3-.07s0,.05,0,.07v0c-.21,1.32,1,.89.4-.1-.62-.56-1.77,1.2-.68.84Z"/><path d="M131.62,155.5c2.36.93,1.71-2-.31-1.72-1.75.07-.75,1.83.54,1.57.72-.25-1-.14-1-.61-.26-1.57,2.8-.3,1.47.68-.16.2-.89-.34-.74.08Z"/><path d="M127.33,151.76c-2.87-.93-3.07,2.38-.22,2.15a1,1,0,1,0-.34-2c-.16.15.3.26.42.2.3-.05.5.4.47.66-.15,1.65-3.07.61-1.88-.67.21-.54,2.38.08,1.55-.38Z"/><path d="M126.4,156.69a15.06,15.06,0,0,1,.57-2.81h-.49a11.36,11.36,0,0,1,1.94,2.26l.26-.11c-.43-.17-3.34,0-2.19.31,3.65-.13,2.39-.26.45-2.53-.77-.65-1.55,3.62-.54,2.87Z"/><path d="M140.33,169.92l1.41,1-.07-.21c-3.14-.31-1.67.37.35.31.25-.18-2.23-1.8-1.69-1.1Z"/><path d="M141.75,171c-.79,2.08,2.29,1.17,1.86-.69,0-1.34-2-.25-1.93.64.67.54.67-1,1.43-1l-.11,0h0a2.06,2.06,0,0,1-.58,2.07c-.41,0-.47-.66-.18-.9,0-.17-.4-.18-.5-.07Z"/><path d="M137.27,175.87c1.18.31,2.52,1.06,3.69,1-.26-1.21-1.1-2.76-2.4-3,.52.7,1.83,1.66,1.88,2.92l.34-.06C139.8,176.7,137.64,175.37,137.27,175.87Z"/><path d="M140.37,176.8a1.07,1.07,0,0,0,1.32,1.63c1.66-1.08-.11-3.34-1.3-1.58.3.6.7-.32,1.07-.39.87.11.23,1.75-.41,1.88,0,0-.05,0,0,0-1-.26.36-1.89-.68-1.55Z"/><path d="M134.61,178.28c.43.26,1,.83,1.51.67,0-.57.42-1.55,0-1.92-2,.59-2,2.22.17.19l-.49-.17a17.41,17.41,0,0,1-.15,1.76H136c-.37,0-1.28-1-1.36-.52Z"/><path d="M135.68,178.78c-1.59,1.25,1.41,2.58,2.08,1,.43-1.12-1.81-1.31-2.45-.77-.06.17.36.26.48.18,2.68-1.14,1.16,2.11,0,.69-.4-.54.88-1.2-.12-1.13Z"/><path d="M129.44,179.46c.52,1,1,2.87,2.11,3.23.71-2.65,1.93-4.3-1.83-3.43.22.72,1.88,0,2.57,0l-.41-.25a13.79,13.79,0,0,1-.8,3.4l.43.14c-.92-.7-1.13-3-2.07-3.12Z"/><path d="M131.05,182.42c-2.48,1.61,1.88,2.91,1.2.49-.09-.4-1.52-.64-1.05-.16.18.14.45,0,.48,0s0,0,0,0h0c-.08,0,.07,0,0,0,.68.57-.47,1.35-.71,1.31l0,0c-.74-.68,1.36-1.64.11-1.61Z"/><path d="M126,179.4c.23,5,3.51-3.15.31,1.47l.48.15c-.19-.48,0-2-.79-1.62Z"/><path d="M126.5,180.83c-2.82.57.65,3.27,1,.79.12-1.22-2-.66-.61-.59,0,0-.18,0-.13,0,.55.38,0,1.42-.47,1.4h0c.1,0-.08,0,0,0l-.09,0c-1.33-1,1.64-1.46.29-1.55Z"/><path d="M122.37,158.24c.19-.37-.2-.63-.47-.34s.2.62.47.34Z"/><path d="M122.37,158.15v-1.59l-.22,0,.2.08.13.08,0,0c1.52.85-1.67,1.09-.17,1.4,1.62-.43,1.05-1.4-.24-1.82-.5,0-.1,1.19-.22,1.63,0,.14.41.33.48.16Z"/><path d="M122.6,156.28c1.37-1.3-2.61-2.17-2.38-.45.16.85,2.37,1.56,2.17.27-.07-.13-.48-.22-.5,0,0,1.41-2.12-.52-.67-.92.57-.25,1.65.41,1,1C122,156.25,122.49,156.35,122.6,156.28Z"/><path d="M117.18,159a.71.71,0,0,0,.22-1.36c-1.06-.73-4.24.52-3,1.95,3.8,3.85,3.24-4.25,2.15.54-.69.73-1.61-.36-1.94-1-.17-.95,1.28-1.42,2-1.52s.94,1,.27,1.14C116.6,158.88,117,159.09,117.18,159Z"/><path d="M116.65,159.63c.23.93,1.32,3.15,2.29,2.69-1.18-.35-1.45-3-2.29-2.69Z"/><path d="M117.05,159.93a18,18,0,0,0,2.58.83l-.23-.17c-.28.38-1.7,1.92-.54,1.64.07-.53,1.37-1.41.81-1.67C119,160.59,117.06,159.39,117.05,159.93Z"/><path d="M117.38,165.06c-.56.2-1.6.12-1.9.52.48.34,1.22.8,1.79.56-.3-.28-1-.26-1.34-.66l-.09.14c.41-.12,2.57-.43,1.54-.56Z"/><path d="M116,165.55c.31-1.26-.74-2-1.85-1.34-1.28.82.17,2.65,1.37,2,.62-.23.22-1.17-.22-.7a.44.44,0,0,1-.39.6h0c-.91-.12-1-1.93.18-1.89h.09s0,0,.07,0a.88.88,0,0,1,.26.17l0-.05c0,.44-.21,1.61.53,1.17Z"/><path d="M116.88,169.09c-5.66,1.08-1.85,2.35,1.09,2.57a15.4,15.4,0,0,1-3.88-1.34l.08.15c.42-.54,4-1.17,2.71-1.38Z"/><path d="M113.94,170.25c1-1-1.78-1.5-2-.52-1.68,3.7,4.92,2.9,2,0-1.23-.5,1.59,1.65-.75,2.3-1.28.12-1.32-2.52-.17-2.6.38-.14.94.3.52.62C113.36,170.24,113.83,170.32,113.94,170.25Z"/><path d="M119,174.41c-1.52,1.69-1.19,2,.92,1.49.26-.49-1.35.12-1.74,0l.25.14c.1-.5,1.73-2,.57-1.6Z"/><path d="M118.26,176c-.66-.76-2.55-.9-2.7.35a1.49,1.49,0,0,0,3-.37c0-.14-.5-.29-.49-.12.17,2.43-3.5,1.17-1.27-.12.52-.41,1.37.73,1.51.26Z"/><path d="M121.28,176.77c-2,4.6-.25,4.25,2.93,1.66-.79-.71-2.58,1.66-3.76,1.81l.46.21c-.37-.94,1.47-3.74.37-3.68Z"/><path d="M120.79,180.28c-2.32-.91-3.1,2.13-.43,1.68,1.3-.14,1.4-2.06-.06-1.81-.27.12.22.27.33.21h.05l-.06,0c1.45,1.39-2.7,2.15-1.16.23.21-.4,2.13.16,1.33-.28Z"/><path d="M121.52,177.33c.84.18,1.51.84,2.31,1C124.18,178.05,120.89,176.68,121.52,177.33Z"/><path d="M123.06,161.68c-2.91,3.1,4.34,4.68,3.22.66-.28-2.08-5.33-1.32-2.91.16.38,0,.13-.25-.09-.23-.25-.51.43-1.16,1.22-1,2,.14,1.66,3.75-.32,3.29-2.93-.63.27-3.07-1.12-2.85Z"/><path d="M130,162.72c-2.63,1.59.45,4,2.4,2.92,1.1-1-.27-2.46-1.41-2.68-.73-.22-1.9-.41-2.38.38-.06.11.4.34.49.2.33-.56,1.08-.54,1.63-.42,1,.11,2,1.13,1.38,2.12-1.72,1.31-4-.94-1.66-2.28.11-.08-.32-.33-.45-.24Z"/><path d="M127,168.67c-5.66,3.47,4,6.51,1.54.91-.49-.61-1.63-1.05-2.24-.39-.1.13.38.31.47.2.43-.55,1.08-.16,1.39.29,1.68,5.07-5.64,2.21-.69-.82.07-.16-.34-.27-.47-.19Z"/><path d="M123,167.84c.52.81,2.29.09,1.41-.79-.42-.38-1.43-.09-1.17.58.61.35.39-.24.62-.47,0,0,.11-.07.06,0s.09,0,0,0h0s0,0,0,0h0s0,0,0,0h0a.49.49,0,0,1-.06.87l-.08,0s.05,0,0,0,.06,0,0,0,0,0,0,0,0,0,0,0l0,0,0,0c-.14-.17-.58-.39-.67-.11Z"/><path d="M135.37,171.67c-1.76,1.76,2.74,1.85,1.13,0-.54-.61-2.16.33-.74,0a.37.37,0,0,1,.12,0h0a.47.47,0,0,1,.17.07l.13.1a.63.63,0,0,1-.36,1h0c-.09,0,0,0,0,0,.09,0-.06,0,0,0s-.08,0,0,0a1.15,1.15,0,0,1-.1-.08.67.67,0,0,1,.14-1c.14-.18-.33-.22-.44-.14Z"/><path d="M129.46,174.83c-3.52,4.06,7.1,2.25,1.8-.17-.6-.08-2.3-.26-2,.72.77.42.2-.51.93-.52,1.69-.61,3,1.8.9,2.16-1.56.34-2.44-1-1.08-2.08,0-.17-.4-.21-.5-.11Z"/><path d="M121.09,172.79c-.18.85.78,1.71,1.49,1s-.58-2-1.32-1.18c-.35.36.28.78.46.43a.37.37,0,0,1,.22-.48s.1,0,0,0h-.08l.05,0c.58.32.15,1.37,0,1.22-.48-.19-.07-1.51-.84-1Z"/><path d="M135.44,165.46a.83.83,0,0,0,1.29,1c1.16-1-.32-2.7-1.41-1.66-.5.45.14,2.15.73,1.55-.32-.44-.67-1.31,0-1.63-.06,0,.09,0,0,0h0l.09,0c.76.29.48,1.52-.11,1.8-.46-.22.28-1.62-.61-1.11Z"/><path d="M128.06,159.4c.76.65,2.93.46,2.07-.88-.61-.73-2.6-1.05-2.54.31.07.92,2.19.5.83.27a.25.25,0,0,1-.19.08h0s0,0,0,0,0,0,0,0c-1-1.58,2.67-1.1,1.28.22C129.25,159.88,127.52,158.8,128.06,159.4Z"/></g></svg>