<svg xmlns="http://www.w3.org/2000/svg" viewBox="0 0 203.84 200.78"><defs><style>.cls-1,.cls-3{fill:#fdfdfd;}.cls-1,.cls-2{stroke:#000;stroke-miterlimit:10;}.cls-2{fill:none;}</style></defs><g id="Layer_12" data-name="Layer 12"><path class="cls-1" d="M154.13,56.2a8,8,0,0,0,.5-2.74,7.75,7.75,0,0,0-.72-3.27,8,8,0,0,0,.18-12.81,10.88,10.88,0,1,0-17.81-12,6.72,6.72,0,1,0-5.81,10.31,10.25,10.25,0,0,0,8.47,16h.2a8.28,8.28,0,0,0-.2,1.74,7.84,7.84,0,0,0,7.84,7.84h.3a7.22,7.22,0,0,0-.3,2,7.14,7.14,0,1,0,7.35-7.12Z"/><path class="cls-2" d="M5.56,186S89.63,101.5,193.13,176"/><ellipse class="cls-2" cx="27.26" cy="183.31" rx="10.57" ry="4.32" transform="translate(-97.43 46.21) rotate(-33.83)"/><ellipse class="cls-2" cx="103.68" cy="158.83" rx="18.57" ry="4.46"/><ellipse class="cls-2" cx="131.4" cy="187.8" rx="4.96" ry="12.01" transform="translate(-83.72 266.9) rotate(-75.21)"/><ellipse class="cls-2" cx="149.2" cy="171.28" rx="4.16" ry="9.29" transform="translate(-71.19 226.27) rotate(-62.95)"/><ellipse class="cls-2" cx="177.93" cy="181.45" rx="4.12" ry="12.24" transform="translate(-64.59 257.39) rotate(-62.95)"/><path class="cls-1" d="M32.54,171.28a4.91,4.91,0,0,0,1-3A5,5,0,0,0,29,163.31a7,7,0,1,0-6.78,5.15,6.74,6.74,0,0,0,1.43-.15,5,5,0,0,0,5,4.91,4.58,4.58,0,0,0,.53,0,3.8,3.8,0,0,0-.53,1.95,3.86,3.86,0,1,0,3.92-3.86Z"/><circle class="cls-1" cx="24.74" cy="183.93" r="4.93"/><path class="cls-2" d="M67,173a4.7,4.7,0,0,1-.63-2L65,171.3c-8.8,2.31-15.34,6.47-14.6,9.29.64,2.43,6.49,3.08,13.74,1.73a8.44,8.44,0,0,1-.46-2.72A8.32,8.32,0,0,1,67,173Z"/><path class="cls-2" d="M82.28,172.23c-.39-1.5-2.78-2.32-6.26-2.41a4.17,4.17,0,0,1,.06.71,4.84,4.84,0,0,1-.3,1.66,8.34,8.34,0,0,1,3.88,4.13C81.59,174.88,82.6,173.43,82.28,172.23Z"/><path class="cls-1" d="M75.78,172.19a4.84,4.84,0,0,0,.3-1.66,4.17,4.17,0,0,0-.06-.71,4.87,4.87,0,0,0-9.68.71,3.11,3.11,0,0,0,0,.43,4.7,4.7,0,0,0,.63,2,8.32,8.32,0,0,0-3.32,6.64,8.44,8.44,0,0,0,.46,2.72c1.15-.22,2.34-.48,3.54-.8a36.73,36.73,0,0,0,12-5.2A8.34,8.34,0,0,0,75.78,172.19Z"/><path class="cls-1" d="M90.75,155.62a6.42,6.42,0,1,0-11.81,3.46,4.66,4.66,0,1,0,6.16,4.41,4.5,4.5,0,0,0-.24-1.48A6.42,6.42,0,0,0,90.75,155.62Z"/><circle class="cls-1" cx="111.39" cy="155.35" r="4.48"/><path class="cls-1" d="M149.55,164.18a9.77,9.77,0,0,0-4.14-8,9.65,9.65,0,1,0-16.94-6.33,9.81,9.81,0,0,0,.07,1.09,8.63,8.63,0,0,0-6.21,13.16,6,6,0,0,0-.08,1,6.21,6.21,0,0,0,3.06,5.36,8.63,8.63,0,0,0-.12,9.66,4.66,4.66,0,0,0-.14,1.13,4.87,4.87,0,0,0,6.68,4.53,4.88,4.88,0,0,0,.6,1.1,2.88,2.88,0,0,0-.93,2.11,2.91,2.91,0,0,0,5.82,0s0-.05,0-.07a5,5,0,0,0,2.36-8.7,8.58,8.58,0,0,0,1.49-4.84,8.24,8.24,0,0,0-.13-1.42A9.81,9.81,0,0,0,149.55,164.18Z"/><path class="cls-1" d="M164.11,152.73a5.88,5.88,0,1,0-7.5,4,4.34,4.34,0,1,0,7.5-4Z"/><circle class="cls-1" cx="146.06" cy="115.75" r="15.69"/><path class="cls-3" d="M155.71,132.57c-.28,1.8-2.74,2.92-5.46,2.48l-14.95-2.4c-2.71-.43-4.7-2.26-4.41-4.06s2.75-2.91,5.46-2.47l15,2.4C154,129,156,130.78,155.71,132.57Z"/><path class="cls-2" d="M155.71,132.57c-.28,1.8-2.74,2.92-5.46,2.48l-14.95-2.4c-2.71-.43-4.7-2.26-4.41-4.06s2.75-2.91,5.46-2.47l15,2.4C154,129,156,130.78,155.71,132.57Z"/><path class="cls-1" d="M158.85,106.66l5.06-5.64s5.76,3.2,3.84,9.44L161,111Z"/><polygon class="cls-1" points="148.86 71.88 161.75 73.8 155.91 103.53 142.59 100.45 148.86 71.88"/><path class="cls-3" d="M164.54,72.22C164.18,74,161.67,75,159,74.45L151.7,73c-2.69-.55-4.6-2.46-4.23-4.25s2.87-2.78,5.56-2.23l7.28,1.5C163,68.52,164.91,70.44,164.54,72.22Z"/><path class="cls-2" d="M164.54,72.22C164.18,74,161.67,75,159,74.45L151.7,73c-2.69-.55-4.6-2.46-4.23-4.25s2.87-2.78,5.56-2.23l7.28,1.5C163,68.52,164.91,70.44,164.54,72.22Z"/><path class="cls-1" d="M121.67,66.7a39.33,39.33,0,0,1-70,24.64c-.46-.58-.91-1.17-1.35-1.78A39.33,39.33,0,1,1,121.67,66.7Z"/><path d="M68.08,61.9c1.22-2.06.24-4.78,2-6.64a12.26,12.26,0,0,0,2.06-2.55c2.92-10.16,7.4,8,12.24,7.51,4.27.27,8.64,1.29,12.9,1,7.81-3.71,14-7.12,7.92,4.65-1.64,6.31.32,13,.38,19.43,2,.72-.21-7.72.16-9.42C102.44,62.75,119.16,51.41,95.48,61c-20.27-.61-9.84-4.27-21.34-11.81C71.13,49.05,72,53,70,54.33c-2.44,1.89-1.51,5-2.7,7.47-.13.2.69.32.82.1Z"/><path d="M70.17,71.14c-2.79-.33-5.23,4-3.39,6.11,3,3.06,11,1.57,8.26-3.73-.8-1.55-4-3-5.2-2.2,1.53.42,3.44.3,4.36,2,3.37,5.17-7.35,7.37-7.25,2.07.31-1.64,1.54-4,3.53-3.81.58,0-.06-.47-.31-.42Z"/><path d="M88.2,73.93c-3.26-1.52-9.12,4.08-5,6.37,2.45.65,6.8,2.49,7.84-1,1.64-3.75-.85-6.06-4.52-5.5,1.16.88,3.87-.15,4.11,2s-.51,5.75-3.38,5.06c-2.35-.25-6.22-1.13-4.1-4.21.89-1.42,2.94-3.14,4.73-2.51.31.19.88-.07.29-.27Z"/><path d="M83.69,71.26c2.17-1.8,9.13-1.61,8.83,2.15-.07.24.74.51.81.28,1.35-5.33-13.33-3.92-9.64-2.43Z"/><path d="M68.07,69.06a4.93,4.93,0,0,1,7.8.69c3.1.09-5.16-5.4-8.63-.74,0,.28.68.24.83,0Z"/><path d="M91.59,82.8c7.51,0,15.27,1.47,22.5,2.32C107.77,83.73,95.68,81.74,91.59,82.8Z"/><path d="M89.7,85.84c8.69.73,18.6,4.23,26.4,5C107.81,89,97.21,85.64,89.7,85.84Z"/><path d="M86.66,89c8.48,2.61,18.61,7.43,26.3,9C104.48,95.31,94.35,90.49,86.66,89Z"/><path d="M105.34,84.23c.33,12.28-14.52,18.42-26.13,16.48,9.22,2.17,21-1.24,25.31-9.54.67-1.48,3-6.72.82-6.94Z"/><path d="M62.18,93.51c-10-9.48-4-25.19,6-32.13-8.45,5-14.34,16.31-10.93,26,.67,1.66,3.1,7.53,4.89,6.09Z"/><path d="M70.71,73.82a1.17,1.17,0,1,0,.52,2.27c1.68-.75.29-2.94-1.25-2.23"/><path d="M86.58,76.37c-1.75.33-.69,2.75.86,2.32,2.26-.56.4-2.72-1.22-2"/><path d="M77,80.22a.87.87,0,0,1,.64-.66c1.17-.32,1.89,2.47,2.76,1.3-2-3.79-5.89.25-3.4-.64Z"/><path d="M77,80.58c2.76.9,2.7-.15,0-.57l.31.32a2.33,2.33,0,0,1,.74-.21c-.15,0,.27,0,.09,0,0,0,.19,0,0,0h0c.1,0-.14,0,0,0h0c.07,0,0,0,0,0s.1.1,0,0a.48.48,0,0,1,.15.25c.12.2.77.37.82.07-.3-1.37-4.17-.36-1.75,0a4.82,4.82,0,0,1,1.09.42l.16-.29c-.15,0-.56,0-.53,0a4.59,4.59,0,0,1-.51-.1h0C77.42,80.25,76.21,80.15,77,80.58Z"/><path d="M71.12,81a113.1,113.1,0,0,0-22.53-4.8c7.09,1.37,15.08,2.6,21.56,4.87.21.12,1.46.17,1-.07Z"/><path d="M70.17,82.73a180.26,180.26,0,0,0-20.5-1.25c6.29.14,15.71,1.11,20.5,1.25Z"/><path d="M69.52,84.67a177,177,0,0,0-20.08,0c2.37.52,7.2-.29,10.39-.1,1.39-.2,11.33.51,9.69.08Z"/><path class="cls-2" d="M87.08,34.41S64.32,33.88,52.47,54.8"/><path class="cls-1" d="M47.44,114.31s-12.73-8.49-20.18,1.44c0,0-1,6.72,5.57,4.16s13.09.72,12.11,1.85,5.41-2.06,5.41-2.06Z"/><path class="cls-1" d="M121.33,104.25c-2.13-3.7-8-4.31-13.07-1.38a14.56,14.56,0,0,0-2.48,1.82c-.67.4-1.37.84-2.1,1.33-6.31,4.27-9.37,0-9.37,0l-1.53-1.4L50.34,89.56s-32.45.8-30.53,14S43,106,43,106h7.32s-4,6.53-3,13.57c0,0-5.47,4.16-4.33,6.4s-5.25-.32-8-2.56-13.46,2.88-7.78,10.89,21.05,5.87,21.05,5.87,6.4-3.19,9.29-7.89L63.68,135s-6.72,8.48-9,10.33-8.52,12.43,6.41,14.54c0,0,16.9-7.78,18.54-27.53,0,0,5.47-6.31,7.4-11.11,0,0,22.11,11.82,33.25-8.82C122.2,109.69,122.71,106.62,121.33,104.25Z"/><line class="cls-2" x1="72" y1="89.56" x2="75.78" y2="90.89"/></g></svg>