<svg xmlns="http://www.w3.org/2000/svg" viewBox="0 0 2801.62 1846.73"><defs><style>.cls-1{fill:#1d1d1b;}.cls-2,.cls-4,.cls-5,.cls-7,.cls-8{fill:none;}.cls-2,.cls-3,.cls-4,.cls-5,.cls-8{stroke:#000;}.cls-2,.cls-3,.cls-8{stroke-miterlimit:10;}.cls-2,.cls-3,.cls-4,.cls-5{stroke-width:8px;}.cls-3,.cls-6{fill:#fff;}.cls-4,.cls-5{stroke-linejoin:round;}.cls-5{stroke-linecap:round;}.cls-8{stroke-width:6px;}</style></defs><g id="Layer_8" data-name="Layer 8"><path class="cls-1" d="M504.52,994.71l-8-.72c1.44-15.91,1.17-32.28.91-48.11-.2-12.65-.41-25.72.24-38.62,1.79-36.29,10.66-63.65,27.08-83.67,9-11,19.21-17.3,29.53-18.29,20.14-2,35.41,15.74,42.61,26.46a144.87,144.87,0,0,1,18.29,121l-7.68-2.3a136.75,136.75,0,0,0-17.25-114.22c-5-7.44-18.39-24.65-35.21-23-10.29,1-18.79,8.93-24.1,15.41-15.3,18.64-23.57,44.48-25.29,79-.62,12.65-.42,25.59-.22,38.11C505.72,961.79,506,978.37,504.52,994.71Z"/><path class="cls-1" d="M856.25,1135.38a16.78,16.78,0,0,1-4.55-.62l2.14-7.71c5.08,1.41,10.82-2.16,16.3-6.23,34.71-25.8,71-58,76.85-101.13a86.9,86.9,0,0,0-5.67-44.61C933,954.62,911.74,934.89,889,938.72c-9.85,1.64-18.72,7.32-27.29,12.8l-52.8,33.82c-3.6,2.31-5.63,4.57-6,6.73-.65,3.52,2.78,8.15,6.42,13.06,1.44,1.94,2.91,3.92,4.25,6,8.17,12.48,14.88,26,21.37,39l-7.12,3.64c-6.42-12.91-13-26.18-20.94-38.27-1.26-1.91-2.63-3.76-4-5.57-4.5-6.07-9.15-12.33-7.87-19.27.82-4.48,4-8.42,9.58-12l52.79-33.82c8.83-5.65,18.83-12.06,30.3-14,27.22-4.58,51.27,17.32,61,41.22a95.13,95.13,0,0,1,6.19,48.72c-6.27,46.08-44,79.68-80,106.47C869.1,1131.55,862.89,1135.38,856.25,1135.38Z"/><path class="cls-2" d="M847.79,1122.28c1.56,15.13,11.93,27.77,16.79,42.17,4.19,12.39,4.2,25.82,2.86,38.83-7.2,70.16-16.39,110.88-81.46,138.09"/><path class="cls-2" d="M483.72,994.71s-204.1,89.28-93.82,240.1q2.72,3.72,5.69,7.49a308.3,308.3,0,0,0,20.82,23.61"/><path class="cls-1" d="M836.22,1063.8c-37.89-61.75-84.56-98.95-138.72-110.58-82-17.59-153.67,30.35-154.4,30.83l-4.5-6.61c3-2.07,75.14-50.38,160.5-32.06C755.51,957.47,803.94,995.9,843,1059.62Z"/><path class="cls-2" d="M740.26,1609.67l88,1.68s156.23-42.19,57-160.79c0,0,32.17-58.3-63.73-131.5"/><line class="cls-3" x1="477.84" y1="1604.68" x2="604.13" y2="1607.08"/><path class="cls-2" d="M412,1255.56S248.93,1430,272.88,1481.35c0,0-18.25,35.35-44.47,54.74s-134.56-11.41-102.63,57c0,0,13.68,19.39,124.29,8,39.77-4.1,77.78-3.93,126.89-2"/><path class="cls-1" d="M811.75,1219.18l-8-.21c2.59-104.63-81.56-153.3-82.4-153.78l3.92-7C726.17,1058.72,814.45,1109.79,811.75,1219.18Z"/><path class="cls-1" d="M486.57,1083.22l-7.75-2c15.43-60.49,153.2-60,159-60l-.06,8C636.64,1029.28,500.47,1028.72,486.57,1083.22Z"/><circle class="cls-2" cx="753.56" cy="1035.87" r="39.36"/><circle class="cls-2" cx="632.02" cy="991.62" r="33.6"/><circle cx="761.24" cy="1025.22" r="13.96"/><circle cx="637.79" cy="980.39" r="13.96"/><path d="M496.27,1108.65c-16.32,24.16-24.92,52-29.15,80.06-1.82,12.12-2.81,24.78,1.79,36.29s16.14,21.54,29.69,21.68c9.66.11,18.48-4.61,26.71-9.17q17.15-9.48,34.27-19c6.3-3.49,13-7.09,20.39-7.27,15.75-.38,26.47,14.27,31.6,27.71s9,28.87,22.25,36.61c7,4.11,15.6,5.29,23.89,6.3,20.35,2.5,42,4.43,60.62-3.41,11.12-4.69,20.25-12.57,27.86-21.26,26.07-29.77,35.45-70.86,24.55-107.51a144.13,144.13,0,0,0-13-29.64c-9-15.91-20.52-30.93-35.89-42.18-33.56-24.55-79.85-27.81-123-29.79C557.42,1046.19,516.64,1078.5,496.27,1108.65Z"/><path d="M586.94,969.92l-7.83-1.66a163.47,163.47,0,0,0-10.61-99.68c-2.48-5.54-5.42-11.15-10-14.61A18.16,18.16,0,0,0,530,864l-7.75-2a26.18,26.18,0,0,1,41-14.42c6.1,4.56,9.65,11.23,12.57,17.77A171.53,171.53,0,0,1,586.94,969.92Z"/><path d="M816.84,1021.57l-6.16-5.11,26-31.26c9.28-11.19,20.85-25.12,37.45-29.61,6.15-1.66,12.45-1.86,18.91-1.93,9.85.06,19.52.82,25.74,8,8,9.33,4.32,23.5,2.52,30.3l-7.73-2c2.31-8.78,3.81-17.65-.85-23.05-4.09-4.73-11.83-5.22-19.6-5.25-6.14.06-11.66.24-16.9,1.65-13.09,3.55-22.87,14.33-33.39,27Z"/><path class="cls-4" d="M431.09,1420.94a654.69,654.69,0,0,1-23.51,140.14c-1.82,6.43-3.79,13-7.55,18.46-8.17,11.94-23.29,17.22-32.77,28.15-7,8.12-9.16,23,.33,28,9,4.82,19.29-3.38,26.23-10.91-2.69,11.63,8.16,24.25,20.06,23.35s20.73-15,16.33-26.1a110.17,110.17,0,0,0,30.18,2.71c6-.28,12.54-1.41,16.19-6.12,5.53-7.15.95-17.69-5.18-24.32s-14.07-12.56-16-21.38c-.89-4-.38-8.21.2-12.29a327.53,327.53,0,0,1,49-130.67"/><path class="cls-5" d="M661.28,1433.79a172.59,172.59,0,0,1-25.61,128.12c-9.88,14.74-22.06,27.94-30.63,43.47-3.06,5.54-5.69,11.63-5.38,17.94s4.37,12.83,10.57,14.12c13.46,2.78,20-17.79,33.19-21.74-.66,7.78-1.12,16,2.19,23s11.75,12.36,19,9.5c8.48-3.34,10.07-14.46,10.33-23.58l.41-14.46c7.25,13.45,22.75,20.63,37.91,22.53,8.92,1.13,19.46,0,24.46-7.47,5.81-8.67.68-20.6-6.44-28.22s-16.36-13.74-20.63-23.26c-3.36-7.5-3.1-16.07-2.54-24.27a414.3,414.3,0,0,1,20.71-103.88"/><path d="M350.68,1601.91c-41.13-8.08-55-90.2-55.52-93.69l7.89-1.28c.13.79,13.48,80.11,49.18,87.13Z"/><path d="M756.86,1611.3v0a4,4,0,0,1,1.57-5.34c19.51-11,115.81-68.41,105.24-125.73a4,4,0,0,1,2.93-4.52h0a4,4,0,0,1,5,3.17c11.62,63.31-88.38,122.5-109.22,134.08A4,4,0,0,1,756.86,1611.3Z"/><path d="M571,1363.43c-25.73,0-57-7.42-81.41-14-16.89-4.57-38.28-11.85-53.91-27.75-16.5-16.8-23.55-40-29.78-60.54l7.66-2.33c5.95,19.62,12.7,41.87,27.83,57.26,14.28,14.54,34.37,21.34,50.29,25.65,21.79,5.89,79.71,21.59,106.35,9.13,5.35-2.5,9.44-8.1,13.77-14,8.1-11.09,18.17-24.93,39.24-13.84,8.21,4.32,11.38,10.21,14.16,15.4s5.16,9.62,12.52,12.67c14.83,6.13,45.1,1.51,63.18-1.26l4.39-.67c21.16-3.17,51-11.5,73.17-33.15l5.59,5.72c-23.67,23.15-55.25,32-77.57,35.34l-4.37.66c-20.13,3.09-50.54,7.75-67.45.75-10-4.14-13.46-10.59-16.51-16.28-2.57-4.79-4.79-8.93-10.83-12.11-14.25-7.47-20-.86-29.06,11.49-4.73,6.49-9.63,13.19-16.84,16.57C593.21,1361.9,582.67,1363.43,571,1363.43Z"/><path d="M635.5,1414.94c-17.07,0-30.44-20.11-30.44-45.79s13.37-45.78,30.44-45.78S666,1343.48,666,1369.15,652.57,1414.94,635.5,1414.94Zm0-83.57c-12.16,0-22.44,17.31-22.44,37.78s10.28,37.79,22.44,37.79S658,1389.63,658,1369.15,647.67,1331.37,635.5,1331.37Z"/><rect x="1094.82" y="1197.77" width="5.78" height="1002.98" transform="translate(-609.63 2784.36) rotate(-89.58)"/><path d="M1476.23,1677l-.31-8,925.73-36.17c51.95-2,110.11-.89,144.31,38.47l-6,5.25c-31.88-36.68-87.88-37.68-138-35.72Z"/><rect x="957.46" y="1653.09" width="280.52" height="4"/><rect x="1210.12" y="1610.06" width="1255.93" height="4.23"/><path class="cls-1" d="M1943.31,862.65a631.73,631.73,0,0,1-7.53-156.21l8,.61a623.52,623.52,0,0,0,7.41,154.23Z"/><path class="cls-1" d="M1971.46,850.11A1014.71,1014.71,0,0,1,1966,685.24l8,.39a1008.82,1008.82,0,0,0,5.44,163.56Z"/><rect class="cls-1" x="1894.24" y="741.63" width="101.22" height="8.01" transform="translate(-97.31 1155.52) rotate(-32.33)"/><path class="cls-1" d="M1927.35,802.65a35.68,35.68,0,0,1-10.8-1.64l2.39-7.62c16,5,33.2-5.95,44.82-14.62l2.38-1.78c13.54-10.14,29-21.41,46.88-21.1l-.24,8c-15.07-.33-28.74,9.7-41.85,19.51l-2.39,1.79C1957.94,793.09,1943,802.65,1927.35,802.65Z"/><path class="cls-1" d="M2012.85,862.37a801.33,801.33,0,0,1-22.82-238l8,.44a793.07,793.07,0,0,0,22.59,235.6Z"/><path class="cls-1" d="M2041.53,863.39c-24.11-76.77-20.12-161.33-16.59-235.94l8,.38c-3.66,77.56-7.44,157.75,16.24,233.17Z"/><path class="cls-1" d="M2062.86,856.53a694.5,694.5,0,0,1-11.06-207.89l8,.78a686.19,686.19,0,0,0,10.92,205.5Z"/><path class="cls-1" d="M1936.59,860.93l-4.48-6.63a435,435,0,0,1,146-63.53l1.8,7.8A426.8,426.8,0,0,0,1936.59,860.93Z"/><path class="cls-1" d="M1925.64,722.55l-3.37-7.25a486.57,486.57,0,0,0,94-57.4l4-3.18c11.88-9.33,24.14-19,39-23.67l2.41,7.63c-13.42,4.25-25.11,13.44-36.42,22.33l-4.08,3.21A494.93,494.93,0,0,1,1925.64,722.55Z"/><rect class="cls-1" x="1989.64" y="711.44" width="114.61" height="7.99" transform="translate(-120.6 775.2) rotate(-20.84)"/><path class="cls-1" d="M2007.09,796.38l-1.8-7.8a245.09,245.09,0,0,0,83.45-36.76l4.55,6.58A253.26,253.26,0,0,1,2007.09,796.38Z"/><path class="cls-1" d="M1915.56,921.3l-1.22-7.91a1037.74,1037.74,0,0,0,166.5-40.11l2.51,7.59A1045.84,1045.84,0,0,1,1915.56,921.3Z"/><path class="cls-1" d="M1927,957.12l-.06-8A569.62,569.62,0,0,0,2063,931.62l2,7.75A576.59,576.59,0,0,1,1927,957.12Z"/><path class="cls-1" d="M1936.9,1003.74l-1.23-7.91A594,594,0,0,0,2065,960.38l3,7.42A602.07,602.07,0,0,1,1936.9,1003.74Z"/><path class="cls-1" d="M1970.55,1040q-15.85,0-31.73-1.49l-3.2-.31-.39-3.18c-4.12-33.36-1.09-65.15,1.83-95.89,2.18-22.94,4.43-46.65,3.79-71.18l8-.2c.64,25-1.63,49-3.83,72.14-2.92,30.66-5.67,59.68-2.23,90.94a328.3,328.3,0,0,0,105.06-8.06l1.87,7.78A336.52,336.52,0,0,1,1970.55,1040Z"/><rect class="cls-1" x="1977.72" y="873.95" width="8" height="206.78"/><path class="cls-1" d="M2024.06,1056.51c-1.15-63.6-1.34-128.11-.53-191.72l8,.09c-.81,63.54-.62,128,.53,191.49Z"/><rect class="cls-1" x="1939.14" y="1076.73" width="97.31" height="8"/><path class="cls-1" d="M2022.21,1121.22h-74.07l-.72-3.07c-5.51-23.36-2.76-47.32-.1-70.49l.44-3.83,8,.91-.44,3.84c-2.46,21.43-5,43.57-.74,64.64h59.7c.14-11.12.83-22.85,1.51-34.25.74-12.64,1.51-25.72,1.51-37.77h8c0,12.28-.78,25.49-1.53,38.25s-1.51,25.73-1.51,37.77Z"/><path class="cls-1" d="M2170.89,905.18l-7.81-1.74a1184.17,1184.17,0,0,0,27.62-297l8-.26A1193,1193,0,0,1,2170.89,905.18Z"/><path class="cls-1" d="M2206.78,962.87,2199,961a1391.79,1391.79,0,0,0,37.76-357.61l8-.21A1399.75,1399.75,0,0,1,2206.78,962.87Z"/><path class="cls-1" d="M2276.07,1014.5l-7.93-1a2172.17,2172.17,0,0,0,12.48-381.84c-22.74.12-41.4,5.32-61.09,10.79-13.23,3.69-26.92,7.49-42.62,10l-1.27-7.91c15.26-2.44,28.72-6.19,41.75-9.81,21.32-5.93,41.31-11.38,67.09-11.06l3.7.07.21,3.7A2179.08,2179.08,0,0,1,2276.07,1014.5Z"/><path class="cls-1" d="M2204.39,993.69q-8,0-15.94-.09l.09-8c43.37.52,87.31-1.05,130.52-4.6l.65,8C2281.55,992.11,2242.82,993.69,2204.39,993.69Z"/><rect class="cls-1" x="2260.54" y="977.74" width="8" height="121.67" transform="translate(1180.09 3281.52) rotate(-88.83)"/><rect class="cls-1" x="2215.87" y="1076.73" width="94.27" height="8"/><path class="cls-1" d="M2294.21,860.48a703.23,703.23,0,0,0-145-6.45l-.47-8a709.64,709.64,0,0,1,146.64,6.53Z"/><path class="cls-1" d="M2291.77,809.47c-44.28-2.17-89.2-2.56-133.54-1.14l-.25-8c44.54-1.42,89.69-1,134.18,1.15Z"/><rect class="cls-1" x="2170.25" y="751.36" width="121.64" height="8"/><rect class="cls-1" x="2167.21" y="702.7" width="136.84" height="8"/><path class="cls-1" d="M2209.84,684.6q-21.48,0-42.94-2.05l.77-8a442.61,442.61,0,0,0,120.52-5l1.42,7.87A451.7,451.7,0,0,1,2209.84,684.6Z"/><path class="cls-1" d="M2290.94,913.83a1335.79,1335.79,0,0,1-136.15-7l.81-8a1320.56,1320.56,0,0,0,154.5,6.78l.12,8Q2300.61,913.84,2290.94,913.83Z"/><path class="cls-1" d="M2319.18,958.09c-47.26-1.66-95.28-1.94-142.75-.81l-.19-8c47.63-1.13,95.82-.85,143.22.81Z"/><path class="cls-1" d="M2231.44,1118.12c-5.69-36.61-8.62-123.58-5.4-160.45l8,.69c-3.18,36.43-.29,122.36,5.34,158.52Z"/><polygon class="cls-1" points="2295.49 1105.22 2287.49 1104.87 2291.51 1013.69 2299.51 1014.03 2295.49 1105.22"/><path d="M2016.47,1148.15a59,59,0,0,1-13.13-1.93L1959,1136.08c-13.25-3-26.8-6.9-34.12-17.79-5.84-8.7-6.12-19.16-5.89-31l2.82-140.89c.11-5.55.24-11.85-2-17.12a40.64,40.64,0,0,0-5.13-8c-1.11-1.49-2.23-3-3.24-4.51-11.4-17.42-8.22-38.52-5.14-58.94,2.52-16.73,5.12-34-.25-49.22a99.06,99.06,0,0,0-5.14-11.32c-2.42-4.76-4.91-9.68-6.37-15-6.35-23.12,7.62-45.93,21.2-65.49h0c3.34-4.82,7.77-12,12.89-20.31,24.39-39.59,65.2-105.86,105.54-109.43,13-1.18,24.89,4.28,35.48,16.12,46.79,52.42,35.08,156.31,27.34,225.06q-.88,7.92-1.69,15.16c-11.42,106.12-24.82,194.28-53.06,279.61-3.23,9.77-7.44,19.35-16.32,23.28A23,23,0,0,1,2016.47,1148.15Zm-96.81-428.57c-13,18.67-26.31,40.36-20.52,61.48,1.34,4.87,3.61,9.36,6,14.11a101.07,101.07,0,0,1,5.39,11.9c5.77,16.32,3.08,34.22.47,51.52-3.08,20.42-6,39.71,4.41,55.6,1,1.46,2,2.86,3,4.25a44.94,44.94,0,0,1,5.71,9c2.69,6.23,2.55,13.09,2.43,19.13l-2.82,140.89c-.22,11,0,20.64,5.08,28.18,6.34,9.43,18.38,12.85,31.2,15.79l44.32,10.14c7.35,1.68,13.92,2.89,19.55.39,7.53-3.32,11-12.27,13.7-20.39,28.12-84.93,41.46-172.81,52.86-278.63.51-4.81,1.08-9.89,1.68-15.18,7.65-67.9,19.21-170.51-26.15-221.31-9.65-10.81-19.91-15.61-31.48-14.55-37.93,3.36-78,68.34-101.87,107.17-5.16,8.37-9.62,15.6-13,20.53Z"/><path d="M2268.22,1115.12a437.76,437.76,0,0,1-58.23-3.88c-6.43-.86-13.1-2.1-17.76-6.88s-5.72-11.55-6.57-16.58l-19.72-115.62c-3.7-21.67-7.78-39.36-23.63-53.47l-.64-.58-.14-.86c-6.11-41,.86-82.56,7.61-122.8,3.25-19.42,6.61-39.51,8.46-59.26,1.61-17.25,2.14-35.05,2.66-52.27,1.18-39.53,2.41-80.41,16.77-117.88l.38-1,1-.39c25.55-9.81,55.15-7.86,81.23,5.36,27.13,13.75,47,37.63,54.63,65.52,7.81,28.69,3.07,58.6-1.52,87.52-2.61,16.47-5.31,33.5-5.67,50.13-.84,39.62,11.56,78.56,23.56,116.22,3.34,10.52,6.8,21.39,9.92,32.11a648,648,0,0,1,17.38,76.91c3.07,18.84,4.55,38.42-5.25,53.89-1.48,2.34-3.19,4.54-4.85,6.67-3.43,4.4-6.67,8.56-7.7,13.53-.68,3.23-.37,6.65,0,10.28.39,4.29.79,8.72-.5,13.09-3.12,10.67-14.29,16.92-33.2,18.58Q2287.36,1115.13,2268.22,1115.12ZM2146.16,915.69c16.47,15,20.71,33.35,24.51,55.66L2190.39,1087c1,5.72,2,10.72,5.28,14,3.59,3.68,9.36,4.73,15,5.48a433.63,433.63,0,0,0,95.34,2.19c16.74-1.48,26.51-6.57,29-15.14,1-3.51.69-7.3.32-11.32-.34-3.82-.7-7.76.12-11.7,1.27-6,5-10.85,8.62-15.49,1.61-2.06,3.22-4.12,4.59-6.28,9-14.13,7.48-32.65,4.57-50.56A648.31,648.31,0,0,0,2336,921.85c-3.11-10.66-6.56-21.51-9.9-32-12.11-38-24.64-77.36-23.78-117.79.36-17,3.09-34.14,5.73-50.77,4.71-29.73,9.16-57.81,1.63-85.5-7.23-26.59-26.25-49.37-52.18-62.51-24.54-12.44-52.29-14.44-76.33-5.53-13.71,36.45-14.92,76.53-16.07,115.31-.52,17.29-1.06,35.17-2.68,52.58-1.86,19.91-5.24,40.08-8.51,59.59C2147.24,834.83,2140.38,875.75,2146.16,915.69Z"/><path d="M2022.54,1476c-13.85,0-28.55-2.38-43.1-5.39-7.51-1.55-15.21-3.58-19.74-9.68s-4.21-14-4-19.83l9-299.41,4.8.14-9,299.41c-.19,6.66-.1,12.53,3.1,16.83,3.52,4.75,10,6.42,16.85,7.84,29.13,6,62.1,10.9,84.57-7.71,14.5-12,20.89-31.67,25.23-49.32,18.23-74.11,16.72-152.16,15.26-227.64-.84-43.53-1.71-88.54,1.17-132.53l.92-14,3.79,13.52c36.43,130.12,67.51,263.36,92.42,396.08a457.39,457.39,0,0,1,123.62-27.2,686.18,686.18,0,0,0-45.83-302.46l4.47-1.76a690.7,690.7,0,0,1,46,306.64l-.16,2-2,.15a452.84,452.84,0,0,0-127,28.07l-2.68,1-.53-2.82c-24.07-128.76-54-258-89-384.5-1.87,39.17-1.1,79-.35,117.66,1.47,75.79,3,154.16-15.4,228.88-4.52,18.41-11.25,39-26.83,51.88C2055.39,1472.41,2039.6,1476,2022.54,1476Z"/><path d="M2112.92,903.8a175.37,175.37,0,0,1-28.17-2.28l.77-4.73a171.44,171.44,0,0,0,54.07.11l.75,4.74A175.45,175.45,0,0,1,2112.92,903.8Z"/><path d="M1950.62,1591.72a64.64,64.64,0,0,1-20.72-3c-12.09-4.06-25.25-15.36-25.6-30.57-.39-16.81,14.43-29,27.23-34.35a74.63,74.63,0,0,1,43.23-4.18c4.47.91,9.4,1.65,11.25-1.09.84-1.25.9-3.12.89-5.26l-.14-45.31h4.8l.14,45.31c0,2.26,0,5.37-1.71,7.94-3.78,5.64-11.86,4-16.19,3.12a69.73,69.73,0,0,0-40.42,3.91c-11.41,4.75-24.61,15.41-24.28,29.81.29,12.89,11.79,22.59,22.33,26.13,12,4,24.88,2.95,38.15,1.38a782.7,782.7,0,0,0,84-14.66c3.3-.76,6.18-1.55,8-3.44,2.21-2.29,2.71-5.93,3.06-9.76a540.52,540.52,0,0,0,.83-89.78l4.78-.35a544.62,544.62,0,0,1-.83,90.57c-.41,4.53-1.1,9.25-4.4,12.66-2.75,2.84-6.49,3.87-10.39,4.77a782.06,782.06,0,0,1-84.56,14.75A166.2,166.2,0,0,1,1950.62,1591.72Z"/><path d="M2352.64,1575.05c-5.08,0-10.1-.4-14.82-.78l-73.68-5.85c-13.34-1.05-27.74-3.73-33.38-15.56-2.52-5.28-2.49-11.12-2.47-16.28,0-5-.64-12.71-1.4-21.7-2.26-26.67-5.08-59.86,4-71.42,2.46-3.12,12.48-5.7,34.76-10.86,13.31-3.08,33.44-7.73,35.52-10.41a1.32,1.32,0,0,0-.13,1h0l4.66-1.18h0a256.9,256.9,0,0,1,7.45,79.81c5,.32,10,.24,14.93.14,9.55-.14,19.39-.31,28.87,2.3a53,53,0,0,1,31.67,24.45c3.91,6.8,5.59,13.61,4.87,19.71-1.48,12.27-12.47,21-22.71,24.19A60.85,60.85,0,0,1,2352.64,1575.05Zm-50.54-147.72c-5.18,2.77-16.23,5.53-35.33,10-12.68,2.94-30.05,7-32.08,9.16-7.94,10.07-5,45-3,68,.78,9.1,1.44,17,1.42,22.13h0c0,4.65-.05,9.91,2,14.2,4.59,9.62,17.45,11.89,29.43,12.84l73.68,5.85c9.94.78,21.2,1.68,31.19-1.44,8.76-2.75,18.15-10,19.37-20.2.61-5-.87-10.84-4.26-16.73a48.12,48.12,0,0,0-28.78-22.22c-8.83-2.43-17.91-2.27-27.52-2.12a168.05,168.05,0,0,1-17.78-.35l-2.35-.21.17-2.35A251.86,251.86,0,0,0,2302.1,1427.33Z"/><path class="cls-6" d="M2318,697.52q59.34,13.5,117.36,32.12c10.56,3.38,21.27,7,30.22,13.54,25.62,18.72,28.75,60,8.68,84.62-7.71,9.44-17.89,16.47-26.94,24.63A139.06,139.06,0,0,0,2418,889.67c-7.08,13.13-12.11,27.5-21.2,39.32s-23.88,21-38.46,17.82c-12.87-2.76-21.91-14-29.85-24.46-2.33-3.07-4.77-6.46-4.74-10.31.06-8.69,11-11.91,19.22-14.84,15.88-5.67,28-18.77,43.09-26.24,25.08-12.4,18.22-28.77,18.48-56.45,0-4.19.06-8.49-1.39-12.43-4.43-12.07-19.9-15.35-32.76-15.08a148.43,148.43,0,0,0-65.28,16.74"/><path d="M2364.28,951.44a32,32,0,0,1-6.75-.72c-13.82-3-23.11-14-32.19-26-2.23-2.93-5.59-7.36-5.56-12.75.08-10.91,11.71-15,20.19-18l1.7-.59c8.45-3,15.79-8.29,23.55-13.88,6-4.32,12.25-8.8,19.11-12.19,17.89-8.85,17.44-19.15,16.62-37.85-.21-4.62-.42-9.62-.37-15,0-3.79.07-7.71-1.14-11-4.41-12-23.22-12.58-28.93-12.47A144.46,144.46,0,0,0,2307,807.29l-3.7-7.1a152.76,152.76,0,0,1,67-17.19c9-.14,30.53,1.17,36.62,17.7,1.71,4.67,1.66,9.55,1.62,13.85,0,5.28.16,10.13.36,14.62.84,19.11,1.5,34.21-21.06,45.38-6.28,3.1-12,7.18-18,11.51-7.87,5.66-16,11.51-25.54,14.91l-1.72.61c-8.39,2.95-14.82,5.59-14.85,10.49,0,2.46,1.78,5,3.93,7.87,8.14,10.73,16.36,20.57,27.51,23,13.86,3,27.21-6.94,34.45-16.35,5.79-7.54,9.83-16.1,14.11-25.17,2.17-4.58,4.34-9.16,6.73-13.61a142.76,142.76,0,0,1,30.09-38.31c2.91-2.63,5.93-5.13,9-7.63,6.45-5.36,12.55-10.41,17.58-16.56,9.34-11.45,13.71-27.77,11.67-43.66-1.91-14.85-8.88-27.35-19.63-35.21-8.18-6-18-9.41-29.07-12.95-38.36-12.31-77.74-23.09-117-32l1.79-7.8c39.51,9,79.11,19.83,117.69,32.21,11.74,3.76,22.2,7.42,31.35,14.12,12.55,9.17,20.66,23.6,22.85,40.64,2.34,18.29-2.55,36.42-13.42,49.74-5.51,6.75-12.2,12.29-18.66,17.65-2.94,2.44-5.88,4.87-8.7,7.42a134.41,134.41,0,0,0-28.4,36.17c-2.34,4.32-4.44,8.77-6.54,13.23-4.28,9.05-8.69,18.41-15,26.63C2392.48,941.22,2379.14,951.44,2364.28,951.44Z"/><path d="M2106.31,1046.4a706.16,706.16,0,0,1-2.82-110l4.79.25a699,699,0,0,0,2.82,109.22Z"/><path d="M2017.42,288.17c-8.67,0-16.43-2.6-22.05-7.54-.36-.32-.72-.66-1.06-1q-1.35-.67-2.64-1.44l-.7-.64a16.24,16.24,0,0,1-3.11-9.8c-1.38-6-.51-12.49,3.7-17.48l2.74,2.31a21,21,0,0,1,4.15-3.35,30.13,30.13,0,0,1,14.42-4.17c6.34-9,17-15.17,28.12-14.71,7.06.14,12.92,2.81,16.07,7.33,5.37,7.69,1.54,17.47-.36,21.33a42.19,42.19,0,0,1-9.06,12.09,18.29,18.29,0,0,1-2.06,4.19,24.78,24.78,0,0,1-5.66,5.9c5.72.32,11-1.5,13.91-5.09l3.75,3c-5.19,6.47-13.94,7.65-20.34,6.59a33.43,33.43,0,0,1-3.57-.79,33,33,0,0,1-7.78,2.47A47,47,0,0,1,2017.42,288.17Zm-20.24-12.48a40.57,40.57,0,0,0,23,3.21l-2-1.13c-2.91-1.64-6.2-3.5-8.41-6.67-2.62-3.74-3.32-9-2-14.86a30.89,30.89,0,0,1,2.09-6.07,23.93,23.93,0,0,0-9,3.16,18,18,0,0,0-8,11.66,16.93,16.93,0,0,0-.27,2.2A20.29,20.29,0,0,0,1997.18,275.69Zm18.31-25.88a26.89,26.89,0,0,0-3,7.51c-.59,2.6-1.22,7.5,1.26,11,1.58,2.27,4.25,3.78,6.83,5.24,2.23,1.26,4.5,2.54,6.81,3.68a44.06,44.06,0,0,0,16-8.82,10.44,10.44,0,0,0,0-4.52c-1.69-7.54-10.85-11-16.16-12.4A50.05,50.05,0,0,0,2015.49,249.81Zm3.36-4.62a57.51,57.51,0,0,1,9.59,1.71c6.37,1.67,17.38,6,19.62,16l.12.58a35.48,35.48,0,0,0,4.21-6.6c1.19-2.41,4.75-10.69.73-16.45-3.21-4.61-9.62-5.23-12.22-5.28A29.73,29.73,0,0,0,2018.85,245.19Z"/><path d="M2276,375.16l-2.06-.08c-13.16-.5-20.54-10.82-27.68-20.8-1.23-1.71-2.44-3.41-3.68-5.06a14.64,14.64,0,0,1,.23,1.5c.68,6.07-2.21,12.19-7.74,16.38-6.2,4.69-14.38,6-20.83,3.39a23.21,23.21,0,0,1-10.42-8.63c-3.56,6.77-8.31,10.11-13.56,9.64a10.06,10.06,0,0,1-7.5-4.7c-2.5-3.78-3.29-9.46-2-14.38a8.54,8.54,0,0,1-5.13-2.85c-1.5-1.87-1.67-4.28-1.79-5.88-.49-6.53-1-13.74.47-20.68a13.85,13.85,0,0,1-8.82.58c-4.62-1.35-8.6-5.58-12.17-12.94a24.81,24.81,0,0,1-.67-19.21,24.15,24.15,0,0,1,12.49-13.94h0c14.31-6.39,30.07.67,41.71,11.46l.29-1.34,1.76-.15a29.57,29.57,0,0,1,26.71,13.11,31.28,31.28,0,0,1,5.21,15.39l.35.09a11.7,11.7,0,0,1,7.08,6.1,16,16,0,0,1,1.39,5.17c3.7-.72,7.08,1.25,9.31,2.78,13.42,9.31,20.61,27,17.47,43Zm-39.76-39.9c5.57,4.55,9.87,10.57,13.92,16.22,6.31,8.83,12.3,17.2,21.87,18.61a38.76,38.76,0,0,0-15.84-36c-2.43-1.66-4.25-2.29-5.76-2a2.08,2.08,0,0,0-.82.4c-.11,1.28-.27,2.52-.42,3.67l-.76,5.92-3.55-4.79a5.6,5.6,0,0,1-.62-5.41,7.84,7.84,0,0,1,.64-1.26,13.68,13.68,0,0,0-1-6.39,6.87,6.87,0,0,0-3.14-3.14,30.55,30.55,0,0,1-2.49,9.72Zm-30,21.09a19.18,19.18,0,0,0,9.81,9.69c4.92,2,11.26.93,16.13-2.77,4.23-3.2,6.37-7.58,5.87-12-.8-7.17-7.19-12.33-12.9-14.76a31.74,31.74,0,0,0-11.66-2.23,20.92,20.92,0,0,1-1.75,4.64.38.38,0,0,0,0,.1A138,138,0,0,1,2206.25,356.35Zm-20.65-3.41,0,.08c-1.15,3.74-.65,8.31,1.21,11.13a5.36,5.36,0,0,0,4,2.57c5.22.65,8.83-6.76,10.13-9.92,0-.1.09-.2.13-.31a29,29,0,0,1-1.69-6.3A31.1,31.1,0,0,1,2185.6,352.94Zm18.32-5.33c0,.29,0,.58.08.88.14-.41.27-.82.4-1.23Zm-3.58-10.42-.32.14a27.47,27.47,0,0,0-12.3,10.81A26.19,26.19,0,0,0,2199,345,28.6,28.6,0,0,1,2200.34,337.19Zm-20.24-17c-2.67,7.28-2,15.69-1.49,23.15a6.32,6.32,0,0,0,.77,3.24,5.14,5.14,0,0,0,3.06,1.27A31.59,31.59,0,0,1,2198,333a38.51,38.51,0,0,1,6-2.18,8,8,0,0,1,.84-.68,10.12,10.12,0,0,1,3.52-1.56,37.07,37.07,0,0,0-.48-7.55,14.27,14.27,0,0,0-6.72-7.26c-5.84-2.83-11.67.73-17.84,4.51C2182.22,318.91,2181.16,319.56,2180.1,320.19Zm26.43,14.91a11.36,11.36,0,0,0-1.4,2.9,21.85,21.85,0,0,0-.83,3.05,19.3,19.3,0,0,0,2.87-3.76l.06-.1c.16-.75.32-1.54.45-2.33Zm9.07-7.27a31.23,31.23,0,0,1,18.25,5.61l-.75-15.82,1.18-.74a7.64,7.64,0,0,1,1.74-.81,26.65,26.65,0,0,0-4.38-12.81,24.88,24.88,0,0,0-20.41-11.09h-.08c0,.37-.06.73-.08,1.09a61.76,61.76,0,0,1,9.59,13.82l3.06,6.19-6.24-2.95c-6.77-3.21-10.71-8.7-11.17-15.24-10.57-11.14-25.76-19.22-39.21-13.21a19.43,19.43,0,0,0-10,11.21,20,20,0,0,0,.48,15.47c3,6.07,6,9.49,9.2,10.43,2.89.86,6.07-.31,9.45-2.15,3.76-8.6,13.37-15.82,23.13-13.24,7.22,2,11.36,8.13,13,15.81.3.71.56,1.44.8,2.19a24,24,0,0,1,1,6.26C2214.67,327.83,2215.14,327.83,2215.6,327.83Zm-20.28-20a13.52,13.52,0,0,0-6.9,2.05,20.8,20.8,0,0,1,8-2C2196,307.87,2195.67,307.86,2195.32,307.86Z"/><path d="M1929.66,297c-5.66,0-10-4.91-11-9.82-1.12-5.5,1.1-10.74,3.17-14.17A35.12,35.12,0,0,1,1940,258.47a17.69,17.69,0,0,1,1.82-3.05c6.07-8.22,16.5-10.76,24.89-10.5a23.85,23.85,0,0,1,25.1-7.39l-1.44,4.58a19.3,19.3,0,0,0-17.65,3.58,10.3,10.3,0,0,1,5.55,3.31,8.85,8.85,0,0,1,1.59,3,82.56,82.56,0,0,1,10.89.7c2.63.35,5.57,1,7.56,3.26s2.54,5.75,1.44,9.49a17.67,17.67,0,0,1-8,10.05v0c.46.18.91.37,1.37.57l6.82,2.89-2.32.53a30,30,0,0,0,5.52,1.25,28.38,28.38,0,0,0,13.92-1.56c-3.27-6-2.82-14,1.27-20.14a7.6,7.6,0,0,1,7.88-2.36,10,10,0,0,1,7.27,7.28c1,4.89-1.37,10.4-6.38,14.72a26.57,26.57,0,0,1-2.47,1.9c3.47,2.39,8.25,2.86,11.55.75a8.84,8.84,0,0,0,3.79-6.88,7.44,7.44,0,0,0-2.37-6.33l3.08-3.67a12.13,12.13,0,0,1,4.08,10.32,13.55,13.55,0,0,1-6,10.62c-5.61,3.55-13.59,2.37-18.64-2.29a32.8,32.8,0,0,1-17.6,2.4,33.58,33.58,0,0,1-12.88-4.41c-.53,0-1.06.07-1.6.07-.41.5-.85,1-1.3,1.48a26.83,26.83,0,0,1-20.66,8.72c-4.82-.28-9.85-3-12.32-6.66a12.85,12.85,0,0,1-5.17-.56,78.88,78.88,0,0,1-9.72,8.9c-2.51,1.95-5.29,3.77-8.67,3.94Zm.87-27.24a27.8,27.8,0,0,0-4.61,5.73c-1.62,2.7-3.39,6.75-2.58,10.73.62,3,3.4,6.35,6.57,6,2-.1,4.08-1.47,6-2.93A74.34,74.34,0,0,0,1943,283a15.34,15.34,0,0,1-10-5.66A10.42,10.42,0,0,1,1930.53,269.76Zm28.28,13.57a12.55,12.55,0,0,0,7.5,3.24,21.68,21.68,0,0,0,15.79-6.13,26.25,26.25,0,0,1-6.84-2.87,17.4,17.4,0,0,1-4.64-2.37,13.1,13.1,0,0,1-4.38,1.29,14.83,14.83,0,0,1-2.46,3.3A17,17,0,0,1,1958.81,283.33Zm1.33-8a5.1,5.1,0,0,0-3,2.76,3.64,3.64,0,0,0-.22.83,12.51,12.51,0,0,0,3.46-2.49,8.29,8.29,0,0,0,.62-.69A9,9,0,0,1,1960.14,275.34Zm-17.07-11a16.64,16.64,0,0,0,.2,7.09,3.82,3.82,0,0,0,5,5.77,75.36,75.36,0,0,0,7.2-10.65,12.31,12.31,0,0,1,.5-3.11C1952.1,262.47,1947.31,263,1943.07,264.3Zm-5.06,2.17a6.84,6.84,0,0,0-2,1.86c-1.63,2.39-.26,4.81.71,6a10.68,10.68,0,0,0,3.75,2.93,18.35,18.35,0,0,1-1.89-4.73A20.92,20.92,0,0,1,1938,266.47Zm85.91-5.27a2.34,2.34,0,0,0-1.83.77,14.82,14.82,0,0,0-.79,15,21.71,21.71,0,0,0,2.62-1.95c1.38-1.19,5.8-5.44,4.82-10.11a5.25,5.25,0,0,0-3.78-3.61A4.22,4.22,0,0,0,2023.92,261.2Zm-37.49-3.69a4.32,4.32,0,0,0-1,.14,5.08,5.08,0,0,0-3.28,3c-1.17,3.46.93,7.3,2.29,9.28a22.28,22.28,0,0,0,2.2,2.75l.69-.29.69-.31a20.07,20.07,0,0,0,1.52-10c-.22-2-.75-3.36-1.58-4.05A2.32,2.32,0,0,0,1986.43,257.51Zm-10.78,13.34c1.42.26,2.84.56,4.25.9a20.32,20.32,0,0,1-2.17-4.6A20.21,20.21,0,0,1,1975.65,270.85Zm-15.28-2.66a4.6,4.6,0,0,0,.84,1.87c.57-.11,1.15-.19,1.75-.25a5.73,5.73,0,0,0-.59-1.86,7.44,7.44,0,0,0-1.28-1.82l-.24.46C1960.71,267.12,1960.54,267.65,1960.37,268.19Zm6.57-8.94a21.87,21.87,0,0,0,4.67,9c2-2.69,2.94-6.27,3.5-9.22.14-.74.25-1.42.31-2l-.71,0a28.56,28.56,0,0,0-7.81,1.54C1966.91,258.79,1966.92,259,1966.94,259.25Zm26.7-.9a15.28,15.28,0,0,1,.66,3.21,23.73,23.73,0,0,1,.08,4.38,11.25,11.25,0,0,0,.72-1.85c.48-1.62.61-3.77-.44-5A3.47,3.47,0,0,0,1993.64,258.35Zm-41.43-2.06a32.24,32.24,0,0,1,7.64.9,71.52,71.52,0,0,0,2.32-7l1.24.31c.1-.26.2-.52.31-.78-6,.29-12.39,2.24-16.77,7A35.62,35.62,0,0,1,1952.21,256.29ZM1969,249.9c-.17.29-.33.57-.49.87a15.42,15.42,0,0,0-1,2.57,38.12,38.12,0,0,1,6.79-1.1l.34,0-.14-.18c-.92-1.13-2.63-1.8-5.4-2.12Z"/><path d="M2137.34,324.39c-4.85,0-9.8-2.07-15.11-6.31-7.8-6.2-13.1-14-15.27-22.31a45.63,45.63,0,0,1-4.19-3.7c-8.51-8.49-12-20.1-8.8-29.55a12,12,0,0,1,4.6-6.53c2.71-1.73,5.93-1.69,8.35-1.69l39.66.29,0,4.8-39.66-.29c-2.47,0-4.34,0-5.72.94a7.27,7.27,0,0,0-2.65,4c-2.56,7.65.34,17.18,7.4,24.38-.25-10.22,4.6-19.88,12.68-24.76,10-6,23.79-3.13,29.54,6.18a22,22,0,0,1,3.13,12.21l5.74,0,.23,2.13c.84,7.56,1.78,16.13-.78,24.19-2.4,7.57-9.3,15.81-18.8,16Zm-23.56-24a41.25,41.25,0,0,0,11.43,14c4.53,3.61,8.7,5.17,12.35,5.25,6.83-.12,12.37-6.45,14.33-12.64,2-6.38,1.51-13.54.82-20.07h-1.36l-.25,4.36-1.24-.07a71.37,71.37,0,0,1-3.83,10.4c-1.25,2.8-2.86,5.91-6.05,7.35-3.74,1.68-7.63.27-11-1.19A143.45,143.45,0,0,1,2113.78,300.36Zm-2.53-7.37c6.08,4.41,13.2,7.51,19.65,10.31,2.54,1.1,5.14,2.1,7.1,1.23,1.66-.75,2.71-2.86,3.65-4.95,3.47-7.75,7.49-19,2.41-27.2-4.35-7.05-15.32-9.24-23-4.6-7.23,4.37-11.41,14-10.15,23.36C2111,291.76,2111.13,292.37,2111.25,293Z"/><path d="M2109.55,270l-1,0a40.09,40.09,0,0,1-30.82-62.81,18.82,18.82,0,0,1,6.28-6.12,12.91,12.91,0,1,1,2.38,23.92l1.44-4.58a8.83,8.83,0,0,0,10.68-8.71,8.83,8.83,0,0,0-12.18-6.43,14.26,14.26,0,0,0-4.64,4.63,35.3,35.3,0,0,0,27.12,55.3c.49,0,2.06.1,2.61-.39a5.13,5.13,0,0,0,.81-2.55c.14-1,.29-2.07.4-3.14a21.46,21.46,0,0,1-7.63-4.59l-.56-.53-1.94-10.06,2-.64a8.23,8.23,0,0,1,3.57-.29,20.53,20.53,0,0,1,.23-21.23A16.32,16.32,0,0,1,2128,214.3c6.53,1.89,12.12,7.18,14.95,14.16s2.51,14.66-.86,20.56-9.84,10.1-17.29,11.2a25.78,25.78,0,0,1-7.44,0c-.11.93-.24,1.83-.36,2.69-.23,1.52-.57,3.81-2.33,5.42A7.44,7.44,0,0,1,2109.55,270Zm8.07-14.58a20.58,20.58,0,0,0,6.51,0c6-.89,11.17-4.19,13.82-8.82s2.86-10.77.58-16.39-6.71-9.87-11.83-11.36a13.26,13.26,0,0,0-8,0,12.78,12.78,0,0,0-6.17,5.4c-4,6.45-2.73,15.5,2.75,19.39a10.81,10.81,0,0,0,10.43.61c3.05-1.36,5-3.71,5.31-6.45.39-3.4-2.54-6.14-5.42-7.24-2.35-.9-5.44-1-7.13,1.35l-3.91-2.78c2.7-3.79,7.7-5,12.77-3.06,4.55,1.76,9.14,6.34,8.46,12.27-.51,4.42-3.55,8.26-8.13,10.29a16.42,16.42,0,0,1-11.3.8c.12.24.22.48.32.73A16.79,16.79,0,0,1,2117.62,255.44Zm-8.72-3.89a16.57,16.57,0,0,0,3.76,2.39,10.63,10.63,0,0,0-.53-2,6.82,6.82,0,0,0-3.92-4Z"/><path d="M2219.91,316.12a31.9,31.9,0,0,1-11.38-2.16,15.36,15.36,0,0,1-11.66-7.24,36.52,36.52,0,0,1-8.7-11.72,18.8,18.8,0,0,1-6.44-6.78,12.38,12.38,0,0,1-1.52-7.67c-12.79-8.43-18.22-26.17-15.72-40.66,1.28-7.47,4.15-12.95,8.54-16.29,6.72-5.13,16.32-5.11,29.37.05,7.66,3,16.77,7.66,19.24,16.69,1.63,5.94-2.08,12-6.4,14.77-3.89,2.45-8.07,2.31-11.18-.38l3.12-3.64c2,1.73,4.31.71,5.5,0,2.84-1.79,5.3-5.91,4.34-9.44-1.92-7-9.76-10.88-16.38-13.49-11.33-4.49-19.43-4.73-24.7-.71-3.39,2.59-5.65,7.06-6.72,13.29-2.16,12.5,2.24,27.72,12.74,35.24a12.82,12.82,0,0,1,5.43-4.53,15.85,15.85,0,0,1,4.26-5.64c4.39-3.59,11-3.65,14.64-.07a9.57,9.57,0,0,1,2.77,7.56,12.3,12.3,0,0,1-.51,2.81c.88.7,1.71,1.41,2.48,2.1a21.66,21.66,0,0,1,4,2.33,34.82,34.82,0,0,1,13.51,32.84l-.25,1.58-1.55.38A28.9,28.9,0,0,1,2219.91,316.12Zm-3-5a24.09,24.09,0,0,0,7-.17,29.27,29.27,0,0,0-1.43-12.14A16.86,16.86,0,0,1,2216.94,311.14Zm-16.34-7.52a32.28,32.28,0,0,0,8.89,5.56,5.63,5.63,0,0,0,.91-.1c5.13-.86,8.06-7.25,7.24-12.39-.75-4.74-3.68-9.32-9.18-14.37a7.68,7.68,0,0,0-3.46-.65l-.56.46a13.86,13.86,0,0,1-3.52,1.95,14.75,14.75,0,0,0-1.75,5.11c-1,5.62-.65,10.28,1.12,13.85C2200.39,303.23,2200.49,303.43,2200.6,303.62Zm-8.65-12a15.15,15.15,0,0,0,2,.85,38.06,38.06,0,0,1,.56-4.19,28.88,28.88,0,0,1,.75-3.15,21.34,21.34,0,0,1-5-.46A26.63,26.63,0,0,0,2192,291.66Zm-7-8.58a7.52,7.52,0,0,0,.36,1.47q-.06-.68-.09-1.35Zm5.16-3.31a16.74,16.74,0,0,0,7.89.21,10.67,10.67,0,0,1,2-1.68,9.4,9.4,0,0,1,2-.93,17.88,17.88,0,0,0-5.81-2.32,11.81,11.81,0,0,0-5.18.15,21.67,21.67,0,0,0-.83,3.77C2190.19,279.24,2190.16,279.51,2190.14,279.77Zm4-9.75a16.8,16.8,0,0,1,3.06.31,23,23,0,0,1,7.11,2.76.41.41,0,0,1,0-.11,5,5,0,0,0-1.32-3.83c-2.15-2.1-6-1.51-8.26.34A6,6,0,0,0,2194.09,270Z"/><path d="M2265.39,341.61h-.06c-5.11,0-8.09-4.41-9.23-9.6a43.49,43.49,0,0,1-12.8-1.4,44.06,44.06,0,0,1-5.84-1.87,18,18,0,0,1-7.05,6.66c-10.15,5.3-22.45-.95-27.62-10.11-4.32-7.67-5.22-17.4-2.75-29.78,2.56-12.79,8.11-21.37,16.06-24.8,4.89-2.11,11.09-1.24,15.82,2,.93-1.41,1.89-2.79,2.93-4.12,2-2.56,4.73-5.67,8.57-7a12.72,12.72,0,0,1,10.33,1.1,18.32,18.32,0,0,1,8.75,11.46,25.47,25.47,0,0,1-.06,12.21,42.79,42.79,0,0,1,9.45,11.8,11.59,11.59,0,0,1,6.53,6.67,17.3,17.3,0,0,1-1,14.68,41.31,41.31,0,0,1-1.78,12.17C2273.71,337.91,2269.89,341.61,2265.39,341.61Zm-4.48-10.18c.69,2.83,2.08,5.37,4.45,5.38h0c2.67,0,4.71-3.5,5.63-6.51a37,37,0,0,0,1-4,21.18,21.18,0,0,1-3.14,2.2A26.64,26.64,0,0,1,2260.91,331.43Zm-39.06-57.08a9.56,9.56,0,0,0-3.85.77c-8.13,3.5-11.69,13.53-13.26,21.33-2.23,11.2-1.5,19.86,2.24,26.48,4,7.08,13.69,12.18,21.19,8.22a13.11,13.11,0,0,0,4.91-4.52,22,22,0,0,1-9.48-10c-2-4.44-2-9.32-1.81-12.65a21.64,21.64,0,0,1-4.4-5c-3.37-5.34-3.63-11.12-.72-15.88l.72-1.16,1.38,0a17.46,17.46,0,0,1,7.46,1.82,64.47,64.47,0,0,1,3.23-6.89A13.4,13.4,0,0,0,2221.85,274.35Zm17.71,50a37.49,37.49,0,0,0,4.9,1.56,40,40,0,0,0,11.1,1.27v-.77l-.51.07c-5.49.74-10.18-1.58-12.24-5.94-1.53-3.25-1.42-6.89-1.09-10.32.09-.89.19-1.76.3-2.64l-.91.28a5.73,5.73,0,0,1,.07.58A36.24,36.24,0,0,1,2239.56,324.39Zm20.83.48c0,.6,0,1.18,0,1.77a21.51,21.51,0,0,0,6.13-2.29,17.15,17.15,0,0,0,6.1-6.05,40.23,40.23,0,0,0-3.88-15.82,4.18,4.18,0,0,0-2.3.85,6.68,6.68,0,0,0-1.07.94,15.87,15.87,0,0,1,2.38,11.52A13.09,13.09,0,0,1,2260.39,324.87ZM2226.53,307a19.32,19.32,0,0,0,1.46,7.66,17.11,17.11,0,0,0,7.19,7.59,31.92,31.92,0,0,0,1.24-13.25l0-.19h0A18.52,18.52,0,0,1,2226.53,307Zm20.63-1.56c-.27,1.75-.49,3.51-.66,5.27-.26,2.58-.44,5.5.66,7.82,1.71,3.61,6,3.36,7.3,3.22a12,12,0,0,0,1.28-.24c.18-3,.51-6,1-9a25.9,25.9,0,0,1,2.69-8.1,17.67,17.67,0,0,0-5.49-3.84A31.55,31.55,0,0,1,2247.16,305.45Zm15.33,3.84a22.23,22.23,0,0,0-1,4c-.29,1.83-.53,3.68-.7,5.54a7.35,7.35,0,0,0,2.24-3.95A10.45,10.45,0,0,0,2262.49,309.29Zm-35.72-7.59a14.32,14.32,0,0,0,8.72,2.38,28.74,28.74,0,0,0-6.79-12.67A57.42,57.42,0,0,0,2226.77,301.7Zm3.56-15.23c4.78,4,8.19,10.21,9.88,16.7a27.32,27.32,0,0,0,2.62-.95,101.15,101.15,0,0,1,3.35-13.44c.53-1.64,1.93-6,5.87-6.95a8.07,8.07,0,0,1,6.13,1.35,20.53,20.53,0,0,0-.35-7.88,13.58,13.58,0,0,0-6.38-8.37,8,8,0,0,0-6.47-.78c-2.63.92-4.77,3.36-6.34,5.4-1.11,1.45-2.16,3-3.14,4.5a11.1,11.1,0,0,1,2,10.85l-4.53-1.59a6,6,0,0,0-.18-4.49A60.43,60.43,0,0,0,2230.33,286.47Zm27,10.44a22.36,22.36,0,0,1,5,3.63,12.82,12.82,0,0,1,1.34-1.12,9.4,9.4,0,0,1,2.64-1.34,38.11,38.11,0,0,0-5.56-6.78,29.65,29.65,0,0,1-2.65,4.56C2257.8,296.22,2257.54,296.57,2257.28,296.91Zm-3.75-10.45a1.27,1.27,0,0,0-.34,0c-.91.22-1.7,1.44-2.45,3.75-.93,2.88-1.71,5.81-2.38,8.77l.84-.65.37-3.84a19.73,19.73,0,0,1,3,.54c.54-.63,1-1.29,1.53-2a24.38,24.38,0,0,0,2.73-5l-.41-.31A6.55,6.55,0,0,0,2253.53,286.46Zm-33.4.41c-1.19,2.89-.74,6.29,1.32,9.54a14.71,14.71,0,0,0,1,1.37,62.68,62.68,0,0,1,2.19-9.46A13.17,13.17,0,0,0,2220.13,286.87Z"/><path d="M1995.38,271.69a166.72,166.72,0,0,1-21-1.75c-6.26-.79-14.06-1.78-20-6.41-7.63-6-9.67-15.41-9.55-25.34a23.78,23.78,0,0,1-1.1-8c-.12-9.08.3-19.66,4.43-29.24,4.47-10.4,13.11-17.92,22.54-19.64,14.54-2.71,27.89,8.32,33.09,20,3,6.75,4.4,14.4,4.16,23.45l.13,0a18.47,18.47,0,0,0,7.42-3,15.56,15.56,0,0,1-4.32-11.61c.23-3.42,1.74-6.1,4.12-7.34a6.24,6.24,0,0,1,6.74.59,11.29,11.29,0,0,1,4.14,10.39,17.15,17.15,0,0,1-3.34,7.57,10.49,10.49,0,0,0,6,1l4-.6-2.35,6.39a9.91,9.91,0,0,1,4.54,2.52c1.69,1.71,2.65,4.12,2.9,7.36,1.2,14.79-11.11,26.79-23.89,31A59.31,59.31,0,0,1,1995.38,271.69ZM1950,244.86c.75,6,2.85,11.33,7.38,14.89,4.86,3.81,11.63,4.67,17.61,5.43,12,1.51,25.53,3.23,37.61-.74,10.73-3.54,21.6-13.87,20.61-26.05a6.93,6.93,0,0,0-1.53-4.38,5.73,5.73,0,0,0-2.8-1.37l-7.58,20.58-4.5-1.65L2024,232a91,91,0,0,0-16.47-.49q-.45,4.31-1.32,9c-1.14,6.23-2.77,12.68-7,17.66s-12.32,8.39-19,4.89l-.64-.33-.36-.63a18.66,18.66,0,0,1-1.75-13.16,36.56,36.56,0,0,1-20.17-.51A24.75,24.75,0,0,1,1950,244.86ZM1983,259.14c4.22,1.71,9.57-.61,12.49-4,3.51-4.12,4.93-9.84,6-15.41.42-2.31.77-4.55,1-6.69-2.86,5.06-7.67,9.23-12.77,10.81a14.86,14.86,0,0,1-1.92.46A31.26,31.26,0,0,1,1983,247c-.18.47-.35,1-.5,1.44A14.63,14.63,0,0,0,1983,259.14Zm-33.38-21.86c1.7,3.61,5.85,5.59,9.06,6.6a31.55,31.55,0,0,0,20.71-.57,2.1,2.1,0,0,1,.13-.26,13.3,13.3,0,0,1-1.86-1.23c-7.1-5.6-6-16.3-2.81-23.75a25.7,25.7,0,0,1,2.08-3.95,8.62,8.62,0,0,1-2.12-3.24,7.87,7.87,0,0,1,1.1-7.18,10,10,0,0,1,7.87-4.37h.22a13,13,0,0,1,7.71,2.78,11,11,0,0,1,4.93,1.33,15.45,15.45,0,0,1,4.07,3.17c-.39-1.14-.83-2.26-1.32-3.34-4.46-10-15.71-19.4-27.85-17.22-7.87,1.43-15.15,7.87-19,16.82a50.7,50.7,0,0,0-3.6,14.87,8,8,0,0,1,2-1.81,5.67,5.67,0,0,1,5.08-.51l-1.62,4.52a1,1,0,0,0-1,.09c-1.24.75-2.49,3.43-2.85,6.09A107.54,107.54,0,0,0,1949.65,237.28Zm29.77-17.61-.12.26c-2.49,5.9-3.62,14.19,1.36,18.12a7.9,7.9,0,0,0,1.44.91,27.62,27.62,0,0,1,9.64-8.2c.54-.29,1.11-.54,1.66-.79.25-.61.48-1.24.68-1.86a52.38,52.38,0,0,1-7.89-3.26A18.11,18.11,0,0,1,1979.42,219.67Zm37.39,7c3,.14,5.94.41,8.88.72l.08-.22a15.72,15.72,0,0,1-6.42-2.26A22,22,0,0,1,2016.81,226.62Zm-17-2,.61.1a21.51,21.51,0,0,0-.32-9.25c-.12.21-.26.43-.41.64A27.58,27.58,0,0,1,1999.81,224.59Zm-13.57-5.19c.68.42,1.4.8,2.11,1.17a48.57,48.57,0,0,0,6.74,2.82,23.56,23.56,0,0,0,.13-3.75l-.41.14A14,14,0,0,1,1986.24,219.4Zm32-12.58a1.37,1.37,0,0,0-.65.18c-1,.53-1.48,2.12-1.57,3.42a11,11,0,0,0,3,8,12.22,12.22,0,0,0,2.45-5.47,6.62,6.62,0,0,0-2.23-5.72A1.78,1.78,0,0,0,2018.19,206.82Zm-34.36,6.28c2.69,1.45,6.42,3.08,9.56,2.09a3.81,3.81,0,0,0,1-.52,18.74,18.74,0,0,0-2.39-5.27c-.21-.32-.43-.62-.66-.92a7.11,7.11,0,0,0-.83.2A15.7,15.7,0,0,0,1983.83,213.1Zm.2-9h-.13a5.28,5.28,0,0,0-4,2.29,3.48,3.48,0,0,0-.67,2.28,14.15,14.15,0,0,1,1.72-2.14,15.69,15.69,0,0,1,3.16-2.43Z"/><path d="M1887.56,271c-.46,0-.91,0-1.36-.06-9.71-.7-16.72-8.84-19.36-16.59a36.41,36.41,0,0,1-1.79-9.63,17,17,0,0,1-14.06-3.39,18.2,18.2,0,0,1-5.28-8.12c-3.41-9.88.5-21.71,8.71-28.84a25.63,25.63,0,0,1,.37-2.84c2.71-16,9.39-25.1,18.82-25.51a13.9,13.9,0,0,1,9.59,3.26,42.56,42.56,0,0,1,16.33-4.49l3.11-.18-.61,3a47.64,47.64,0,0,1-10.51,21.39,35.37,35.37,0,0,1,0,3.58,35,35,0,0,1,5.26,3.8,37.9,37.9,0,0,1,5,5.31,27.8,27.8,0,0,0,7.08-.63l1.14,4.66a26.73,26.73,0,0,1-5,.72,48.34,48.34,0,0,1,6.22,24c0,9.44-4,19.26-10.22,25A19.39,19.39,0,0,1,1887.56,271Zm-17.77-27.71a32.58,32.58,0,0,0,1.6,9.51c2.51,7.4,8.75,12.89,15.15,13.36a14.23,14.23,0,0,0,11.07-4.2c5.28-4.9,8.69-13.35,8.7-21.51a43,43,0,0,0-7.11-24c-1.72-.1-3.43-.26-5.13-.41s-3.33-.31-4.9-.41a68.41,68.41,0,0,1-4.37,11.39c-3.62,7.38-7.92,12.4-13.16,15.35A20,20,0,0,1,1869.79,243.33Zm-14.22-33.39c-5.44,5.92-7.83,14.49-5.33,21.75a13.81,13.81,0,0,0,3.86,6c3,2.53,7.18,3,10.92,2.13a77.64,77.64,0,0,1,1.26-10.6c.82-4.7,2.06-9.54,5.36-13.1,3.79-4.08,8.64-5.25,13.81-5.36.39-1.78.71-3.59.94-5.4-.28-.13-.56-.27-.85-.39a46.76,46.76,0,0,1-14.06,8.09,18.72,18.72,0,0,1-9.27,1,33.79,33.79,0,0,0-.44,4.14L1857,218a39.57,39.57,0,0,1,.7-5.76A7.79,7.79,0,0,1,1855.57,209.94Zm28.6,5.7c-3.57.24-6.64,1.23-9,3.77-2.59,2.78-3.5,7-4.17,10.68-.42,2.37-.82,5-1,7.74,4.07-2.53,7.52-6.75,10.53-12.89A62.65,62.65,0,0,0,1884.17,215.64Zm6.15-4.7c1.4.09,2.8.21,4.2.35l.4,0c-.44-.43-.89-.85-1.34-1.25a32.4,32.4,0,0,0-2.71-2.12C1890.71,209,1890.53,209.94,1890.32,210.94Zm-27-1.52a15.25,15.25,0,0,0,6.56-.84,42,42,0,0,0,10.2-5.38,28,28,0,0,0-14.49.4A39.2,39.2,0,0,0,1863.29,209.42Zm11-28.57h-.43c-8.72.38-12.46,12-14,19.9.26-.14.53-.26.79-.38.53-.25,1.06-.48,1.6-.69A49.26,49.26,0,0,1,1878.59,182,8.91,8.91,0,0,0,1874.24,180.85Zm-.89,16.81a35.59,35.59,0,0,1,11.18,1.84c.71-.67,1.39-1.36,2.06-2.07a25.24,25.24,0,0,0-4.34-12.16,44.38,44.38,0,0,0-13.44,12.7A32.67,32.67,0,0,1,1873.35,197.66ZM1886.54,183a27.74,27.74,0,0,1,4,9.44,42.6,42.6,0,0,0,5.94-12.47A38.07,38.07,0,0,0,1886.54,183Z"/><path d="M2204.83,266.77a29.64,29.64,0,0,1-13.57-3.14,19.31,19.31,0,0,1-2.15-.62c-8.12-2.95-12.69-11.12-13.32-23.5A118.1,118.1,0,0,1,2167,251c-3.66,4.25-7.81,8.25-13.37,8.7l-1.83.15-.62-1.73c-5.91-16.35-.52-36.29,12.81-47.44a41.74,41.74,0,0,1,16.51-8.32,26.75,26.75,0,0,0-6.07-12.09c-7.18-7.93-20.14-10.07-29.5-4.89a21.06,21.06,0,0,0-3.51,2.42,33.11,33.11,0,0,1,5.25,21.37c-.51,4.82-3.9,9.84-7.73,11.45a6.64,6.64,0,0,1-7-.94,10.32,10.32,0,0,1-3.16-5.39c-2.61-9.2.09-19.62,6.27-26.91a24.36,24.36,0,0,0-5.53-4.64c-8.69-5.28-20.6-4.21-27.66,2.52a24.19,24.19,0,0,0-6,9.41,23.39,23.39,0,0,1,15.29,10.28,20.15,20.15,0,0,1,1.08,17.75c-2.16,5.32-6.23,9.11-11.19,10.4-3.54.93-6.75.29-8.81-1.69-2.23-2.14-2.54-5.28-2.74-7.35-.84-8.66-1.21-17.38.3-25.15a22,22,0,0,0-6.64,1.11c-8.08,2.68-15.18,9.72-19.53,19.33a63.12,63.12,0,0,0-3.69,10.94,21,21,0,0,1,1.18,6.06,16.77,16.77,0,0,1-4.85,13.07l-4.86,4.69.81-6.71a162.81,162.81,0,0,1,2.69-16.75,14.22,14.22,0,0,0-4-5.24c-5.93-4.78-15.44-5.14-23.15-.9-8.42,4.64-13.37,13.21-16,19.59l-4.42-1.85c3-7.08,8.51-16.64,18.15-21.94,9.36-5.17,21.08-4.61,28.47,1.36a17.74,17.74,0,0,1,2.67,2.67,62.56,62.56,0,0,1,2.65-7c4.89-10.81,13-18.79,22.38-21.9a27.78,27.78,0,0,1,9.38-1.36,28.93,28.93,0,0,1,7.53-12.31c8.57-8.18,22.95-9.55,33.47-3.14a29,29,0,0,1,6.44,5.35,26.52,26.52,0,0,1,4.11-2.83,29.49,29.49,0,0,1,35.39,5.89,30.9,30.9,0,0,1,6.63,12.14,25.37,25.37,0,0,1,8.28-7.94c10.53-6.2,23.65-3.07,35.14.36,5.43,1.62,12.21,3.63,16.77,8.66a20.81,20.81,0,0,1,5.09,11.88c3.54-.36,7.15-.92,10.86-1.49,8.19-1.25,16.65-2.54,25.21-1.76l-.44,4.78c-8-.76-16.14.51-24.05,1.73-3.77.57-7.6,1.17-11.45,1.54a47.79,47.79,0,0,1-4.49,17c-5.88,13.06-13.48,22.42-22.6,27.82A35.68,35.68,0,0,1,2204.83,266.77Zm-1-4.8a30.17,30.17,0,0,0,16.65-4.33c8.26-4.89,15.22-13.53,20.68-25.67a46.27,46.27,0,0,0,4-14.71,59.48,59.48,0,0,1-7.91-.16,72.25,72.25,0,0,1-15.69-3.61,22.75,22.75,0,0,1,4.79,8.94c2,7.79-.53,16.69-7.58,26.44C2214.91,254.19,2209.65,259.25,2203.78,262Zm-10.9-2.91c8.11,1.41,16.58-5.54,22-13,6.18-8.53,8.47-16.07,6.83-22.41-1.77-6.77-7.79-11.11-11.22-13.09-.53-.3-1.06-.59-1.6-.86a41.11,41.11,0,0,0-15-.88c-2.77.36-5.59.92-7.49,2.6a5.18,5.18,0,0,0-.41.4,42.77,42.77,0,0,1-1.49,9.32,54.47,54.47,0,0,1-3.64,9.6c-.56,8.85.83,19.9,9.37,26.59A19.21,19.21,0,0,0,2192.88,259.06Zm-12.31-51.84a36.8,36.8,0,0,0-13.55,7.1c-11.31,9.45-16.18,26.05-12,40.18,3.08-1,5.81-3.76,8.31-6.67A94.74,94.74,0,0,0,2176,229.69c.1-1.14.24-2.3.38-3.49A90.12,90.12,0,0,1,2180.57,207.22Zm-86-7.93c-1.58,7.59-1.05,16.21-.27,24.25.17,1.82.41,3.51,1.29,4.36s2.85.86,4.27.5a12.15,12.15,0,0,0,8-7.54,15.34,15.34,0,0,0-.74-13.46C2104.47,203.19,2099.79,200.33,2094.53,199.29Zm43.43-8c-4.69,6-6.66,14.29-4.57,21.63a5.91,5.91,0,0,0,1.52,2.94,1.88,1.88,0,0,0,2.12.26c2.25-.94,4.5-4.45,4.81-7.51A28.25,28.25,0,0,0,2138,191.31Zm72.58,13.84c3.55.84,6.92,1.94,10.25,3,5.61,1.83,10.9,3.57,16.9,4.13a55.23,55.23,0,0,0,7.39.15,15.78,15.78,0,0,0-3.88-9c-3.65-4-9.46-5.76-14.59-7.29-11-3.28-22.45-6-31.33-.81a20.41,20.41,0,0,0-6.14,5.62A42.56,42.56,0,0,1,2210.54,205.15Z"/><path d="M1774.91,863.37l-2.14-3.25c16.47-10.87,35.14-23.18,42.42-39a76.82,76.82,0,0,0,2.72-7.19c.8-2.38,1.65-4.85,2.73-7.26,9.37-20.9,38.93-36.88,70.29-38l.14,3.89c-30,1.09-58.08,16.11-66.88,35.72-1,2.25-1.78,4.52-2.6,6.93a78,78,0,0,1-2.87,7.55C1811,839.57,1791.81,852.21,1774.91,863.37Z"/><path d="M1901.28,826.8a170.8,170.8,0,0,1-47.22-44.1l3.89-2.81a166.07,166.07,0,0,0,45.87,42.85Z"/><rect x="1857.48" y="784.74" width="4.8" height="70.7" transform="translate(62.52 1769.4) rotate(-51.64)"/><path d="M1870.21,863a86.29,86.29,0,0,1-61.39-41.32l4.16-2.4a81.41,81.41,0,0,0,57.9,39Z"/><path d="M1852,882.36c-12.48,0-24.24-6.5-36.14-13.8-6.87-4.2-14.66-9-20.28-15.85l3.72-3c5.1,6.24,12.2,10.58,19.06,14.79,12.79,7.83,25.35,14.76,38.21,12.74l.72,4.75A36.55,36.55,0,0,1,1852,882.36Z"/><path d="M2339.23,796.75l-4.19-2.36c14.5-25.75,12.91-58.43,11.63-84.69l4.79-.23C2352.78,736.34,2354.4,769.8,2339.23,796.75Z"/><path d="M2367,787.15l-3.84-2.88a100.64,100.64,0,0,0,19.35-68.75l4.78-.44A105.53,105.53,0,0,1,2367,787.15Z"/><path d="M2383.81,789.69l-3.49-3.3c8.38-8.83,17-17.95,23.77-28.34,7.44-11.49,11.35-22.85,11.6-33.77l4.8.11c-.28,11.83-4.44,24-12.37,36.26C2401.15,771.41,2392.33,780.71,2383.81,789.69Z"/><path d="M2401.36,799.46l-1.53-4.55c13.82-4.64,28.11-9.44,40.16-17.95,13.14-9.29,21.27-22,22.32-34.84l4.78.39c-1.16,14.27-10,28.26-24.34,38.37C2430.14,789.8,2415.51,794.71,2401.36,799.46Z"/><path d="M2424.31,816.47a122.76,122.76,0,0,1-18-1.32l.7-4.75a123,123,0,0,0,80.46-16.11l2.49,4.11A128.18,128.18,0,0,1,2424.31,816.47Z"/><path d="M2440.35,840.9a128.25,128.25,0,0,1-33-4.32l1.23-4.64a124,124,0,0,0,61.28.61l1.15,4.65A128.07,128.07,0,0,1,2440.35,840.9Z"/><path d="M2445.92,861.63c-5.64-2.35-11.86-3.68-17.87-5-6.81-1.45-13.86-3-20.39-6l2-4.36c6.05,2.79,12.53,4.17,19.39,5.63,6.23,1.33,12.66,2.71,18.71,5.22Z"/><path d="M2023.67,590.74c-1.75-9.19-9.49-17.68-21.25-23.3a146.54,146.54,0,0,0-16.72-6.34,165,165,0,0,1-16-6c-22-10.06-40.58-31-50.85-57.53-8-20.77-11.66-45.07-11.37-76.47a424.44,424.44,0,0,1,26.53-144.08c13.43-36.24,56.07-46.66,93.69-55.85,6.32-1.53,12.55-3.06,18.55-4.67,29.37-7.9,55.91-14.14,82.91-10.56,51.32,6.82,89.31,46.2,126.9,89.45,7.69,8.85,15.64,18,20.32,29.25,6,14.39,5.72,30.62,5.48,44.94-.73,43.56-1.55,92.94-20.93,135.81-7.75,17.13-17,29.09-28.19,36.57a121.18,121.18,0,0,1-15.35,8.16c-10.12,4.77-19.67,9.27-24.79,18.16l-4.16-2.41c5.87-10.18,16.57-15.22,26.91-20.09a115.31,115.31,0,0,0,14.73-7.82c10.45-7,19.11-18.27,26.48-34.56,19-41.95,19.79-90.8,20.5-133.9.23-13.85.48-29.55-5.12-43-4.37-10.52-12.06-19.38-19.5-27.95-37-42.52-74.25-81.23-123.91-87.82-26.17-3.5-52.17,2.65-81,10.43-6,1.61-12.3,3.14-18.66,4.7-38.24,9.34-77.78,19-90.33,52.85a420.13,420.13,0,0,0-26.24,142.45c-.28,30.78,3.24,54.51,11,74.69,9.82,25.34,27.45,45.36,48.36,54.89a155.35,155.35,0,0,0,15.5,5.78,148,148,0,0,1,17.27,6.57c13.15,6.28,21.86,16,23.9,26.73Z"/><path d="M1969.67,477.51h-.5c-12.93-.3-21.89-13.34-22.78-25.24-.9-12.11,4.14-23.48,8.58-33.52l4.39,1.94-.61,1.38c6.76-6.36,14.92-11.43,24-9.23,7.16,1.74,13.08,8.19,15.09,16.43,1.51,6.23,1,13.15-1.47,21.79C1992.77,463.32,1983.66,477.51,1969.67,477.51Zm-14.34-47.3c-2.68,6.94-4.7,14.29-4.16,21.69.74,9.86,8.19,20.57,18.11,20.8h.38c11.34,0,19-12.33,22.07-23,2.27-7.8,2.73-13.93,1.41-19.31-1.56-6.42-6.21-11.6-11.55-12.9-9.27-2.29-18.28,6.17-25,13.78Z"/><path d="M2141.44,484.33c-6.45,0-15.37-.82-18.8-7.78-1.45-2.93-1.43-6.22-1.41-8.86l.21-32.91,3.43,0a43.93,43.93,0,0,1,5-10.29l.44-.67.77-.26a17.85,17.85,0,0,1,14.53,1.5,26.37,26.37,0,0,1,12.66,16.45c2.84,11.58-1.08,23.63-4.23,33.32-.78,2.4-2,6-5.05,7.95C2146.52,484.34,2143.63,484.09,2141.44,484.33ZM2126.14,450l-.11,17.75c0,2.25,0,4.79.91,6.72,2.25,4.54,9.33,5.09,14.5,5.09,2.22,0,3.8-.06,5-.81,1.5-.93,2.27-3,3-5.35,3-9.11,6.65-20.44,4.13-30.7a21.73,21.73,0,0,0-10.28-13.37,13.24,13.24,0,0,0-9.91-1.43,39.29,39.29,0,0,0-6,22.06Z"/><path d="M2068.52,531a430.8,430.8,0,0,1-68.56-5.5c-5.43-.88-10.68-1.92-15.12-5h0c-2.64-1.81-10.67-7.35-8.45-13.67,4.46-12.73,49.77-11.56,50.19-11.52,4.78.34,10.41.44,16.38.53,19.07.31,40.68.67,53.74,8.93,6.26,4,10.79,12.71,7.18,20l-.32.63-.61.36c-7.31,4.33-16,4.89-24.24,5.09C2075.31,530.92,2071.92,531,2068.52,531Zm-81-14.42c3.62,2.48,8.29,3.39,13.16,4.18a427.24,427.24,0,0,0,77.88,5.32c7.36-.18,15-.65,21.25-4.06,1.78-4.62-1.39-10.43-5.71-13.16-11.93-7.54-33.74-7.89-51.26-8.18-6-.1-11.73-.2-16.64-.56-10.61-.74-42.93,1.47-45.33,8.32-.63,1.82,1.79,4.79,6.65,8.14Z"/><path d="M1892.13,293.36c-31.87,0-60.64-4.16-85.49-20.3-8.53-5.53-14.61-11.44-18.61-18.05-4.82-8-7.15-17.91-6.92-29.48.53-26.34,14.72-52.73,37.05-68.86,21.37-15.44,49.32-21.65,76.75-17.11,14.83,2.47,27.14,7.67,36.58,15.47,13.06,10.77,22,28.06,25.26,48.67,2.86,18.27,1.25,36.83-.3,54.77l-4.78-.41c1.53-17.66,3.11-35.93.34-53.62-3-19.44-11.42-35.68-23.57-45.71-8.79-7.25-20.34-12.11-34.32-14.43-26.12-4.36-52.81,1.57-73.15,16.26-21.13,15.27-34.56,40.2-35.06,65.06-.21,10.65,1.88,19.71,6.23,26.9,3.61,6,9.21,11.38,17.11,16.51,33,21.41,73.67,20.91,119.68,18.19l.28,4.8C1916.45,292.77,1904.06,293.36,1892.13,293.36Z"/><path d="M2313.89,299.22a86,86,0,0,1-10.36-.62c-2.45-.3-4.88-.69-7.29-1.15-10.25.47-20.87,0-30-5.05a38.79,38.79,0,0,1-12.49-11.33A291.68,291.68,0,0,1,2219,257.35c-5.28-4.1-8.27-8.43-8.74-12.45-1,2-1.9,4.12-2.74,6.27l-4.47-1.75c7.6-19.42,21.07-34.51,37-45.77a28.16,28.16,0,0,1,5.74-10.29c.45-.49.9-1,1.38-1.42a31.9,31.9,0,0,1,3.5-12.68c7.53-13.46,26.1-14.73,40.18-10.19a72.88,72.88,0,0,1,18,8.67c19-2.3,34.54-.37,47.29,5.9,26,12.8,39.16,47.54,28.14,74.35-.39.93-.79,1.85-1.21,2.75.54,3.69.46,7.93-1.93,11.41-2.58,3.75-6.9,5.37-11.19,6.57l-.12,0C2355,292.59,2333.71,299.22,2313.89,299.22ZM2257,277.4c12.32,6.89,25.54,12.45,39.61,15.23l1.2-.06A252.39,252.39,0,0,0,2336,287.5a68.12,68.12,0,0,0,15.6-5,135.46,135.46,0,0,1-32.06.44,74.21,74.21,0,0,1-7.59-1.18c-12.43,3.09-24.91,4.15-35.76-1.36-6.77-3.43-12.44-9.29-17-17.47a23.62,23.62,0,0,1-4.2-9.12q-1.51-4-2.78-8.45c-.28-1-.56-2-.82-3.07a27.94,27.94,0,0,1-6-4.93,24,24,0,0,1-1.83-2.22,136.54,136.54,0,0,0,4.25,21.54Q2251.32,269.25,2257,277.4Zm16.07-4.75a29.7,29.7,0,0,0,5.26,3.44c7.42,3.77,15.77,4,24.11,2.73a34.26,34.26,0,0,1-6.95-3.89C2287.92,275.19,2280.14,275,2273.06,272.65Zm50.19,5.79a130.47,130.47,0,0,0,37.29-2.37,18.59,18.59,0,0,0,3.89-6.34c4.17-11.42-4-23.63-12.54-33.47a47.27,47.27,0,0,1-9.31,20.76,17.72,17.72,0,0,1-.89,7.53C2338.92,272.18,2331,275.9,2323.25,278.44Zm-18.95-4a44.58,44.58,0,0,0,7.57,2.41c2.9-.76,5.76-1.62,8.53-2.49,7.41-2.31,14.56-5.3,16.77-11.42a1.7,1.7,0,0,0,.12-.34,39.38,39.38,0,0,1-5.68,4.12C2323.24,271.67,2313.75,273.58,2304.3,274.4Zm48.34-44.51.75.83c10.07,11.19,20.94,25.92,15.56,40.65a24.83,24.83,0,0,1-1.17,2.69A54.87,54.87,0,0,0,2378,260c-.14-.67-.29-1.3-.44-1.89a81.66,81.66,0,0,0-26.24-41.84A46.32,46.32,0,0,1,2352.64,229.89ZM2238,226.05c-6.08,4-12.12,8-18,11.91l-.54.37c-1.48,1-3.16,2.09-3.91,3.52-2.3,4.42,4.36,10.08,6.45,11.7a318.32,318.32,0,0,0,26.63,18.86,86.46,86.46,0,0,1-5.41-14.46A142.57,142.57,0,0,1,2238,226.05Zm25.22,34.18a20.93,20.93,0,0,0,6.19,5.55c6.34,3.66,13.87,4.45,21,4.45h.12a24.21,24.21,0,0,1-1.68-2.37,21.42,21.42,0,0,1-2.72-6.81c-6.82-1.83-12.18-5-16.2-9.55a28.75,28.75,0,0,1-3-4,52.79,52.79,0,0,1-7-1.52,13.1,13.1,0,0,0-.32,6.58A66.93,66.93,0,0,0,2263.19,260.23Zm28.24,1.93a16.17,16.17,0,0,0,1.51,3.17,20,20,0,0,0,4.12,4.73c11.06-.49,22.54-1.81,32.1-7.51a35.36,35.36,0,0,0,8.38-7c-.12-.69-.28-1.34-.45-2-.52.44-1.05.85-1.6,1.25a43.41,43.41,0,0,1-21.28,7.65c-.87,0-1.73,0-2.61,0-1.36.11-2.68.2-3.94.27A79.32,79.32,0,0,1,2291.43,262.16Zm-.42-10.7a41.93,41.93,0,0,0,20.45,6.27c5.51-.51,11.6-1.58,17-4.18l.68-.5a19.45,19.45,0,0,0,5.11-5.9,28,28,0,0,0-6.68-7.34c-.68.26-1.37.5-2.05.74a145.63,145.63,0,0,1-33.24,7.14c-.09.21-.18.43-.26.64A23.45,23.45,0,0,0,2291,251.46Zm-.55,5.66,1.24.23-1.25-.66C2290.46,256.83,2290.46,257,2290.46,257.12Zm-17.05-8.93a.74.74,0,0,1,.12.13,26.59,26.59,0,0,0,12.11,7.58c0-.72.06-1.45.13-2.18a44.55,44.55,0,0,1-6.24-5.39C2277.35,248.32,2275.37,248.3,2273.41,248.19Zm74.87-40.32a86.75,86.75,0,0,1,32.77,44.88c7.73-24.06-4.3-53.6-27.08-64.8-10.72-5.28-23.67-7.26-39.38-6l1.37,1.15c13.14,3.2,25,11.4,31.43,23.07C2347.7,206.74,2348,207.31,2348.28,207.87Zm-7.42,41.93c.13.32.24.63.35.95a41.57,41.57,0,0,0,3.65-7.12A33.46,33.46,0,0,1,2340.86,249.8Zm-54.51-1.68a6,6,0,0,0,.49.39c0-.14.08-.28.13-.42C2286.77,248.1,2286.56,248.12,2286.35,248.12Zm-13.07-43c-.1.35-.19.69-.29,1a41.86,41.86,0,0,0,7.6,36.07c.33.42.67.82,1,1.23,2.51-.06,5-.17,7.5-.36a26,26,0,0,1,15.5-12.82c7.79-2.18,16.39-.41,23.43,4.08a12.84,12.84,0,0,0,4.85-3.65c2.74-3.64,2.12-8.92.78-13.36-10.64-9.59-22.28-16.83-35.71-17.56C2289.57,199.41,2281.19,201.66,2273.28,205.15ZM2270,243.08c1.74.2,3.56.32,5.48.39a46.89,46.89,0,0,1-7.78-35.64l-.64.33c-1.24,3-1.33,6.52-1.32,10.21C2265.81,227.12,2266.44,236,2270,243.08Zm41.63-8.92a19.86,19.86,0,0,0-16.43,8.39,141,141,0,0,0,27-6A25.15,25.15,0,0,0,2311.64,234.16Zm-56.1,4.93a35.62,35.62,0,0,0,8.81,3.08c-2.8-7.25-3.35-15.58-3.39-23.77a47.86,47.86,0,0,1,.34-7c-2.35,1.35-4.64,2.76-6.88,4.15l-2.49,1.56A147.23,147.23,0,0,0,2255.54,239.09Zm76.72-1.52a33.09,33.09,0,0,1,4.11,4.34,33.3,33.3,0,0,0,1.19-9.51,14.6,14.6,0,0,1-.82,1.23A15.89,15.89,0,0,1,2332.26,237.57Zm9.42-12.4a43.93,43.93,0,0,1,.28,13.2,33.21,33.21,0,0,0,2.09-10.72C2343.26,226.81,2342.48,226,2341.68,225.17Zm-98.22-2.69a21.2,21.2,0,0,0,5.42,11.59c.26.29.53.56.8.83-1-4.94-1.78-9.93-2.29-14.93C2246.07,220.8,2244.77,221.64,2243.46,222.48Zm-5.05-11.67a101.08,101.08,0,0,0-22.44,24l.75-.5.55-.36c6.74-4.48,13.62-9.05,20.55-13.56A66.81,66.81,0,0,1,2238.41,210.81Zm100.75,5.11c1.44,1.35,2.85,2.74,4.25,4.16a31.19,31.19,0,0,0-1.41-5,37.48,37.48,0,0,0-4.23-8.1c-1.29-.7-2.6-1.36-3.92-2A61.66,61.66,0,0,1,2339.16,215.92Zm-92.91-10.73a34.54,34.54,0,0,0-2.9,10.59c0,.37-.07.74-.09,1.12l3.66-2.33q-.32-4.8-.32-9.6Zm5.17-3.22q-.09,4.84.14,9.68l.33-.21c3.69-2.29,7.56-4.63,11.57-6.79l.15-.27a18.09,18.09,0,0,1,7.55-6.77,23.62,23.62,0,0,1,6.37-7.68A143.81,143.81,0,0,0,2251.42,202Zm62.48-3.35a69.12,69.12,0,0,1,15.69,9.14c-.58-1.09-1.18-2.18-1.82-3.24s-1.39-1.9-2.13-2.82A80.44,80.44,0,0,0,2313.9,198.62Zm15.39-.72.11,0a1.39,1.39,0,0,0-.19-.15Zm-71.51-7.23a33.5,33.5,0,0,0-5.84,5.47,150,150,0,0,1,20-9.29l-.66.11A56.51,56.51,0,0,0,2257.78,190.67Zm41.14,1.77a87.38,87.38,0,0,1,20.14,2.36,52.91,52.91,0,0,0-10.48-7.24q-2.58-.66-5.28-1.13a42.3,42.3,0,0,0-13.66,2.38,29.35,29.35,0,0,0-10.33,5.91l.71-.16A85,85,0,0,1,2298.92,192.44Zm-22.82-20.91c-8.91,0-17.32,3-21.28,10.07a22.4,22.4,0,0,0-2.25,6.33c.92-.53,1.85-1,2.8-1.44,12.48-8.86,29.38-11.57,44.66-7.42l1.26-.23a67.27,67.27,0,0,0-11.94-5.21A44,44,0,0,0,2276.1,171.53Z"/><path d="M1892.56,294.33a65.43,65.43,0,0,1-42-15.35,75.17,75.17,0,0,1-10.19-10.52c-3.88-1.66-7.69-3.45-11.39-5.26-10.68-5.23-21.65-11.3-29.81-20.33a36.38,36.38,0,0,1-11.9-12c-6.72-11.42-5.42-25.6-3.25-38,2.49-14.22,6.64-30.09,18.58-39.94,8.2-6.77,18.15-9.23,28.29-9.23h.38a11.72,11.72,0,0,1,3.45-3.68c3.43-2.3,7.7-2.16,11.37-1.74a97.23,97.23,0,0,1,18.51,4,71.13,71.13,0,0,1,15.1-.87c15.8.73,30.82,5.83,45.34,10.77,10.06,3.43,20.28,7.54,25.16,16.66,4,7.51,3.21,16.4,1.75,24.89a133.2,133.2,0,0,1-7.76,27.81c.18.71.34,1.42.5,2.13,4.66,21.31-1.32,43.62-15.26,56.83C1919.74,289.75,1906.4,294.33,1892.56,294.33Zm-42.25-22.07c1.1,1.05,2.22,2.07,3.38,3.06,19,16,52.62,20.56,72.48,1.73,11.83-11.22,17.37-29.73,14.64-48.1a73,73,0,0,1-6.06,9.82,54.79,54.79,0,0,1-1.22,6.67c-5.65,22.55-26.83,39.07-48,37.46-8-.58-15.49-3.5-22.07-7.19A96.3,96.3,0,0,1,1850.31,272.26Zm28.36,4.62a39,39,0,0,0,7.24,1.24c18,1.31,36.74-12.9,42.44-32a49.64,49.64,0,0,1-9,7A39.66,39.66,0,0,1,1915,260C1907,270.19,1893.68,276.29,1878.67,276.88Zm-13.53-5.75a69.1,69.1,0,0,0,7.78.9c15.6,1,30.31-4.84,38.29-15v0a65.75,65.75,0,0,1-21.08,3.61c-6.33,2.85-14.14,3.33-20.33-.81q-12.09-1-24.06-2.95c2.87,2.56,5.52,4.67,7.69,6.34A108.41,108.41,0,0,0,1865.14,271.13Zm-21.72-6.62c2.5,1.05,5,2,7.63,2.92l-.52-.4a142.72,142.72,0,0,1-12.82-11A77.61,77.61,0,0,0,1843.42,264.51Zm-28.18-14.43a144.45,144.45,0,0,0,15.89,8.81c1.27.62,2.55,1.24,3.84,1.85q-2-3.18-3.72-6.59-3.49-.75-7-1.59C1821.37,251.86,1818.31,251.05,1815.24,250.08Zm56.29,5.07q3.38.27,6.77.45c3.51.19,7.09.31,10.68.26a19.86,19.86,0,0,0,3.4-2.16,28.55,28.55,0,0,0,6.45-7.39,53.63,53.63,0,0,1-29.07,7.13A12.4,12.4,0,0,0,1871.53,255.15Zm35.82-15.44c-2.56,6.68-5.65,11.75-9.51,15.56a50.42,50.42,0,0,0,14.06-3.69,40.53,40.53,0,0,0,3.74-1.84c4.14-9.06,5.39-20.93,3.84-36A44.34,44.34,0,0,1,1907.35,239.71Zm-68,11.18c8.34,1.58,16.77,2.8,25.23,3.65-.32-.5-.64-1-.93-1.58a62.36,62.36,0,0,1-25.25-9.08,45.08,45.08,0,0,1-9-7.24c.51,1.71,1.07,3.4,1.67,5.05A118,118,0,0,0,1839.37,250.89Zm27.55-2.38c12.87,1,25.52-2.32,34.74-10.07.54-.46,1.06-.93,1.57-1.41.41-1.13.81-2.31,1.19-3.55,1.66-5.3,2.18-12.7-.38-17.26a7.09,7.09,0,0,0-4.64-3.62c-4.36-1-8.83,2.4-10.78,6.21-2.34,4.55-2.5,10.21-2.64,15.2l-4.8-.14c.16-5.5.33-11.74,3.17-17.25s9.36-10.37,16.21-8.68a12,12,0,0,1,7.66,5.93c2.15,3.81,2.64,8.68,2.27,13.23a41.69,41.69,0,0,0,4.5-19.18c-.1-10.34-4.19-19.55-11.24-25.24-2.76-2.24-7.08-4.86-11.89-4.65a13.33,13.33,0,0,0-6.65,2.17c.8-.12,1.6-.26,2.41-.4l.87,4.71a72.8,72.8,0,0,1-8.93,1.09,46.54,46.54,0,0,0-6,11.24,129.12,129.12,0,0,0-8.12,35.61Q1864.62,242.33,1866.92,248.51Zm-64.58-9.35c7.05,4.4,15.56,6.93,23.06,8.73l3.29.77c-.65-1.51-1.27-3-1.84-4.61-10.8-13.59-19.92-31.47-17.82-51.89.07-.68.15-1.35.25-2-7.21,3.76-13.12,9.42-15.59,17.43-3,9.84.21,21.86,8.47,31.38Zm24.91-54.55a212.67,212.67,0,0,0-1.11,27c.11,5.23.44,11.22,2.88,16.19,2.15,4.4,6.07,8.35,12,12.06a57.84,57.84,0,0,0,20.7,8,46.05,46.05,0,0,1-1-15.77,134.49,134.49,0,0,1,8.41-36.94,54.46,54.46,0,0,1,4.58-9.33c-6.34-.17-12.33-.46-18.36-.93a202,202,0,0,0-20.58-.89A67.33,67.33,0,0,0,1827.25,184.61Zm95.11,16.71a98.27,98.27,0,0,1,1.88,11.78c1.31,12.58.74,23.15-1.77,31.91a51.3,51.3,0,0,0,7.65-8.07C1931.24,225.29,1928.47,212.75,1922.36,201.32ZM1814.6,187.78a41.53,41.53,0,0,0-.79,4.87c-1.4,13.64,2.65,26.15,8.86,36.86a120.88,120.88,0,0,1-2.56-26.93,98.68,98.68,0,0,1,1.59-16.93A57.31,57.31,0,0,0,1814.6,187.78Zm43.86-39.13c1.89.61,3.72,1.26,5.49,1.93,23.49,8.84,40.86,20.11,53.08,34.47,11.11,13,17.46,29,18.08,44.36a83.2,83.2,0,0,0,4.07-8.19c-4.24-15.59-13.88-30.71-28.69-45-10.63-10.25-26.39-22.42-46.19-29A60,60,0,0,0,1858.46,148.65Zm-29.22-.09c-8.55.26-16.78,2.53-23.54,8.12-10.74,8.85-14.57,23.7-16.9,37.06-1.47,8.35-2.54,17.56-.74,25.84a31.69,31.69,0,0,1,1-13.41c3.3-10.7,11.69-17.71,21.46-21.91,1.91-6.39,5.27-11.45,9.79-14.64a22.53,22.53,0,0,1,4.59-2.5q1.53-8.31,3.7-16.47C1828.83,150,1829,149.26,1829.24,148.56Zm45.68-2.38c16.37,7.13,29.56,17.58,38.89,26.58,13.59,13.11,23,27,28.14,41.29a135.74,135.74,0,0,0,5.3-21.1c1.32-7.65,2.09-15.58-1.25-21.81-4-7.59-12.94-11.14-22.47-14.38-14.2-4.83-28.89-9.82-44-10.52C1878,146.16,1876.42,146.15,1874.92,146.18Zm-51,26.82-.81.54a20,20,0,0,0-6.66,8.58,62.7,62.7,0,0,1,6.38-1.61l.09-.36C1823.23,177.76,1823.56,175.37,1823.93,173Zm13.57,6.14c6.09,0,12.21.48,18.14.94a182,182,0,0,0,21.56.84,22.29,22.29,0,0,1,9.66-6.8,178.49,178.49,0,0,0-45.65-4.87,58,58,0,0,0-9.37.84,53.41,53.41,0,0,0-3.79,9.58c2.22-.27,4.41-.44,6.52-.49C1835.55,179.15,1836.53,179.14,1837.5,179.14Zm7.78-14.74a183.22,183.22,0,0,1,44.19,5.41c1.5.38,3,.77,4.52,1.21a151,151,0,0,0-31.73-15.94c-3.48-1.32-7.24-2.57-11.15-3.62A41.75,41.75,0,0,0,1839,160a40.51,40.51,0,0,0-4,4.81c2-.21,4-.3,6-.35C1842.49,164.42,1843.89,164.4,1845.28,164.4Zm-11-15.78c-.39,1-.7,2.17-1,3.27q-1.41,5.33-2.55,10.71a44.26,44.26,0,0,1,13.34-12.75A73.37,73.37,0,0,0,1834.28,148.62Zm3.14-4.57a89.79,89.79,0,0,1,13.25,2.35c1.43-.63,2.91-1.2,4.42-1.71a96.21,96.21,0,0,0-9.51-1.61c-3-.34-6-.46-8.15,1Z"/><path d="M2237.55,423.63l-1.49-3.73a57.16,57.16,0,0,1-3.84-25.89,53.91,53.91,0,0,1-1.84-5.3,107,107,0,0,1-4.35-33c-6.8-1.88-11.47-7.48-14.38-14.08a32.93,32.93,0,0,1-3.8-.35,36.78,36.78,0,0,1-16.89-7.14c-.64-.25-1.28-.53-1.93-.83a77.29,77.29,0,0,1-17.33-11.23c-.78,4-1.69,8-2.56,11.78-1.11,4.81-2.4,9.38-6.18,12.35s-9.2,3.58-16.39,1.74c-29.78-7.61-52.62-36.31-53.49-67a30.37,30.37,0,0,1-5,1.28,22.23,22.23,0,0,1-14.52,7.67,29.74,29.74,0,0,1-22.35-6.27,39.58,39.58,0,0,1-10.44-13.44,103.44,103.44,0,0,1-58.13-1.52c-12.07-3.89-19.35-10.84-20-19.06l4.78-.36c.67,8.77,11.87,13.31,16.66,14.86A100.19,100.19,0,0,0,2038,265.9c-.5-.5-1-1-1.46-1.5C2026,253.15,2022,237.29,2026.21,224c2.15-6.75,6.33-11.81,11.48-13.86a18.73,18.73,0,0,1,6.73-1.18c5.72-5.55,13.24-8.46,20.57-7.45,6.4.89,12,4.78,15.79,10.93a30,30,0,0,1,2.86,6.13,47.42,47.42,0,0,1,18.13,12.23c.23-.3.48-.6.74-.89,3.63-4,9.77-6,15.56-4.92,5.1.92,9,3.91,10.64,8.18s1.22,9.16-1.12,14.55a33.59,33.59,0,0,1-1.58,3.18l17.18-5.43a12.22,12.22,0,0,1-2.11-8.21c.48-6.37,4.66-12.09,10.16-13.9,8.27-2.74,18.23.71,26.64,9.2a58.67,58.67,0,0,1,16.43,34.59c5.74,6.63,10.23,14.32,12.31,22.47a57.17,57.17,0,0,1,3.32,9.64,10.05,10.05,0,0,1,2.77-3.79c2.58-2.1,6.28-2.68,10.43-1.64,7.48,1.89,13,8.21,14.79,16.9a28.58,28.58,0,0,1-.09,11.8,9.93,9.93,0,0,1,1.16.52,17.64,17.64,0,0,1-8.19,33.24,102.85,102.85,0,0,0,3.2,27.54,54.15,54.15,0,0,1,2.07-6.19c.78-1.94,1.87-4.06,4-5.2.44-5,1.12-9.92,2-14.85,1.3-7,4.63-11.15,9.53-10.84,4.14.25,7.21,3.95,8.42,10.16a93.58,93.58,0,0,1-.67,38.51,16.69,16.69,0,0,1-3.11,7.23,10.9,10.9,0,0,1-8.93,3.71c-.45,1.53-.95,3.05-1.48,4.57l-3.21,9-.43-2.85a14.43,14.43,0,0,1-2.1,3.43Zm-.24-17.67a51.67,51.67,0,0,0,1.28,6.37A10.11,10.11,0,0,0,2237.31,406Zm-.42-4.44c.07,1.4.21,2.79.39,4.17l2.58-1.65q-.54-.36-1.05-.75A18,18,0,0,1,2236.89,401.52Zm8-29.47a7,7,0,0,1,1.28.64c3.39,2.22,5.18,7.84,4.95,12a94.71,94.71,0,0,1-2.49,16.82,5.92,5.92,0,0,0,3.93-1.94,12.54,12.54,0,0,0,2.11-5.23,88.64,88.64,0,0,0,.63-36.52c-.57-2.95-1.92-6.16-4-6.27h-.12c-2.46,0-3.92,4.33-4.4,6.93C2246,363,2245.36,367.51,2244.93,372.05Zm-7.81,21.16a19.55,19.55,0,0,0,2.7,4.38q-.53-7.68-.32-15.37A52.45,52.45,0,0,0,2237.12,393.21Zm7.39-15.57a154.28,154.28,0,0,0,.12,19.94,89.8,89.8,0,0,0,1.73-13.16A11.72,11.72,0,0,0,2244.51,377.64Zm-9.91-47.12a100.9,100.9,0,0,0-3.58,21,12.82,12.82,0,0,0,5.74-24.18,3.38,3.38,0,0,0-.39-.19A23.42,23.42,0,0,1,2234.6,330.52Zm-17.79,10.82c2.18,4.31,5.29,7.85,9.45,9.38a105.78,105.78,0,0,1,1.8-13.52A26.82,26.82,0,0,1,2216.81,341.34Zm-118.95-62.69q0,.63,0,1.29c.4,28.94,21.85,56.18,49.9,63.33,5.64,1.45,9.66,1.18,12.23-.84s3.57-5.72,4.47-9.67c1.07-4.65,2.19-9.54,3.06-14.54a82.29,82.29,0,0,1-21.63-36.58,126.73,126.73,0,0,1-21.81-7.31,65.53,65.53,0,0,1-13.95-8c-.89.49-1.8,1-2.72,1.39A25.5,25.5,0,0,1,2097.86,278.65Zm121.41,19.48a5.47,5.47,0,0,0-3.51,1.06c-1.53,1.25-2.09,3.65-2.48,6.06a80,80,0,0,0-.22,23.68,43.33,43.33,0,0,0,1.83,7.79,22.14,22.14,0,0,0,11.71-4.36,16.41,16.41,0,0,0,3.57-3.81c.11-.4.24-.79.36-1.19a8.79,8.79,0,0,1,2.09-3.85,23.34,23.34,0,0,0,.61-11.81c-1.41-6.85-5.62-11.8-11.26-13.22A11.29,11.29,0,0,0,2219.27,298.13Zm-16.41,37a31,31,0,0,0,5.68,1.39c.44.07.88.12,1.31.17a48.52,48.52,0,0,1-1.44-6.45,10.88,10.88,0,0,1-2.53,3.15A10,10,0,0,1,2202.86,335.12Zm-9.55-5.25c3,1.14,7,1.9,9.48-.16,1.65-1.38,2.38-3.84,2.87-6.06a50.5,50.5,0,0,0,1-15c-.17.65-.37,1.29-.58,1.94-.68,2.08-1.9,5.05-4.61,6.7-3.16,2-6.94,1.28-9.88.49a63.09,63.09,0,0,1-8.6-3,36.4,36.4,0,0,0,4.9,9.48A28.75,28.75,0,0,0,2193.31,329.87Zm-20.64-13.35a74,74,0,0,0,9.17,7.21,44,44,0,0,1-4.7-11.9c-1.22-.68-2.43-1.41-3.61-2.17Q2173.22,313.11,2172.67,316.52Zm8.68-7.86a58.25,58.25,0,0,0,11.48,4.47c2,.56,4.52,1.06,6.13.06,1-.63,1.84-1.93,2.55-4.11a32.32,32.32,0,0,0,.59-17.82,50.06,50.06,0,0,0-8.43-12.86,9.48,9.48,0,0,1-2.55,3.74c-2.52,2.23-5.81,2.62-8.73,2.79A55,55,0,0,0,2181.35,308.66Zm-27-17.51a78.3,78.3,0,0,0,14,21.13c.24-1.95.43-3.9.54-5.86A70.17,70.17,0,0,1,2154.39,291.15Zm19.48,13c.72.51,1.44,1,2.18,1.47a60.65,60.65,0,0,1,1.36-20.48c-2,0-4,0-6-.05a47.14,47.14,0,0,1,1.63,6.47A64.14,64.14,0,0,1,2173.87,304.11Zm-18.69-20.62a65.12,65.12,0,0,0,13.89,16.85,56.29,56.29,0,0,0-.78-8,41.13,41.13,0,0,0-2.07-7.56Q2160.69,284.38,2155.18,283.49ZM2048.68,274a32.18,32.18,0,0,0,5.6,5.91,25.41,25.41,0,0,0,18.69,5.23,19.33,19.33,0,0,0,7.24-2.39,52.81,52.81,0,0,1-5.71-.42A67.52,67.52,0,0,1,2048.68,274Zm120.81,6.2c3.07.16,6.17.19,9.23.1.14-.44.29-.88.44-1.33.61-1.83,2.47-7.42,7.37-8.58a7.49,7.49,0,0,1,3.23-.07c0-.39-.05-.78-.08-1.17a70.79,70.79,0,0,0-14.26-12c-7.29-4.62-17.87-8-23.62-2.26a11.65,11.65,0,0,0-2.93,5.41C2158.51,263.46,2165.46,271.35,2169.49,280.17Zm18.77-5.21a2.56,2.56,0,0,0-.62.07c-1.47.35-2.71,2-3.77,5a7.54,7.54,0,0,0,4.07-1.44,5.75,5.75,0,0,0,1.66-3.33A3.84,3.84,0,0,0,2188.26,275Zm-35.81,3.18c3.8.72,7.65,1.26,11.51,1.63-3.47-6.45-8.75-12-15.7-14.61A59.62,59.62,0,0,0,2152.45,278.14Zm-104.37-10.2a61.33,61.33,0,0,0,27,9.6,45.08,45.08,0,0,0,10.37.19,19.41,19.41,0,0,0,2.46-5.83,58.28,58.28,0,0,1-29-8.5c-2.22,1.12-4.56,2.17-7,3.13C2050.64,267,2049.36,267.5,2048.08,267.94Zm44.77,3.75a26.78,26.78,0,0,1-1.36,4.71c.58-.21,1.16-.45,1.71-.7a31.21,31.21,0,0,1,.6-4.11Zm21.63-8.08a64.78,64.78,0,0,0,11.54,6.33,123.08,123.08,0,0,0,18.62,6.45c-.34-1.66-.61-3.33-.83-5a42.55,42.55,0,0,1-.37-5.9c-.21-1.12-.39-2.23-.55-3.37l-.43-3.36,1.75.38a16.3,16.3,0,0,1,4.2-7.64c7.73-7.73,20.35-4.24,29.58,1.59a75.24,75.24,0,0,1,10.4,8,53.91,53.91,0,0,0-13.92-25.12c-2.66-2.69-12.09-11.22-21.73-8-4.14,1.36-6.58,5.91-6.87,9.7-.14,1.84.09,5.14,3.19,6.71l5.23,2.65-32.93,10.43A42,42,0,0,1,2114.48,263.61ZM2099,270.68c-.13.41-.26.85-.36,1.29a19.71,19.71,0,0,0,1.44-1.57Zm-35.19-10a52.5,52.5,0,0,0,24.54,6.44h.27a38.12,38.12,0,0,0-.25-7.13,53.15,53.15,0,0,0-6-18.71C2078.79,248.75,2072.44,255.37,2063.81,260.66Zm20.65-25.24a58.34,58.34,0,0,1,8.68,24,42.81,42.81,0,0,1,.3,7.42l.94-.12,1.15-.18a16.52,16.52,0,0,1,2.72-4,18.7,18.7,0,0,1,4.58-3.54c-.3-.41-.59-.84-.87-1.27-4.06-6.22-5.8-15.12-2.75-22.49A40.39,40.39,0,0,0,2085,224.37,29.89,29.89,0,0,1,2084.46,235.42Zm-45.68,1.7a77.14,77.14,0,0,0,.65,10.5,69.78,69.78,0,0,0,4.06,16.76q3.38-1,6.66-2.32c1.24-.48,2.62-1.07,4.09-1.74-7.75-5.63-12.83-12.32-14.76-19.43A23.77,23.77,0,0,1,2038.78,237.12Zm65,26.88-.31.22.26-.1ZM2060,219a19.77,19.77,0,0,0-8.89,1.7c-6.71,3.36-8.84,12.26-7,18.94,2.23,8.18,9.1,14.23,14.46,17.86l.54.35c7.87-4.4,16.58-11.37,20.14-21.65a55.88,55.88,0,0,0-18.79-17.2ZM2040,214.41l-.49.18c-3.8,1.53-7,5.49-8.68,10.86-3.11,9.79-1,21.23,5.21,30.57-.54-2.47-1-5.07-1.33-7.79-1.61-12.71-.43-22.82,3.62-30.9A31.05,31.05,0,0,1,2040,214.41Zm64.89,20.32.45.67a34.26,34.26,0,0,1,5.1,20.45l1-.3,7.26-2.3a31.53,31.53,0,0,0,4.56-7.43c1.28-2.94,2.5-7.21,1.06-10.9-1-2.69-3.6-4.59-7-5.2a12.18,12.18,0,0,0-11.13,3.4A12.56,12.56,0,0,0,2104.85,234.73Zm-2.15,5.79a21.59,21.59,0,0,0,3,14A30,30,0,0,0,2102.7,240.52Zm-32.26-20.63a61.43,61.43,0,0,1,10,9.88,26.84,26.84,0,0,0-.75-7.55A59.19,59.19,0,0,0,2070.44,219.89Zm-24-6a25.82,25.82,0,0,0-3.81,5.58,33.38,33.38,0,0,0-2.79,8,18.78,18.78,0,0,1,9.18-11.12,18,18,0,0,1,3-1.17A29.53,29.53,0,0,0,2046.4,213.9Zm15.31.32.89,0a67.38,67.38,0,0,1,15,2.31c-.28-.55-.58-1.09-.91-1.61-3-4.9-7.4-8-12.36-8.69a19,19,0,0,0-13.43,3.64c1.07.28,2.17.62,3.31,1A55.72,55.72,0,0,1,2061.71,214.22Z"/><path d="M2233.18,515.78l-.85-11.22a29.51,29.51,0,0,1,7.45-21.68l2.93-3.23c1.18-2.33,2.38-4.63,3.63-6.91l4.52-8.25v3.88l1.92-4.9.83,16.11a84.1,84.1,0,0,1,6.6-15.68l1.93-3.45c4.61-8.17,9.39-16.62,6.26-24.24a16.63,16.63,0,0,0-3.38-5c0,.54,0,1.08,0,1.61l0,1.82-1.75.52a15.69,15.69,0,0,1-14.42-3.41c-.39-.32-.75-.65-1.09-1v.54l-4.79.19a42.9,42.9,0,0,1-.05-5.67l0-4.69a13.41,13.41,0,0,1,0-3l1.14.05a43.62,43.62,0,0,1,1.43-4.77l1.12-3.1,13.92,10.78c.43-7.06,1.23-14.08,2-20.94,1.44-12.53,2.92-25.49,2-38l4.78-.36c1,13-.53,26.17-2,38.93-.9,7.88-1.82,16-2.16,24,3,2.55,6,5.64,7.68,9.63,4,9.78-1.59,19.68-6.52,28.42l-1.89,3.38a79.48,79.48,0,0,0-9.67,35.63l-4.79.05-.82-15.68-3.13-.11V483.8c-.55,1.11-1.09,2.24-1.61,3.36l2.72,17.29-4.74.75-1.57-9.93c-1.36,3.28-2.65,6.59-3.84,9.92Zm14.94-93.24a12.22,12.22,0,0,0,3.84,5.51,11.63,11.63,0,0,0,8.25,2.82c0-1.29,0-2.59.06-3.89l-1.39-1.08-9.88-7.64A38.19,38.19,0,0,0,2248.12,422.54Z"/><circle cx="1959.63" cy="455.45" r="10.54"/><circle cx="2131.97" cy="463.45" r="10.54"/><path class="cls-7" d="M2089.88,649a42.82,42.82,0,0,0,67.94,6.9"/><path d="M2108,644.85c-8.5,0-15.87-1.73-21.95-5.19-9.47-5.38-15.41-15.47-14.79-25.1l8,.52c-.43,6.64,3.9,13.73,10.76,17.63,6,3.41,13.84,4.69,23.15,3.91a73.1,73.1,0,0,0,48.34-24.48l6,5.26a81.14,81.14,0,0,1-53.68,27.19Q2110.85,644.85,2108,644.85Z"/><path d="M1789.39,942.41c-1.1,0-2.21,0-3.32-.09l.46-8c27.39,1.58,50.73-20,70-41.39l.63-.68c6.19-6.86,12.6-13.94,20.85-18.88,10.06-6,21.4-7.39,30.33-3.65l-3.07,7.38c-6.61-2.75-15.25-1.59-23.15,3.13-7.23,4.33-13.23,11-19,17.38l-.62.69C1842.67,920.23,1818.59,942.41,1789.39,942.41Z"/><path d="M1758.94,868.7l5.55-9.48a9.5,9.5,0,0,1,8.65-4.5c12.33-6,24.38-16.26,33.82-29,2.68-3.62,5.28-7.33,7.87-11,7.59-10.83,15.45-22,25.48-31.25,15.93-14.65,35.36-21.07,52.08-17.17l-1.83,7.8c-14-3.3-30.84,2.4-44.84,15.26-9.39,8.64-17,19.48-24.33,30-2.65,3.76-5.28,7.52-8,11.19-12,16.27-28.11,28.86-44.11,34.56Z"/><path class="cls-6" d="M1771.3,961.81c10.48,5.1,22.42-5.24,34-3.79,8.94,1.13,14.41-11.33,10.52-19.46s-12.83-12.32-21.1-15.91a23.35,23.35,0,0,0,17.1-14.08c-7.52-8.94-21.39-11.8-31.83-6.56a35.88,35.88,0,0,0,23.46-22.46c-6.27-10.15-22.67-11.8-30.83-3.1,8.67-7.65,17.77-20,11.24-29.51-5.34-7.83-18.16-6.55-24.95.06s-9.15,16.42-11.2,25.68"/><path d="M1777.73,967.23a18.31,18.31,0,0,1-8.18-1.82l3.5-7.19c4.45,2.16,9.69.5,15.76-1.42,5.44-1.71,11.06-3.5,17-2.75a5.49,5.49,0,0,0,5.13-2.65,11.53,11.53,0,0,0,1.26-11.11c-3.18-6.64-10.83-10.4-19.07-14l-12-5.2,12.86-2.4a19.4,19.4,0,0,0,13-9.38,23.43,23.43,0,0,0-21-5.31,36.88,36.88,0,0,1-4.9,1.81l-2.92-7.41a28.79,28.79,0,0,1,5.15-2,31.89,31.89,0,0,0,15.6-16.31,16.87,16.87,0,0,0-21.89-2.32c-.58.55-1.18,1.09-1.79,1.63l-5.57-5.73a19.07,19.07,0,0,1,2-1.84c4.53-4.37,14.11-15,8.89-22.68a8.82,8.82,0,0,0-6.64-3.59,16,16,0,0,0-12.22,4.26c-6.18,6-8.34,15.8-10.08,23.68l-7.81-1.74c2-8.91,4.42-20,12.31-27.68a23.57,23.57,0,0,1,18.6-6.48,16.7,16.7,0,0,1,12.45,7c4.27,6.26,3.78,14.05-1,22.14a29.53,29.53,0,0,1,3,.13c7.49.75,14.12,4.68,17.72,10.5l1,1.6-.61,1.79a39.22,39.22,0,0,1-9.57,15.15,30.33,30.33,0,0,1,17.21,10l1.54,1.83-.88,2.22a27.23,27.23,0,0,1-10.85,12.88c5.74,3.09,11.61,7.4,14.73,13.92,2.79,5.82,2,13.73-2,19.23-3.16,4.38-7.76,6.54-12.62,5.92-4.21-.54-8.75.91-13.56,2.44C1787,965.77,1782.39,967.23,1777.73,967.23Z"/><path class="cls-8" d="M1735.88,868.55c4.1,28.07-7.39,59.31,7.06,83.72a44.9,44.9,0,0,0,26.87,20.28"/><path class="cls-2" d="M1771.33,972.39c-47.43,22.6-96.3,46.27-130.65,86-18.19,21-31.58,45.84-49.47,67.14-59.38,70.7-158.19,92.7-250.16,100.71s-188,7.13-271.09,47.39c-19,9.23-37.08,20.5-56.35,29.24a240.31,240.31,0,0,1-154,14.66c-14.54-3.5-27.5-9-38.14,1.51"/></g></svg>