<svg id="Layer_1" data-name="Layer 1" xmlns="http://www.w3.org/2000/svg" viewBox="0 0 184.74 148.39"><defs><style>.cls-1{fill:#010101;}.cls-2{fill:#fff;}</style></defs><path class="cls-1" d="M103.26,45.29a52,52,0,0,0-25.7,52.33,52.54,52.54,0,0,0,13,27.22,50.49,50.49,0,0,0,11.93,9.71,53.55,53.55,0,0,0,15.37,5.85c11.36,2.53,23.58,2,34.19-3A51.38,51.38,0,0,0,174.35,117a55.7,55.7,0,0,0,7.53-30.18c-.33-10.63-3.31-21.35-9.75-29.93a48.08,48.08,0,0,0-26.06-17.56c-12.14-3.17-24.56-.44-36,4.16-2.93,1.19-5.82,2.49-8.68,3.85-.19.09,0,.86,0,.85,11.15-5.3,23.22-10,35.78-9.39a47.51,47.51,0,0,1,38,23.66,50.2,50.2,0,0,1,5.46,15.26,55.4,55.4,0,0,1-3.23,32.16,52.2,52.2,0,0,1-18.71,22.87,48,48,0,0,1-14.18,6.58,53,53,0,0,1-16.92,1.61c-10.76-.64-21.55-4-30.17-10.6A52.61,52.61,0,0,1,80,106.24a48.21,48.21,0,0,1-.29-31.12A52.35,52.35,0,0,1,96.92,50.34a47.25,47.25,0,0,1,6.36-4.2c.2-.11,0-.86,0-.85Z" transform="translate(-45.39 -10.31)"/><path class="cls-1" d="M181.73,91.25a59.25,59.25,0,0,1-12.9,31.86,64.37,64.37,0,0,1-29,20.39,65.43,65.43,0,0,1-37.48,1.88,60,60,0,0,1-30.57-19A49.16,49.16,0,0,1,59.84,92.11a54,54,0,0,1,13-31.83,65.17,65.17,0,0,1,29.49-19.55,74.4,74.4,0,0,1,37.72-2c10.88,2.22,21.33,7.18,29.09,15.25a46.53,46.53,0,0,1,12.68,28.73,55.85,55.85,0,0,1,0,8.58c0,.31.14.83.18.23.87-11-1.28-22.11-7.27-31.43s-15.1-15.86-25.33-19.61A73.06,73.06,0,0,0,111,37.61,67.58,67.58,0,0,0,78.09,53.87,56.66,56.66,0,0,0,60.72,83.68a50.75,50.75,0,0,0,5,34.92,57.68,57.68,0,0,0,27,24.28,63.08,63.08,0,0,0,38.28,3.9,65.53,65.53,0,0,0,32.53-16.94,61.2,61.2,0,0,0,17.15-30.19,57.76,57.76,0,0,0,1.24-8.17C181.94,91.17,181.78,90.64,181.73,91.25Z" transform="translate(-45.39 -10.31)"/><path class="cls-2" d="M84.73,43.86a5.6,5.6,0,0,0,0-5.06,6.28,6.28,0,0,0-4-3.15,5.73,5.73,0,0,0-6.29,2.42,5.19,5.19,0,0,0,.31,5.42,5.85,5.85,0,0,0,5,2.38,6.69,6.69,0,0,0,4.91-2.6" transform="translate(-45.39 -10.31)"/><path class="cls-1" d="M84.87,44.17a6.32,6.32,0,0,0-7.43-8.87,5.29,5.29,0,0,0-3.85,4.93,5.78,5.78,0,0,0,3.61,5.64,6.53,6.53,0,0,0,7.47-2.23c.15-.19,0-1-.21-.74a6.49,6.49,0,0,1-5.66,2.51,5.39,5.39,0,0,1-4.71-3.87,4.47,4.47,0,0,1,2.63-5.08,6,6,0,0,1,5.7.37,5.2,5.2,0,0,1,2.17,6.73c-.11.22.07,1,.28.61Z" transform="translate(-45.39 -10.31)"/><path class="cls-1" d="M119.71,60.09c-.59-2-1.26-4.16-2.86-5.55a5.44,5.44,0,0,0-6.32-.33c-4.82,2.8-4.92,9.7-4.57,14.57a36.87,36.87,0,0,0,1.77,9c.74,2.21,1.7,4.65,3.74,6a6.06,6.06,0,0,0,6.29-.15,9,9,0,0,0,4-5.67,23.24,23.24,0,0,0,.21-9.14,37.55,37.55,0,0,0-2.76-9.8c-.19-.42-.35.4-.26.62,2.11,4.85,3.47,10.55,2.86,15.87a9.8,9.8,0,0,1-3.08,6.51,6.73,6.73,0,0,1-5.59,1.6c-2.3-.49-3.66-2.55-4.51-4.58a32.24,32.24,0,0,1-2-7.72,33.53,33.53,0,0,1-.23-8.07c.25-2.52.94-5.17,2.8-7s4.43-2.61,6.69-1.42c2.11,1.12,2.89,3.65,3.53,5.78.16.54.39-.17.31-.44Z" transform="translate(-45.39 -10.31)"/><path class="cls-1" d="M161.15,61.11A13.72,13.72,0,0,0,157.09,55a5.41,5.41,0,0,0-3.15-1.45,7.65,7.65,0,0,0-3.84.86c-5.94,2.9-6.62,10.23-6.23,16a18.9,18.9,0,0,0,2.34,8.78A8.58,8.58,0,0,0,153,83.51c2.79.07,5.21-1.79,6.62-4.08,1.65-2.68,2.06-5.91,2.35-9,.32-3.37.32-6.64-1-9.81-.9-2.21-2.32-5.24-4.67-6.23-.27-.11-.32.74-.08.84,1.92.81,3.13,3.06,4,4.84a16,16,0,0,1,1.55,8c-.26,5.13-1.05,12.86-7.12,14.4a7.41,7.41,0,0,1-7-2.37c-2-2.13-2.86-5.07-3.2-7.93-.67-5.55-.53-12.78,4.67-16.23,2.29-1.52,5.23-2.17,7.53-.38a13.28,13.28,0,0,1,4.29,6.19c.16.42.34-.4.25-.63Z" transform="translate(-45.39 -10.31)"/><path class="cls-1" d="M109,80.71a13.69,13.69,0,0,0,12.9-3.27c.2-.19,0-1-.12-.83a13.52,13.52,0,0,1-12.7,3.26c-.3-.08-.32.77-.08.84Z" transform="translate(-45.39 -10.31)"/><path class="cls-1" d="M145.32,77.45c4.42,2.79,11.05,2.94,15.3-.28.21-.16.08-1-.12-.83-4.19,3.17-10.74,3-15.1.27-.21-.14-.31.69-.08.84Z" transform="translate(-45.39 -10.31)"/><path class="cls-1" d="M159.51,79.5a8,8,0,0,0,3.87,3c.28.11.32-.75.08-.84a7.7,7.7,0,0,1-3.78-3c-.11-.16-.23.06-.25.16a.79.79,0,0,0,.08.6Z" transform="translate(-45.39 -10.31)"/><path class="cls-1" d="M155.14,82.7a7.16,7.16,0,0,0,.91,2.74,25,25,0,0,0,1.71,2.27c.12.16.23,0,.26-.16a.76.76,0,0,0-.09-.59c-.54-.71-1.14-1.38-1.62-2.13a5.87,5.87,0,0,1-.81-2.37c0-.11-.08-.37-.24-.29s-.14.41-.12.53Z" transform="translate(-45.39 -10.31)"/><path class="cls-1" d="M149.12,81.67l-2.42,3a.71.71,0,0,0,0,.59c0,.12.14.3.26.15l2.42-3a.78.78,0,0,0,0-.6c0-.12-.14-.3-.26-.15Z" transform="translate(-45.39 -10.31)"/><path class="cls-1" d="M114.76,84.55a7.66,7.66,0,0,0,3.66,4.62c.24.13.32-.71.08-.84a7,7,0,0,1-3.42-4.23c0-.12-.14-.29-.26-.15a.78.78,0,0,0-.06.6Z" transform="translate(-45.39 -10.31)"/><path class="cls-1" d="M118.46,83l4,3.53c.13.12.22-.24.22-.31a.63.63,0,0,0-.14-.53l-4-3.53c-.14-.12-.22.25-.23.31a.6.6,0,0,0,.15.53Z" transform="translate(-45.39 -10.31)"/><path class="cls-1" d="M121.28,80.09l3.15.88c.2.06.26-.79,0-.87l-3.14-.88c-.21-.06-.27.79,0,.87Z" transform="translate(-45.39 -10.31)"/><path class="cls-1" d="M138.22,77.94c-2.18.57-4.54-.58-6.66.33a2.89,2.89,0,0,0-1.37,4.22c1.18,1.79,3.74,1.7,5.6,1.36s3.59-1.61,3.42-3.67a2.85,2.85,0,0,0-1.43-2.32,2.59,2.59,0,0,0-2.76.32c-.21.17-.07,1,.12.84a2.28,2.28,0,0,1,3.65,1,2.08,2.08,0,0,1-.87,2,4.79,4.79,0,0,1-2.3,1c-1.53.24-3.54.39-4.78-.72a1.58,1.58,0,0,1-.49-2.09,3.07,3.07,0,0,1,1.91-1.28c2-.46,4,.4,6-.11.28-.08.19-.93,0-.87Z" transform="translate(-45.39 -10.31)"/><path class="cls-1" d="M135.94,77.64l2.33-20.8c0-.38-.3-.8-.37-.22l-2.33,20.8c0,.39.3.81.37.22Z" transform="translate(-45.39 -10.31)"/><path class="cls-1" d="M123.9,59l7.17,19.65c.15.42.33-.4.25-.62l-7.17-19.65c-.15-.42-.33.4-.25.62Z" transform="translate(-45.39 -10.31)"/><path class="cls-1" d="M137.62,56.24a9,9,0,0,1,.85-9.52l-.29-.48c-.29,2,1,3.63,1.62,5.44a3.18,3.18,0,0,1-.38,3.07,10.36,10.36,0,0,1-2.46,2.3c-.22.17-.08,1,.12.84,1.74-1.29,3.52-2.88,3.34-5.25a7.93,7.93,0,0,0-.93-2.87,5.94,5.94,0,0,1-.94-3.31c0-.12-.09-.75-.29-.48a10.38,10.38,0,0,0-.89,10.88c.21.41.36-.4.25-.62Z" transform="translate(-45.39 -10.31)"/><path class="cls-1" d="M123.82,58.55c.74-1.91,1.49-4.23.24-6.11-.63-.95-1.82-1.14-2.54-2a4.66,4.66,0,0,1-.7-3.29c0-.23-.23-.86-.35-.33a26.4,26.4,0,0,0-.45,8.41,5.19,5.19,0,0,0,1.06,3,2,2,0,0,0,2.57.46c.22-.14.1-1-.12-.83a1.86,1.86,0,0,1-2.37-.5,5.39,5.39,0,0,1-.85-3.13,24.59,24.59,0,0,1,.5-7l-.36-.32c-.07,1.79,0,3.86,1.68,4.91a9.23,9.23,0,0,1,1.31.81,2.8,2.8,0,0,1,.86,1.6,7,7,0,0,1-.77,3.67c-.08.23.12,1,.29.61Z" transform="translate(-45.39 -10.31)"/><path class="cls-1" d="M117.2,101.41c2.6,1.71,5.78,1.23,8.57.29a93.26,93.26,0,0,1,9.93-3,54,54,0,0,1,10.13-1.18c1.72,0,3.44.14,5.15.08a3.78,3.78,0,0,0,3.39-1.72,2.72,2.72,0,0,0,0-2.54c-.63-1.11-2-1.58-3.13-2.05a49.54,49.54,0,0,0-9.13-3,30.18,30.18,0,0,0-9.8-.63,25.11,25.11,0,0,0-9,2.93c-1.63.86-3.2,1.84-4.76,2.83a9.12,9.12,0,0,0-3.34,2.91c-.93,1.63-.4,5.17,2.12,4.77.28,0,.22-.9,0-.86A2,2,0,0,1,115.1,98c.1-1.33,1.41-2.34,2.42-3a56.86,56.86,0,0,1,7-4.13,26.09,26.09,0,0,1,16.38-1.94,45.12,45.12,0,0,1,8.37,2.45,28,28,0,0,1,3.64,1.58,4.93,4.93,0,0,1,.61.4,1.88,1.88,0,0,1,.45.44,3.09,3.09,0,0,1,.23,1.2,2.5,2.5,0,0,1-1.48,1.42c-1.33.57-2.93.3-4.33.26s-2.92,0-4.38.06a53.8,53.8,0,0,0-8.67,1.18,72.55,72.55,0,0,0-9,2.76c-2.93,1-6.32,1.8-9.11,0-.21-.14-.31.69-.08.84Z" transform="translate(-45.39 -10.31)"/><path class="cls-1" d="M111.3,96.15a10,10,0,0,0-2.73,4.41,4.53,4.53,0,0,0,1,4.23c.26.25.35-.58.17-.75a3.31,3.31,0,0,1-.72-3.51,10.76,10.76,0,0,1,2.48-3.64c.17-.18,0-1-.21-.74Z" transform="translate(-45.39 -10.31)"/><path class="cls-1" d="M153.52,90.53l2.08,4.68c.32.73.67,1.46,1,2.2s.36,1.69-.56,2c-.23.09-.16.94.13.83a1.86,1.86,0,0,0,1.05-1.7,5.7,5.7,0,0,0-.72-2.6l-2.69-6.07c-.07-.17-.19-.13-.27,0a.83.83,0,0,0,0,.62Z" transform="translate(-45.39 -10.31)"/><path class="cls-1" d="M131.43,103a22.9,22.9,0,0,1,6.13.31c.23,0,.27-.82,0-.87a22.9,22.9,0,0,0-6.13-.31c-.27,0-.23.89,0,.87Z" transform="translate(-45.39 -10.31)"/><path class="cls-1" d="M124.21,44.82a11.41,11.41,0,0,0,1.13,5c.08.15.2.14.27,0a.81.81,0,0,0,0-.61,10,10,0,0,1-1-4.42c0-.11,0-.44-.2-.43s-.18.34-.18.44Z" transform="translate(-45.39 -10.31)"/><path class="cls-1" d="M128.59,45.42c.16-1,1.59-1.21,2.29-.7a1.57,1.57,0,0,1,.64,1.23,2.07,2.07,0,0,1-.61,1.4,3.86,3.86,0,0,1-1.82,1.06c-.25.07-.26.86,0,.86H133c.26,0,.25-.87,0-.87h-3.9l0,.86a3.5,3.5,0,0,0,2.79-3.09,2.85,2.85,0,0,0-.65-2,1.76,1.76,0,0,0-3,.85.75.75,0,0,0,.08.59c.13.14.24,0,.26-.16Z" transform="translate(-45.39 -10.31)"/><path class="cls-1" d="M154.25,47.89a2,2,0,0,0,1.08-1.42l-.35-.09.5,4c0,.11.08.38.24.3s.14-.41.12-.53l-.5-4c0-.1-.06-.29-.17-.31S155,46,155,46a1.57,1.57,0,0,1-.86,1c-.23.11-.14,1,.12.83Z" transform="translate(-45.39 -10.31)"/><path class="cls-1" d="M153.83,51.2a8.1,8.1,0,0,1,3.28.33c.16,0,.21-.19.22-.31s0-.48-.14-.53a8.26,8.26,0,0,0-3.38-.36c-.27,0-.23.89,0,.87Z" transform="translate(-45.39 -10.31)"/><path class="cls-1" d="M166.39,64.76c0-.61.85-1,1.36-1a1.82,1.82,0,0,1,1.54,1.09,2.41,2.41,0,0,1-.23,2.1,9.55,9.55,0,0,1-1.54,2c-.12.14-.15.79.12.8l4,.18c.26,0,.26-.86,0-.87l-4-.17.11.8a8,8,0,0,0,1.86-2.7,3.7,3.7,0,0,0-.12-2.9,2,2,0,0,0-2-1.16A1.8,1.8,0,0,0,166,64.77c0,.11,0,.44.2.43s.18-.34.18-.44Z" transform="translate(-45.39 -10.31)"/><path class="cls-1" d="M171.68,86.37l4.55,0-.12-.81-2.56,2.79c-.13.13-.1.93.16.79a1.47,1.47,0,0,1,1.8.41,1.62,1.62,0,0,1-.31,2.07,4.61,4.61,0,0,1-2,1.21,2.93,2.93,0,0,1-1.34.18,1.26,1.26,0,0,1-.59-.23c-.08-.06-.38-.32-.33-.46a.76.76,0,0,0,0-.61c-.08-.13-.2-.18-.27,0a1.61,1.61,0,0,0,1.56,2.19,4.74,4.74,0,0,0,1.86-.54,4,4,0,0,0,1.35-1,3,3,0,0,0,.52-3.17,1.75,1.75,0,0,0-2.34-.89l.17.79,2.56-2.79c.13-.13.15-.8-.11-.8l-4.55,0c-.26,0-.25.87,0,.87Z" transform="translate(-45.39 -10.31)"/><path class="cls-1" d="M171.27,103.46l-2.08,2.33L168.12,107a2.65,2.65,0,0,0-.65,1,1.14,1.14,0,0,0,.28,1.13c.31.25.82.17,1.19.16l3.09,0c.26,0,.25-.87,0-.86l-2.59,0c-.4,0-.81,0-1.21,0l-.21,0a.34.34,0,0,1-.12-.06q-.07-.09-.06,0c0,.09,0,.1,0,0a.91.91,0,0,1,.07-.14l.13-.19c.53-.67,1.14-1.28,1.71-1.91l1.74-2c.16-.19,0-1-.21-.75Z" transform="translate(-45.39 -10.31)"/><path class="cls-1" d="M171.21,103.86l-1.15,7.34c0,.12,0,.48.15.53s.21-.19.22-.31l1.15-7.34c0-.11,0-.48-.15-.53s-.2.19-.22.31Z" transform="translate(-45.39 -10.31)"/><path class="cls-1" d="M163,119.28c-1.25-.53-3-1.15-4.1,0-.79.82-.78,2.66.44,3.08a8.35,8.35,0,0,0,2,.12,1.66,1.66,0,0,1,1.45,1c.6,1.39-.82,2.59-2,3.11a3.74,3.74,0,0,1-2.56.33c-.62-.19-1.45-.91-1-1.59a.74.74,0,0,0,.06-.6c0-.11-.15-.31-.26-.15a2.17,2.17,0,0,0,1.15,3.2,4.53,4.53,0,0,0,4.18-1.39,3.22,3.22,0,0,0,.47-3.8,2,2,0,0,0-1.47-1c-.72-.09-1.6.18-2.26-.21-1-.62,0-1.64.77-1.84a4.64,4.64,0,0,1,3,.54c.27.11.32-.74.08-.84Z" transform="translate(-45.39 -10.31)"/><path class="cls-1" d="M138,125a15.84,15.84,0,0,0-3.2,4.25c-.65,1.25-1.1,3-.2,4.28s2.57,1,3.8.53a2.55,2.55,0,0,0,1.55-1.34,1.45,1.45,0,0,0-.52-1.74,3.23,3.23,0,0,0-2.37,0,6.43,6.43,0,0,0-2.56,1.37c-.21.18-.06,1,.12.83a6.14,6.14,0,0,1,3.68-1.54c.32,0,1.43.06,1.33.58-.05.25-.4.49-.59.63a4.55,4.55,0,0,1-.76.39c-1,.4-2.4.62-3.27-.19s-.38-2.36.15-3.35a16.07,16.07,0,0,1,3-3.85.68.68,0,0,0,.12-.54c0-.06-.11-.42-.24-.3Z" transform="translate(-45.39 -10.31)"/><path class="cls-1" d="M114.77,126.4a8.31,8.31,0,0,0,2.43.41,2.46,2.46,0,0,1,1,.38c.21.13.57.41.59.68s-.47.73-.66.94l-1,1.13-2,2.16c-.16.19,0,1,.21.75l2.39-2.64c.63-.69,1.47-1.37,1.42-2.39a2,2,0,0,0-1.41-1.74c-1-.34-2-.09-3-.52-.25-.11-.32.73-.08.84Z" transform="translate(-45.39 -10.31)"/><path class="cls-1" d="M95.39,120.64a3.06,3.06,0,0,0,2.48-.46,2.14,2.14,0,0,0,.57-2.24,2.21,2.21,0,0,0-1.74-1.59,3,3,0,0,0-2.5,1,2.43,2.43,0,0,0-.55,2.63,2.4,2.4,0,0,0,2.11,1.09c.9.07,2.2.1,2.49,1.18A2.05,2.05,0,0,1,97,124.42a2.29,2.29,0,0,1-3.06-.76c-.65-1.13.58-2.26,1.71-2.11.24,0,.27-.84,0-.87a2.06,2.06,0,0,0-2.1,1.32,2.76,2.76,0,0,0,.33,2.55,2.65,2.65,0,0,0,4.46-.5,3.16,3.16,0,0,0,.17-2.43,2.19,2.19,0,0,0-2-1.35c-.79-.09-2.22,0-2.61-.9-.22-.52.37-1.17.73-1.48a2.88,2.88,0,0,1,1.37-.66,1.94,1.94,0,0,1,1.58.38,1.18,1.18,0,0,1,.51,1.29c-.43,1-1.83,1-2.72.87-.23,0-.27.82,0,.87Z" transform="translate(-45.39 -10.31)"/><path class="cls-1" d="M81.72,93.49A6.72,6.72,0,0,0,82.44,97a2.31,2.31,0,0,0,2.47,1.18,2.4,2.4,0,0,0,1.55-2.22,3,3,0,0,0-1.37-2.63,3.78,3.78,0,0,0-3.66,0c-.23.11-.14,1,.12.84a3.76,3.76,0,0,1,2.9-.27,2.44,2.44,0,0,1,1.61,1.65,1.69,1.69,0,0,1-1,1.71,1.92,1.92,0,0,1-2.18-.7,4.77,4.77,0,0,1-.74-3c0-.11,0-.43-.2-.43s-.18.34-.18.44Z" transform="translate(-45.39 -10.31)"/><path class="cls-1" d="M85,94.79c.39,1.59.84,3.57-.55,4.83a2,2,0,0,1-1.92.5c-.47-.14-1.21-.6-1.17-1.17,0-.14,0-.47-.15-.53s-.22.2-.23.31A2.13,2.13,0,0,0,83.46,101c1.52-.31,2.26-2,2.33-3.4a11.55,11.55,0,0,0-.47-3.3c0-.14-.13-.27-.26-.15s-.09.45,0,.6Z" transform="translate(-45.39 -10.31)"/><path class="cls-1" d="M85.58,68.69a3.92,3.92,0,0,0,2.13-.8l-.25-.41a12.52,12.52,0,0,1-.32,3.71.74.74,0,0,0,.09.6c.13.13.22,0,.25-.17a14.5,14.5,0,0,0,.36-4.15c0-.06-.07-.55-.25-.42a3.85,3.85,0,0,1-2,.78c-.27,0-.24.88,0,.86Z" transform="translate(-45.39 -10.31)"/><path class="cls-1" d="M85.93,72.52l3.68.12c.26,0,.26-.86,0-.87l-3.68-.12c-.25,0-.25.86,0,.87Z" transform="translate(-45.39 -10.31)"/><path class="cls-1" d="M92.8,66.11a2.88,2.88,0,0,0-2.92,2,3.11,3.11,0,0,0,1.24,3.57,2.51,2.51,0,0,0,3.32-.51,3.21,3.21,0,0,0,.37-3.64,2.82,2.82,0,0,0-3.4-1.17c-.23.1-.16,1,.12.84a2.57,2.57,0,0,1,2.71.58,1.86,1.86,0,0,1,.59,1.14,2,2,0,0,1-.41,1.27,2.31,2.31,0,0,1-2.72.9c-.86-.33-1.79-1.26-1.57-2.26A2.54,2.54,0,0,1,92.82,67c.24,0,.26-.84,0-.87Z" transform="translate(-45.39 -10.31)"/><path class="cls-1" d="M101.18,52.17a2.73,2.73,0,0,0,2-2l-.36-.21,0,4.85c0,.11,0,.43.2.43s.18-.34.18-.44l0-4.85c0-.11,0-.35-.15-.41s-.18.11-.21.2a2.31,2.31,0,0,1-1.7,1.58c-.29.06-.21.92,0,.87Z" transform="translate(-45.39 -10.31)"/><path class="cls-1" d="M101.86,55.75h2.27c.17,0,.19-.34.18-.44s0-.43-.2-.43h-2.27c-.17,0-.19.33-.18.44s0,.43.2.43Z" transform="translate(-45.39 -10.31)"/><path class="cls-1" d="M106.17,49.68l1.61-1.43-.25-.42-.13,5.91c0,.11,0,.43.2.43s.17-.34.18-.44l.13-5.9c0-.06-.08-.57-.25-.42l-1.61,1.43a.65.65,0,0,0-.12.54c0,.07.11.42.24.3Z" transform="translate(-45.39 -10.31)"/><path class="cls-1" d="M106.41,54.17H108c.07,0,.11-.08.13-.13a.65.65,0,0,0,0-.31.62.62,0,0,0-.06-.3c0-.06-.07-.13-.14-.13h-1.57c-.07,0-.11.08-.13.13a.65.65,0,0,0-.05.31.66.66,0,0,0,.06.31c0,.05.07.12.14.12Z" transform="translate(-45.39 -10.31)"/><path class="cls-2" d="M97.47,43.38c4.71.72,9.3-1.5,13.8-3.06a52.5,52.5,0,0,1,32-.7c.74-7.08-3.84-14.15-10.25-17.25s-14.24-2.54-20.67.55S100.77,31.4,97,37.48a6.66,6.66,0,0,0-1.22,3.2,2.52,2.52,0,0,0,1.8,2.63" transform="translate(-45.39 -10.31)"/><path class="cls-1" d="M97.48,43.81c6.06.85,11.77-2.67,17.46-4.17a52.75,52.75,0,0,1,17.83-1.55A52.07,52.07,0,0,1,143.18,40c.16.05.21-.18.22-.3a17.59,17.59,0,0,0-3.72-12.33,19.39,19.39,0,0,0-12-7.17c-10.41-1.91-20.3,3.57-26.83,11.36a33,33,0,0,0-4.69,6.85c-.82,1.74-.91,4.7,1.44,5.29.21,0,.27-.79,0-.87-1.65-.41-1.81-2.21-1.25-3.55a18.94,18.94,0,0,1,1.85-3.13,45,45,0,0,1,4-5.12,33.61,33.61,0,0,1,10.43-7.86c8.16-3.81,18.72-3.48,25.32,3.18A16.69,16.69,0,0,1,143,39.51l.23-.31a53,53,0,0,0-17.83-2.09,52.2,52.2,0,0,0-9.13,1.32,73.36,73.36,0,0,0-8.41,2.68c-3.35,1.23-6.82,2.34-10.43,1.84-.24,0-.27.82,0,.86Z" transform="translate(-45.39 -10.31)"/><path class="cls-2" d="M114.1,21.54l-.19-3.39c-.87,1.19-3,.87-3.72-.39a3.58,3.58,0,0,1,.63-4.08,7.72,7.72,0,0,1,3.84-2.07,28.31,28.31,0,0,1,7.4-.84,10.6,10.6,0,0,1,3.37.4A4.16,4.16,0,0,1,128,13.3a2.62,2.62,0,0,1-.66,3.09,4.4,4.4,0,0,1-2.49.61,4.17,4.17,0,0,0-2.49.64,1.47,1.47,0,0,0-.17,2.24" transform="translate(-45.39 -10.31)"/><path class="cls-1" d="M114.29,21.53l-.2-3.38c0-.12-.09-.61-.29-.37a2.18,2.18,0,0,1-2.84.29c-1.45-.94-1-2.89,0-4,1.78-2,5-2.44,7.57-2.69a36.28,36.28,0,0,1,4-.15,7.4,7.4,0,0,1,3.92.89c1.25.78,2.23,2.52.93,3.74-.93.87-2.34.64-3.51.79a2.48,2.48,0,0,0-2.22,1.5,2,2,0,0,0,.46,2.17c.17.14.29-.66.08-.84-1.15-1,.92-1.84,1.57-1.94s1.41-.07,2.11-.17a2.67,2.67,0,0,0,2.36-1.83c.77-2.43-1.17-4.43-3.41-4.95a18.24,18.24,0,0,0-5.06-.17,24,24,0,0,0-5.12.78c-2.42.66-4.91,2.08-5,4.87A3.07,3.07,0,0,0,111,19a2.34,2.34,0,0,0,3-.44l-.29-.36.19,3.38c0,.51.41.51.38,0Z" transform="translate(-45.39 -10.31)"/><path class="cls-1" d="M144.22,142.58c1.51-.17.68,2.21.84,3.07a2.14,2.14,0,0,0,1.41,1.65,9.27,9.27,0,0,0,3,.4c1.36.06,2.72.15,4.08.19,2.11.06,4.54-.2,5.95-2a3.85,3.85,0,0,0,.21-4.47A4.63,4.63,0,0,0,157,140a3,3,0,0,1-1.49-.86,3.05,3.05,0,0,1-.11-2.61c.06-.28-.21-1-.34-.43-.38,1.61-.57,3.64,1.19,4.49.82.39,1.76.46,2.54.93a2.29,2.29,0,0,1,.78,3.08c-1.17,2.22-4,2.45-6.25,2.37-1.26,0-2.52-.11-3.79-.17a9.1,9.1,0,0,1-3.11-.42,1.46,1.46,0,0,1-1-1.62,7.32,7.32,0,0,0,.13-1.55c-.08-.72-.51-1.63-1.36-1.53-.28,0-.23.89,0,.86Z" transform="translate(-45.39 -10.31)"/><path class="cls-1" d="M93.63,143.3c.34,1.2.72,3.1-.89,3.55-.92.25-1.89-.25-2.8.08-1.53.56-1.29,2.84-.41,3.84a7.28,7.28,0,0,0,2.62,1.63,18.28,18.28,0,0,0,3.22,1.19c2,.49,4.37.34,5.89-1.23a4.31,4.31,0,0,0,1.21-2.84c0-1.27-.74-2.37-.72-3.62,0-.52-.37-.51-.38,0a10.16,10.16,0,0,0,.62,2.71,3.08,3.08,0,0,1-.93,3c-1.46,1.5-3.79,1.61-5.71,1.13a18.28,18.28,0,0,1-3.12-1.16A7.06,7.06,0,0,1,89.7,150c-.7-.81-.63-2.09.58-2.31.85-.15,1.72.24,2.57,0,2-.63,1.52-3.35,1.1-4.83-.16-.54-.4.17-.32.44Z" transform="translate(-45.39 -10.31)"/><path class="cls-2" d="M79,45.69a27.23,27.23,0,0,1,1.77,9.14c0,.9.18,2.06,1.06,2.26a2,2,0,0,0,1.46-.49l4.41-3a21.37,21.37,0,0,0-3.4-10.05" transform="translate(-45.39 -10.31)"/><path class="cls-1" d="M78.9,46a26.16,26.16,0,0,1,1.42,5.43,25.64,25.64,0,0,1,.28,2.9,8.37,8.37,0,0,0,.16,1.8c.29,1.21,1.19,1.75,2.33,1.07,1.61-1,3.14-2.1,4.7-3.15.12-.08.14-.3.13-.42A22.32,22.32,0,0,0,84.41,43.2c-.17-.27-.31.55-.17.76a20.81,20.81,0,0,1,3.3,9.68l.13-.42L83.48,56c-.6.41-1.54,1-2.14.29A3.17,3.17,0,0,1,81,54.45a28.17,28.17,0,0,0-1.83-9.07c-.07-.19-.18-.1-.26,0a.76.76,0,0,0,0,.61Z" transform="translate(-45.39 -10.31)"/><path class="cls-1" d="M62.43,158.67c22.51.3,44.87-2.64,67.19-5.16,21.52-2.43,43.23-4.45,64.89-2.81a152.61,152.61,0,0,1,35.37,6.68c.29.09.32-.76.08-.84-20.39-6.58-42-7.93-63.3-7.06-22.16.91-44.11,4.22-66.16,6.39a343.59,343.59,0,0,1-38.09,1.93c-.26,0-.25.87,0,.87Z" transform="translate(-45.39 -10.31)"/><path class="cls-1" d="M45.69,155.33c.37,0,.36-1.24,0-1.24s-.36,1.24,0,1.24Z" transform="translate(-45.39 -10.31)"/></svg>