<?xml version="1.0" encoding="utf-8"?>
<!-- Generator: Adobe Illustrator 24.2.0, SVG Export Plug-In . SVG Version: 6.00 Build 0)  -->
<svg version="1.1" xmlns="http://www.w3.org/2000/svg" xmlns:xlink="http://www.w3.org/1999/xlink" x="0px" y="0px"
	 viewBox="0 0 455.9 236.9" style="enable-background:new 0 0 455.9 236.9;" xml:space="preserve">
<style type="text/css">
	.st0{fill:#FFFFFF;}
	.st1{fill:none;stroke:#000000;stroke-width:3;stroke-linecap:round;stroke-linejoin:round;stroke-miterlimit:10;}
	.st2{fill:none;stroke:#000000;stroke-width:3;stroke-miterlimit:10;}
</style>
<g id="Layer_1">
	
		<image style="overflow:visible;" width="2976" height="3968" xlink:href="EE09CADD101123B4.jpg"  transform="matrix(0.1498 0 0 0.1498 869.1616 510.2783)">
	</image>
</g>
<g id="Layer_2">
	<g>
		<g>
			<path d="M87.8,56.5c18.9-0.3,37.9-0.1,56.8,0.6c4.6,0.2,9.2,0.2,13.7,0.7c2,0.2,4,0.8,5.3,2.5c1.1,1.5,1.6,3.3,1.9,5.1
				c0.7,4.4,1.1,8.9,1.4,13.3c0.4,4.3,0.7,8.7,0.9,13.1c0.5,9.9,0.8,19.9,1.1,29.9c0,1,1.5,1,1.5,0c-0.7-18.4-0.9-36.9-3.3-55.2
				c-0.4-3.2-1.2-6.9-4.1-8.8c-1.6-1-3.5-1.3-5.3-1.4c-2.4-0.2-4.8-0.3-7.2-0.4c-9.8-0.4-19.6-0.7-29.4-0.9
				c-11.1-0.2-22.3-0.2-33.4,0C86.8,55,86.8,56.5,87.8,56.5L87.8,56.5z"/>
		</g>
	</g>
	<g>
		<g>
			<path d="M66.1,56.4c-4.9-0.4-10,0.1-14.7,1.4c-1.9,0.5-3.8,1.3-5.1,2.7c-1.3,1.4-2,3.3-2.5,5.2c-2.4,9.6-3.7,19.6-4.4,29.5
				c-0.7,10-0.6,20.1,0.3,30c0.4,4.9,0.9,9.9,1.9,14.8c0.4,1.9,1.4,3.1,3.4,3.4c2.3,0.3,4.7,0.1,6.9,0.2c11.2,0.2,22.5,0.4,33.7,0.6
				c1,0,1-1.5,0-1.5c-9.3-0.1-18.5-0.3-27.8-0.4c-2.3,0-4.6-0.1-6.9-0.1c-1.1,0-2.3,0-3.4-0.1c-1.1,0-2.5,0.1-3.4-0.4
				c-1-0.5-1.1-1.9-1.3-2.9c-0.2-1.3-0.4-2.5-0.6-3.8c-0.3-2.4-0.6-4.8-0.9-7.1c-1.9-18.7-1-37.7,2.6-56.1c0.5-2.3,0.9-4.7,1.6-6.9
				c0.8-2.5,2.3-4.2,4.8-5.1c4.9-1.8,10.5-2.2,15.7-1.8C67.1,57.9,67.1,56.4,66.1,56.4L66.1,56.4z"/>
		</g>
	</g>
	<g>
		<g>
			<path d="M66.7,60.7c-3.3-0.6-7-1.1-10.2,0.1c-3.4,1.3-5,4.3-5.9,7.7c-2.4,8.8-3.8,17.9-4.7,26.9c-0.9,9.2-1,18.5-0.4,27.8
				c0.2,3.4,0.5,6.8,2,9.9c1.5,3.1,4.2,5.1,7.6,5.8c2.3,0.4,4.7,0.4,7.1,0.5c2.7,0.1,5.3,0.2,8,0.3c5.5,0.2,11,0.4,16.5,0.6
				c1,0,1-1.5,0-1.5c-8.8-0.3-17.6-0.7-26.4-1c-3.7-0.1-7.8-0.3-10.2-3.5c-1.9-2.5-2.5-5.9-2.8-8.9C45.5,108.6,47,91.4,50.5,75
				c0.5-2.2,1-4.4,1.6-6.5c0.6-2,1.4-4.1,3.1-5.3c3.1-2.2,7.5-1.6,11.1-1C67.2,62.3,67.6,60.9,66.7,60.7L66.7,60.7z"/>
		</g>
	</g>
	<g>
		<g>
			<path d="M85.6,62.3c11.3-0.1,22.7,0,34,0.2c5.7,0.1,11.4,0.3,17.1,0.6c2.8,0.1,5.6,0.3,8.4,0.4c2.5,0.1,5.1,0.1,7.5,0.6
				c2.1,0.4,4.4,1.1,5.8,2.8c1.5,1.8,1.9,4.3,2.3,6.6c0.9,5.6,1.5,11.3,1.9,17c0.9,11.1,1.2,22.3,1.4,33.5c0,2.4,0.2,4.9-0.7,7.2
				c-1,2.7-3.4,3.6-6.2,3.8c-6.2,0.3-12.5,0.2-18.7,0.3c-1,0-1,1.5,0,1.5c6-0.1,11.9-0.1,17.9-0.3c2.1-0.1,4.3-0.3,6-1.6
				c1.6-1.2,2.4-3.1,2.8-5c0.4-2.3,0.3-4.7,0.3-7.1c-0.1-3-0.1-6-0.2-9c-0.2-5.9-0.4-11.9-0.8-17.8c-0.4-5.9-0.9-11.9-1.7-17.8
				c-0.6-4.4-0.6-10.3-4.5-13.3c-3.7-2.9-9.3-2.5-13.8-2.7c-6-0.3-12.1-0.6-18.1-0.8c-13.7-0.4-27.3-0.6-41-0.5
				C84.7,60.8,84.7,62.3,85.6,62.3L85.6,62.3z"/>
		</g>
	</g>
	<g>
		<g>
			<path d="M72.3,24.4c0.6,6.8,1.1,13.6,1.7,20.4c0.1,1,1.6,1,1.5,0c-0.6-6.8-1.1-13.6-1.7-20.4C73.7,23.4,72.2,23.4,72.3,24.4
				L72.3,24.4z"/>
		</g>
	</g>
	<g>
		<g>
			<path d="M77.2,23.9c0.7,7.1,1,14.2,1.1,21.3c0,1,1.5,1,1.5,0c0-7.1-0.4-14.2-1.1-21.3C78.6,23,77.1,23,77.2,23.9L77.2,23.9z"/>
		</g>
	</g>
	<g>
		<g>
			<path d="M83.4,46.7c-2.6-1.5-5.5-2.7-8.5-2.6c-2.7,0.1-5.3,1.2-7,3.4c-3.2,4.2-2.7,10.8,0.1,15.1c2.7,4.2,8,6.3,12.8,4.5
				c5.2-2,6.4-8,6.6-13c0-1.5-0.1-3.1-0.8-4.4c-0.7-1.4-1.9-2.4-3.2-3.2c-3.1-1.9-6.7-2.8-10.2-2.8c-1,0-1,1.5,0,1.5
				c2.7,0,5.4,0.6,7.9,1.8c2.4,1.1,4.4,2.7,4.7,5.5c0.2,2.3-0.1,4.8-0.6,7c-0.5,2.2-1.6,4.3-3.5,5.6c-3.6,2.3-8.5,1.3-11.3-1.7
				c-3.1-3.3-3.9-8.7-2.3-12.9c1-2.7,3.4-4.4,6.2-4.6c3-0.3,5.8,0.9,8.4,2.4C83.5,48.5,84.2,47.2,83.4,46.7L83.4,46.7z"/>
		</g>
	</g>
	<g>
		<g>
			<path d="M76.3,50.4c-1.2-0.5-2.4-0.3-3.4,0.4c-1.1,0.8-1.6,2-1.7,3.3c-0.3,2.3,0.5,5.3,2.6,6.6c1.9,1.2,4.6,0.6,6.1-1
				c1.7-1.8,1.7-4.7,0.6-6.8c-1.4-2.6-4.4-3.8-7.2-3.8c-1,0-1,1.5,0,1.5c1.9,0,3.8,0.6,5.1,2c1.2,1.3,1.7,3.4,0.9,5.1
				c-0.7,1.4-2.3,2.3-3.9,2c-1.9-0.3-2.6-2.3-2.8-3.9c-0.1-1.1-0.1-2.3,0.6-3.3c0.5-0.7,1.5-1.2,2.3-0.9c0.4,0.2,0.8,0.1,1-0.3
				C76.7,51.1,76.6,50.5,76.3,50.4L76.3,50.4z"/>
		</g>
	</g>
	<g>
		<g>
			<path d="M177.8,26.6c0.4,6.8,0.8,13.6,1.2,20.4c0.1,1,1.6,1,1.5,0c-0.4-6.8-0.8-13.6-1.2-20.4C179.2,25.7,177.7,25.7,177.8,26.6
				L177.8,26.6z"/>
		</g>
	</g>
	<g>
		<g>
			<path d="M183.6,26.2c0.2,6.5,0.4,13,0.6,19.5c0,1,1.5,1,1.5,0c-0.2-6.5-0.4-13-0.6-19.5C185.1,25.2,183.6,25.2,183.6,26.2
				L183.6,26.2z"/>
		</g>
	</g>
	<g>
		<g>
			<path d="M189.8,47.4c-3.5-1.5-10-2.7-12.5,1.2c-0.7,1-0.8,2.3-1,3.5c-0.2,1.4-0.4,2.8-0.4,4.2c-0.1,2.3,0.3,4.7,1.5,6.6
				c1.1,1.8,2.8,3.1,4.9,3.4c2,0.3,4-0.4,5.6-1.6c3.6-2.7,4.4-7.8,3.5-12c-0.4-2.2-1.5-4.5-3.5-5.7c-2.3-1.5-5.1-1.4-7.7-1.2
				c-1,0.1-1,1.6,0,1.5c1.9-0.1,4-0.3,5.8,0.4c1.8,0.7,3,2.2,3.6,4c1.2,3.4,0.9,7.8-1.3,10.6c-2.3,2.9-6.6,3.6-9.1,0.6
				c-2.6-3.2-2-8.2-1.2-12c1.1-5,8.1-3.5,11.4-2.1C190.3,49.2,190.7,47.8,189.8,47.4L189.8,47.4z"/>
		</g>
	</g>
	<g>
		<g>
			<path d="M184.3,51c-2.1-0.2-3.4,1.6-4.1,3.4c-0.6,1.7-0.9,3.7-0.2,5.4c0.3,0.9,0.9,1.6,1.8,1.9c1,0.4,2.1,0.2,3-0.5
				c1.7-1.3,2.2-3.6,1.9-5.6c-0.4-2.2-1.8-4.2-3.9-5.2c-0.9-0.4-1.6,0.9-0.8,1.3c2.6,1.2,4.3,5,2.5,7.6c-0.4,0.6-1.1,1.1-1.8,1.1
				c-0.6,0-1-0.5-1.3-1c-0.6-1.2-0.4-2.7,0-4c0.4-1.3,1.2-3.1,2.9-3C185.3,52.6,185.3,51.1,184.3,51L184.3,51z"/>
		</g>
	</g>
	<g>
		<g>
			<path d="M46.6,143c-7.8,10.5-12.9,23.8-11.3,37c0.2,1.5,0.3,3.2,0.9,4.6c0.5,1.3,1.6,1.9,2.9,2.3c3.3,1,6.9,1,10.4,1.1
				c6.5,0.2,13,0.4,19.5,0.6c7.3,0.2,14.6,0.4,21.9,0.7c1,0,1-1.5,0-1.5c-12.3-0.4-24.6-0.7-36.8-1.1c-2.9-0.1-5.9-0.1-8.8-0.3
				c-1.8-0.1-3.6-0.3-5.3-0.8c-0.8-0.2-1.7-0.5-2.2-1.2c-0.5-0.8-0.6-2.1-0.7-3c-1-6.2-0.4-12.5,1.2-18.5c1.9-7,5.3-13.5,9.6-19.2
				C48.4,143,47.1,142.2,46.6,143L46.6,143z"/>
		</g>
	</g>
	<g>
		<g>
			<path d="M99.6,110c-6.3,5.5-10.4,13.2-11.5,21.5c-0.3,2.4-0.3,4.8-0.6,7.2c-0.3,2.5-1.3,4.7-2.6,6.8c-2.5,4-4.2,8.1-5.1,12.8
				c-1.4,7.6-1.8,16.7,2.2,23.7c4.3,7.4,12.8,8.9,20.6,9.4c5.1,0.4,10.3,0.7,15.4,1c2.6,0.2,5.2,0.3,7.9,0.5c2.4,0.2,5,0.6,7.3,0.3
				c1.9-0.2,3.2-1.4,4.2-3c1.2-2,2.3-4.1,3.2-6.2c1.9-4.2,3.4-8.7,4.4-13.2c1-4.6,1.5-9.3,1.5-14c0-4.5-0.3-9.3-1.9-13.5
				c-1.5-4-4.3-7.2-7.6-9.8c-1.6-1.3-3.4-2.3-5.1-3.4c-1.2-0.8-1.5-1.6-1.7-3c-0.1-0.5-0.1-1-0.3-1.6c-1.1-4.9-4.4-9.6-8.1-12.8
				c-4.7-4.1-10.8-6.1-16.9-4.7c-1.8,0.4-3.6,1.1-5.2,1.9c-0.9,0.4-0.1,1.7,0.8,1.3c5.9-3,12.5-2.9,18,0.8c4.2,2.8,7.7,7.2,9.4,11.9
				c0.8,2.3,0.5,5.2,2.5,6.9c1.4,1.1,3.1,1.9,4.5,3c1.7,1.2,3.3,2.6,4.7,4.1c6,6.7,6,16.9,5.1,25.3c-0.9,8.9-3.7,17.6-8.1,25.4
				c-0.5,0.9-1,1.9-1.9,2.5c-1,0.7-2.1,0.7-3.3,0.6c-2.4-0.1-4.8-0.3-7.2-0.5c-4.9-0.3-9.8-0.6-14.7-0.9c-7.8-0.5-17.7,0-23.7-5.9
				c-5.5-5.4-5.8-14.1-5.1-21.3c0.4-4.5,1.3-9,3.3-13.1c1-1.9,2.3-3.7,3.2-5.6c1-1.8,1.5-3.8,1.7-5.8c0.3-2.2,0.3-4.5,0.5-6.7
				c0.2-2,0.7-4,1.3-6c1.2-3.8,3.2-7.5,5.7-10.6c1.2-1.5,2.6-3,4.1-4.3C101.4,110.4,100.4,109.4,99.6,110L99.6,110z"/>
		</g>
	</g>
	<g>
		<g>
			<path d="M94.6,148.8c8.6,6.1,11,17.9,5.6,26.9c-0.5,0.8,0.8,1.6,1.3,0.8c5.9-9.8,3.1-22.4-6.2-29
				C94.6,146.9,93.9,148.2,94.6,148.8L94.6,148.8z"/>
		</g>
	</g>
	<g>
		<g>
			<path d="M128.8,146.2c-6.1,1-9.9,6.6-11.1,12.3c-0.7,3.4-0.7,6.9-0.5,10.3c0.2,2.8,0.6,5.9,2.9,7.9c0.7,0.6,1.8-0.4,1.1-1.1
				c-2.1-1.8-2.4-4.7-2.5-7.4c-0.1-3.1-0.1-6.3,0.5-9.3c1.1-5.2,4.5-10.3,10.1-11.2C130.2,147.5,129.8,146,128.8,146.2L128.8,146.2z
				"/>
		</g>
	</g>
	<g>
		<path class="st0" d="M92.3,120.5c0.9-1.1,0.4-3-0.9-3.7c-1.3-0.7-2.9-0.4-4.1,0.4c-1.2,0.8-2,2.1-2.6,3.4
			c-0.6,1.2-1.1,2.5-1.4,3.9c-0.3,1.1-0.5,2.4,0,3.5c0.7,1.5,2.8,2,4.3,1.4c1.6-0.6,2.7-2,3.4-3.5c1.2-2.6,1.5-5.6,0.7-8.3"/>
		<g>
			<path d="M93,120.9c0.8-1,0.7-2.5,0-3.6c-0.7-1.1-2-1.7-3.4-1.7c-3.2,0.2-5,3.1-6.1,5.8c-1.1,2.5-2.5,6.5,0.3,8.3
				c2.5,1.6,5.5,0.1,7-2.1c2-2.9,2.4-6.8,1.5-10.2c-0.3-0.9-1.7-0.5-1.4,0.4c0.7,2.4,0.5,5-0.4,7.3c-0.8,1.8-2.3,4-4.6,3.8
				c-0.9-0.1-1.8-0.6-2.1-1.5c-0.4-1.1,0.1-2.5,0.4-3.6c0.7-2.1,1.7-4.9,3.7-6.1c1-0.6,2.3-0.9,3.3-0.2c0.8,0.6,1.1,1.8,0.5,2.6
				C91.1,120.9,92.4,121.7,93,120.9L93,120.9z"/>
		</g>
	</g>
	<g>
		<g>
			<path d="M90.1,116.3c3.6-6.7,11.3-9.7,18.6-9.8c4.3,0,8.6,0.8,12.7,2.1c3.1,0.9,6.6,2.5,7.5,5.8c0.2,0.9,1.7,0.5,1.4-0.4
				c-0.9-3.5-4.2-5.4-7.4-6.5c-4.4-1.6-9.2-2.5-13.8-2.5c-8-0.1-16.4,3.2-20.4,10.5C88.4,116.4,89.7,117.2,90.1,116.3L90.1,116.3z"
				/>
		</g>
	</g>
	<g>
		<path class="st0" d="M134,115.3c-1.5-1.5-4.1-1.1-5.5,0.4c-1.4,1.5-1.7,3.8-1.4,5.8c0.5,3.3,2.9,6.6,6.2,7.2
			c0.9,0.2,1.9,0.1,2.7-0.5c0.9-0.7,1.2-2.1,1.2-3.3c0.1-2.6-0.4-5.3-1.9-7.5s-4.1-3.6-6.7-3.2"/>
		<g>
			<path d="M134.6,114.8c-2.4-2.2-6.2-0.9-7.5,1.8c-1.5,2.9-0.8,6.8,1,9.4c0.9,1.3,2,2.4,3.4,3c1.4,0.6,3.2,1,4.6,0.2
				c1.5-0.8,1.9-2.6,1.9-4.1c0.1-1.8-0.2-3.7-0.8-5.4c-1.2-3.6-4.6-6.6-8.6-6.1c-0.9,0.1-1,1.6,0,1.5c2.8-0.4,5.2,1.3,6.5,3.7
				c0.7,1.2,1,2.6,1.2,4c0.1,1.3,0.3,2.8-0.2,4.1c-1.1,2.7-4.9,0.5-6.2-0.9c-1.6-1.8-2.5-4.5-2.1-7c0.2-1.4,0.9-2.8,2.2-3.5
				c1.1-0.6,2.6-0.6,3.5,0.3C134.2,116.5,135.3,115.5,134.6,114.8L134.6,114.8z"/>
		</g>
	</g>
	<g>
		<g>
			<path d="M129.5,114.1c-2.4-2.9-5.2-5.5-8.6-7c-2.8-1.3-6-1.5-9.1-1.6c-2.9-0.1-5.9,0-8.7,0.8c-1.1,0.3-1.9,0.8-2.9,1.3
				c-1.4,0.8-2.9,1.4-4.3,2.1c-3,1.5-5.7,3.3-7,6.5c-0.3,0.9,1.1,1.3,1.4,0.4c1.4-3.6,5.1-5.1,8.3-6.6c1.4-0.7,2.7-1.6,4.1-2.1
				c1.4-0.5,2.8-0.6,4.2-0.8c3.5-0.3,7.2-0.3,10.7,0.4c4.4,1,8,4.2,10.8,7.6C129,116,130.1,114.9,129.5,114.1L129.5,114.1z"/>
		</g>
	</g>
	<g>
		<g>
			<path d="M105.8,122.3c-0.2,0-0.3,0.1-0.5,0.1c-0.1,0-0.2,0-0.3,0c-0.2,0.1-0.4,0.2-0.5,0.4c-0.2,0.3-0.2,0.8-0.1,1.1
				c0.1,0.3,0.3,0.6,0.5,0.8c0.2,0.1,0.3,0.2,0.6,0.3c0.3,0.1,0.6,0.1,0.8,0c1-0.6,1-2,0.4-2.8c-0.2-0.3-0.4-0.5-0.7-0.6
				c-0.1-0.1-0.3-0.1-0.4-0.2c-0.2,0-0.4,0-0.7,0c-0.2,0-0.4,0.2-0.4,0.3c-0.1,0.2-0.1,0.4-0.1,0.6c0.1,0.2,0.2,0.4,0.3,0.4
				c0.1,0,0.1,0.1,0.2,0.1c0.1,0,0.3,0,0.4,0c0,0,0,0,0,0c-0.1,0-0.1,0-0.2,0c0.1,0,0.2,0,0.2,0c-0.1,0-0.1,0-0.2,0
				c0.1,0,0.2,0,0.2,0.1c-0.1,0-0.1-0.1-0.2-0.1c0.1,0,0.2,0.1,0.2,0.1c-0.1,0-0.1-0.1-0.2-0.1c0.1,0.1,0.2,0.1,0.2,0.2
				c0-0.1-0.1-0.1-0.1-0.2c0.1,0.1,0.2,0.2,0.2,0.4c0-0.1-0.1-0.1-0.1-0.2c0.1,0.1,0.1,0.3,0.1,0.4c0-0.1,0-0.1,0-0.2
				c0,0.1,0,0.3,0,0.4c0-0.1,0-0.1,0-0.2c0,0.1,0,0.2-0.1,0.3c0-0.1,0.1-0.1,0.1-0.2c0,0.1-0.1,0.2-0.1,0.2c0-0.1,0.1-0.1,0.1-0.2
				c0,0.1-0.1,0.1-0.2,0.2c0.1,0,0.1-0.1,0.2-0.1c0,0,0,0-0.1,0.1c0.1,0,0.3-0.1,0.4-0.1c0,0-0.1,0-0.1,0c0.1,0,0.1,0,0.2,0
				c-0.1,0-0.1,0-0.2,0c0.1,0,0.1,0.1,0.2,0.1c-0.1,0-0.1-0.1-0.2-0.1c0.1,0,0.1,0.1,0.2,0.1c-0.1,0-0.1-0.1-0.2-0.2
				c0,0.1,0.1,0.1,0.1,0.2c-0.1-0.1-0.1-0.1-0.1-0.2c0,0.1,0.1,0.1,0.1,0.2c0-0.1,0-0.1-0.1-0.2c0,0.1,0,0.1,0,0.2
				c0-0.1,0-0.1,0-0.2c0,0.1,0,0.1,0,0.2c0-0.1,0-0.1,0-0.2c0,0.1-0.1,0.1-0.1,0.2c0,0,0-0.1,0.1-0.1c-0.1,0.1-0.3,0.2-0.4,0.3
				c0.3,0,0.5-0.1,0.8-0.1c0.2,0,0.4-0.2,0.4-0.3c0.1-0.2,0.1-0.4,0.1-0.6c-0.1-0.2-0.2-0.4-0.3-0.4
				C106.2,122.2,106,122.2,105.8,122.3L105.8,122.3z"/>
		</g>
	</g>
	<g>
		<g>
			<path d="M111.9,121.8c-0.5,0.9-0.3,2.1,0.5,2.8c0.1,0.1,0.3,0.2,0.5,0.2c0.2,0,0.4-0.1,0.5-0.2c0.3-0.3,0.5-0.7,0.6-1.1
				c0.1-0.4,0.1-0.9-0.1-1.3c-0.2-0.4-0.4-0.8-0.8-1c-0.4-0.2-0.8-0.2-1.2-0.2c-0.8,0.1-1.4,0.8-1.4,1.5c0,0.5,0.2,0.8,0.6,1.1
				c0.2,0.2,0.6,0.3,0.9,0.3c0.4,0,0.8-0.1,1.1-0.4c0.3-0.3,0.5-0.8,0.3-1.2c-0.1-0.4-0.5-0.6-0.9-0.5c-0.4,0.1-0.6,0.5-0.5,0.9
				c0,0,0,0,0,0.1c0-0.1,0-0.1,0-0.2c0,0,0,0.1,0,0.1c0-0.1,0-0.1,0-0.2c0,0,0,0.1,0,0.1c0-0.1,0.1-0.1,0.1-0.2c0,0,0,0.1-0.1,0.1
				c0-0.1,0.1-0.1,0.1-0.2c0,0-0.1,0.1-0.1,0.1c0.1,0,0.1-0.1,0.2-0.1c0,0-0.1,0.1-0.2,0.1c0.1,0,0.1-0.1,0.2-0.1
				c-0.1,0-0.2,0.1-0.2,0.1c0.1,0,0.1,0,0.2,0c-0.1,0-0.2,0-0.3,0c0.1,0,0.1,0,0.2,0c-0.1,0-0.2,0-0.2-0.1c0.1,0,0.1,0.1,0.2,0.1
				c-0.1,0-0.1-0.1-0.1-0.1c0.1,0,0.1,0.1,0.2,0.1c0,0-0.1-0.1-0.1-0.1c0,0.1,0.1,0.1,0.1,0.2c0,0,0-0.1-0.1-0.1
				c0,0.1,0.1,0.1,0.1,0.2c0,0,0-0.1,0-0.1c0,0.1,0,0.1,0,0.2c0-0.1,0-0.1,0-0.2c0,0.1,0,0.1,0,0.2c0-0.1,0-0.1,0.1-0.2
				c0,0.1-0.1,0.1-0.1,0.2c0-0.1,0.1-0.1,0.1-0.2c0,0.1-0.1,0.1-0.1,0.2c0-0.1,0.1-0.1,0.2-0.2c-0.1,0-0.1,0.1-0.2,0.1
				c0.1-0.1,0.1-0.1,0.2-0.1c-0.1,0-0.1,0.1-0.2,0.1c0.1,0,0.2-0.1,0.3-0.1c-0.1,0-0.1,0-0.2,0c0.1,0,0.2,0,0.3,0
				c-0.1,0-0.1,0-0.2,0c0.1,0,0.2,0,0.3,0.1c-0.1,0-0.1-0.1-0.2-0.1c0.1,0,0.1,0.1,0.2,0.1c-0.1,0-0.1-0.1-0.2-0.1
				c0.1,0.1,0.1,0.1,0.2,0.2c0-0.1-0.1-0.1-0.1-0.2c0.1,0.1,0.1,0.2,0.2,0.3c0-0.1-0.1-0.1-0.1-0.2c0,0.1,0.1,0.2,0.1,0.4
				c0-0.1,0-0.1,0-0.2c0,0.2,0,0.3,0,0.5c0-0.1,0-0.1,0-0.2c0,0.2-0.1,0.3-0.1,0.5c0-0.1,0.1-0.1,0.1-0.2c-0.1,0.1-0.1,0.3-0.2,0.4
				c0-0.1,0.1-0.1,0.1-0.2c0,0,0,0,0,0c0.4,0,0.7,0,1.1,0c-0.1-0.1-0.1-0.1-0.2-0.2c0,0.1,0.1,0.1,0.1,0.2c-0.1-0.1-0.1-0.2-0.2-0.3
				c0,0.1,0.1,0.1,0.1,0.2c-0.1-0.1-0.1-0.3-0.1-0.4c0,0.1,0,0.1,0,0.2c0-0.1,0-0.3,0-0.4c0,0.1,0,0.1,0,0.2c0-0.1,0.1-0.3,0.1-0.4
				c0,0.1-0.1,0.1-0.1,0.2c0,0,0-0.1,0.1-0.1c0.2-0.3,0.1-0.8-0.3-1C112.6,121.4,112.1,121.5,111.9,121.8L111.9,121.8z"/>
		</g>
	</g>
	<g>
		<g>
			<path d="M103.9,131.2c0.5,1.9,1.3,3.8,2.5,5.4c0.6,0.8,1.2,1.5,2.2,1.8c0.8,0.2,1.6,0,2.3-0.5c1.5-1,2.1-2.9,2.6-4.6
				c0.1-0.5,0.2-1,0.3-1.5c0.1-0.5,0.2-1.1,0.1-1.6c-0.2-1-1.2-1.3-2.1-1.4c-2.4-0.2-4.9,0.1-7.2,0.7c-0.3,0.1-0.5,0.4-0.6,0.7
				c0,0.4,0,0.7,0,1.1c0,1,1.5,1,1.5,0c0-0.4,0-0.7,0-1.1c-0.2,0.2-0.4,0.5-0.6,0.7c1.7-0.4,3.5-0.7,5.2-0.7c0.4,0,0.9,0,1.3,0
				c0.2,0,0.8,0,0.9,0.2c0.1,0.2,0,0.5,0,0.7c-0.1,0.4-0.2,0.8-0.3,1.3c-0.3,1.4-0.7,2.9-1.7,4c-0.4,0.4-0.8,0.7-1.3,0.6
				c-0.6-0.1-1.1-0.7-1.4-1.2c-1.1-1.5-1.8-3.2-2.3-5C105.1,129.9,103.6,130.3,103.9,131.2L103.9,131.2z"/>
		</g>
	</g>
	<g>
		<g>
			<path d="M96,189.6c-2.3,2.6-3.9,5.8-4.6,9.1c-0.4,1.7-0.6,3.5-0.5,5.3c0.1,1.5,0.6,2.7,2.1,3.2c3.4,1.1,5.7-3,7-5.5
				c0.8-1.5,1.4-3.1,1.9-4.8c0.4-1.3,0.9-2.7,0.9-4.1c0-1.1-0.5-2.6-1.7-2.9c-1.4-0.4-3.1-0.5-4.5-0.6c-1-0.1-1,1.4,0,1.5
				c1.2,0.1,2.4,0.2,3.6,0.4c0.2,0,0.5,0.1,0.6,0.1c0.4,0.3,0.5,0.8,0.5,1.3c0.1,1.1-0.3,2.2-0.6,3.2c-0.4,1.3-0.8,2.5-1.3,3.7
				c-0.6,1.3-1.3,2.6-2.2,3.9c-0.7,1-1.7,2.4-3.1,2.4c-0.5,0-1.1-0.1-1.5-0.6c-0.4-0.6-0.3-1.4-0.3-2.1c0-1.4,0.2-2.7,0.5-4.1
				c0.7-3.1,2.2-6,4.3-8.5C97.7,189.9,96.6,188.8,96,189.6L96,189.6z"/>
		</g>
	</g>
	<g>
		<g>
			<path d="M121.5,193.9c-1.1-1.3-2.5-2.2-4.1-2.7c-1.3-0.4-3.3-0.7-3.9,0.9c-0.2,0.7-0.1,1.5,0,2.3c0.1,0.8,0.3,1.6,0.5,2.4
				c0.4,1.4,1.1,2.8,1.9,4.1c0.9,1.3,2,2.5,3.2,3.5c1.1,0.9,2.5,1.9,4,2.2c3.8,0.9,2.8-5.1,2.2-7c-1-3.3-3.4-6.2-6.5-7.8
				c-0.9-0.4-1.6,0.9-0.8,1.3c2.2,1.1,3.9,2.9,5.1,5.1c0.5,1.1,0.9,2.2,1.1,3.4c0.1,0.6,0.1,1.2,0.1,1.7c0,0.5,0.1,1.3-0.3,1.7
				c-0.6,0.7-2.7-0.8-3.2-1.2c-1-0.7-2-1.5-2.8-2.5c-1.6-1.8-2.6-4.1-3.1-6.5c-0.1-0.6-0.3-1.5-0.2-2.1c0.2-0.6,1.4-0.2,1.9-0.1
				c1.4,0.4,2.7,1.2,3.6,2.3C121,195.7,122.1,194.6,121.5,193.9L121.5,193.9z"/>
		</g>
	</g>
	<g>
		<g>
			<path d="M194.2,105.8c-0.5-7.6-0.9-15.1-1.4-22.7c-0.2-3.8-0.5-7.6-0.7-11.4c-0.2-2.8-0.8-6.3,0.5-8.9c1.6-3.2,6.4-2.5,9.3-2.6
				c3.8-0.1,7.6-0.3,11.4-0.4c7.5-0.3,14.9-0.6,22.4-0.9c8.6-0.3,17.2-0.7,25.9-1c1,0,1-1.5,0-1.5c-16.1,0.6-32.2,1.2-48.2,1.9
				c-4,0.2-8,0.3-11.9,0.5c-2.9,0.1-6.8-0.4-9.1,1.9c-1.8,1.8-2,4.7-2,7.1c0.1,3.8,0.4,7.6,0.7,11.4c0.5,8.9,1.1,17.8,1.6,26.7
				C192.7,106.7,194.2,106.8,194.2,105.8L194.2,105.8z"/>
		</g>
	</g>
	<g>
		<g>
			<path d="M282.1,55.9c8-0.7,16.1-1.1,24.2-1.1c3.6,0,7.3,0,11,0.3c2.9,0.2,6.1,0.8,8.3,2.8c2.7,2.5,2.5,6.5,2.8,9.9
				c0.3,3.8,0.5,7.7,0.8,11.5c0.5,7.9,1,15.9,1.6,23.8c0.6,8.8,1.2,17.7,1.8,26.5c0.1,1,1.6,1,1.5,0c-1.1-16.5-2.2-32.9-3.3-49.4
				c-0.3-4.1-0.5-8.2-0.8-12.3c-0.2-3.4-0.1-7.3-2.2-10.1c-3.8-5-11.6-4.5-17.1-4.6c-9.5-0.2-19,0.2-28.4,1
				C281.1,54.5,281.1,56,282.1,55.9L282.1,55.9z"/>
		</g>
	</g>
	<g>
		<g>
			<path d="M200.6,108.4c-0.8-7-1.3-14-1.4-21c0-3.4,0-6.9,0.2-10.3c0.1-1.6,0.2-3.3,0.3-4.9c0.1-1.7,0-3.5,0.6-5.1
				c0.5-1.6,2-1.9,3.5-1.8c1.7,0,3.3,0.2,5,0.4c3.6,0.2,7.2,0.4,10.8,0.5c6.9,0.2,13.8,0.1,20.7-0.2c7.9-0.3,15.7-1,23.6-2
				c0.9-0.1,1-1.6,0-1.5c-14.7,1.9-29.5,2.6-44.3,2.2c-3.6-0.1-7.2-0.3-10.8-0.5c-1.7-0.1-3.3-0.3-5-0.4c-1.3,0-2.6,0.1-3.6,0.9
				c-0.9,0.7-1.3,1.7-1.5,2.8c-0.3,1.7-0.3,3.5-0.5,5.3c-0.2,3.6-0.4,7.2-0.4,10.8c-0.1,8.3,0.4,16.7,1.4,25
				C199.2,109.4,200.7,109.4,200.6,108.4L200.6,108.4z"/>
		</g>
	</g>
	<g>
		<g>
			<path d="M280.7,61.9c7.3-0.2,14.5-0.3,21.8-0.3c3.3,0,6.6-0.1,9.9,0.2c2.8,0.2,5.8,0.8,7.8,2.8c2.1,2.2,2.5,5.4,2.7,8.3
				c0.2,3.5,0.3,7,0.5,10.6c0.3,7.3,0.6,14.5,1,21.8c0.4,8.3,0.7,16.5,1.1,24.8c0,1,1.5,1,1.5,0c-0.7-15.4-1.4-30.7-2.1-46.1
				c-0.2-3.7-0.3-7.4-0.5-11.1c-0.2-2.8-0.5-5.7-2.1-8.1c-3.4-5.1-10.4-4.7-15.8-4.7c-8.6-0.1-17.1,0-25.7,0.2
				C279.8,60.4,279.7,61.9,280.7,61.9L280.7,61.9z"/>
		</g>
	</g>
	<g>
		<g>
			<path d="M140.6,138.5c3.8-0.4,7.7-0.1,11.5,0.3c3.9,0.4,7.8,0.9,11.6,1.5c0.9,0.2,1.4-1.3,0.4-1.4c-3.9-0.6-7.8-1.1-11.7-1.5
				c-3.9-0.4-7.9-0.7-11.9-0.3C139.6,137.1,139.6,138.6,140.6,138.5L140.6,138.5z"/>
		</g>
	</g>
	<g>
		<g>
			<path d="M214.9,138.2c8.6-0.1,17.2-0.2,25.8-0.3c1,0,1-1.5,0-1.5c-8.6,0.1-17.2,0.2-25.8,0.3C214,136.7,214,138.2,214.9,138.2
				L214.9,138.2z"/>
		</g>
	</g>
	<g>
		<g>
			<path d="M318.3,131.4c6.7,0.2,13.5,0,20.2-0.8c0.9-0.1,1-1.6,0-1.5c-6.7,0.8-13.5,1-20.2,0.8
				C317.3,129.9,317.3,131.4,318.3,131.4L318.3,131.4z"/>
		</g>
	</g>
	<g>
		<g>
			<path d="M268.5,28.1c0.9,5.6,1.3,11.3,1.3,17.1c0,1,1.5,1,1.5,0c0-5.8-0.4-11.7-1.4-17.5C269.8,26.8,268.3,27.2,268.5,28.1
				L268.5,28.1z"/>
		</g>
	</g>
	<g>
		<g>
			<path d="M272.2,44.3c-4.7,1-8,5.3-8.7,9.9c-0.8,4.6,0,10.7,3.8,13.9c1.7,1.5,4,2.2,6.2,1.6c2.3-0.6,4.1-2.3,5.4-4.1
				c2.8-3.8,3.6-9,2.1-13.4c-0.8-2.4-2.3-4.7-4.2-6.4c-1.8-1.6-4.4-3.5-7-2.8c-0.9,0.3-0.5,1.7,0.4,1.4c2-0.6,4.3,1.2,5.6,2.5
				c1.3,1.2,2.4,2.7,3.2,4.4c1.7,3.7,1.5,8-0.3,11.6c-1.8,3.5-5.8,7.1-9.8,4.5c-3.6-2.3-4.5-7.8-4.1-11.8c0.4-4.6,3.2-8.9,7.8-10
				C273.5,45.5,273.1,44.1,272.2,44.3L272.2,44.3z"/>
		</g>
	</g>
	<g>
		<g>
			<path d="M274.1,27.1c0.2,5.6,0.4,11.2,0.5,16.8c0,1,1.5,1,1.5,0c-0.2-5.6-0.4-11.2-0.5-16.8C275.5,26.1,274,26.1,274.1,27.1
				L274.1,27.1z"/>
		</g>
	</g>
	<g>
		<g>
			<path d="M274,53.3c-1.8-1.4-4.2-0.2-4.9,1.8c-0.5,1.3-0.2,2.7,0.2,3.9c0.4,1.1,0.9,2.3,1.6,3.3c0.6,0.8,1.5,1.6,2.6,1.6
				c1.1,0,2.1-0.7,2.5-1.7c0.5-1,0.7-2.2,0.8-3.3c0.1-1.2-0.1-2.5-0.6-3.6c-1-2.3-3.7-4-6.1-3c-0.4,0.1-0.6,0.5-0.5,0.9
				c0.1,0.4,0.5,0.7,0.9,0.5c1.4-0.6,3,0.1,3.9,1.3c1.1,1.5,1.1,3.5,0.7,5.2c-0.1,0.6-0.3,1.4-0.9,1.9c-0.6,0.4-1.2,0.2-1.6-0.3
				c-0.6-0.5-0.9-1.2-1.2-1.9c-0.4-0.9-0.8-1.9-0.9-2.9c-0.1-0.9,0.1-1.8,0.8-2.4c0.4-0.4,1.2-0.7,1.7-0.3c0.3,0.3,0.7,0.3,1.1,0
				C274.2,54.1,274.3,53.5,274,53.3L274,53.3z"/>
		</g>
	</g>
	<g>
		<g>
			<path d="M339.1,29.9c1.4,5.4,2,11,1.7,16.7c-0.1,1,1.4,1,1.5,0c0.3-5.7-0.3-11.5-1.7-17.1C340.3,28.5,338.8,28.9,339.1,29.9
				L339.1,29.9z"/>
		</g>
	</g>
	<g>
		<g>
			<path d="M344.8,29.3c0.2,6,0.3,12.1,0.5,18.1c0,1,1.5,1,1.5,0c-0.2-6-0.3-12.1-0.5-18.1C346.3,28.3,344.8,28.3,344.8,29.3
				L344.8,29.3z"/>
		</g>
	</g>
	<g>
		<g>
			<path d="M348,49.1c-0.9-4.2-6.5-4.7-9.4-2.3c-3.9,3.3-4.3,9.7-3.4,14.3c0.9,4.8,4.3,9.4,9.6,9.8c5.4,0.4,8.7-4.7,8.6-9.6
				c-0.1-5.1-2.8-12.3-8.3-13.5c-0.9-0.2-1.3,1.2-0.4,1.4c4.1,0.9,6.1,5.6,6.9,9.3c0.9,4-0.2,9.6-4.9,10.7c-4.3,1-8.1-2.4-9.5-6.3
				c-1.4-3.9-1.4-9,0.6-12.8c0.9-1.8,2.5-3.3,4.6-3.4c1.8-0.1,3.7,0.8,4.2,2.7C346.8,50.4,348.2,50,348,49.1L348,49.1z"/>
		</g>
	</g>
	<g>
		<g>
			<path d="M342.8,50.7c-2.6-1-3.6,2.7-3.9,4.5c-0.5,2.6-0.5,5.7,1.9,7.5c2.1,1.5,5.2,0.6,6.5-1.5c1.4-2.1,1.2-5-0.2-7.1
				c-1.4-2.3-4-3.8-6.7-3.7c-1,0-1,1.5,0,1.5c3.6-0.1,7.1,3.5,6.2,7.2c-0.4,1.8-2.1,3.4-4.1,2.9c-2.1-0.5-2.6-3-2.4-4.9
				c0.1-1.1,0.3-2.4,0.7-3.5c0.3-0.6,0.8-1.6,1.6-1.3C343.3,52.5,343.7,51,342.8,50.7L342.8,50.7z"/>
		</g>
	</g>
	<g>
		<g>
			<path d="M133,193.2c3.3-0.5,6.8-0.3,10.1-0.2c3.6,0.1,7.1,0.3,10.7,0.3c1,0,1-1.5,0-1.5c-3.7,0-7.3-0.2-11-0.3
				c-3.4-0.1-6.9-0.2-10.2,0.3C131.7,191.9,132.1,193.4,133,193.2L133,193.2z"/>
		</g>
	</g>
	<g>
		<g>
			<path d="M216.8,195c10.8-0.9,21.6-2,32.4-1.8c1,0,1-1.5,0-1.5c-10.8-0.2-21.7,0.8-32.4,1.8C215.9,193.6,215.9,195.1,216.8,195
				L216.8,195z"/>
		</g>
	</g>
	<g>
		<g>
			<path d="M305.8,191.9c4,0.4,8.3-0.3,12.3-0.7c4.5-0.4,9-1,13.5-1.4c1-0.1,1-1.6,0-1.5c-4.5,0.5-9,1-13.5,1.4
				c-4,0.4-8.3,1.1-12.3,0.7C304.9,190.3,304.9,191.8,305.8,191.9L305.8,191.9z"/>
		</g>
	</g>
	<g>
		<g>
			<path d="M326.1,187c1,0,1-1.5,0-1.5C325.2,185.5,325.2,187,326.1,187L326.1,187z"/>
		</g>
	</g>
	<g>
		<g>
			<path d="M372.7,128.9c7.9-0.2,15.8,0,23.7-0.2c3.6-0.1,8.3-0.6,10.7,2.8c1.9,2.6,1.8,6.3,1.9,9.3c0.5,12.4-0.2,24.8-0.6,37.1
				c-0.2,6.2-0.5,12.4-0.5,18.6c0,1,1.5,1,1.5,0c0.1-12.6,0.8-25.1,1.1-37.7c0.1-6,0.3-12,0-18c-0.1-3.1-0.2-6.4-1.6-9.2
				c-1.7-3.4-5.2-4.4-8.8-4.5c-4.5-0.1-9.1,0.1-13.6,0.1c-4.6,0-9.2,0-13.9,0.1C371.7,127.4,371.7,128.9,372.7,128.9L372.7,128.9z"
				/>
		</g>
	</g>
	<g>
		<g>
			<path d="M406.9,38.1c1.9,20.1,2.3,40.2,3.1,60.3c0.2,5.1,0.2,10.2,0,15.3c-0.2,5.2,0,10.3,0,15.5c-0.1,10.5-0.6,21-0.3,31.5
				c0.2,11.8,0.7,23.5,0.4,35.3c0,1,1.5,1,1.5,0c0.3-10.5,0-21.1-0.3-31.6c-0.3-10.4,0-20.8,0.2-31.2c0.1-5.2-0.1-10.4,0-15.7
				c0.1-5.1,0.4-10.1,0.2-15.2c-0.4-10.2-0.7-20.5-1.1-30.7c-0.5-11.2-1.1-22.4-2.1-33.6C408.3,37.1,406.8,37.1,406.9,38.1
				L406.9,38.1z"/>
		</g>
	</g>
	<g>
		<g>
			<path d="M411,38.2c1.3,20.6,2,41.1,2.3,61.7c0.3,20.4,0.4,40.9,0.5,61.3c0.1,11.6,0.2,23.3,0.4,34.9c0,1,1.5,1,1.5,0
				c-0.4-20.6-0.5-41.2-0.6-61.8c-0.1-20.4-0.4-40.8-1-61.3c-0.4-11.6-0.9-23.2-1.7-34.8C412.5,37.2,411,37.2,411,38.2L411,38.2z"/>
		</g>
	</g>
	<g>
		<g>
			<path d="M168.9,133.6c-1.9-7.8,2.8-15.8,8.7-20.6c6.1-5,14.7-5.9,21.9-2.6c7.6,3.6,11,11.2,12.9,18.9c1,3.9,1.7,8,2.7,11.9
				c1.1,4.6,2.6,9,4.1,13.5c2.8,8.5,6.2,17.9,4.9,27c-0.6,4.3-2.5,8.2-6,10.8c-3.6,2.8-8.2,4.2-12.6,5.3c-4.7,1.1-9.5,1.6-14.3,1.9
				c-4.9,0.3-9.8,0.5-14.6,0.4c-8.5-0.1-18.2-2-23.2-9.6c-2.6-4-2.8-8.7-2.4-13.4c0.4-4.6,1.3-9.1,2.5-13.5
				c2.5-8.7,6.4-16.9,11.8-24.1c1.3-1.7,2.8-3.4,3.7-5.4c0.4-0.9-0.9-1.6-1.3-0.8c-1,2.2-2.7,4-4,5.9c-1.4,2-2.7,4-4,6.1
				c-2.4,4.1-4.4,8.5-6,13c-1.6,4.6-2.8,9.3-3.6,14.1c-0.7,4.7-1.3,9.8,0.1,14.5c2.5,8.6,11.3,13.1,19.5,14.2
				c5.2,0.7,10.4,0.5,15.7,0.3c5.1-0.2,10.2-0.4,15.2-1.2c8.6-1.3,19.6-4,23.5-12.8c3.8-8.5,1.2-18.6-1.4-27
				c-1.5-5-3.3-9.9-4.8-14.8c-1.3-4.4-2.2-9-3.2-13.5c-1.8-8-4.5-16.6-11.6-21.4c-6.5-4.4-15.4-5.1-22.4-1.5
				c-7,3.6-12.6,11.1-13.5,19c-0.2,1.9-0.1,3.9,0.4,5.8C167.6,134.9,169.1,134.5,168.9,133.6L168.9,133.6z"/>
		</g>
	</g>
	<g>
		<path class="st0" d="M256.7,92.2c-6.5,4.2-9.1,12.5-10.1,20.2s-1.1,15.8-4.5,22.8c-2.4,4.9-6.2,8.8-9.2,13.3
			c-4.4,6.6-6.9,14.2-9.4,21.7c-1.2,3.5-2.3,7.4-1,10.8c1.3,3.5,6.3,5.6,8.8,2.9c1.2-1.3,2-3.7,3.8-3.5c0.7,0.1,1.3,0.6,1.9,1.1
			c3.5,2.6,8.6,2.9,12.3,0.7c1-0.6,1.9-1.3,3-1.5c1.4-0.2,2.8,0.6,4,1.4c2.4,1.5,4.8,2.9,7.6,3.4c2.7,0.5,5.8-0.1,7.7-2.2
			c4.2,2.2,8.5,4.4,13.2,5.5c7.3,1.8,15.2,0.7,22.2-2.1c-0.8-0.2-0.9-1.5-0.3-2.1c0.6-0.7,1.4-0.9,2.2-1.2c2.6-1.1,4.4-3.8,4.3-6.7
			s-2.1-5.5-4.9-6.1c4,1.5,8.5-1.2,10.6-4.9c2-3.7,2.1-8.2,2-12.4c-0.3-6-1-12-2.1-17.9c-1.6-8-4.3-16.3-10.7-21.3
			c-2.4-1.9-5.3-3.3-7.8-5.1c-8.5-6.1-13.7-17.5-24-19.3"/>
		<g>
			<path d="M256.4,91.6c-8.5,5.6-10.1,16.4-11,25.7c-0.6,5.8-1.1,11.8-3.6,17.2c-2.4,5.1-6.4,9.2-9.5,13.9
				c-3.2,4.8-5.4,10.3-7.3,15.7c-0.9,2.7-1.9,5.4-2.7,8.1c-0.8,2.6-1.3,5.5-0.6,8.2c0.9,3.5,4.9,6.6,8.6,5.2
				c0.9-0.3,1.5-0.9,2.1-1.6c0.6-0.8,1.1-1.9,1.9-2.5c1.1-0.8,2.2,0.5,3.1,1.1c1,0.7,2.2,1.2,3.4,1.5c2.5,0.6,5.2,0.5,7.6-0.5
				c1.3-0.5,2.4-1.6,3.7-2c1.8-0.5,3.5,0.9,4.9,1.7c4.5,2.7,11,5,15.2,0.5c-0.3,0-0.6,0.1-0.9,0.1c5.6,2.9,11.2,5.6,17.5,6.3
				c6.2,0.7,12.6-0.5,18.4-2.8c0.5-0.2,0.8-1.1,0.2-1.4c-1.5-0.7,1.5-1.9,1.9-2.1c0.8-0.4,1.6-0.9,2.3-1.6c1.3-1.2,2.1-2.9,2.4-4.7
				c0.5-3.6-1.9-7-5.3-7.9c-0.9-0.2-1.3,1.1-0.4,1.4c3.1,1,6.3,0,8.7-2c2.8-2.3,4.1-5.7,4.6-9.2c0.6-4.2,0.2-8.6-0.2-12.9
				c-0.4-4.4-1-8.8-2-13.1c-1.5-7-3.9-14.2-9.2-19.3c-2.9-2.8-6.6-4.4-9.8-6.8c-2.7-2-4.9-4.5-7.1-6.9c-4.6-5.1-9.5-10.8-16.7-12.2
				c-0.9-0.2-1.3,1.3-0.4,1.4c6,1.1,10.3,5.5,14.2,9.9c2,2.2,4,4.5,6.2,6.5c2.5,2.3,5.2,4,8.1,5.8c3.1,1.9,5.8,4.3,7.8,7.4
				c1.9,2.9,3.2,6.2,4.2,9.5c2.3,7.7,3.2,15.8,3.6,23.8c0.2,4.1,0.2,8.7-2,12.3c-1.9,3.2-5.8,5.5-9.6,4.2c-0.1,0.5-0.3,1-0.4,1.4
				c4.4,1.2,5.5,6.6,2.6,9.8c-0.8,0.8-1.7,1.4-2.7,1.8c-0.7,0.3-1.4,0.6-1.9,1.2c-0.8,1-0.8,2.7,0.5,3.3c0.1-0.5,0.1-0.9,0.2-1.4
				c-5.6,2.1-11.5,3.3-17.5,2.8c-6.2-0.6-11.8-3.3-17.2-6.2c-0.3-0.2-0.7-0.1-0.9,0.1c-4.1,4.3-10.2,1.2-14.4-1.3
				c-2-1.2-4-2-6.2-0.9c-1.1,0.6-2,1.3-3.1,1.7c-1.2,0.5-2.5,0.7-3.8,0.7c-2.4,0-4.6-0.9-6.5-2.3c-1.6-1.2-3.2-1.2-4.6,0.4
				c-1.3,1.5-2,3.5-4.3,3.4c-1.9,0-3.8-1.3-4.8-2.9c-1.4-2.5-0.9-5.7-0.1-8.3c0.7-2.7,1.7-5.3,2.6-7.9c1.8-5.3,3.9-10.5,6.9-15.3
				c2.8-4.4,6.4-8.2,9-12.7c2.6-4.5,3.7-9.6,4.3-14.7c1.3-10.2,1.2-23.3,10.9-29.7C257.9,92.3,257.2,91,256.4,91.6L256.4,91.6z"/>
		</g>
	</g>
	<g>
		<g>
			<path d="M240.7,182.7c-0.7,2.8-1.4,6,0.4,8.6c0.7,1,1.6,1.7,2.8,2c1.6,0.4,3.1-0.1,4.7,0c2.7,0.2,4.6,2.6,7.4,2.8
				c1.3,0.1,2.3-0.5,3.4-1.1c0.8-0.4,1.5-0.7,2.3-0.3c0.7,0.3,1.3,0.9,2.1,1.2c2.7,0.9,4.4-1.7,6.9-1.9c2.6-0.2,4.7,2.2,7.3,2.3
				c1.4,0.1,2.6-0.6,3.8-1c1.8-0.6,2.9,0.4,4.6,0.9c1.5,0.5,3,0.4,4.5,0.3c1.8-0.1,3.6-0.1,5.4,0c3,0.2,6.5,0.2,8.7-2.2
				c1.6-1.8,2.3-4.5,0.6-6.5c-0.6-0.7-1.7,0.3-1.1,1.1c1.6,1.9-0.3,4.7-2.2,5.6c-2.6,1.3-5.9,0.4-8.7,0.4c-1.4,0-2.8,0.2-4.2,0.2
				c-1.7,0-3-0.5-4.5-1.2c-1-0.4-2-0.5-3.1-0.2c-1.3,0.4-2.4,1.2-3.8,1.1c-2.2-0.1-4.1-1.9-6.3-2.3c-2.4-0.4-3.9,1.3-6,2
				c-1.3,0.4-2.2-0.5-3.3-1c-1-0.5-2-0.5-3.1,0c-1.1,0.5-2,1.4-3.3,1.2c-1.2-0.1-2.3-0.9-3.4-1.5c-1-0.6-2.1-1.1-3.3-1.3
				c-1.6-0.2-3.3,0.4-5,0c-3.8-0.9-2.8-6-2.1-8.7C242.4,182.1,241,181.7,240.7,182.7L240.7,182.7z"/>
		</g>
	</g>
	<g>
		<g>
			<path d="M257.4,195.2c0.2,1.9,0.6,3.8,1.2,5.6c0.3,0.9,0.7,1.9,1,2.8c0.3,0.7,0.7,1.4,1.3,1.8c0.6,0.4,1.5,0.4,2.1,0
				c0.6-0.4,1-1.1,1.2-1.8c0.4-1.5,0.4-3.2,0-4.7c-0.4-1.7-1.3-3.3-2.6-4.6c-0.7-0.7-1.7,0.4-1.1,1.1c1.1,1.1,1.9,2.5,2.2,4.1
				c0.2,0.8,0.2,1.6,0.2,2.4c0,0.7-0.1,1.5-0.6,2.1c-1,1.3-2.1-2.3-2.3-2.9c-0.7-1.9-1.1-3.8-1.4-5.8c-0.1-0.4-0.3-0.7-0.8-0.8
				C257.8,194.4,257.4,194.8,257.4,195.2L257.4,195.2z"/>
		</g>
	</g>
	<g>
		<g>
			<path d="M284.5,195.8c-2.4,1-4.6,2.3-6.4,4.2c-0.9,1-1.6,2-2.1,3.2c-0.5,1.2-0.9,2.6-0.4,3.8c0.8,2.3,3.7,2.7,5.7,2
				c2.4-0.8,4.4-2.6,5.5-4.9c1.2-2.8,0.9-6.1-0.8-8.7c-0.5-0.8-1.8,0-1.3,0.8c2.5,3.7,1.3,8.9-2.7,11c-1.3,0.7-3.9,1.3-4.8-0.4
				c-0.5-0.9-0.1-2.2,0.3-3.1c0.4-0.9,1-1.8,1.6-2.6c1.6-1.8,3.7-3.1,5.8-4c0.4-0.2,0.6-0.5,0.5-0.9
				C285.3,196,284.9,195.6,284.5,195.8L284.5,195.8z"/>
		</g>
	</g>
	<g>
		<g>
			<path d="M169.5,199.9c-2,1.6-3.7,3.6-4.9,6c-1,2-2,4.6-1.2,6.8c0.8,2.4,3.6,2.9,5.8,2.1c2.2-0.8,3.9-2.6,4.8-4.6
				c1.3-2.9,1.1-6.3,0.4-9.3c-0.2-0.9-1.7-0.5-1.4,0.4c1,4.1,0.8,9.3-3.3,11.7c-1.5,0.9-4.2,1.3-4.9-0.8c-0.5-1.8,0.4-4,1.2-5.5
				c1.1-2.2,2.7-4.1,4.6-5.6C171.3,200.3,170.3,199.3,169.5,199.9L169.5,199.9z"/>
		</g>
	</g>
	<g>
		<g>
			<path d="M180,201.7c1.8,2.2,3.7,4.4,5.7,6.4c1.7,1.7,3.6,3.8,6.1,4.2c2,0.4,4.3-0.4,5-2.5c0.7-2-0.5-4.7-2-6.1
				c-1.7-1.5-4.1-2.2-5.8-3.7c-0.7-0.6-1.8,0.4-1.1,1.1c2.7,2.2,6.9,2.9,7.6,6.8c0.4,2.2-1.7,3.3-3.6,2.8c-2.1-0.6-3.8-2.5-5.3-4
				c-1.9-1.9-3.7-3.9-5.4-6.1C180.4,199.9,179.4,201,180,201.7L180,201.7z"/>
		</g>
	</g>
	<g>
		<g>
			<path d="M158.9,195.7c0.2-1.5-0.2-3.1,0.2-4.5c0.2-0.9,0.7-1.7,1.7-1.8c1-0.1,2.1,0.3,3,0.6c3.5,1.1,6.7,2.5,10.4,2.2
				c1.8-0.2,3.6-0.6,5.5-0.5c2,0,3.5,1,5.4,1.5c1.8,0.5,3.6,0.1,5.4,0.1c1.8-0.1,3.7,0.1,5.5,0.4c4,0.7,7.8,2.3,11.2,4.7
				c0.8,0.6,1.5-0.7,0.8-1.3c-3.1-2.2-6.7-3.8-10.5-4.7c-1.8-0.4-3.7-0.6-5.6-0.7c-2.1,0-4.3,0.5-6.3,0c-1.9-0.5-3.4-1.4-5.3-1.5
				c-2.1-0.1-4.1,0.4-6.1,0.5c-4.3,0.3-7.9-2.1-12.1-2.7c-1.7-0.3-3.1,0.4-3.9,1.9c-0.9,1.8-0.3,3.6-0.5,5.5
				C157.3,196.2,158.7,196.6,158.9,195.7L158.9,195.7z"/>
		</g>
	</g>
	<g>
		<g>
			<path d="M174.8,153.3c4.8,3,9.2,7.6,9.3,13.5c0.1,6-4.9,9.6-9.5,12.6c-0.8,0.5-0.1,1.8,0.8,1.3c5-3.3,10.3-7.3,10.2-13.9
				c-0.1-6.5-4.7-11.6-10-14.8C174.7,151.4,173.9,152.7,174.8,153.3L174.8,153.3z"/>
		</g>
	</g>
	<g>
		<g>
			<path d="M197.7,153.5c-6.9,4-13.6,10.3-13.6,18.8c0,7.3,6.2,13.5,13.5,13.5c1,0,1-1.5,0-1.5c-6.9-0.1-12.4-6-12-12.9
				c0.5-7.7,6.6-13.1,12.8-16.7C199.3,154.3,198.5,153,197.7,153.5L197.7,153.5z"/>
		</g>
	</g>
	<g>
		<g>
			<path d="M186,126.4c0.6,1.1,1.2,2.2,1.8,3.2c0.3,0.5,0.5,1,0.8,1.5c0.3,0.5,0.5,1.1,0.9,1.5c1,1.1,2.1-0.1,2.8-0.8
				c0.8-0.8,1.7-1.6,2.5-2.4c1.1-1.2,2.4-3.3,1.3-4.9c-0.6-0.9-1.6-1.2-2.5-1.3c-1.1-0.1-2.3,0-3.4-0.1c-0.7,0-1.3,0-2,0
				c-0.6,0-1.2,0.1-1.7,0.3c-1,0.6-1.2,2-0.2,2.7c0.3,0.2,0.8,0.1,1-0.3c0.2-0.4,0.1-0.8-0.3-1c0.2,0.1,0,0,0.2-0.1
				c0.2-0.2,0.7-0.2,1-0.2c0.9,0,1.8,0,2.7,0c0.9,0,1.8,0,2.7,0.1c0.5,0,1.2,0.2,1.4,0.7c0.2,0.5,0,1.1-0.2,1.5
				c-0.3,0.6-0.7,1.2-1.2,1.7c-0.6,0.6-1.3,1.2-1.9,1.8c-0.3,0.3-0.6,0.6-1,0.9c-0.1,0.1-0.2,0.1-0.2,0.2c0,0,0,0,0,0
				c-0.1,0.1,0,0.1,0.2,0.1c0,0-0.2-0.4-0.2-0.4c-1-1.8-2-3.7-3-5.5C186.9,124.8,185.6,125.6,186,126.4L186,126.4z"/>
		</g>
	</g>
	<g>
		<g>
			<path d="M184.9,118c-0.2,0.7,0,1.4,0.6,1.9c0.3,0.2,0.6,0.3,0.9,0.1c0.8-0.4,1.6-1.1,1.6-2.1c0-0.5-0.2-0.9-0.5-1.3
				c-0.2-0.2-0.4-0.3-0.6-0.4c-0.1,0-0.3-0.1-0.4-0.1c-0.1,0-0.2,0-0.3,0c-0.2,0-0.3,0.2-0.4,0.3c-0.4,0.4-0.8,0.7-1.3,1.1
				c-0.3,0.3-0.3,0.8,0,1.1c0.3,0.3,0.7,0.3,1.1,0c0.4-0.4,0.9-0.8,1.3-1.1c-0.2,0.1-0.4,0.1-0.5,0.2c0,0,0.1,0,0.1,0
				c-0.1,0-0.1,0-0.2,0c0.1,0,0.1,0,0.2,0c-0.1,0-0.1-0.1-0.2-0.1c0.1,0,0.1,0.1,0.2,0.1c-0.1,0-0.1-0.1-0.2-0.1
				c0.1,0,0.1,0.1,0.1,0.1c0-0.1-0.1-0.1-0.1-0.2c0.1,0.1,0.1,0.2,0.1,0.2c0-0.1-0.1-0.1-0.1-0.2c0,0.1,0.1,0.2,0.1,0.3
				c0-0.1,0-0.1,0-0.2c0,0.1,0,0.2,0,0.3c0-0.1,0-0.1,0-0.2c0,0.1,0,0.2-0.1,0.3c0-0.1,0.1-0.1,0.1-0.2c0,0.1-0.1,0.2-0.2,0.3
				c0-0.1,0.1-0.1,0.1-0.2c-0.1,0.1-0.2,0.2-0.4,0.4c0.1,0,0.1-0.1,0.2-0.1c-0.2,0.2-0.4,0.3-0.7,0.4c0.3,0,0.6,0.1,0.9,0.1
				c0,0-0.1-0.1-0.1-0.1c0,0.1,0.1,0.1,0.1,0.2c-0.1-0.1-0.1-0.2-0.2-0.3c0,0.1,0.1,0.1,0.1,0.2c0-0.1-0.1-0.2-0.1-0.3
				c0,0.1,0,0.1,0,0.2c0-0.1,0-0.2,0-0.4c0,0.1,0,0.1,0,0.2c0,0,0-0.1,0-0.1c0.1-0.4-0.1-0.8-0.5-0.9
				C185.4,117.4,185,117.6,184.9,118L184.9,118z"/>
		</g>
	</g>
	<g>
		<g>
			<path d="M192.3,118.6c0,0.4,0.1,0.8,0.1,1.3c0,0.1,0,0.3,0.1,0.4c0,0.1,0.1,0.2,0.2,0.2c0.2,0.1,0.4,0.2,0.7,0.1
				c0.5-0.1,0.9-0.5,1.1-0.9c0.1-0.2,0.2-0.4,0.2-0.6c0.1-0.3,0.1-0.5,0-0.8c0-0.2-0.2-0.4-0.3-0.4c-0.2-0.1-0.4-0.1-0.6-0.1
				c-0.2,0.1-0.4,0.2-0.6,0.3c-0.2,0.2-0.3,0.4-0.4,0.6c-0.1,0.4-0.1,0.8,0.1,1.1c0.1,0.2,0.3,0.3,0.4,0.3c0.2,0,0.4,0,0.6-0.1
				c0.2-0.1,0.3-0.3,0.3-0.4c0-0.2,0-0.4-0.1-0.6c0,0,0,0,0-0.1c0,0.1,0.1,0.1,0.1,0.2c0-0.1,0-0.1,0-0.2c0,0.1,0,0.1,0,0.2
				c0-0.1,0-0.1,0-0.2c0,0.1,0,0.1,0,0.2c0-0.1,0-0.1,0.1-0.2c0,0.1-0.1,0.1-0.1,0.2c0-0.1,0.1-0.1,0.1-0.2c0,0.1-0.1,0.1-0.1,0.2
				c0,0,0.1-0.1,0.1-0.1c-0.1,0-0.1,0.1-0.2,0.1c0,0,0.1-0.1,0.1-0.1c-0.1,0-0.1,0.1-0.2,0.1c0,0,0,0,0.1,0
				c-0.3-0.2-0.6-0.3-0.9-0.5c0,0,0,0,0,0.1c0-0.1,0-0.1,0-0.2c0,0.1,0,0.2,0,0.3c0-0.1,0-0.1,0-0.2c0,0.1,0,0.2-0.1,0.3
				c0-0.1,0.1-0.1,0.1-0.2c0,0.1-0.1,0.2-0.2,0.3c0-0.1,0.1-0.1,0.1-0.2c-0.1,0.1-0.1,0.1-0.2,0.2c0.1,0,0.1-0.1,0.2-0.1
				c-0.1,0.1-0.2,0.1-0.2,0.1c0.1,0,0.1-0.1,0.2-0.1c0,0-0.1,0-0.1,0c0.3,0.2,0.6,0.5,0.9,0.7c0-0.4-0.1-0.8-0.1-1.3
				c0-0.2-0.1-0.4-0.2-0.5c-0.1-0.1-0.3-0.2-0.5-0.2c-0.2,0-0.4,0.1-0.5,0.2C192.4,118.3,192.3,118.4,192.3,118.6L192.3,118.6z"/>
		</g>
	</g>
	<g>
		<g>
			<path d="M263.2,105.6c-0.2,0.9,0.3,1.9,1.3,2.1c0.4,0.1,0.8-0.1,0.9-0.5c0.4-1.1,0.2-2.5-0.5-3.4c-0.2-0.2-0.4-0.5-0.6-0.7
				c-0.1-0.1-0.3-0.2-0.4-0.3c-0.3-0.2-0.6-0.1-0.9,0c-0.5,0.3-0.8,0.9-0.9,1.5c-0.1,0.6,0.1,1.1,0.5,1.5c0.4,0.5,1.1,0.6,1.7,0.4
				c0.6-0.2,1.1-0.7,1.2-1.3c0.2-0.7-0.1-1.4-0.7-1.8c-1.1-0.7-2.8,0.1-2.7,1.5c0,0.4,0.3,0.8,0.8,0.8c0.4,0,0.8-0.3,0.8-0.8
				c0,0,0-0.1,0-0.1c0,0.2,0,0.2,0,0.1c0,0,0,0,0-0.1c0-0.1,0,0.1,0,0.1c0,0,0-0.1,0-0.1c0,0,0.1-0.1,0,0c-0.1,0.1,0,0,0,0
				c0,0,0,0,0.1,0c0.1-0.1-0.1,0.1-0.1,0.1c0,0,0.1-0.1,0.1-0.1c0,0,0,0,0.1,0c0.1-0.1-0.1,0-0.1,0c0.1,0,0.1,0,0.2-0.1
				c0.2,0-0.1,0,0,0c0,0,0.1,0,0.1,0c0.2,0-0.1,0,0,0c0,0,0,0,0.1,0c0.1,0,0,0-0.1,0c0,0,0.1,0.1,0.1,0.1c-0.1,0-0.1-0.1-0.1-0.1
				c0,0,0,0,0,0c0.1,0.1-0.1-0.1-0.1-0.1c0,0,0,0.1,0,0.1c0.1,0.1,0,0,0-0.1c0,0,0,0.1,0,0.1c0,0,0-0.2,0-0.1c0,0,0,0.1,0,0.1
				c0,0.1,0,0,0-0.1c0,0,0,0.1,0,0.1c0,0,0,0.1,0,0.1c0,0.1,0-0.1,0-0.1c0,0-0.1,0.2-0.1,0.2c0,0,0.1-0.1,0-0.1c0,0,0,0-0.1,0.1
				c0,0,0,0-0.1,0.1c0,0-0.1,0,0.1,0c0,0-0.1,0.1-0.1,0.1c0,0-0.1,0-0.1,0c0.1-0.1,0.1,0,0,0c0,0-0.1,0-0.1,0c-0.1,0,0,0,0.1,0
				c0,0-0.1,0-0.1,0c-0.1,0-0.1,0,0.1,0c0,0-0.1,0-0.2,0c0,0,0.2,0.1,0.1,0c0,0-0.1,0-0.1-0.1c-0.1,0,0.1,0.1,0.1,0c0,0,0,0-0.1-0.1
				c-0.1-0.1,0.1,0.2,0,0c0-0.1,0-0.2,0,0c0-0.1,0-0.1-0.1-0.2c0,0,0-0.1,0-0.1c0-0.1,0,0.2,0,0.1c0-0.1,0-0.1,0-0.2
				c0-0.2,0,0.2,0,0c0-0.1,0-0.1,0.1-0.2c0-0.1-0.1,0.2,0,0.1c0,0,0-0.1,0-0.1c0,0,0,0,0-0.1c0.1-0.1-0.1,0.1,0,0c0,0,0,0,0.1-0.1
				c0.1-0.1-0.1,0.1,0,0c0.1,0,0.1-0.1,0.2-0.1c-0.3,0-0.5,0-0.8,0c0,0,0.1,0,0.1,0.1c0,0,0.1,0.1,0,0c0.1,0.1,0.1,0.1,0.2,0.1
				c0.1,0.1,0.1,0.1,0.2,0.2c0,0,0.1,0.1,0.1,0.1c0.1,0.1,0,0,0,0c0.1,0.1,0.2,0.3,0.3,0.4c0,0,0,0.1,0,0.1c0,0,0.1,0.2,0,0
				c0-0.1,0,0,0,0c0,0,0,0.1,0,0.1c0.1,0.2,0.1,0.3,0.1,0.5c0,0,0,0.1,0,0.1c0-0.2,0-0.1,0,0c0,0.1,0,0.2,0,0.2c0,0.1,0,0.1,0,0.2
				c0,0,0,0.1,0,0.1c0,0.1,0-0.2,0,0c0,0.2-0.1,0.3-0.1,0.5c0.3-0.2,0.6-0.3,0.9-0.5c0,0-0.1,0-0.1,0c-0.1,0-0.1,0,0,0
				c0,0-0.1-0.1-0.1-0.1c0.1,0.1,0.1,0.1,0.1,0c0,0,0,0-0.1-0.1c-0.1-0.1,0,0,0,0c0,0,0,0,0-0.1c0,0,0,0,0-0.1c0-0.1,0-0.1,0,0
				c0,0,0-0.1,0-0.1c0,0.1,0,0.1,0,0.1c0,0,0,0,0,0c0,0,0-0.1,0-0.1c0,0.1,0,0.1,0,0.1c0.1-0.4-0.1-0.8-0.5-0.9
				C263.7,105,263.3,105.2,263.2,105.6L263.2,105.6z"/>
		</g>
	</g>
	<g>
		<g>
			<path d="M272.1,103.8c-0.3,1.4,0.1,2.8,1,3.9c0.2,0.3,0.6,0.3,0.9,0.1c0.8-0.4,1.2-1.3,1.3-2.2c0.1-0.9-0.3-1.7-1.1-2.3
				c-0.3-0.2-0.8,0-1,0.3c-0.3,0.5-0.6,1.1-0.9,1.6c0.4,0.3,0.9,0.5,1.3,0.8c0.4-0.9,0.5-1.7,0.3-2.7c-0.1-0.4-0.6-0.6-0.9-0.5
				c-0.4,0.1-0.6,0.5-0.5,0.9c0,0.1,0,0.1,0,0c0,0,0,0.1,0,0.1c0,0.1,0,0.2,0,0.3c0,0.2,0,0.3,0,0.5c0-0.2,0,0.1,0,0.1
				c0,0.1,0,0.1,0,0.2c0,0.1,0,0.2-0.1,0.2c0,0-0.1,0.3,0,0.1c-0.1,0.2-0.1,0.4-0.1,0.6c0,0.2,0.2,0.4,0.3,0.4
				c0.4,0.2,0.8,0.1,1-0.3c0.3-0.5,0.6-1.1,0.9-1.6c-0.3,0.1-0.7,0.2-1,0.3c-0.2-0.1,0,0,0,0c0,0,0,0.1,0.1,0.1c0.1,0.1,0,0,0,0
				c0,0.1,0.1,0.1,0.1,0.2c0,0,0,0.1,0.1,0.1c0,0-0.1-0.2,0-0.1c0,0.1,0.1,0.3,0.1,0.4c-0.1-0.2,0-0.1,0,0c0,0,0,0.1,0,0.1
				c0,0.1,0,0.2,0,0.2c0,0,0,0.1,0,0.1c0-0.1,0-0.2,0-0.1c0,0.1,0,0.1,0,0.2c0,0,0,0.1,0,0.1c0,0-0.1,0.1,0,0c0.1-0.1,0,0,0,0
				c0,0,0,0.1,0,0.1c0,0,0,0.1-0.1,0.1c0,0-0.1,0.1,0,0c0.1-0.1,0,0,0,0c0,0,0,0.1-0.1,0.1c0,0,0,0-0.1,0.1c0,0-0.1,0.1,0,0
				c0.1-0.1,0,0,0,0c0,0-0.1,0-0.1,0.1c0.3,0,0.6,0.1,0.9,0.1c0-0.1-0.1-0.1-0.1-0.2c0.1,0.2,0,0,0,0c-0.1-0.1-0.1-0.2-0.2-0.3
				c0-0.1-0.1-0.1-0.1-0.2c-0.1-0.1,0,0.1,0,0c0-0.1-0.1-0.2-0.1-0.4c0-0.1-0.1-0.3-0.1-0.4c0-0.2,0,0.2,0,0c0-0.1,0-0.2,0-0.2
				c0-0.1,0-0.3,0-0.4c0,0,0-0.2,0,0c0-0.1,0-0.2,0-0.2c0.1-0.4-0.1-0.8-0.5-0.9C272.6,103.2,272.1,103.4,272.1,103.8L272.1,103.8z"
				/>
		</g>
	</g>
	<g>
		<g>
			<path d="M265.1,112.2c0.9,4.1,2.9,8,5.7,11.1c0.3,0.4,0.9,0.2,1.2-0.2c1.2-1.9,2.3-3.9,3.1-6c0.6-1.6,1.2-3.3,0.8-5
				c-0.2-0.8-0.6-1.5-1.3-1.9c-0.8-0.6-1.9-0.7-2.9-0.8c-2.4-0.1-4.9,0-7.3,0.4c-1,0.2-0.5,1.6,0.4,1.4c2.1-0.3,4.2-0.5,6.2-0.4
				c0.8,0,1.9,0,2.6,0.5c0.5,0.4,0.7,0.9,0.8,1.5c0.1,1.5-0.5,2.9-1,4.2c-0.8,1.8-1.7,3.5-2.8,5.2c0.4-0.1,0.8-0.1,1.2-0.2
				c-2.7-2.9-4.5-6.5-5.3-10.4C266.4,110.8,264.9,111.2,265.1,112.2L265.1,112.2z"/>
		</g>
	</g>
	<g>
		<g>
			<path d="M257.3,146.8c3.1,2.3,5.4,5.5,7.4,8.8c2,3.4,4.1,7.1,4.7,11.1c1,6.7-2.5,13.6-8.4,16.9c-0.8,0.5-0.1,1.8,0.8,1.3
				c6.3-3.5,10.1-10.9,9.1-18.1c-0.6-4.3-2.7-8.3-4.9-12.1c-2.1-3.6-4.6-6.8-7.9-9.3C257.2,145,256.5,146.3,257.3,146.8L257.3,146.8
				z"/>
		</g>
	</g>
	<g>
		<g>
			<path d="M297.7,142.1c-6.3,2.9-12.9,6-17.6,11.3c-4.7,5.4-6.4,12.4-6.3,19.5c0.1,4.2,0.7,8.3,1.6,12.4c0.2,0.9,1.7,0.5,1.4-0.4
				c-1.5-6.7-2.3-13.9-0.7-20.6c1.7-6.9,6.2-12,12.2-15.7c3.2-2,6.6-3.6,10.1-5.1C299.3,143,298.6,141.7,297.7,142.1L297.7,142.1z"
				/>
		</g>
	</g>
	<g>
		<path class="st0" d="M369.3,116.9c-6-5-13.8-7.1-21.2-5.9c-2,0.3-4.1,1-5.3,2.7c-0.9,1.2-1.2,2.9-1.5,4.4
			c-3.2,16-8.2,31.5-14.8,46.2c-2.6,5.9-5.6,12.8-2.8,18.6c1.9,4,6.3,6.1,10.4,6.1c4.1-0.1,8.1-1.9,11.6-4.3
			c8.4-5.5,15.3-13.6,19.7-23.1c1.6-3.5,2.8-8.1,0.3-10.9c-2.6-3-7.2-1.6-10.7,0.1c0.5-2.2,1-4.5,1.5-6.7c-4.2-1.3-9.1,1.4-10.8,5.8
			"/>
		<g>
			<path d="M369.8,116.3c-4.7-3.8-10.5-6.2-16.6-6.5c-2.7-0.1-5.8,0-8.3,1.1c-2.8,1.2-3.8,3.6-4.4,6.4c-2.9,14-7,27.8-12.5,41
				c-2.5,5.9-6.1,12-6.3,18.6c-0.2,5.7,3.1,10.6,8.6,12.1c6,1.7,12.1-1.4,16.9-4.8c4.9-3.5,9.2-7.7,12.8-12.6
				c2.1-2.8,3.9-5.8,5.4-8.9c1.3-2.7,2.5-5.7,2.3-8.8c-0.2-2.7-1.9-5.2-4.7-5.8c-2.9-0.6-5.9,0.6-8.4,1.8c0.4,0.3,0.7,0.6,1.1,0.8
				c0.5-2.2,1-4.5,1.5-6.7c0.1-0.4-0.1-0.8-0.5-0.9c-5-1.4-9.9,1.7-11.7,6.3c-0.4,0.9,1.1,1.3,1.4,0.4c1.5-3.8,5.8-6.4,9.9-5.3
				c-0.2-0.3-0.3-0.6-0.5-0.9c-0.5,2.2-1,4.5-1.5,6.7c-0.1,0.7,0.5,1.1,1.1,0.8c2.2-1,4.8-2.1,7.3-1.6c2.8,0.6,3.9,3.4,3.6,6
				c-0.2,2.7-1.4,5.2-2.6,7.5c-1.3,2.5-2.7,4.9-4.4,7.2c-3.2,4.5-7.1,8.5-11.5,11.8c-4.4,3.3-10,6.8-15.7,5.9
				c-5.6-0.9-9.2-5.5-8.9-11.2c0.3-6,3.6-11.6,5.8-17c4.8-11.5,8.7-23.4,11.5-35.5c0.4-1.8,0.8-3.5,1.2-5.3c0.3-1.5,0.5-3.1,1.3-4.5
				c1.5-2.8,5.3-3.1,8.1-3.3c6.4-0.3,12.7,2,17.7,6C369.5,118,370.6,116.9,369.8,116.3L369.8,116.3z"/>
		</g>
	</g>
	<g>
		<path class="st0" d="M367,158.6c-0.6,0.5-1.3,0.9-1.7,1.6c-0.3,0.7-0.2,1.7,0.5,2.1c0.4,0.2,0.8,0.2,1.2,0.2
			c1.4,0,2.9-0.1,4.3-0.1c-1.6,0.5-2.7,2.4-2.1,4c0.6,1.6,2.7,2.4,4.2,1.6c0.4-0.2,0.8-0.5,1.2-0.5c0.8,0.1,0.8,1.3,1.2,2
			c0.4,0.6,1.2,0.8,2,0.8c4.3,0.2,7.1-4.6,7.7-8.8"/>
		<g>
			<path d="M366.6,157.9c-1.4,1-3,2.6-1.9,4.4c0.5,0.8,1.4,0.9,2.2,0.9c1.4,0,2.9-0.1,4.3-0.1c-0.1-0.5-0.1-1-0.2-1.5
				c-2.6,0.9-3.9,4.3-1.7,6.3c0.9,0.8,2.1,1.2,3.3,1.1c0.3,0,0.6-0.1,0.9-0.3c0.4-0.2,0.8-0.6,1.1-0.1c0.4,0.5,0.3,1.1,0.8,1.6
				c1.9,1.9,5.4,0.5,7-1c2.1-1.9,3.3-4.8,3.8-7.6c0.1-0.9-1.3-1.4-1.4-0.4c-0.3,2.2-1.1,4.4-2.6,6.1c-0.7,0.8-1.5,1.5-2.4,1.9
				c-0.9,0.4-2.6,0.7-3.3,0c-0.6-0.6-0.4-1.7-1.2-2.2c-1-0.7-1.8,0.3-2.8,0.5c-1.1,0.2-2.4-0.5-2.6-1.6c-0.3-1.2,0.5-2.5,1.7-2.9
				c0.8-0.3,0.7-1.5-0.2-1.5c-1.5,0-3,0.2-4.5,0.1c-0.7,0-1.1-0.4-0.9-1.1c0.2-0.6,0.9-1.1,1.4-1.4
				C368.1,158.7,367.4,157.4,366.6,157.9L366.6,157.9z"/>
		</g>
	</g>
	<g>
		<g>
			<path d="M368.8,117.4c2.6,2.2,2.8,5.5,3,8.6c0.2,3.4,0.8,6.5,2.3,9.5c1.5,3.1,3.7,5.8,5.6,8.6c2.1,3.1,3.7,6.4,4.5,10
				c1.6,7.2,0.3,14.9-3.8,21.1c-4,5.9-10.2,9.7-17.3,10.3c-3.5,0.3-7-0.1-10.4-0.3c-3.9-0.2-7.7,0.3-11.4,1.6
				c-0.9,0.3-0.5,1.8,0.4,1.4c3.6-1.3,7.2-1.8,11-1.6c3.3,0.2,6.6,0.6,9.9,0.3c7-0.5,13.4-3.8,17.8-9.3c4.6-5.8,6.6-13.2,5.9-20.5
				c-0.4-3.7-1.4-7.2-3.1-10.5c-1.7-3.3-4.1-6.2-6.1-9.3c-1.1-1.8-2.1-3.6-2.8-5.7c-0.6-2-0.8-4-0.9-6c-0.2-3.5-0.6-7.1-3.4-9.5
				C369.1,115.7,368,116.8,368.8,117.4L368.8,117.4z"/>
		</g>
	</g>
	<g>
		<g>
			<path d="M360.1,169.3c-1.6,2.3-3.7,4.3-5.2,6.6c-0.3,0.4,0,1,0.4,1.1c3.6,0.7,7.2,0.8,10.8,0.3c1.6-0.2,2.9-0.9,3.5-2.4
				c0.6-1.3,0.8-2.8,0.9-4.3c0.1-1.5,0-3.1-0.6-4.4c-0.4-0.9-1.8-0.5-1.4,0.4c0.6,1.4,0.6,3,0.5,4.5c-0.1,1.3-0.3,3.1-1.2,4
				c-0.8,0.8-2,0.8-3,0.8c-1,0.1-2,0.1-3.1,0.2c-2,0.1-4-0.1-6-0.5c0.1,0.4,0.3,0.7,0.4,1.1c1.6-2.3,3.7-4.3,5.2-6.6
				C361.9,169.2,360.6,168.5,360.1,169.3L360.1,169.3z"/>
		</g>
	</g>
	<g>
		<g>
			<path d="M379,142.7c-2.3,0.7-4.6,1.2-6.8,2.3c-2.6,1.3-4.9,3.2-7.1,5.1c-0.7,0.6,0.3,1.7,1.1,1.1c2.1-1.8,4.3-3.6,6.8-4.8
				c2-1,4.3-1.5,6.4-2.1C380.3,143.9,379.9,142.5,379,142.7L379,142.7z"/>
		</g>
	</g>
	<g>
		<g>
			<path d="M376.9,139.9c-5.3,1.6-10.2,4.1-14,8.1c-0.7,0.7,0.4,1.8,1.1,1.1c3.7-3.8,8.3-6.2,13.3-7.7
				C378.2,141.1,377.8,139.6,376.9,139.9L376.9,139.9z"/>
		</g>
	</g>
	<g>
		<g>
			<path d="M349.8,129.9c0.3,1.9,1,3.7,2.1,5.2c0.6,0.7,1.2,1.5,1.9,2c0.9,0.7,1.9,0.2,2.7-0.5c1.5-1.3,2.7-2.9,3.6-4.6
				c0.4-0.8,1.1-1.9,0.5-2.8c-0.5-0.8-1.5-0.9-2.3-1c-2.6-0.3-5.2-0.3-7.7-0.1c-1,0.1-1,1.6,0,1.5c1.9-0.1,3.7-0.1,5.6,0
				c0.9,0,1.8,0.1,2.6,0.2c0.1,0,0.4,0,0.5,0.2c0.1,0.2-0.3,0.8-0.4,1c-0.7,1.4-1.6,2.7-2.8,3.9c-0.3,0.3-0.5,0.5-0.8,0.8
				c-0.3,0.2-0.5,0.4-0.8,0.2c-0.6-0.4-1.1-1.1-1.5-1.6c-1-1.4-1.6-3-1.9-4.7c-0.1-0.4-0.6-0.6-0.9-0.5
				C349.8,129.1,349.7,129.5,349.8,129.9L349.8,129.9z"/>
		</g>
	</g>
	<g>
		<g>
			<path d="M348.7,123.4c0.2,0.5,0.8,0.8,1.4,0.8c0.7,0,1.5-0.5,1.4-1.3c-0.1-0.6-0.6-1-1.1-1.2c-0.5-0.2-1.1-0.1-1.5,0.2
				c-0.1,0.1-0.2,0.2-0.3,0.4c-0.1,0.2-0.1,0.3,0,0.5c0.1,0.9,0.9,1.5,1.7,1.8c0.8,0.3,1.8,0.1,2.4-0.5c0.2-0.2,0.3-0.5,0.2-0.7
				c-0.3-0.9-1.1-1.7-2.1-1.8c-0.5-0.1-1,0-1.5,0.3c-0.5,0.3-0.8,0.9-0.8,1.5c0.1,1.2,1.3,2.3,2.6,1.9c1.2-0.4,1.7-1.8,1.2-2.9
				c-0.5-1.2-2.2-1.6-3.3-0.9c-0.3,0.2-0.5,0.7-0.3,1c0.2,0.3,0.7,0.5,1,0.3c0,0,0.1,0,0.1-0.1c0.1-0.1-0.1,0,0,0
				c0.1,0,0.2,0,0.3-0.1c0.1,0-0.2,0-0.1,0c0,0,0,0,0.1,0c0,0,0.1,0,0.1,0s0.1,0,0.1,0c0,0,0.1,0,0.1,0c0,0-0.2,0-0.1,0
				c0.1,0,0.2,0,0.2,0.1c0,0,0.1,0,0.1,0c0,0-0.2-0.1-0.1,0c0,0,0.1,0,0.1,0.1c0,0,0.1,0,0.1,0.1c0,0,0,0,0.1,0c0,0-0.1-0.1-0.1-0.1
				c0.1,0.1,0.1,0.1,0.2,0.2c-0.1-0.1-0.1-0.1,0,0c0,0,0,0.1,0.1,0.1c0.1,0.1-0.1-0.2,0,0c0,0,0,0.1,0,0.1c0,0.2,0-0.2,0,0
				c0,0,0,0.1,0,0.1c0,0,0,0.1,0,0.1c0,0.1,0-0.1,0-0.1c0,0,0,0.1,0,0.1c0,0.1-0.1,0.2-0.1,0.2c0.1-0.2,0-0.1,0,0
				c0,0-0.1,0.1-0.1,0.1c0,0,0,0,0,0c0,0.1,0.1-0.1,0.1-0.1c0,0-0.1,0.1-0.1,0.1c0,0-0.1,0.1-0.1,0.1c0,0,0,0-0.1,0
				c0,0,0.2-0.1,0.1-0.1c0,0-0.1,0-0.1,0.1c0,0,0,0,0,0c-0.1,0,0.1-0.1,0.1,0c0,0-0.1,0-0.1,0c0,0,0,0-0.1,0c-0.1,0,0.2,0,0.1,0
				c0,0-0.1,0-0.1,0c0,0-0.1,0-0.1,0c0,0,0.2,0,0.1,0c0,0-0.1,0-0.1,0c0,0-0.1,0-0.1,0c0,0,0.2,0.1,0.1,0c0,0-0.1,0-0.1-0.1
				c0,0,0,0,0,0c-0.1,0,0.1,0.1,0.1,0.1c0,0-0.2-0.2-0.2-0.2c0,0,0.1,0.1,0.1,0.1c0,0,0,0,0-0.1c0,0,0-0.1-0.1-0.1c0,0,0,0,0,0
				c0-0.1,0.1,0.1,0,0.1c0,0,0-0.1,0-0.2c0,0,0-0.1,0-0.1c0,0,0,0.2,0,0.1c0,0,0,0,0-0.1c0,0,0-0.1,0-0.1c0,0,0,0.2,0,0.1
				c0,0,0-0.1,0-0.1c0,0,0,0,0,0c0-0.1-0.1,0.2,0,0.1c0,0,0-0.1,0.1-0.1c0,0,0,0,0,0c0-0.1-0.1,0.1-0.1,0.1c0,0,0.1-0.1,0.1-0.1
				c0,0,0,0,0,0c0.1-0.1-0.1,0.1-0.1,0.1c0,0,0.1,0,0.1-0.1c0,0,0.1,0,0.1,0c0,0-0.2,0.1-0.1,0c0,0,0,0,0.1,0c0,0,0.1,0,0.1,0
				c0.1,0-0.2,0-0.1,0c0.1,0,0.1,0,0.2,0c0,0,0,0,0,0c0.1,0-0.2,0-0.1,0c0,0,0.1,0,0.1,0c0.1,0,0.2,0,0.2,0.1c0.1,0-0.2-0.1,0,0
				c0,0,0.1,0,0.1,0.1c0.1,0,0.1,0.1,0.2,0.1c0,0,0.1,0.1-0.1-0.1c0,0,0,0,0.1,0c0,0,0.1,0.1,0.1,0.1c0,0,0.1,0.1,0.1,0.1
				c0,0,0,0,0,0c0.1,0.1-0.1-0.1-0.1-0.1c0,0,0.1,0.2,0.1,0.2c0,0,0,0,0,0c0.1,0.1-0.1-0.2,0-0.1c0,0,0,0.1,0,0.1
				c0.1-0.2,0.1-0.5,0.2-0.7c0,0-0.1,0.1-0.1,0.1c0,0,0.2-0.1,0.1,0c-0.1,0-0.1,0.1-0.2,0.1c-0.1,0.1,0.2-0.1,0.1,0c0,0-0.1,0-0.1,0
				c-0.1,0-0.1,0-0.2,0c0.3-0.1,0.1,0,0,0c-0.1,0-0.1,0-0.2,0c-0.2,0,0.1,0,0.1,0c0,0-0.1,0-0.1,0c-0.1,0-0.1,0-0.2-0.1
				c0,0-0.1,0-0.1,0c-0.1,0,0.2,0.1,0.1,0c-0.1,0-0.1-0.1-0.2-0.1c-0.1,0-0.1-0.1-0.2-0.1c0.2,0.2,0,0,0,0c0,0,0,0-0.1-0.1
				c-0.1-0.1,0.1,0.1,0,0c0-0.1-0.1-0.1-0.1-0.2c0,0-0.1-0.2,0,0c0.1,0.1,0,0,0,0c0-0.1,0-0.1-0.1-0.2c-0.1,0.3-0.2,0.6-0.3,0.8
				c0,0,0.1,0,0.1-0.1c0.1-0.1-0.1,0-0.1,0c0,0,0.1,0,0.1,0c0.2,0-0.1,0-0.1,0c0,0,0.2,0,0.2,0c-0.2,0-0.1,0-0.1,0c0,0,0.1,0,0.1,0
				c0.1,0-0.1-0.1-0.1,0c0,0,0.1,0,0.1,0c0,0,0.1,0.1,0,0c-0.1-0.1,0,0,0,0c0,0,0.1,0.1,0,0c-0.1-0.1,0,0,0,0c0,0,0.1,0.1,0,0
				c-0.1-0.1,0,0,0,0c0-0.2,0.1-0.4,0.1-0.6c-0.1,0.1,0.1-0.1,0,0c0,0,0,0-0.1,0.1c-0.1,0.1,0.2-0.1,0.1-0.1c-0.1,0-0.1,0,0.1,0
				c0,0-0.1,0-0.1,0c0,0-0.1,0,0,0c0.2,0,0,0-0.1,0c-0.1,0,0.2,0,0.1,0c0,0-0.1,0-0.1,0c-0.1,0-0.1-0.1,0.1,0c0,0-0.1,0-0.1,0
				c0,0-0.1-0.1,0,0c0.1,0.1,0,0,0,0c0,0,0,0,0,0c0,0.1,0.1,0.1,0,0c0,0,0-0.1,0-0.1c-0.2-0.4-0.7-0.5-1-0.3
				C348.6,122.6,348.5,123,348.7,123.4L348.7,123.4z"/>
		</g>
	</g>
	<g>
		<g>
			<path d="M357,122.1c-0.1,0.3-0.2,0.6-0.1,0.9c0.1,0.2,0.2,0.4,0.4,0.6c0.4,0.3,0.9,0.5,1.4,0.4c0.6-0.1,1-0.7,1-1.3
				c0-0.6-0.3-1.1-0.8-1.4c-0.8-0.5-1.9-0.2-2.3,0.6c-0.3,0.7-0.3,1.6,0.3,2.3c0.3,0.3,0.7,0.5,1.1,0.5c0.4,0,0.9-0.1,1.2-0.4
				c0.6-0.5,0.8-1.4,0.6-2.1c-0.1-0.4-0.4-0.8-0.8-1c-0.4-0.2-0.9-0.3-1.4-0.1c-0.5,0.2-0.8,0.5-1.1,0.9c-0.2,0.3-0.4,0.8-0.4,1.2
				c0,0.3,0.1,0.5,0.2,0.8c0.1,0.2,0.3,0.4,0.5,0.6c0.3,0.2,0.8,0.3,1.1,0.3c0.9-0.1,1.7-0.6,2-1.4c0.1-0.2,0.1-0.4,0.1-0.6
				c0-0.2-0.1-0.4-0.2-0.5c-0.1-0.1-0.3-0.2-0.5-0.2c-0.4,0-0.8,0.3-0.8,0.8c0,0.1,0,0.2,0,0.2c0-0.1,0-0.1,0-0.2
				c0,0.1,0,0.2-0.1,0.2c0-0.1,0.1-0.1,0.1-0.2c0,0.1-0.1,0.2-0.1,0.3c0-0.1,0.1-0.1,0.1-0.2c-0.1,0.1-0.2,0.2-0.2,0.2
				c0.1,0,0.1-0.1,0.2-0.1c-0.1,0.1-0.2,0.2-0.4,0.2c0.1,0,0.1-0.1,0.2-0.1c-0.1,0.1-0.3,0.1-0.4,0.1c0.1,0,0.1,0,0.2,0
				c-0.1,0-0.2,0-0.4,0c0.1,0,0.1,0,0.2,0c-0.1,0-0.2,0-0.3-0.1c0.1,0,0.1,0.1,0.2,0.1c-0.1,0-0.1-0.1-0.2-0.1
				c0.1,0,0.1,0.1,0.2,0.1c-0.1,0-0.1-0.1-0.2-0.2c0,0.1,0.1,0.1,0.1,0.2c-0.1-0.1-0.1-0.1-0.1-0.2c0,0.1,0.1,0.1,0.1,0.2
				c0-0.1-0.1-0.1-0.1-0.2c0,0.1,0,0.1,0,0.2c0-0.1,0-0.2,0-0.3c0,0.1,0,0.1,0,0.2c0-0.1,0-0.2,0.1-0.4c0,0.1-0.1,0.1-0.1,0.2
				c0.1-0.1,0.1-0.2,0.2-0.3c0,0.1-0.1,0.1-0.1,0.2c0.1-0.1,0.2-0.2,0.3-0.3c-0.1,0-0.1,0.1-0.2,0.1c0.1-0.1,0.2-0.1,0.3-0.2
				c-0.1,0-0.1,0.1-0.2,0.1c0.1,0,0.2-0.1,0.2-0.1c-0.1,0-0.1,0-0.2,0c0.1,0,0.2,0,0.3,0c-0.1,0-0.1,0-0.2,0c0.1,0,0.1,0,0.2,0.1
				c-0.1,0-0.1-0.1-0.2-0.1c0.1,0,0.1,0.1,0.2,0.1c-0.1,0-0.1-0.1-0.2-0.1c0.1,0,0.1,0.1,0.1,0.1c0-0.1-0.1-0.1-0.1-0.2
				c0,0.1,0.1,0.1,0.1,0.2c0-0.1-0.1-0.1-0.1-0.2c0,0.1,0.1,0.2,0.1,0.3c0-0.1,0-0.1,0-0.2c0,0.1,0,0.2,0,0.4c0-0.1,0-0.1,0-0.2
				c0,0.1-0.1,0.3-0.1,0.4c0-0.1,0.1-0.1,0.1-0.2c0,0.1-0.1,0.2-0.2,0.3c0-0.1,0.1-0.1,0.1-0.2c-0.1,0.1-0.1,0.1-0.2,0.2
				c0.1,0,0.1-0.1,0.2-0.1c-0.1,0-0.1,0.1-0.2,0.1c0.1,0,0.1-0.1,0.2-0.1c-0.1,0-0.1,0-0.2,0.1c0.1,0,0.1,0,0.2,0
				c-0.1,0-0.2,0-0.2,0c0.1,0,0.1,0,0.2,0c-0.1,0-0.1,0-0.2-0.1c0.1,0,0.1,0.1,0.2,0.1c-0.1,0-0.1-0.1-0.2-0.1
				c0.1,0,0.1,0.1,0.2,0.1c-0.1,0-0.1-0.1-0.2-0.2c0,0.1,0.1,0.1,0.1,0.2c-0.1-0.1-0.1-0.2-0.1-0.3c0,0.1,0.1,0.1,0.1,0.2
				c0-0.1-0.1-0.2-0.1-0.4c0,0.1,0,0.1,0,0.2c0-0.1,0-0.3,0-0.4c0,0.1,0,0.1,0,0.2c0-0.1,0-0.2,0.1-0.3c0,0.1-0.1,0.1-0.1,0.2
				c0-0.1,0.1-0.2,0.1-0.2c0,0.1-0.1,0.1-0.1,0.2c0-0.1,0.1-0.1,0.1-0.1c-0.1,0-0.1,0.1-0.2,0.1c0.1,0,0.1-0.1,0.2-0.1
				c-0.1,0-0.1,0.1-0.2,0.1c0.1,0,0.1,0,0.2-0.1c-0.1,0-0.1,0-0.2,0c0.1,0,0.1,0,0.2,0c-0.1,0-0.1,0-0.2,0c0.1,0,0.1,0,0.2,0.1
				c-0.1,0-0.1-0.1-0.2-0.1c0.1,0,0.2,0.1,0.2,0.1c-0.1,0-0.1-0.1-0.2-0.1c0.1,0.1,0.1,0.1,0.2,0.2c0-0.1-0.1-0.1-0.1-0.2
				c0,0.1,0.1,0.1,0.1,0.2c0-0.1-0.1-0.1-0.1-0.2c0,0.1,0,0.1,0.1,0.2c0-0.1,0-0.1,0-0.2c0,0.1,0,0.1,0,0.2c0-0.1,0-0.1,0-0.2
				c0,0.1,0,0.1,0,0.2c0-0.1,0.1-0.1,0.1-0.2c0,0,0,0.1-0.1,0.1c0-0.1,0.1-0.1,0.1-0.2c0,0-0.1,0.1-0.1,0.1c0.1,0,0.1-0.1,0.2-0.1
				c0,0-0.1,0-0.1,0.1c0.1,0,0.1-0.1,0.2-0.1c0,0-0.1,0-0.1,0c0.1,0,0.1,0,0.2,0c-0.1,0-0.1,0-0.2,0c0.1,0,0.1,0,0.2,0
				c-0.1,0-0.1,0-0.2-0.1c0.1,0,0.1,0.1,0.2,0.1c-0.1,0-0.1-0.1-0.2-0.1c0.1,0,0.1,0.1,0.2,0.1c0,0-0.1-0.1-0.1-0.1
				c0,0.1,0.1,0.1,0.1,0.2c0,0-0.1-0.1-0.1-0.1c0,0.1,0.1,0.1,0.1,0.2c0,0,0-0.1,0-0.1c0,0.1,0,0.1,0,0.2c0,0,0-0.1,0-0.1
				c0,0.1,0,0.1,0,0.2c0,0,0-0.1,0-0.1c0,0.1-0.1,0.1-0.1,0.2c0,0,0,0,0,0c0.1-0.2,0.1-0.4,0.1-0.6c0-0.2-0.2-0.4-0.3-0.4
				C357.7,121.7,357.2,121.7,357,122.1L357,122.1z"/>
		</g>
	</g>
	<g>
		<g>
			<path d="M336.1,188.2c-2,0.1-2.9,2.1-3.4,3.8c-0.6,2.3-0.9,4.9-0.5,7.3c0.3,2.4,2.3,3.7,4.6,3.2c2.4-0.5,3.7-2.7,4.1-5
				c0.5-3.3-0.9-6.6,0-9.8c0.3-0.9-1.2-1.3-1.4-0.4c-0.7,2.4-0.2,4.8,0,7.2c0.1,1.9,0.1,4.5-1.6,5.8c-1.2,1-3.4,1.2-4.1-0.6
				c-0.3-0.9-0.2-2.1-0.2-3.1c0-1,0.1-2,0.3-3c0.2-1.2,0.7-3.9,2.3-4C337.1,189.6,337.1,188.1,336.1,188.2L336.1,188.2z"/>
		</g>
	</g>
	<g>
		<g>
			<path d="M361.7,187.1c1,3,2.3,5.8,4.1,8.4c1.4,2,3.5,4,5.8,1.9c1.8-1.7,1.8-4.5,0.8-6.6c-1.2-2.6-3.9-4.1-6.4-5.2
				c-0.1,0.5-0.3,0.9-0.4,1.4c4.9,0,9.8,0,14.6,0c7.7,0,15.5,0,23.2,0c1.8,0,3.6,0,5.4,0c1,0,1-1.5,0-1.5c-4.9,0-9.8,0-14.6,0
				c-7.7,0-15.5,0-23.2,0c-1.8,0-3.6,0-5.4,0c-0.7,0-1.1,1.1-0.4,1.4c1.9,0.8,4,1.8,5.3,3.6c1.1,1.5,1.6,3.9,0.4,5.5
				c-2,2.5-4.1-1.5-5-3.1c-1.2-2-2.1-4-2.8-6.2C362.9,185.8,361.4,186.2,361.7,187.1L361.7,187.1z"/>
		</g>
	</g>
	<g>
		<g>
			<path d="M277.8,89c-2.5-0.3-4.9-0.6-7.4-0.6c-2.3,0.1-4.5,0.5-6.8,0.9c-2,0.3-4.1,0.5-6,1.2c-1.5,0.5-2.7,1.3-3.3,2.7
				c-0.4,0.9,1.1,1.3,1.4,0.4c0.6-1.4,2.4-1.8,3.7-2.1c1.9-0.4,3.9-0.7,5.8-1c2.1-0.4,4.1-0.6,6.2-0.6c2.1,0,4.2,0.3,6.3,0.6
				C278.8,90.7,278.8,89.2,277.8,89L277.8,89z"/>
		</g>
	</g>
</g>
<g id="Layer_3">
	<path class="st1" d="M-588.2-58.8c0,0-20.6-7.3-74.7,17.3c0,0,4.6,62.9,16.2,68.4c0,0,17.1,12,29.4,1c9.2-8.3,0-16.3,0-16.3
		s15.8,0,20.8-11.6c3-7,1.8-12.3-3.2-19.6C-599.8-19.6-570.4-30.8-588.2-58.8z"/>
	<path class="st2" d="M-588.2-58.8l140.6,59.1c0,0,29.7,8.6,19.9,37.8c-9.8,29.2-7.3,46.5-43.5,61.7s-175.6-73-175.6-73"/>
	<line class="st2" x1="-599.8" y1="-19.6" x2="-427.7" y2="38.1"/>
	<line class="st2" x1="-617.4" y1="11.6" x2="-445.1" y2="80.9"/>
	<g>
		<g>
			<path d="M-632.3-27.8c1.2,4.2,4.6,7.6,8.9,8.7c4.3,1.1,9.1-0.3,12.2-3.5c1.3-1.4-0.8-3.5-2.1-2.1c-2.3,2.5-5.9,3.6-9.2,2.8
				c-3.2-0.8-5.8-3.4-6.8-6.6C-629.9-30.5-632.8-29.7-632.3-27.8L-632.3-27.8z"/>
		</g>
	</g>
	<g>
		<path d="M-657.7-8.1c7.1-12.1,10.6-19.4,17.6-31.5c2.2-3.8,4.6-8.3,8.8-13.9l-31.7,11.9L-657.7-8.1z"/>
	</g>
	<g>
		<g>
			<path d="M-473.5,101.6c9.9,6,20.7,10.4,31.4,14.6c1.8,0.7,2.6-2.2,0.8-2.9c-10.5-4.1-21-8.4-30.7-14.3
				C-473.6,98-475.1,100.6-473.5,101.6L-473.5,101.6z"/>
		</g>
	</g>
	<g>
		<g>
			<path d="M-424.4,111c-5.1-0.4-10.8-1.8-15.5,1c-4.6,2.7-3.7,8.6-1.4,12.6c1.3,2.3,3.2,4.2,5.5,5.5c1.7,1,3.2-1.6,1.5-2.6
				c-2-1.2-3.6-2.9-4.7-5c-1-1.9-2-4.9-0.7-6.8c1.2-1.7,3.9-2.2,5.9-2.3c3.2-0.2,6.3,0.4,9.4,0.7
				C-422.4,114.1-422.4,111.1-424.4,111L-424.4,111z"/>
		</g>
	</g>
	<g>
		<g>
			<path d="M-440.5,116.4c3.4,1.8,6.7,3.6,10.1,5.5c0.7,0.4,1.6,0.2,2.1-0.5c0.4-0.7,0.2-1.7-0.5-2.1c-3.4-1.8-6.7-3.6-10.1-5.5
				c-0.7-0.4-1.6-0.2-2.1,0.5C-441.4,115-441.2,116-440.5,116.4L-440.5,116.4z"/>
		</g>
	</g>
	<g>
		<g>
			<path d="M-438.4,73.6c2.6,1.5,5.2,3.1,7.8,4.7c0.7,0.4,1.7,0.2,2.1-0.5c0.4-0.7,0.2-1.6-0.5-2.1c-2.6-1.5-5.2-3.1-7.8-4.7
				c-0.7-0.4-1.7-0.2-2.1,0.5C-439.3,72.2-439.1,73.2-438.4,73.6L-438.4,73.6z"/>
		</g>
	</g>
	<g>
		<g>
			<path d="M-412.9,73.3c-3.6-3.8-9.9-4.9-14.5-2.1c-4.3,2.7-6.5,8.6-4.5,13.4c1.3,3.1,3.8,5.3,6.5,7.3c0.7,0.5,1.7,0.1,2.1-0.5
				c0.4-0.8,0.1-1.6-0.5-2.1c-2.2-1.6-4.6-3.7-5.4-6.5c-0.7-2.4-0.1-4.9,1.3-6.9c3-4.4,9.6-4.2,13.1-0.5
				C-413.7,76.8-411.6,74.7-412.9,73.3L-412.9,73.3z"/>
		</g>
	</g>
	<g>
		<g>
			<path d="M-430.6,78.2c4.3,2.2,8.7,4.4,13,6.6c0.7,0.4,1.6,0.2,2.1-0.5c0.4-0.7,0.2-1.7-0.5-2.1c-4.3-2.2-8.7-4.4-13-6.6
				c-0.7-0.4-1.6-0.2-2.1,0.5C-431.5,76.8-431.3,77.9-430.6,78.2L-430.6,78.2z"/>
		</g>
	</g>
	<g>
		<g>
			<path d="M-560.8-47c7.6-12.6,15.8-24.9,25-36.3c9.1-11.2,19.2-21.7,31.6-29.3c11.9-7.3,25.8-12,39.9-11.3
				c3.3,0.1,7.3,0.3,10.3,1.8c2.9,1.4,3.8,4.6,3,7.6c-0.8,3.3-3.4,5.7-6,7.7c-3.1,2.3-6.4,4.5-9.6,6.7
				c-13.5,9.1-27.3,17.9-41.3,26.1c-1.8,1.1-3.6,2.1-5.4,3.1c-1.7,1-0.2,3.6,1.5,2.6c15-8.6,29.6-17.7,43.9-27.4
				c3.5-2.3,7-4.7,10.4-7.1c3-2.1,5.9-4.3,7.9-7.4c1.7-2.7,2.5-6.2,1.5-9.4c-1-3.4-4-5.4-7.3-6.2c-7-1.7-14.8-1.4-21.9-0.3
				c-7.3,1.2-14.3,3.6-20.9,6.8c-13.7,6.6-25,16.8-35,28.2c-10.2,11.7-19.1,24.6-27.3,37.9c-1,1.6-2,3.2-2.9,4.8
				C-564.4-46.9-561.8-45.4-560.8-47L-560.8-47z"/>
		</g>
	</g>
	<g>
		<g>
			<path d="M-460.1-100.6c3.4-1.6,7-3.3,10.9-3.3c2.8,0,6,1.1,7.6,3.6c1.8,2.9,0.7,6.6-1.2,9.2c-2.2,3-5.4,5.1-8.3,7.4
				c-6.3,4.9-12.5,10.2-19.3,14.6c-5,3.2-10.7,5.7-16.4,7.7c-6.7,2.4-13.6,3.6-20.6,4.3c-1.9,0.2-1.9,3.2,0,3
				c7-0.7,13.9-1.8,20.6-4.1c6.2-2.2,12.6-4.8,18.2-8.4c3.6-2.3,6.9-5,10.3-7.6c3.7-2.8,7.3-5.7,11-8.5c3.1-2.4,6.3-4.8,8.1-8.3
				c1.7-3.2,2.3-7.3,0.3-10.5c-1.9-3.2-5.6-4.9-9.2-5.2c-4.7-0.4-9.3,1.7-13.4,3.7C-463.4-102.4-461.9-99.8-460.1-100.6
				L-460.1-100.6z"/>
		</g>
	</g>
	<g>
		<g>
			<path d="M-452.3-78.5c5.7-0.3,13.6,0.1,16.1,6.4c1.1,2.9,0.1,6.2-1.2,8.8c-1.3,2.6-3.1,4.9-5.2,6.8c-4.7,4.3-10.8,6.7-16.9,8.3
				c-6.9,1.8-14,2.8-21.1,3.4c-8,0.7-16.1,0.6-24.2-0.1c-1.9-0.2-1.9,2.8,0,3c8,0.7,16.1,0.7,24.2,0.1c7.6-0.6,15.4-1.7,22.8-3.7
				c6.6-1.8,13.1-4.6,18-9.5c4.3-4.2,8.6-11.3,6.6-17.6c-2.6-8-11.9-9.3-19.1-9C-454.2-81.4-454.2-78.4-452.3-78.5L-452.3-78.5z"/>
		</g>
	</g>
	<g>
		<g>
			<path d="M-447.3-49.9c5,1.5,12.1,5.7,10.1,12c-0.9,2.9-3.7,4.8-6.2,6.2c-3.7,1.9-7.6,3.3-11.6,4.4c-8,2.3-16.2,2.6-24.7,2.6
				c-9.2-0.1-18.5-0.7-27.7-1.6c-1.9-0.2-1.9,2.8,0,3c14.1,1.3,28.6,2.5,42.8,0.9c4.1-0.5,8-1.3,11.9-2.5c4-1.2,8.1-2.7,11.7-4.8
				c2.9-1.7,5.6-4.2,6.7-7.4c2.6-8-5.6-13.7-12.1-15.7C-448.4-53.4-449.2-50.5-447.3-49.9L-447.3-49.9z"/>
		</g>
	</g>
</g>
</svg>
