<svg xmlns="http://www.w3.org/2000/svg" viewBox="0 0 203.84 201.07"><defs><style>.cls-1,.cls-3{fill:#fff;}.cls-2,.cls-4{fill:none;}.cls-2,.cls-3,.cls-4{stroke:#000;stroke-miterlimit:10;}.cls-2{stroke-linecap:round;}</style></defs><g id="Layer_10" data-name="Layer 10"><path d="M92.94,109.08c-3.36-1.24-6.88.76-8.46,3.76a11.11,11.11,0,0,0-1.31,5.42,4.42,4.42,0,0,0,2.94,4,19.4,19.4,0,0,0,6,1.5,13.25,13.25,0,0,0,6-.67c3.4-1.36,3.89-5.47,2.81-8.57a7,7,0,0,0-4.19-4A12.44,12.44,0,0,0,90,109.12c-.59.08-.53.48,0,.4,1.92-.27,3.86.52,5.59,1.26a7.67,7.67,0,0,1,3.58,2.6c1.51,2.28,1.72,6.31-.23,8.41-1.24,1.34-3.26,1.59-5,1.61a17.47,17.47,0,0,1-5.46-.87c-1.55-.49-3.35-1.12-4-2.73a7.15,7.15,0,0,1,0-4.57c.84-3.23,3.73-7.24,7.58-5.82a1,1,0,0,0,.69,0c.09,0,.36-.21.14-.3Z"/><path d="M88.72,118.14a1.4,1.4,0,0,0-1.15.08.65.65,0,0,0-.32.5.69.69,0,0,0,.31.54,1.48,1.48,0,0,0,1.09.17,1,1,0,0,0,.65-.38.72.72,0,0,0,.13-.58.49.49,0,0,0-.38-.31,1.84,1.84,0,0,0-.62,0,2.75,2.75,0,0,0-.69.15c-.36.12-.74.41-.59.83a.75.75,0,0,0,.48.42,1.66,1.66,0,0,0,1.14,0,1.39,1.39,0,0,0,.59-.43,1,1,0,0,0,.28-.61c0-.27-.24-.43-.45-.55a2.08,2.08,0,0,0-1-.23,1.53,1.53,0,0,0-.93.26.84.84,0,0,0-.33.56.61.61,0,0,0,.24.53,1.27,1.27,0,0,0,.93.23,1,1,0,0,0,.48-.14.12.12,0,0,0,.05-.15.41.41,0,0,0-.23-.13.94.94,0,0,0-.68.07h.4l0,0s.07,0,0,0l-.06,0s0,0,0,0l0,0a.4.4,0,0,1-.08-.16v0a.5.5,0,0,1,0-.32l0,0a.56.56,0,0,1,.09-.17l.07-.09h0l0,0s.08,0,.09-.06h0l0,0h0s.11,0,0,0,0,0,0,0h0s-.11,0,0,0h0s-.07,0,0,0l.06,0,.1,0h0l0,0,0,0,.09.07s0,0,0,0l0,0a.37.37,0,0,1,0,.11l0,0a.48.48,0,0,1,0,.29v0a1,1,0,0,1-.25.39l0,0,0,0,0,0,0,0-.1.07,0,0s.07,0,0,0l0,0s.1,0,0,0h0c-.07,0,.12,0,.06,0h.07s.12,0,.05,0,0,0,0,0l0,0h0l0,0,0,0s0,0,0,0a.54.54,0,0,1-.1-.16v0a.46.46,0,0,1,0-.26l0,0a.34.34,0,0,1,.06-.12.12.12,0,0,1,0,0s0,0,0,0l0,0,.13-.08s-.07,0,0,0l0,0,.09,0c.08,0-.09,0,0,0l.08,0,.08,0h.1s-.12,0,0,0h0a.25.25,0,0,1-.12,0l-.09,0,0,0h0l0,.05,0-.05a.53.53,0,0,1,0,.33l0-.05a.75.75,0,0,1-.18.28s0,0,0,0-.07,0-.08,0h0s0,0,0,0h.22l0,0s-.08-.07,0,0l0,0a.36.36,0,0,1-.08-.15v0a.5.5,0,0,1,0-.27l0,0a.83.83,0,0,1,.07-.13l.05,0s0,0,0,0l0,0,0,0h0s0,0,0,0-.12,0,0,0a.7.7,0,0,1-.32,0,1.08,1.08,0,0,0,.71,0s.14-.07.14-.14-.09-.13-.14-.15Z"/><path d="M95.16,117.43a.59.59,0,0,0-.31.31.68.68,0,0,0,0,.4c.11.47.68.69,1.11.73a.94.94,0,0,0,.93-.44.63.63,0,0,0,.08-.23.5.5,0,0,0-.12-.33,1.76,1.76,0,0,0-.69-.42,1.48,1.48,0,0,0-1.25.09.85.85,0,0,0-.34.8,1.1,1.1,0,0,0,.7.86,1.52,1.52,0,0,0,1.33,0,.79.79,0,0,0,.35-.35.88.88,0,0,0,.06-.48,1.25,1.25,0,0,0-.93-.91,1.08,1.08,0,0,0-.36,0s-.17,0-.18.09,0,.14.1.18a.88.88,0,0,0,.32.16c.1,0-.12-.05-.05,0s-.12-.07,0,0,.05,0,0,0l.06,0s-.07-.06,0,0,0,0,0,0L96,118l0-.06a1,1,0,0,1,.1.37v0a.63.63,0,0,1-.12.41l0,0a.7.7,0,0,1-.28.23l.07,0-.13.05h-.06c-.07,0,.08,0,0,0h-.1c.16,0,.08,0,0,0l.08,0,0,0c.16,0,.1,0,.06,0l.06,0,0,0c.12.06.06,0,0,0s0,0,0,0l0,0a.75.75,0,0,1-.07-.12l0,.06a.76.76,0,0,1-.1-.39v.06a.79.79,0,0,1,.14-.47l0,0a.68.68,0,0,1,.26-.22l-.06,0,.11,0H96c.08,0-.07,0,0,0h.09c.1,0-.08,0,0,0l.06,0-.09,0h0c.07,0-.15-.06-.05,0s-.11-.07,0,0l0,0c-.12-.07,0,0,0,0l0,0,0,0,0,.07,0-.06a.27.27,0,0,1,0,.12v-.05a.48.48,0,0,1-.11.3l0,0a.77.77,0,0,1-.28.23l.06,0-.09,0,0,0s-.06,0,0,0h0c-.07,0,0,0,0,0h.07c.1,0,0,0,0,0l.1,0h0c.08,0,0,0,0,0s.08.05,0,0,0,.05,0,0l0,0,0-.08,0,.07a.68.68,0,0,1-.07-.27v.05a.62.62,0,0,1,.09-.32l0,0a.37.37,0,0,1,.15-.13l-.06,0h0c.06,0,.11,0,.1-.13a.41.41,0,0,0-.19-.18,1.42,1.42,0,0,0-.36-.14.65.65,0,0,0-.31,0Z"/><path class="cls-1" d="M91.1,120.06a3.14,3.14,0,0,0,.65,1.84c.06.06.13.14.21.13s.13-.06.18-.12a14.71,14.71,0,0,0,1.41-1.84L91.37,120"/><path d="M90.61,120a3.21,3.21,0,0,0,.28,1.26,3.86,3.86,0,0,0,.32.56,1.09,1.09,0,0,0,.82.48.75.75,0,0,0,.49-.1,1.79,1.79,0,0,0,.23-.25c.15-.18.3-.35.44-.53.29-.37.56-.75.82-1.15s-.53-.37-.67-.38l-2.18,0c-.13,0-.38.07-.23.23a.93.93,0,0,0,.65.22l2.18.05-.67-.38q-.34.53-.72,1-.2.25-.39.48l-.21.25-.09.1a.12.12,0,0,1-.05,0s0,0,0,0h.19l.26.06c.2.06.17.11.1,0l-.08-.1-.12-.18a4,4,0,0,1-.22-.47,2.93,2.93,0,0,1-.19-1c0-.32-1-.45-1-.22Z"/><path d="M72.33,115.22a2.44,2.44,0,0,1,.29-.27l.09-.07h0l0,0,.18-.1.19-.08s.06,0,.09,0-.06,0,0,0l.06,0,.19-.05h.13l-.64-.38-1.05.38a.11.11,0,0,0-.07.15c0,.07.14.12.21.15a1,1,0,0,0,.68,0l1.06-.38a.12.12,0,0,0,.08-.12c0-.06-.07-.1-.12-.13a1,1,0,0,0-.6-.12,2.65,2.65,0,0,0-1.73.83.12.12,0,0,0,0,.16.62.62,0,0,0,.28.14,1.29,1.29,0,0,0,.39,0,.36.36,0,0,0,.24-.09Z"/><path d="M77.1,114.27l1.74.52a1,1,0,0,0,.39,0,.53.53,0,0,0,.3-.07c.19-.11,0-.24-.16-.28l-1.07-.4a1,1,0,0,0-.38,0,.55.55,0,0,0-.31.07c-.19.11,0,.24.16.28l1.07.4.53-.3L77.63,114a1.31,1.31,0,0,0-.39,0,.63.63,0,0,0-.3.07c-.19.11,0,.25.16.29Z"/><path d="M76.91,120.9l.43.42.2.21a.65.65,0,0,1,.16.21l0-.06a.25.25,0,0,1,0,.12v-.06a.16.16,0,0,1,0,.07l0,0,0,0,0,0,0,0-.13,0-.28.08-.56.18s-.15.07-.15.14.09.12.15.14a1.05,1.05,0,0,0,.7,0l.67-.21c.2-.06.55-.11.61-.36s-.2-.38-.32-.51l-.49-.49a.91.91,0,0,0-.92-.06s-.1.1,0,.16Z"/><path d="M73.2,120.82a2.88,2.88,0,0,0-.43.66,2.13,2.13,0,0,0-.14.35.62.62,0,0,0,0,.4c.09.22.4.31.6.35a2.94,2.94,0,0,0,.51,0l.91,0a.56.56,0,0,0,.31,0s.11-.07.08-.14a.45.45,0,0,0-.2-.16,1.26,1.26,0,0,0-.38-.1l-.75,0h-.4a.83.83,0,0,1,.27.12s0,0,0,0,0,0,0,0v0a1.36,1.36,0,0,1,.11-.43,2.22,2.22,0,0,1,.2-.41l0,0a2.34,2.34,0,0,1,.29-.41c.13-.15-.19-.28-.29-.31a1,1,0,0,0-.38-.06c-.08,0-.2,0-.25.07Z"/><path d="M74.55,116.5a2.11,2.11,0,0,1,.55-.3,1.87,1.87,0,0,1,.28-.08h.08s0,0,0,0l.19,0c.07,0-.07,0,0,0h.16l.08,0s.1,0,0,0,0,0,0,0l.08,0h0l.08,0,.08,0c.06,0,0,0,0,0a1.89,1.89,0,0,1,.3.19,1,1,0,0,0,.7.1c.06,0,.15,0,.16-.12s-.07-.12-.12-.16a3.22,3.22,0,0,0-1.93-.55,2.82,2.82,0,0,0-1.72.57c-.16.12.25.28.31.29a.77.77,0,0,0,.63,0Z"/><path class="cls-1" d="M74.37,116.27a29.07,29.07,0,0,0,1.15,3.41,4.93,4.93,0,0,0,1.81-3.44"/><path d="M73.89,116.25A29,29,0,0,0,75,119.66c.06.14.33.2.46.21a.63.63,0,0,0,.5-.07,5,5,0,0,0,1.83-3.49c0-.29-1-.42-1-.14a4.82,4.82,0,0,1-1.78,3.38l1,.15a29.65,29.65,0,0,1-1.14-3.41c-.07-.27-1-.34-1,0Z"/><path d="M52.05,113.63a8.37,8.37,0,0,1,2.62-3.1c1.54-1,3.29-.84,5-.43,2.42.59,5.36,1.44,6.59,3.82a8.09,8.09,0,0,1,.54,4.46c0,.56,0,1,.44,1.29.27.19,1.09.34,1.09.73,0,.78-1.8,0-2.12-.07-.84-.25-1.68-.51-2.51-.79-1.6-.52-3.18-1.09-4.76-1.68q-2.64-1-5.25-2.07l-2.78-1.14c-.36-.15-1-.26-.85-.77s.76-.38,1.17-.15,1.14.09.57-.22a2.67,2.67,0,0,0-2.13-.45.83.83,0,0,0-.5,1.19,2.18,2.18,0,0,0,.95.53l1.56.64,2.89,1.18A122.85,122.85,0,0,0,66.91,121a3.14,3.14,0,0,0,2,.16.58.58,0,0,0,.15-1,2.15,2.15,0,0,0-.67-.35.83.83,0,0,1-.6-1,13.84,13.84,0,0,0,0-2.73c-.41-3.49-3.64-5-6.67-5.91-1.95-.55-4.15-1.16-6.15-.47a7.51,7.51,0,0,0-3.9,3.81c-.1.2.83.51,1,.22Z"/><path d="M52.37,113a83.11,83.11,0,0,1,13.95,5,.91.91,0,0,0,.69,0c.09,0,.38-.18.16-.28a83,83,0,0,0-14.11-5.07,1,1,0,0,0-.71,0c-.12.1-.21.22,0,.28Z"/><path d="M51.56,113.92q7.59,2.73,15.11,5.64a1,1,0,0,0,.69,0c.09,0,.37-.21.14-.3q-7.61-2.94-15.28-5.7c-.24-.09-1.16.19-.66.37Z"/><path d="M62.83,114v1.09c0,.07.12.11.17.12a1.08,1.08,0,0,0,.36,0,1,1,0,0,0,.34-.11c.06,0,.12-.08.12-.16v-1.09c0-.07-.12-.11-.16-.12a.87.87,0,0,0-.36,0,.79.79,0,0,0-.34.1c-.06,0-.13.08-.13.16Z"/><path d="M64.33,114.41l0,.88c0,.08.06.13.11.17a1.16,1.16,0,0,0,.7.13s.16,0,.17-.11l0-.88c0-.08-.06-.13-.11-.17a1.06,1.06,0,0,0-.34-.12.87.87,0,0,0-.36,0s-.16,0-.17.11Z"/><path d="M57.29,111.12l-1.73.3c-.06,0-.16,0-.18.1s.06.14.1.17a1,1,0,0,0,.68.19l1.74-.3c.06,0,.16,0,.18-.1s-.06-.14-.11-.17a1,1,0,0,0-.68-.19Z"/><path d="M58.33,112.39a1.85,1.85,0,0,0-1.16.08.94.94,0,0,0-.5.44.11.11,0,0,0,.06.15.64.64,0,0,0,.31.07,1,1,0,0,0,.38,0c.07,0,.18-.06.22-.14a.91.91,0,0,1,.11-.16l0,0,.16-.13-.07.05a.34.34,0,0,1,.12-.06l-.1,0,0,0h0l-.08,0h-.06c.06,0-.15,0-.07,0h0l-.11,0h0a1.34,1.34,0,0,0,.35,0,.86.86,0,0,0,.35-.09s.15-.07.14-.15-.09-.11-.16-.13Z"/><path d="M51.52,114.92a2.55,2.55,0,0,0-.85,1.43l.71-.21c-1.1-.06-3.42.48-2.46,2.06.21.36.54.64.78,1a7.76,7.76,0,0,1,.76,1.56,4.75,4.75,0,0,0,1.48,2.08c1.55,1.17,3.74,1.44,5.59,1.85s3.95,1,5.85.18A7.15,7.15,0,0,0,67,120.52c.1-.28-.87-.27-1,0a6.65,6.65,0,0,1-3.36,4.11,5.89,5.89,0,0,1-3.45-.1c-1.1-.23-2.19-.48-3.28-.74a9.59,9.59,0,0,1-2.69-1,4.31,4.31,0,0,1-1.81-2.22,8,8,0,0,0-1.27-2.22c-.28-.33-.61-.75-.45-1.22a1.14,1.14,0,0,1,1.19-.64c.13,0,.67,0,.72-.2A2.31,2.31,0,0,1,52.4,115c.27-.24-.68-.28-.88-.1Z"/><path class="cls-1" d="M54.59,118.46a3.86,3.86,0,0,0,0,3,.47.47,0,0,0,.32.28c.19,0,.35-.15.47-.31a18.58,18.58,0,0,0,1.55-2.6,13.65,13.65,0,0,0-2-.36"/><path d="M54.09,118.42a4.14,4.14,0,0,0-.07,2.86.93.93,0,0,0,.52.53,1.17,1.17,0,0,0,1-.06,2.12,2.12,0,0,0,.47-.56l.45-.68c.33-.53.63-1.08.91-1.64.06-.13-.11-.22-.21-.25a17.54,17.54,0,0,0-2.26-.4c-.13,0-.5,0-.52.16s.39.23.48.24a12.4,12.4,0,0,1,1.77.31l-.22-.25a16,16,0,0,1-.86,1.57c-.15.25-.31.5-.48.74l-.23.33-.13.15c-.14.11-.06,0,.26,0l.22.07c-.19-.07-.29-.42-.35-.6a2.76,2.76,0,0,1-.08-.81,6.66,6.66,0,0,1,.3-1.65c.06-.24-.92-.39-1-.08Z"/><path class="cls-2" d="M39.09,112.9s-6.06,40,2,44.86,52.65,24.34,95.55-17.92l5.06-43s-3.6,24-62.78,29.31C38.58,129.82,39.09,112.9,39.09,112.9Z"/><path class="cls-2" d="M122.39,80.43c.64.1,16.92.51,19.34,16.43"/><path d="M84.61,114.61c-.52-3.11-4.6-4.37-7.25-4.8a21.21,21.21,0,0,0-5.16-.15c-1.16.08-2.79.28-3.17,1.6-.08.26.89.53,1,.25.34-1.19,1.78-1.32,2.81-1.4a19.92,19.92,0,0,1,4.5.11c2.41.35,5.87,1.46,6.34,4.25,0,.28,1,.45,1,.14Z"/><path d="M67.73,121.48c.54,1.35,2.2,1.81,3.45,2.19a20.68,20.68,0,0,0,5.63.89c2.92,0,7.31-.74,7.45-4.46,0-.33-.94-.53-1-.31-.11,3.09-3.4,4.17-6,4.27a18.76,18.76,0,0,1-4.78-.44,17.6,17.6,0,0,1-2.35-.7,2.38,2.38,0,0,1-1.51-1.24c-.11-.28-1-.43-1-.2Z"/><path class="cls-3" d="M130.68,82.24l19.18-68.73s-3.24-2.87,1.38-4.66c0,0,4.35,0,2.28,4a6.07,6.07,0,0,1-1.93,1.41c-1.13.49-19.83,70.35-19.83,70.35Z"/><path d="M107.71,109.62a4.6,4.6,0,0,1,2.68-4.8c1.84-1,4.37-1.46,6.21-.3,3.8,2.41,3.56,7.5,2.82,11.36,0,.3.91.56,1,.3.7-3.66.93-7.88-1.87-10.76-2.47-2.54-6.42-2.59-9.37-.79a4.7,4.7,0,0,0-2.38,4.81c0,.28,1,.47.95.18Z"/><path d="M111.75,96a4.4,4.4,0,0,1,1.34-3.32,4.94,4.94,0,0,1,4.37-1,8.29,8.29,0,0,1,4.06,1.47,4.16,4.16,0,0,1,1.65,3.6c0,.29,1,.43,1,.16.37-3.66-3.7-5.22-6.63-5.63a6.63,6.63,0,0,0-4.82.71,4.63,4.63,0,0,0-1.94,3.88c0,.31,1,.4,1,.16Z"/><path d="M96.73,97.74a13.15,13.15,0,0,1,3.94-3.53,7.64,7.64,0,0,1,6-.15,22,22,0,0,1,2.71,1c1,.47,1.24,1.46,1.58,2.44a14.15,14.15,0,0,1,1,6.23c0,.29,1,.43,1,.16a15.63,15.63,0,0,0-1.27-7,3.09,3.09,0,0,0-1.76-2.06,24.81,24.81,0,0,0-3.16-1.15,9.49,9.49,0,0,0-6.29-.06,12.21,12.21,0,0,0-4.67,3.89c-.18.22.75.48.93.26Z"/><path d="M83.77,103a8,8,0,0,1,8.47-6.12c4.6.53,7.34,5.24,6.42,9.59-.07.29.9.56,1,.3a8.54,8.54,0,0,0-4.33-9.33,8.81,8.81,0,0,0-9.45.62,8.42,8.42,0,0,0-3,4.64c-.07.28.89.56,1,.3Z"/><path d="M94.67,109.77c1.22-2,3.57-2.63,5.79-2.7,1.84-.06,4.54-.29,5.94,1.15a5,5,0,0,1,1,3.13,19.16,19.16,0,0,1,.09,3.71,6.36,6.36,0,0,1-3.16,5.29c-.33.16.56.48.81.36a6.12,6.12,0,0,0,3.09-4.08,11.84,11.84,0,0,0,.28-3.41,19.09,19.09,0,0,0-.34-3.2A4.07,4.07,0,0,0,104.9,107a18.34,18.34,0,0,0-5.68-.27c-2.11.18-4.33.9-5.48,2.81-.16.27.79.52.93.28Z"/><path d="M71.4,109.63a6.15,6.15,0,0,1,1-5.64,7,7,0,0,1,6.08-2.28,15.39,15.39,0,0,1,3.72.88,7.76,7.76,0,0,1,3.07,1.55,4.06,4.06,0,0,1,.88,2.88c0,1.24-.06,2.49-.09,3.73,0,.28,1,.31,1,0,0-1.18.09-2.35.09-3.53a5.61,5.61,0,0,0-.45-2.53,3.79,3.79,0,0,0-1.94-1.65,23.61,23.61,0,0,0-3-1.13c-3.45-1-8.1-1.12-10.44,2.14a6.26,6.26,0,0,0-.85,5.62c.08.26,1.06.23,1-.07Z"/><path d="M123.06,81.08c.18-1,.32-2,.42-3a11.49,11.49,0,0,0,.11-2.68c-.2-1.51-2-2.35-3.25-2.87-2.86-1.22-6.46-1.19-8.7,1.22l.91.13a6.07,6.07,0,0,0-3.19-1.72,3.05,3.05,0,0,0-1.53,0c-.54.21-.53.95-.59,1.44-.18,1.51.68,2.74.77,4.21a13.94,13.94,0,0,1-.75,4.65c-.07.26.9.48,1,.2.62-2.2,1.14-4.42.31-6.64a4.56,4.56,0,0,1-.37-1.67,3.5,3.5,0,0,1,.22-1.55c.34-.53,1.34-.1,1.79.1a4.8,4.8,0,0,1,1.47,1.06c.16.16.72.33.91.13a6.46,6.46,0,0,1,7.78-1,6.07,6.07,0,0,1,1.75,1.16,2.48,2.48,0,0,1,.52,2,33.52,33.52,0,0,1-.55,4.69c0,.28.93.47,1,.19Z"/><path d="M108.84,77.87a8.16,8.16,0,0,0-1.76-4.21,8,8,0,0,0-4.29-1.88,12.78,12.78,0,0,0-4.49-.14,8,8,0,0,0-2.09.64,7,7,0,0,0-.84.48,6,6,0,0,1-1.19.84l.45,0s-.2-.19-.24-.22a3.26,3.26,0,0,0-.4-.24,2.83,2.83,0,0,0-.75-.23,1.77,1.77,0,0,0-1.52.38,1.14,1.14,0,0,0-.13,1.48A2,2,0,0,1,92,75.86a3.35,3.35,0,0,1-.48,1.3c-.15.28.81.5.93.26A3.52,3.52,0,0,0,93,76a1.93,1.93,0,0,0-.38-1.15,1,1,0,0,1,.11-1.41c.58-.47.94.22,1.41.42.88.37,1.37-.3,2-.75a6.67,6.67,0,0,1,2.71-1.08,10.85,10.85,0,0,1,6,.76c2,.91,2.59,3,3,5,.06.26,1,.36,1,.05Z"/><path d="M77.37,80.11c.09-1.21.13-2.43.26-3.64,0-.25.12-1.1.45-1.16.08,0,.52.65.61.76.61.71,1.15.57,2,.24a18.3,18.3,0,0,1,3.4-1c2.3-.44,5-.2,6.6,1.71a9.15,9.15,0,0,1,1.8,5.13c.17,1.86.17,4.41-1.68,5.47-.2.12.07.25.17.28a.92.92,0,0,0,.69,0,4.24,4.24,0,0,0,1.85-3.5A13,13,0,0,0,93,79.62,6.76,6.76,0,0,0,90.6,76a8.25,8.25,0,0,0-5-1.28,17.28,17.28,0,0,0-6.29,1.6l.71,0c-.54-.29-.71-1-1.27-1.27a1.53,1.53,0,0,0-1.57.1,2.36,2.36,0,0,0-.57,1.74l-.23,3.21c0,.28,1,.32,1,0Z"/><path d="M94,84.56c.61-2.17,2.83-3,4.91-3a17,17,0,0,1,2,.17,4.62,4.62,0,0,1,1.42.3c.73.36.64,1.37,1.54,1.45a2,2,0,0,0,1-.21c.3-.14.41-.22.68.08a1.2,1.2,0,0,1,.28.7c.1,1.12-.9,2-1,3.08s.55,2,.71,3a2.68,2.68,0,0,1-.73,2.56c-.27.23.67.29.88.11,1.46-1.21.78-3,.3-4.55a2.55,2.55,0,0,1,0-1.68c.17-.49.46-.92.66-1.39a1.77,1.77,0,0,0-.32-2.24c-.68-.48-1.28-.15-2,0-.21.06,0,.07-.13,0a.89.89,0,0,1-.13-.23c-.07-.14-.12-.3-.2-.44a1.72,1.72,0,0,0-.84-.64,9.81,9.81,0,0,0-2.79-.45,11.51,11.51,0,0,0-3,.09,5.05,5.05,0,0,0-4.19,3.26c-.09.3.89.28,1,0Z"/><path d="M106.42,86.5c.38-.63.77-1.26,1.16-1.89A2.93,2.93,0,0,1,109,83.25a6,6,0,0,1,2.16,0,8.7,8.7,0,0,1,2.09.35c3.06,1,3.33,4.75,2.9,7.42,0,.3.91.57,1,.33a9.06,9.06,0,0,0-.43-5.23,5.46,5.46,0,0,0-3.29-2.9,10.14,10.14,0,0,0-2.31-.44,9.81,9.81,0,0,0-2.48,0A2.57,2.57,0,0,0,107,83.82c-.54.74-1,1.57-1.48,2.35-.12.2.78.6,1,.33Z"/><path d="M117,86.46a13.48,13.48,0,0,1,1.54-3.62,4.7,4.7,0,0,1,3.56-2.1,18.12,18.12,0,0,1,2.21,0,3.3,3.3,0,0,1,2.31.72c1,.93,1.13,2.44,1.25,3.7,0,.32.68.34.9.27a3.84,3.84,0,0,1,2.46,0l-.33-.26a11.62,11.62,0,0,1-.65,1.88,2.1,2.1,0,0,0,.35,1.82c.82,1.48.21,3.21-.35,4.67-.09.23.87.48,1,.18.53-1.36,1.1-3,.51-4.42-.29-.71-.76-1.16-.53-2a14.17,14.17,0,0,0,.67-2c0-.15-.23-.23-.32-.26a5.62,5.62,0,0,0-3.6,0l.9.27c-.15-1.44-.35-3.1-1.54-4.08s-3.21-1-4.79-.95A5.81,5.81,0,0,0,118,82a11.44,11.44,0,0,0-2,4.27c-.08.25.89.48,1,.19Z"/><path d="M130.37,95.42a5.94,5.94,0,0,1,3.56-4.56,5.37,5.37,0,0,1,3.19-.31,3,3,0,0,1,2.11,2,12.43,12.43,0,0,1,.08,5.94,5.09,5.09,0,0,1-1.18,3,6.8,6.8,0,0,1-2.55,1.34c-.33.12.53.51.79.42,1.73-.63,3.2-1.39,3.67-3.31a16.82,16.82,0,0,0,.45-5.91,4.28,4.28,0,0,0-2.39-3.64,6.52,6.52,0,0,0-5.23.09,6.2,6.2,0,0,0-3.47,4.6c-.05.3.93.52,1,.26Z"/><path d="M63.05,84.49,64.12,83c0-.06,0-.11,0-.16a2.07,2.07,0,0,1-.61-2.21c.29-.68,1.22-1,1.49-.13.07.23.63.27.81.21,1.41-.41,2.32-1.93,3.81-2.07a6.69,6.69,0,0,1,2.89.73A22.89,22.89,0,0,1,75,80.55a5.39,5.39,0,0,1,1.89,1.52,4.09,4.09,0,0,1,.57,2.58c-.11,1.87-.44,3.75-.68,5.6,0,.29,1,.44,1,.16l.42-3.32a15.92,15.92,0,0,0,.25-3.16c-.15-1.94-1.61-3-3.23-3.83a13.73,13.73,0,0,0-5.6-1.88,3.66,3.66,0,0,0-2.24.68,8.28,8.28,0,0,1-2.24,1.43l.82.22c-.32-1-1.83-1.25-2.7-.86-1.36.62-.89,2.4,0,3.22l0-.16-1.08,1.48c-.17.24.77.49.94.26Z"/><path d="M77.83,91A10.68,10.68,0,0,1,81,86.94,4.81,4.81,0,0,1,84,86.27a23.36,23.36,0,0,1,3.23.4,5.54,5.54,0,0,1,2.62,1.06,4.11,4.11,0,0,1,1.31,2.51c.32,2-.41,4-.58,6.06,0,.26,1,.28,1,0,.15-1.89.82-3.76.63-5.67A4.33,4.33,0,0,0,89.85,87a14.55,14.55,0,0,0-5.13-1,7,7,0,0,0-4.71.9,11.16,11.16,0,0,0-3.14,4.11c-.14.25.83.34,1,.08Z"/><path d="M64.65,97.4c.4-1.69.24-3.6,1.08-5.17s2.72-2.11,4.48-2.15,4.14-.08,5.74,1a6.29,6.29,0,0,1,2.39,4.19,17.54,17.54,0,0,1-.26,6.73c0,.23.94.31,1,0,.74-3.54,1.14-9.19-2.59-11.32-1.76-1-4-1-6-1-1.74,0-3.72.22-5,1.5-1.64,1.61-1.35,4.15-1.83,6.22,0,.22.93.31,1,0Z"/><path d="M52,92a2.3,2.3,0,0,1-.09-2.22,1.82,1.82,0,0,0-.27-1.5,4,4,0,0,1-.73-1.39.75.75,0,0,1,.33-.73c.49-.32.95.15,1.3.45.13.1.7.33.83.13,1.9-2.73,6.43-3.38,9.13-1.48,3.18,2.23,2.79,7.08,1.16,10.12-1,1.91-3,2.5-5,3-.23.06,0,.26.1.31a.9.9,0,0,0,.68.11c1.84-.45,3.81-1,4.91-2.67a10.06,10.06,0,0,0,1.44-6.49A6.41,6.41,0,0,0,63,85a9,9,0,0,0-5.36-1.2,6.65,6.65,0,0,0-5.13,2.6l.83.14A3.17,3.17,0,0,0,51,85.61a1,1,0,0,0-.91,1.46c.28.73,1.07,1.37,1,2.21a8,8,0,0,0-.33,1.45A2.21,2.21,0,0,0,51.12,92c.14.22,1.1.35.88,0Z"/><path d="M43.35,101.38a3.33,3.33,0,0,1-.26-1.76,13.66,13.66,0,0,1,.66-1.79c.24-.87-.29-1.72-.35-2.58a1.42,1.42,0,0,1,.05-.58c.18-.39.46-.23.8-.1a3.88,3.88,0,0,0,1.34.29c.95,0,1.58-.92,2.45-1.22a7.82,7.82,0,0,1,3.6-.12,6.08,6.08,0,0,1,3,1.09,4.57,4.57,0,0,1,1.47,3.15,17,17,0,0,1,.12,3.57c-.2,2.4-1.62,5.33-4.39,5.37-.18,0-.31.07-.23.24s.51.19.66.18c2.51,0,4.27-2.13,4.77-4.44a13.34,13.34,0,0,0,.11-4.23A5.87,5.87,0,0,0,56,95c-1.48-1.7-4.3-2.07-6.43-2.06a5.77,5.77,0,0,0-3.34.88,4.54,4.54,0,0,1-.72.52c-.38.15-.75-.08-1.11-.21a2.42,2.42,0,0,0-1.5-.15c-1,.43-.09,2.33,0,3s-.48,1.38-.65,2.12a3.55,3.55,0,0,0,.22,2.18c.12.27,1.08.31,1,.06Z"/><path d="M39,107.05l.13-2.36a7,7,0,0,1,.07-.92c0-.1.15-.36.15-.43l.07-.11c-.26-.08-.29-.06-.1.06.88.78,2.24,0,3.15-.17a11.7,11.7,0,0,1,4.78.26,4.72,4.72,0,0,1,3.56,2.51,3.45,3.45,0,0,1,.53,1.78,3,3,0,0,1-1,1.85,17.51,17.51,0,0,0-2.79,2.65,8.08,8.08,0,0,1-1.08,1.44,2.48,2.48,0,0,1-2.25.57,5.23,5.23,0,0,1-3.57-2c-1.61-2.36-.58-5.53-1.83-8-.14-.27-1.1-.25-1,0,1.31,2.65.11,6.14,2.17,8.48a6.6,6.6,0,0,0,3.82,1.94,3.84,3.84,0,0,0,3.82-1c.44-.51.74-1.1,1.15-1.63a10.17,10.17,0,0,1,1.95-1.75c1.15-.92,1.92-2.11,1.36-3.59a5.38,5.38,0,0,0-2.93-3.13,12.58,12.58,0,0,0-2.51-.6,21.57,21.57,0,0,0-2.53-.31,8.23,8.23,0,0,0-2.66.28c-.58.17-.94.41-1.52.15a1.8,1.8,0,0,0-.82-.23c-.59,0-.86.43-.94,1-.17,1-.13,2.16-.2,3.21,0,.29,1,.39,1,.11Z"/><path d="M57.47,101.41c.46-1.26,1-2.84,2.56-3.08a8.61,8.61,0,0,1,2.32.11c.85.11,1.7.25,2.54.43a19.73,19.73,0,0,1,4.4,1.31c1.3.61,2.51,1.89,2.06,3.43-.08.29.89.23,1,0,.47-1.63-.73-3-2.12-3.68a21.79,21.79,0,0,0-5.57-1.58C63,98,61,97.58,59.34,98.08S57,100,56.5,101.46c-.09.27.87.22,1,0Z"/><path d="M54.71,105.24a9.77,9.77,0,0,0-.5,4.05c0,.28,1,.19,1-.09a9.56,9.56,0,0,1,.48-3.94c.1-.29-.88-.29-1,0Z"/><path d="M111.83,108.2l.69.16.34.08a1.29,1.29,0,0,0,.34,0,.91.91,0,0,0,.48-.15c.22-.19-.05-.44-.2-.56a1.57,1.57,0,0,0-.61-.26,2.08,2.08,0,0,0-1,.06c-.07,0-.19.07-.22.14s0,.12.06.15a.63.63,0,0,0,.3.07,1.2,1.2,0,0,0,.38-.05l.07,0-.09,0h0c.08,0,0,0-.07,0s.05,0,.07,0h0c-.13,0-.07,0,0,0l.06,0,0,0c-.09,0,0,0,0,0a.67.67,0,0,1,.2.12l0,0a.6.6,0,0,1,.18.21l0-.05a.14.14,0,0,1,0,.09l0,0s0,0,0,0l0,0a.92.92,0,0,1,.56-.1h0l-.06,0-.14,0-.28-.06-.55-.13a1.28,1.28,0,0,0-.39,0,.65.65,0,0,0-.29.11s-.09.1,0,.16a.43.43,0,0,0,.24.1Z"/><path d="M117.6,110l.28.2.13.1a.67.67,0,0,0,.31.1.91.91,0,0,0,.49-.06c.12,0,.22-.12.23-.26a.33.33,0,0,0-.17-.27,1.34,1.34,0,0,0-.31-.17l-.29-.11a3.62,3.62,0,0,0-.81-.15,1.67,1.67,0,0,0-.32,0,.49.49,0,0,0-.24.08s-.07.06-.07.1.1.12.15.14l1.07.54a.88.88,0,0,0,.36.06.84.84,0,0,0,.35-.07s.16-.07.15-.14-.09-.11-.15-.14l-1.08-.54-.48.34h.22c.11,0-.1,0,0,0l.15,0,.06,0h0l-.05,0,.27.11.06,0c.06,0-.07,0,0,0l.1.07-.05,0a.35.35,0,0,1,.05.08v0a.2.2,0,0,1,0,.11v-.05a.09.09,0,0,1,0,.06l0,0,0,0,.79,0-.43-.31a.65.65,0,0,0-.3-.09,1,1,0,0,0-.38,0c-.07,0-.2,0-.23.12a.11.11,0,0,0,0,.15Z"/><path d="M113.68,109.78c-.15.67-.28,1.35-.37,2a1.91,1.91,0,0,0,0,.79.91.91,0,0,0,.78.57,1.4,1.4,0,0,0,1-.18,2.81,2.81,0,0,0,.63-.56,2.07,2.07,0,0,0,.67-1.52c-.06-.37-.44-.54-.77-.64l-1.08-.28c-.16,0-.5-.13-.63,0s.21.28.3.31l.77.2.36.1c-.06,0,0,0,0,0a.31.31,0,0,1,0,.1.92.92,0,0,1-.07.61,2.45,2.45,0,0,1-.34.59,2.61,2.61,0,0,1-1,.85s-.13,0,0,0l.27.08,0-.07a.48.48,0,0,1-.06-.26,4.17,4.17,0,0,1,.07-.71c.1-.62.21-1.24.35-1.85,0-.17-.34-.27-.45-.28s-.49-.08-.53.1Z"/><path d="M115.45,95.27a.52.52,0,0,1,.1-.23l0,0a.73.73,0,0,1,.26-.2l-.06,0,.16,0s-.08,0,0,0h.1c.05,0-.1,0,0,0h.11l.22.05-.34-.47a2.49,2.49,0,0,0-1,.29c-.06,0,0,.12,0,.16a.7.7,0,0,0,.26.19,1.14,1.14,0,0,0,.37.11.43.43,0,0,0,.25,0l.16-.08-.06,0,.31-.11.15,0,.09,0h0a.27.27,0,0,0,.17-.06.11.11,0,0,0,0-.14.92.92,0,0,0-.5-.28,3.33,3.33,0,0,0-.55-.1,1.56,1.56,0,0,0-.57,0,.7.7,0,0,0-.52.53.23.23,0,0,0,.09.18.83.83,0,0,0,.32.17.84.84,0,0,0,.35.07s.18,0,.18-.09Z"/><path d="M120.33,94.42h0l.09,0,.09,0h0l.32.13-.08,0a1.71,1.71,0,0,1,.23.13l.78-.27a3.58,3.58,0,0,0-1.29-.3,1.22,1.22,0,0,0-.38,0c-.06,0-.2.06-.23.13s.26.23.36.23h.13c.05,0,.22,0,0,0l.25.05.07,0h0l.13,0,.25.1a.74.74,0,0,0,.36,0,1,1,0,0,0,.3,0s.15,0,.17-.11a.11.11,0,0,0,0-.15,2.81,2.81,0,0,0-1.22-.41,1.26,1.26,0,0,0-.39,0c-.06,0-.19.06-.22.13s.25.23.35.24Z"/><path d="M116.92,95.79a15.22,15.22,0,0,0,.13,2,2,2,0,0,0,.19.79,1.15,1.15,0,0,0,1,.53.82.82,0,0,0,.76-.41,7.25,7.25,0,0,0,.47-.75,5.77,5.77,0,0,0,.34-.81c.07-.24.22-.59,0-.82s-.82-.37-1.21-.45l-1.16-.24c-.1,0-.44-.07-.4.12s.39.3.54.33l1.56.32.08,0c.13,0-.3-.13-.28-.16s0,.12,0,.15-.06.23-.09.34a4.73,4.73,0,0,1-.25.66,4.83,4.83,0,0,1-.32.59,2.36,2.36,0,0,1-.4.54l-.11.08.45.16s0,0,0-.07l-.06-.15a5.22,5.22,0,0,1-.11-.69,15.36,15.36,0,0,1-.11-1.79c0-.33-1-.53-1-.31Z"/><path d="M121.11,86.46l.84-.75-.93,0-.33.49c0,.06,0,.12.08.14a.63.63,0,0,0,.31.05,1.17,1.17,0,0,0,.37-.08.47.47,0,0,0,.21-.15l.33-.49c0-.06,0-.12-.07-.14a.56.56,0,0,0-.25-.05,1.12,1.12,0,0,0-.32,0,.67.67,0,0,0-.28.14l-.84.75a.11.11,0,0,0,0,.16.38.38,0,0,0,.25.08,1,1,0,0,0,.38,0,.72.72,0,0,0,.28-.13Z"/><path d="M126.19,84.89l.59.09H127l.2,0a.52.52,0,0,0,.16-.06.37.37,0,0,0,.12-.07s.08-.11,0-.16l-.06,0a.59.59,0,0,0-.19,0l-.4-.06h-.19a.63.63,0,0,0-.19,0,.58.58,0,0,0-.17.06.37.37,0,0,0-.12.07s-.08.11,0,.16l0,0a.67.67,0,0,0,.19,0l.4.06.45-.42-.59-.09h-.19a.69.69,0,0,0-.2,0,.52.52,0,0,0-.16.06.37.37,0,0,0-.12.07s-.08.11,0,.16l.06,0a.59.59,0,0,0,.19,0Z"/><path d="M123.16,89.44h0s.11,0,0,0,0,0,0,0h0l.12,0-.08,0,.18.11,0,0a.66.66,0,0,1,.17.23l0,0a.6.6,0,0,1,0,.35V90a.5.5,0,0,1-.1.19l0-.05a.34.34,0,0,1-.09.08l.07,0,0,0c-.08,0,.07,0,0,0s-.08,0,0,0,0,0,0,0h.1s-.11,0,.06,0h-.09l-.19,0a1.08,1.08,0,0,0-.36,0,.78.78,0,0,0-.34.09c-.05,0-.15.08-.14.15a.23.23,0,0,0,.16.13,2.91,2.91,0,0,0,.88.11,1.14,1.14,0,0,0,.87-.39.6.6,0,0,0,.06-.52.75.75,0,0,0-.43-.46,2,2,0,0,0-1.15-.1.61.61,0,0,0-.29.11s-.09.11,0,.16a.37.37,0,0,0,.24.1,1.2,1.2,0,0,0,.38,0Z"/><path d="M122.11,87.2a1.24,1.24,0,0,0,1.27.12,2,2,0,0,0,.37-.28l.12-.09c-.12.13-.37,0-.21,0l.2,0a1.09,1.09,0,0,0,.67-.09,1.2,1.2,0,0,0,.27-.28c.06-.06,0,0,0,0h.19l.58,0c.12,0,.48.06.52-.13s-.37-.25-.47-.26c-.34,0-.69-.08-1-.09a1,1,0,0,0-.54.1,1,1,0,0,0-.26.27c-.07.09-.12.07.08.06s.16,0,.08,0l-.2,0a1.16,1.16,0,0,0-.64.07,1,1,0,0,0-.32.23l-.14.12-.07,0c-.14.08,0-.3.47.1a.94.94,0,0,0-.67-.17c-.11,0-.39.1-.22.25Z"/><path d="M133.44,94.82a3,3,0,0,0-.67.33c-.06,0-.1.09-.07.15a.43.43,0,0,0,.23.14,1.2,1.2,0,0,0,.38,0,.78.78,0,0,0,.3-.07l.35-.17-.08,0a3.75,3.75,0,0,1,.43-.16l-.76-.3-.26.18-.12.1a1.48,1.48,0,0,1-.13.08l.08,0h0l.11,0h.1l.38.05h0l.17.09h0l.05,0h0v.06h0l0,0h0l-.06,0h0l-.08,0h0l-.23,0h0l-.48-.09h0l-.12-.1h0v-.06h0a.2.2,0,0,0,.13.15.85.85,0,0,0,.35.08.87.87,0,0,0,.36,0l.08,0a.11.11,0,0,0,.07-.1.13.13,0,0,0,0-.06.29.29,0,0,0-.12-.1l-.16,0a1.24,1.24,0,0,0-.33,0,.78.78,0,0,0-.31.07.22.22,0,0,0-.07.06c-.1.14.12.24.22.27a1.1,1.1,0,0,0,.4,0,.66.66,0,0,0,.34-.08l.11-.08.13-.09.26-.19s.1-.09.06-.15a.41.41,0,0,0-.17-.12,1.07,1.07,0,0,0-.3-.06.87.87,0,0,0-.36,0,6,6,0,0,0-.86.36l.84.27a2.11,2.11,0,0,1,.44-.24l-.08,0,.16-.06c.05,0,.15-.06.15-.13s-.08-.13-.13-.15a1.06,1.06,0,0,0-.35-.09,1.11,1.11,0,0,0-.36,0Z"/><path d="M137.23,93.33a1,1,0,0,0-.54.35c-.06.08,0,.14.07.19a.85.85,0,0,0,.38.12h.33l.15,0a1.12,1.12,0,0,0,.31-.1.6.6,0,0,0,.21-.14.5.5,0,0,0,.14-.15.08.08,0,0,0,0-.1.51.51,0,0,0-.34-.23,1.3,1.3,0,0,0-.65,0,.47.47,0,0,0-.24.13.26.26,0,0,0-.05.09.2.2,0,0,0,0,.07.11.11,0,0,0,0,.08.39.39,0,0,0,.1.08,1.33,1.33,0,0,0,.34.1.87.87,0,0,0,.36,0l.08,0a.12.12,0,0,0,.08-.09.15.15,0,0,1,0-.07l0,.05.05-.06-.06,0,.06,0-.09,0h-.25l-.13,0h0l-.12,0h0l-.1,0h0l-.07,0,0,0-.05-.06v0l0-.11a1.29,1.29,0,0,1-.16.17l0,0-.19.1.09,0-.13,0,.11,0h.08l.45.31a.65.65,0,0,1,.16-.17l-.06,0,.2-.11-.08,0h0s.15,0,.16-.12-.08-.13-.13-.16a.79.79,0,0,0-.34-.1.87.87,0,0,0-.36,0Z"/><path d="M135,96.57a3,3,0,0,0,1.11,0,2.52,2.52,0,0,0,.92-.32c.05,0,.14-.07.13-.15s-.1-.11-.15-.13a.87.87,0,0,0-.36,0,.85.85,0,0,0-.35.08l-.14.08-.09,0,0,0,.05,0-.16,0h0l-.08,0h-.14c.09,0,.11,0,.06,0h-.12c-.08,0,.12,0,0,0l-.18,0a1.21,1.21,0,0,0-.38,0,.64.64,0,0,0-.3.11s-.09.1,0,.16a.51.51,0,0,0,.24.1Z"/><path d="M109.36,86.31c0,.31.4.41.66.42a1.18,1.18,0,0,0,.71-.18.46.46,0,0,0,.12-.12.31.31,0,0,0,.06-.16.13.13,0,0,0-.07-.09,1.57,1.57,0,0,0-1.11-.05.94.94,0,0,0-.58.41c-.08.14.16.2.24.21a2.11,2.11,0,0,0,.75,0,1.12,1.12,0,0,0,.44-.17.47.47,0,0,0,.14-.14.4.4,0,0,0,0-.35.38.38,0,0,0-.18-.15,1.29,1.29,0,0,0-.55-.07,1.67,1.67,0,0,0-.63.16.67.67,0,0,0-.32.3.34.34,0,0,0,.06.35.9.9,0,0,0,.59.22,1.19,1.19,0,0,0,1.18-.61c0-.06,0-.12-.06-.15a.64.64,0,0,0-.31-.07,1.24,1.24,0,0,0-.38.05.45.45,0,0,0-.22.13,2,2,0,0,1-.18.23l.05-.05a.65.65,0,0,1-.16.13l.08,0,0,0s.1,0,0,0,.12,0,.07,0H110c-.07,0,.15,0,.06,0s.12,0,.07,0h0l.08,0a.2.2,0,0,1-.08,0l0,0a.23.23,0,0,1-.07-.1l0,.06a.29.29,0,0,1,0-.16v.06a.27.27,0,0,1,.06-.12l0,0,.11-.08-.08,0,.08,0-.06,0h0c-.1,0,0,0,0,0h-.17l-.08,0c-.08,0,0,0,0,0l-.09,0,0,0-.06,0s0,0,0,.06l0-.05a.29.29,0,0,1,0,.16v-.06a.27.27,0,0,1-.07.14l.05,0-.06,0,.08,0,0,0,.06,0H110s0,0,.08,0H110l-.12,0,.25.21a.76.76,0,0,1,.08-.11l0,0,.13-.1-.08,0,.06,0,0,0s-.11,0,0,0,.11,0,0,0,0,0,0,0h0s0,0-.11,0h-.07s-.12,0-.07,0l.07,0-.08,0h0l-.08-.1h0l0,0a.75.75,0,0,1-.07.12l0,0-.07,0,.08,0,0,0,.07,0,.08,0h.33l.08,0-.06,0,.06,0a.27.27,0,0,1-.09-.12l0,.06a.25.25,0,0,1,0-.07c0-.08-.1-.12-.15-.14a1.1,1.1,0,0,0-.36,0,1,1,0,0,0-.35.08s-.15.08-.14.15Z"/><path d="M114.6,86.38a.55.55,0,0,0-.29.18.22.22,0,0,0,0,.14.3.3,0,0,0,.14.27l.13.06a1.2,1.2,0,0,0,.33,0,1.28,1.28,0,0,0,.51-.09.45.45,0,0,0,.28-.32.36.36,0,0,0-.11-.3,1,1,0,0,0-.66-.23,1.47,1.47,0,0,0-.77.19.42.42,0,0,0-.23.32.23.23,0,0,0,.06.16.45.45,0,0,0,.26.14,1.32,1.32,0,0,0,.34,0,1.35,1.35,0,0,0,.29,0,.56.56,0,0,0,.21-.09.2.2,0,0,0,.07-.09.08.08,0,0,0,0-.08.11.11,0,0,0-.06-.07.55.55,0,0,0-.31-.08,1,1,0,0,0-.38,0l-.1,0a.38.38,0,0,0-.13.09.08.08,0,0,1,0,0l0,0h0l.07,0h0l.09,0,.1,0h.33l.1,0,0,0,.08,0,0,0,.05,0a.09.09,0,0,1,0,0l0,.06a.17.17,0,0,1,0-.1l0,0a.26.26,0,0,1,.07-.11l0,0,.09-.07-.08,0,.1,0-.1,0h0s-.14,0-.08,0h-.21l-.1,0,.06,0-.08,0,.08.06-.05,0a.38.38,0,0,1,.09.13l0,0a.38.38,0,0,1,0,.15v0a.41.41,0,0,1,0,.09l0,0-.06,0,.08,0-.05,0,.1,0h0a.83.83,0,0,1,.22,0h.19l.11,0h0l.08,0,0,0,.06,0a.18.18,0,0,1,0-.07l0,.06a.23.23,0,0,1,0-.14v.06a.16.16,0,0,1,0-.07l-.05,0,0,0-.08,0h0l-.1,0h0c.06,0,.18-.06.22-.13a.12.12,0,0,0-.06-.16.74.74,0,0,0-.3-.08,1.23,1.23,0,0,0-.38,0Z"/><path d="M110.44,88a3,3,0,0,0,3.09.55c.21-.09,0-.26-.14-.29a.94.94,0,0,0-.68,0l-.07,0-.13,0-.14,0c-.06,0,.07,0,0,0h-.3c-.07,0,.1,0,0,0l-.14,0h0l-.06,0-.07,0s.09,0,0,0l-.12,0s0,0,0,0l-.06,0-.11-.07-.07,0s0,0,0,0l-.21-.19a.86.86,0,0,0-.66-.16c-.13,0-.38.08-.22.24Z"/><path d="M112.85,74.46a.88.88,0,0,0,.33.36,1.49,1.49,0,0,0,.79.24.56.56,0,0,0,.55-.39c0-.07,0-.14-.09-.18a1.28,1.28,0,0,0-.25-.15,1.18,1.18,0,0,0-.31-.08h-.11a.28.28,0,0,0-.15,0,1,1,0,0,0-.37.32.76.76,0,0,0-.15.41.13.13,0,0,0,0,.12.53.53,0,0,0,.2.16,1.33,1.33,0,0,0,.24.1,1.35,1.35,0,0,0,.29,0,.82.82,0,0,0,.49-.18.65.65,0,0,0,.23-.37c0-.07,0-.13-.09-.18a.94.94,0,0,0-.31-.17.88.88,0,0,0-.36-.06s-.17,0-.18.08a.7.7,0,0,1-.11.23l0,0a.6.6,0,0,1-.23.19l.06,0a.42.42,0,0,1-.15,0h0l.76.41a.81.81,0,0,1,.18-.44l0,0a.9.9,0,0,1,.31-.24l-.9-.38a.69.69,0,0,1-.07.15l0,0a.44.44,0,0,1-.15.12l.06,0a.17.17,0,0,1-.1,0h.11s.1,0,.09,0h0l.09,0,.1,0s-.06,0,0,0,0,0,0,0l.09.07s0,0,0,0l.06.07a.24.24,0,0,1-.06-.09l0,.07v0a.47.47,0,0,0-.18-.19,1,1,0,0,0-.36-.15.54.54,0,0,0-.31,0s-.13,0-.1.13Z"/><path d="M118.64,76.13a1.1,1.1,0,0,0-.09.67.9.9,0,0,0,.7.57c.29.09.7.1.87-.21a.3.3,0,0,0,0-.26.89.89,0,0,0-.57-.35,1.15,1.15,0,0,0-.45,0,.51.51,0,0,0-.24.1.32.32,0,0,0-.1.33c0,.07.14.14.2.17a1,1,0,0,0,.3.1.71.71,0,0,0,.29,0l.09,0a.14.14,0,0,0,.09-.08l.17-.28s-.08-.15-.1-.17a.81.81,0,0,0-.33-.14.88.88,0,0,0-.36,0l-.09,0a.14.14,0,0,0-.09.08l-.17.28,1,.18v0a.23.23,0,0,1,0-.14l0,0a.23.23,0,0,1,.07-.07l-.06,0,.06,0-.09,0h-.06a1.09,1.09,0,0,1-.25,0l-.1,0s-.06,0,0,0l-.07,0h0l-.07-.06,0,0,0-.06a.16.16,0,0,1,0,.09v0a.33.33,0,0,1,0,.13l0,0a.52.52,0,0,1-.11.1l.06,0-.07,0,.09,0h0s.07,0,.07,0h.08l.11,0s0,0,0,0a.32.32,0,0,1,.09,0l0,0h0c.07,0,0,0,0,0l.07.06-.08-.09,0,.06a.5.5,0,0,1-.08-.26v.06a1.35,1.35,0,0,1,.11-.52c0-.06-.07-.14-.11-.17a.81.81,0,0,0-.33-.14.73.73,0,0,0-.36,0c-.06,0-.15,0-.17.1Z"/><path d="M114.26,76.77c-.26,1.25-.48,2.5-.67,3.76,0,.12.26.16.32.17a1,1,0,0,0,.54-.07A8.06,8.06,0,0,0,117,78.75a3.62,3.62,0,0,0,.42-.65c.13-.26.19-.51-.15-.63s-.65-.18-1-.26l-1-.27a1.08,1.08,0,0,0-.71,0c-.16.08-.18.23,0,.29l1.78.47s.18,0,.19.06-.06.09-.06.1a2.49,2.49,0,0,1-.16.33,4.39,4.39,0,0,1-.4.56,7.72,7.72,0,0,1-2.27,1.6l.86.1c.19-1.26.41-2.51.67-3.75,0-.22-.93-.27-1,0Z"/><path d="M95.59,86.43a.57.57,0,0,0-.34.41v0a.2.2,0,0,0,.08.08.69.69,0,0,0,.25.1l.26,0a.66.66,0,0,0,.31-.06,2.61,2.61,0,0,0,1-1,.09.09,0,0,0,0-.11.29.29,0,0,0-.12-.1.89.89,0,0,0-.48-.1,1.77,1.77,0,0,0-.82.19,1.35,1.35,0,0,0-.49.4c-.11.16.23.27.32.29l.43.07a1.29,1.29,0,0,0,.39,0c.06,0,.2,0,.24-.1s-.22-.26-.32-.28l-.43-.08.32.29a1.14,1.14,0,0,1,.24-.25l-.05,0a1.11,1.11,0,0,1,.3-.17l-.08,0,.18,0h0l-.58-.31a2.5,2.5,0,0,1-.68.77l.06,0a1.67,1.67,0,0,1-.24.16l.91.21,0-.09,0,0a.39.39,0,0,1,.14-.17l-.06,0,.1-.06a.1.1,0,0,0,.06-.14.39.39,0,0,0-.21-.15,1,1,0,0,0-.69,0Z"/><path d="M101.64,85a.4.4,0,0,0,.17.53,1.15,1.15,0,0,0,.73.09,1.18,1.18,0,0,0,.31-.08.78.78,0,0,0,.2-.16c0-.06,0-.12-.06-.15a1.31,1.31,0,0,0-.56-.26,2,2,0,0,0-.9,0,.51.51,0,0,0-.21.1.11.11,0,0,0,0,.13,2.15,2.15,0,0,0,1.08.69,1,1,0,0,0,.35,0,1,1,0,0,0,.35-.07s.16-.08.14-.15a.2.2,0,0,0-.15-.14,1.21,1.21,0,0,1-.3-.11l.08,0a2.09,2.09,0,0,1-.44-.29l0,0-.2-.21-.22.24H102c-.1,0,0,0,0,0h0l-.06,0,.13,0-.08,0a.82.82,0,0,1,.2.12l-.06-.15h0l.05,0-.06,0,.08,0,0,0s0,0,.06,0,0,0,.08,0h0a.92.92,0,0,1,.24,0l.07,0h0l.08,0-.06,0,0,0a.26.26,0,0,1-.07-.1l0,0a.37.37,0,0,1,0-.18v0s0,0,0,0,0-.12,0-.16a.79.79,0,0,0-.31-.08,1.23,1.23,0,0,0-.38,0,.36.36,0,0,0-.23.13Z"/><path d="M98,87.87a18,18,0,0,0,.72,2l.21.46a.62.62,0,0,0,.53.32.85.85,0,0,0,.69-.16,1.48,1.48,0,0,0,.3-.36,7.47,7.47,0,0,0,.73-1.91l.12-.48a2.47,2.47,0,0,0,.09-.52c0-.37-.7-.38-1-.39a3.84,3.84,0,0,0-2.29.56c-.19.11,0,.24.16.28a1,1,0,0,0,.69,0,2.79,2.79,0,0,1,.87-.37,3,3,0,0,1,.42-.05h.24s0,0,0,0h0l-.17-.09a1.88,1.88,0,0,1-.07.36c0,.16-.06.31-.1.46s-.16.57-.25.85-.21.55-.33.82a3.59,3.59,0,0,1-.17.34,1.07,1.07,0,0,1-.24.31l.36,0h0l.42.12c-.07,0-.11-.19-.15-.27s-.09-.2-.13-.29-.19-.45-.27-.67q-.26-.67-.45-1.35c0-.07-.17-.12-.22-.13a1.27,1.27,0,0,0-.39,0c-.13,0-.41,0-.36.23Z"/><path d="M98.09,74.42a2.24,2.24,0,0,0,.51.41A1.23,1.23,0,0,0,99,75a.5.5,0,0,0,.32,0,.31.31,0,0,0,.12-.23.54.54,0,0,0-.09-.32.86.86,0,0,0-.13-.14A1.31,1.31,0,0,0,98.17,74a.63.63,0,0,0-.43.5.55.55,0,0,0,.05.31.82.82,0,0,0,.45.39,1.66,1.66,0,0,0,.58.11l.2,0c.11,0,.23-.13.24-.26s0-.13-.1-.18a.88.88,0,0,0-.32-.16,1.06,1.06,0,0,0-.35-.05l-.09,0a.12.12,0,0,0-.09.08.42.42,0,0,1,0,.1l0,0a.24.24,0,0,1-.09.08l.06,0a.11.11,0,0,1-.08,0h.21l.1,0c-.06,0,.15.06.09,0l.08,0,.09,0-.05,0,.07.06a.19.19,0,0,1-.06-.07l0,.06a.49.49,0,0,1,0-.2v.05a.49.49,0,0,1,.09-.31l0,0a.6.6,0,0,1,.19-.16l-.07,0,.11,0h-.2l-.08,0-.1,0-.07,0-.08-.06,0,0-.06-.06a.18.18,0,0,1,0,.07l0-.06a.43.43,0,0,1,.05.16v0a.28.28,0,0,1,0,.15l0-.05,0,.05.73.1a.47.47,0,0,1-.09-.06l.09.06a1.49,1.49,0,0,1-.2-.15l.06.06L99,74.48a.87.87,0,0,0-.26-.18,1.05,1.05,0,0,0-.38-.09h-.1a.25.25,0,0,0-.15.05l0,0a.16.16,0,0,0,0,.12Z"/><path d="M103.19,75.81A2.83,2.83,0,0,0,105,77.36a1,1,0,0,0,.55,0,.64.64,0,0,0,.19-.08s.11-.08.1-.13a1.58,1.58,0,0,0-.63-.81,1.13,1.13,0,0,0-1-.1c-.17.07-.45.26-.28.47a.42.42,0,0,0,.24.09,1,1,0,0,0,.38,0c.09,0,.45-.13.32-.28s0,0,0,0l0,0a.15.15,0,0,1,0-.07v.06a.14.14,0,0,0,0-.06s0,0,0,0a.61.61,0,0,1-.61.1s0,0,0,0l.06,0,0,0c.06,0,0,0,0,0l.11.09a1.45,1.45,0,0,1,.3.43l0-.05a.58.58,0,0,1,0,.14l.83-.24-.12,0h-.07l-.24-.12-.22-.14,0,0h0l0,0-.1-.09a2.51,2.51,0,0,1-.64-.84l0,0,0,0c-.08-.17-.36-.16-.52-.14a.7.7,0,0,0-.34.1s-.16.09-.13.15Z"/><path d="M99.85,76.76a5.66,5.66,0,0,0-.69,1.82,1.34,1.34,0,0,0,0,.84,1.16,1.16,0,0,0,1.16.47,1.32,1.32,0,0,0,.76-.48,4.12,4.12,0,0,0,.89-1.53,3.06,3.06,0,0,0,.1-.41.57.57,0,0,0,0-.48,1.1,1.1,0,0,0-.71-.35l-.52-.07a1.25,1.25,0,0,0-1,.27c-.2.2.69.56.9.36a.52.52,0,0,1,.21-.14l.1,0h.18l.14,0,.08,0c-.09,0-.37.07-.32-.16,0,0,0,.11,0,.15a3.87,3.87,0,0,1-.46,1.31,3,3,0,0,1-.39.55,1.65,1.65,0,0,1-.49.46s-.08,0-.1,0h0l.4.14,0,0a.64.64,0,0,1-.05-.23,2.82,2.82,0,0,1,.1-.7,5.55,5.55,0,0,1,.65-1.6c.11-.19-.8-.55-1-.27Z"/><path d="M82.63,78.05a3.52,3.52,0,0,0,1.41,0s.16-.06.16-.12-.07-.13-.13-.16a1.76,1.76,0,0,0-1-.16,1,1,0,0,0-.6.25c-.06,0,0,.12,0,.16a.7.7,0,0,0,.28.12,1,1,0,0,0,.39,0,.42.42,0,0,0,.24-.09l0,0,0,0a.6.6,0,0,1,.15-.09l-.08,0h0s.1,0,0,0,0,0,0,0h0c-.1,0,0,0,0,0h0s-.15,0-.09,0h0l-.07,0h0l-.06,0,0-.28h-.22c.18,0,0,0,0,0H83s.16,0,.07,0h-.16a1.22,1.22,0,0,0-.38,0,.48.48,0,0,0-.25.09c-.1.16.22.27.32.29Z"/><path d="M88.65,79.85a1.87,1.87,0,0,0,.69,1,.36.36,0,0,0,.2.08.76.76,0,0,0,.3,0l.25-.07a.35.35,0,0,0,.21-.15.45.45,0,0,0,0-.36.48.48,0,0,0-.12-.17.66.66,0,0,0-.26-.14.87.87,0,0,0-.36,0,.8.8,0,0,0-.34.11s-.14.09-.12.16.1.1.16.12h0l-.08,0,.08,0,0,0a.43.43,0,0,1,.11.12l0,0a.37.37,0,0,1,0,.23v0l0,.09,1-.14a1.79,1.79,0,0,1-.53-.63l0,0a2.37,2.37,0,0,1-.13-.34.18.18,0,0,0-.17-.12.83.83,0,0,0-.35,0,1,1,0,0,0-.35.11s-.14.09-.12.16Z"/><path d="M84.7,80.18a4.83,4.83,0,0,0-1.32,1.66c-.27.59-.63,1.48-.09,2a1.74,1.74,0,0,0,2.09.22,3,3,0,0,0,.72-.78c.25-.35.48-.7.7-1.07a3.91,3.91,0,0,0,.31-.57c.08-.24-.07-.41-.27-.53a5.37,5.37,0,0,0-.69-.31l-.7-.31c-.15-.06-.49-.2-.63-.07s.16.31.25.35l1,.42.25.11-.05,0c0-.06-.07-.06-.06,0l0,.08a2.94,2.94,0,0,1-.25.46,8.67,8.67,0,0,1-1.1,1.59,1.35,1.35,0,0,1-.66.41h-.09s-.07,0,0,0h0s.14,0,.13.05-.08-.09-.09-.1a1.22,1.22,0,0,1,0-.86,4.89,4.89,0,0,1,.31-.8,4.39,4.39,0,0,1,1.22-1.52c.21-.17-.65-.6-.88-.41Z"/><path d="M71.82,94.71A8.68,8.68,0,0,0,72,96.47a6.16,6.16,0,0,0,.5,1.63.93.93,0,0,0,.73.47,1.13,1.13,0,0,0,.93-.26,2.76,2.76,0,0,0,.75-1.22,9,9,0,0,0,.46-2c0-.18-.37-.25-.47-.27-.73-.11-1.47-.19-2.2-.25-.11,0-.44,0-.38.2s.45.21.59.22c.65,0,1.29.13,1.93.23L74.36,95a8.37,8.37,0,0,1-.4,1.85,2.38,2.38,0,0,1-.86,1.32l-.07,0c.48.18.64.19.48,0l-.07-.13c-.06-.14-.11-.28-.16-.42a7.25,7.25,0,0,1-.26-.91,8.25,8.25,0,0,1-.21-1.92c0-.3-1-.39-1-.13Z"/><path d="M70.15,93.45a1.16,1.16,0,0,0,1-.43s0,0,0-.07a.11.11,0,0,0,0-.09,1.08,1.08,0,0,0-.29-.18,1.47,1.47,0,0,0-.4-.1,1.09,1.09,0,0,0-.51,0,.47.47,0,0,0-.32.43v.06l0,0a.52.52,0,0,0,.22.14,1.1,1.1,0,0,0,.54.08,1.56,1.56,0,0,0,.83-.41.11.11,0,0,0,0-.16.57.57,0,0,0-.27-.16,1,1,0,0,0-.38-.06.36.36,0,0,0-.25.06,1.57,1.57,0,0,1-.25.2l.06,0a1.27,1.27,0,0,1-.32.13l.08,0-.11,0,.81.33a.27.27,0,0,1,0-.18l0,0a.53.53,0,0,1,.13-.13l-.06,0,.12,0-.09,0h-.19c.06,0-.16,0-.08,0l-.09,0h0l-.1,0,0,0-.06-.06h0v-.16A.9.9,0,0,1,70,93l.06,0-.22.1.08,0a.4.4,0,0,1-.15,0h0a.37.37,0,0,0-.25.07c0,.05,0,.11,0,.16a1,1,0,0,0,.28.16,1.59,1.59,0,0,0,.38.06Z"/><path d="M74.87,93.48A9.16,9.16,0,0,0,76,93.7a1,1,0,0,0,.25,0,1.11,1.11,0,0,0,.3-.08.71.71,0,0,0,.14-.1.1.1,0,0,0,0-.14A1.57,1.57,0,0,0,75.33,93a.67.67,0,0,0-.41.16.11.11,0,0,0-.06.11.16.16,0,0,0,.09.09.7.7,0,0,0,.29.08,1.54,1.54,0,0,0,.48,0,.77.77,0,0,0,.51-.3l0-.06a.19.19,0,0,0,0-.08s0,0,0-.07a.44.44,0,0,0-.24-.13.9.9,0,0,0-.4,0,1.15,1.15,0,0,0-.51.14s-.14.1-.12.17a.65.65,0,0,0,.48.37,1.68,1.68,0,0,0,.67,0,1.05,1.05,0,0,0,.46-.23.11.11,0,0,0,0-.16c0-.06-.17-.08-.24-.08A1.2,1.2,0,0,0,76,93a.78.78,0,0,0-.29.14l0,0,.07,0a.05.05,0,0,0,0,0s.11,0,0,0c.12,0,.11,0,.07,0l.09,0H76s0,0,.08,0h0c.13,0,.09,0,.06,0h0l.08,0L76,93l.06,0a.53.53,0,0,1-.12-.14l0,0v0l-.13.16s-.09,0,0,0,0,0-.1,0a.52.52,0,0,1-.21,0s-.13,0-.08,0h0l-.08,0,.06,0-.06,0a.34.34,0,0,1,.06.06l0-.11a.36.36,0,0,1,0,.09l0-.06a.17.17,0,0,1-.06.06l.07,0,0,0,.06,0s0,0,0,0l.09,0h.28s.1,0,.06,0h0l.09,0,0,0-.38.36h.06c.08,0-.14,0-.07,0h.07c-.1,0-.12,0-.08,0h.08c-.13,0-.06,0,0,0l.12,0-.09,0a1.58,1.58,0,0,1,.26.13l-.06,0,.12.1.69-.33-.13,0h0l-.25,0-.5-.12a1.09,1.09,0,0,0-.36,0,.79.79,0,0,0-.34.1s-.14.09-.13.17.1.1.17.11Z"/><path d="M83.86,89.81a2.35,2.35,0,0,0,.37,0l.22-.08a1,1,0,0,0,.32-.22.09.09,0,0,0,0-.11.4.4,0,0,0-.12-.1l-.16-.07-.18-.05a1.51,1.51,0,0,0-.52,0,.75.75,0,0,0-.49.23c-.07.08,0,.17.11.2a2.47,2.47,0,0,0,.52.18,3.68,3.68,0,0,0,.58.06l.17,0a.29.29,0,0,0,.13,0c.05,0,.11-.08.07-.15l0,0a.56.56,0,0,0-.17-.09,1.65,1.65,0,0,0-.38-.05h.12l-.17,0,.13,0-.17,0,.12,0-.2-.07.1,0-.07,0,.11.21.06-.05-.06,0,.09,0-.08,0,.07,0-.1,0h-.1l-.14,0h0l-.12,0h0l-.09,0,.05,0-.11-.2-.06.06,0,0a.92.92,0,0,1-.21.13l.08,0-.15,0,.1,0h0a.62.62,0,0,0-.3.06s-.1.09-.07.15l0,0a.56.56,0,0,0,.17.09,1,1,0,0,0,.39,0Z"/><path d="M88.34,91.27l.62.31a1.22,1.22,0,0,0,.27.09,1.17,1.17,0,0,0,.32,0,.59.59,0,0,0,.19,0c.06,0,.1-.08.07-.15a.73.73,0,0,0-.27-.28l-.06,0a1,1,0,0,0-.38-.12,1.09,1.09,0,0,0-.36,0,.39.39,0,0,0-.14.08.14.14,0,0,0,0,.08v0a.29.29,0,0,0,0,.09.24.24,0,0,0,.06.08.56.56,0,0,0,.2.11l.13,0a1.26,1.26,0,0,0,.27,0,.66.66,0,0,0,.36-.08l0,0a.32.32,0,0,0,0-.09.36.36,0,0,0,0-.1.08.08,0,0,0,0,0,.41.41,0,0,0-.14-.12,1,1,0,0,0-.37-.12,1.08,1.08,0,0,0-.36,0,.16.16,0,0,0-.11,0,.08.08,0,0,0-.05.07.2.2,0,0,0,.12.16,1.08,1.08,0,0,0,.35.1h0l-.13,0h0l-.11,0h0l-.09,0h0l-.07,0,0,0,0-.06,0,0v0a.17.17,0,0,1,0,.07l0,0s0,0,0,0l.06,0h0l.18,0h.24l.13,0h0l.12,0h0l.09,0h0l.08,0h0l0,.05s0,0,0-.05v.05a.09.09,0,0,1,0-.05l0,.05,0,0-.05,0h-.65l-.1,0,.07,0-.08-.05a.26.26,0,0,1,.09.09l0-.06.06.1.85-.09-.61-.32a1.4,1.4,0,0,0-.35-.1h-.19a.41.41,0,0,0-.16,0l-.09,0a.11.11,0,0,0-.08.09c0,.07.07.13.13.16Z"/><path d="M81.27,90.47a4.84,4.84,0,0,1,0,4.8c-.14.24.82.32,1,.06a5.06,5.06,0,0,0,0-5c-.14-.24-1.11-.11-1,.15Z"/><path d="M88.19,93.21a7,7,0,0,0-3.12,3.16c-.08.21.88.42,1,.12a6.72,6.72,0,0,1,3-3c.18-.12,0-.25-.15-.29a.85.85,0,0,0-.68,0Z"/><path d="M84.51,91.52a18,18,0,0,0-.91,3.12c0,.1.22.14.27.14a1.55,1.55,0,0,0,1-.23,3.14,3.14,0,0,0,.6-.55,7,7,0,0,0,.9-1.19A4.89,4.89,0,0,0,87,91.45c.16-.72-1-.52-1.36-.4a2.14,2.14,0,0,0-1.27,1c-.1.18.29.21.37.21s.5,0,.6-.22a1.65,1.65,0,0,1,.4-.48l.23-.14.09,0,.09,0s0,0,0,0,.07,0,0,0-.08,0-.07.1a.74.74,0,0,1-.08.29,6,6,0,0,1-.27.63,6.66,6.66,0,0,1-.73,1.16c-.14.18-.29.35-.44.51l-.27.26-.12.1-.06,0a.65.65,0,0,1,.28,0l.27.14a16.73,16.73,0,0,1,.88-3c.1-.27-.87-.26-1,0Z"/><path d="M88.39,102.35a12.71,12.71,0,0,0,7,2.34c.21,0,.22-.15.1-.27a1,1,0,0,0-.67-.23,10.55,10.55,0,0,1-5.88-2,.87.87,0,0,0-.67-.16c-.2.09,0,.24.07.32Z"/><path d="M94.41,101.43a.44.44,0,0,0,.07.5.58.58,0,0,0,.27.19,1.11,1.11,0,0,0,.26.07.81.81,0,0,0,.22,0,.48.48,0,0,0,.17,0,.41.41,0,0,0,.2-.14.51.51,0,0,0,.12-.43.72.72,0,0,0-.39-.43,1.37,1.37,0,0,0-1-.13.54.54,0,0,0-.36.36.69.69,0,0,0,0,.49,1,1,0,0,0,.76.52,1,1,0,0,0,.57,0,.4.4,0,0,0,.23-.19.34.34,0,0,0,0-.24.42.42,0,0,0-.19-.28.94.94,0,0,0-.32-.15.89.89,0,0,0-.36,0c-.06,0-.17,0-.18.1s.05.13.11.17v0l-.06-.06,0,0,0-.06a.27.27,0,0,1,0,.12v-.06a.27.27,0,0,1,0,.18l0,0a.22.22,0,0,1-.1.09l.07,0-.08,0,.09,0h.11c-.09,0,.14,0,.07,0l.1,0s0,0,.07,0l0,0,.09,0a.1.1,0,0,1,0,0l.06.06A.31.31,0,0,1,95,102l0,.06a.48.48,0,0,1-.07-.24v.06a.58.58,0,0,1,.1-.38l0,0a.43.43,0,0,1,.12-.11l-.06,0,.1,0-.08,0h0c-.16,0-.12,0-.08,0l-.09,0-.07,0s-.13-.07-.08,0l0,0-.09-.06.06,0-.06-.06.06.08,0-.06a.44.44,0,0,1,0,.15v0a.37.37,0,0,1-.07.25l0,0a.41.41,0,0,1-.14.12l.06,0a.16.16,0,0,1-.09,0l.09,0h0l.74.24,0,0,0,.06a.49.49,0,0,1-.05-.16v0a.34.34,0,0,1,0-.2c0-.06-.07-.15-.1-.17a.82.82,0,0,0-.33-.15.84.84,0,0,0-.35,0l-.09,0a.11.11,0,0,0-.09.08Z"/><path d="M89.35,99.79a1,1,0,0,0-.51.18.77.77,0,0,0-.26.33c0,.06.1.14.13.16a1.35,1.35,0,0,0,.59.14,1.11,1.11,0,0,0,.44-.08.9.9,0,0,0,.33-.28.87.87,0,0,0,.11-.18.34.34,0,0,0,0-.26.32.32,0,0,0-.1-.13.89.89,0,0,0-.37-.17,1.29,1.29,0,0,0-.48,0,.88.88,0,0,0-.29.07.41.41,0,0,0-.22.34.78.78,0,0,0,.14.42,1,1,0,0,0,.36.36,1.41,1.41,0,0,0,.63.17.87.87,0,0,0,.45-.09c.14-.09.27-.26.17-.42a.42.42,0,0,0-.22-.15,1,1,0,0,0-.38-.07.61.61,0,0,0-.3.05c-.05,0-.11.08-.07.15s0,0,0,0v0a.23.23,0,0,1,0,.11l0,0a.28.28,0,0,1-.09.1l.06,0-.07,0,.08,0h0a.67.67,0,0,1,.2,0l.09,0,.07,0,.06,0,0,0,.08,0a.58.58,0,0,1-.14-.13l0,0a.87.87,0,0,1-.19-.37v0a.4.4,0,0,1,0-.24l0,0a.13.13,0,0,1,.06-.07l-.06,0,.07,0-.09,0s.09,0,0,0h0c-.15,0-.12,0-.08,0h-.2a.49.49,0,0,1-.17-.06h0l-.07,0,0,0,0,0,0,.06v-.05a.31.31,0,0,1,0,.13l0-.05a1.13,1.13,0,0,1-.3.38l0,0a.41.41,0,0,1-.11.07l.08,0h.11a1.46,1.46,0,0,1,.22,0l.09,0,.06,0,.13.16v0l0,0a.57.57,0,0,1,.19-.22l-.06,0a.71.71,0,0,1,.15-.08l-.09,0,.07,0h0a.42.42,0,0,0,.24-.09.11.11,0,0,0,0-.16.65.65,0,0,0-.28-.13,1.29,1.29,0,0,0-.39,0Z"/><path d="M102.72,97.18a1.7,1.7,0,0,0,.39,0,1.42,1.42,0,0,0,.35-.11.76.76,0,0,0,.19-.12.71.71,0,0,0,.15-.15c0-.06,0-.13-.06-.15a.64.64,0,0,0-.31-.07,1.51,1.51,0,0,0-.9.24,1.62,1.62,0,0,0-.19.18.66.66,0,0,0-.09.19v0l0,0,0,0a.37.37,0,0,0,.14,0,.63.63,0,0,0,.24,0,1.65,1.65,0,0,0,.31,0,2.09,2.09,0,0,0,.41-.17,1.66,1.66,0,0,0,.34-.25.09.09,0,0,0,0-.08.06.06,0,0,0,0-.07l-.1-.07-.14,0a1.7,1.7,0,0,0-.39,0l-.12,0a.56.56,0,0,0-.17.09,1.24,1.24,0,0,1-.22.18l.07,0-.2.1.1,0-.15,0,.75.17a.61.61,0,0,1,.13-.22l0,0a.69.69,0,0,1,.13-.11l-.07,0,.09,0-.1,0,.08,0-.11,0h.05l-.13,0h-.08s0,0,0,0l-.37-.22,0,0,0-.05-.11.09.07,0-.08,0,.1,0-.08,0,.12,0H103l-.2,0a.57.57,0,0,0-.18,0,.61.61,0,0,0-.14.07.18.18,0,0,0-.08.07l0,.06a.14.14,0,0,0,.08.09.78.78,0,0,0,.31.07Z"/><path d="M108.51,97.6a2.54,2.54,0,0,0,.8.37,1.13,1.13,0,0,0,.32,0,.53.53,0,0,0,.25,0,.18.18,0,0,0,.08-.09c0-.07-.08-.14-.12-.17a5,5,0,0,0-1.41-.69,1.27,1.27,0,0,0-.39,0c-.06,0-.2,0-.24.08s.21.28.3.31l.08,0h0l.15.06.14.06.08,0h0a6.53,6.53,0,0,1,.56.35l.53-.25-.08,0h0l-.14-.06,0,0,0,0-.07,0-.13-.09a.82.82,0,0,0-.34-.12.87.87,0,0,0-.36,0s-.16,0-.16.11.06.13.12.17Z"/><path d="M107.85,97.14a1.51,1.51,0,0,0,.15.28,2.62,2.62,0,0,0,.22.25,1.2,1.2,0,0,0,.5.29,1.16,1.16,0,0,0,.42.07.4.4,0,0,0,.15,0,.39.39,0,0,0,.2-.18.36.36,0,0,0,0-.21.37.37,0,0,0-.07-.2,1,1,0,0,0-.4-.28,1.43,1.43,0,0,0-.68-.13.7.7,0,0,0-.31.07.08.08,0,0,0-.08.05.08.08,0,0,0,0,.08.22.22,0,0,0,.07.09.31.31,0,0,0,.11.09,1,1,0,0,0,.36.14l.12,0a.67.67,0,0,0,.2,0,.43.43,0,0,1,.16,0h0l-.12,0h.06l-.13,0,0,0-.12,0,0,0-.11-.06,0,0-.09-.06,0,0-.06-.06a.1.1,0,0,1,0,0l0-.06a.21.21,0,0,1,0,.12v-.06a.33.33,0,0,1-.06.19l0,0a.27.27,0,0,1-.08.07l.06,0h.1l.12,0h0l.13,0h0l.12,0h0l.11,0,0,0,.09.06-.12-.1.07.06a1.18,1.18,0,0,1-.22-.28l0,.06-.06-.11a.37.37,0,0,0-.18-.19,1.42,1.42,0,0,0-.36-.14h-.12a.4.4,0,0,0-.19,0s-.13.06-.1.13Z"/><path d="M104.85,99.14a6.09,6.09,0,0,0-.82,2.26c-.11.66-.18,1.75.64,2a1.44,1.44,0,0,0,1.35-.28,2.52,2.52,0,0,0,.49-1.09c.14-.43.27-.86.41-1.29a2.26,2.26,0,0,0,.13-1.28.91.91,0,0,0-1-.62,1.32,1.32,0,0,0-1.07.72c-.1.17.28.21.37.22s.5,0,.6-.19.2-.25.3-.38,0-.08-.35,0c0,0,0,0,.05.05a1.53,1.53,0,0,1,.14.21,1.82,1.82,0,0,1-.07,1.15l-.39,1.25a3,3,0,0,1-.42,1.07s-.11.08-.15.13c.32,0,.4,0,.26,0l-.07-.08a1.05,1.05,0,0,1-.21-.5,3.75,3.75,0,0,1,0-1.11,5.94,5.94,0,0,1,.8-2.16c.11-.17-.28-.22-.36-.22s-.5,0-.61.19Z"/><path d="M104.79,115.2l.1,0s.09,0,0,0,0,0,0,0,.14,0,0,0,0,0,0,0h0s0,0,0,0h0c.07,0,0,0,0,0l.11,0h0c-.07,0,0,0,0,0l.07-.32-.3.1h0l.07,0-.09,0a.45.45,0,0,1-.16,0l-.07,0c-.1,0,.12,0,0,0l-.17,0s-.23,0,0,0h-.18l-.24.4h.78a1.2,1.2,0,0,0,.38,0c.06,0,.2-.07.22-.13s-.26-.23-.36-.22h-.78a1.2,1.2,0,0,0-.38,0c-.06,0-.19.06-.22.13s.26.22.36.22a4.61,4.61,0,0,0,1.73-.26c.08,0,.21-.07.23-.17s-.08-.13-.15-.15a2.57,2.57,0,0,0-1.53.05c-.07,0-.19.06-.22.13s0,.12.06.15a.63.63,0,0,0,.3.07.82.82,0,0,0,.38,0Z"/><path d="M104.44,115.14a2,2,0,0,0,.55.11,2.27,2.27,0,0,0,.52,0c.06,0,.16,0,.17-.11s-.07-.14-.12-.17a1,1,0,0,0-.33-.12,1.09,1.09,0,0,0-.36,0h0l-.12,0,.13,0-.12,0-.19,0h-.19a.4.4,0,0,0-.15,0,.24.24,0,0,0-.1,0l0,0a.13.13,0,0,0,0,.11.67.67,0,0,0,.28.14Z"/><path d="M61.62,102.9l.05-.07,0,0a.83.83,0,0,1,.28-.21l-.07,0a.83.83,0,0,1,.21-.06h0c.07,0-.14,0-.08,0h0l-.31-.43a3.39,3.39,0,0,0-1,.36l0,0s0,.07,0,.09a.49.49,0,0,0,.16.16,1,1,0,0,0,.27.13,1,1,0,0,0,.34.07.4.4,0,0,0,.3-.07c.14-.14-.14-.31-.24-.35a1.07,1.07,0,0,0-.37-.12H61a.28.28,0,0,0-.15,0l0,0,.07,0H61c.4.19.54.24.41.15l.13.29.25-.12-.06,0a2.83,2.83,0,0,1,.7-.21c.11,0,.12-.11.07-.19a.85.85,0,0,0-.38-.24,1.14,1.14,0,0,0-1.43.31c0,.06.06.15.09.18a.87.87,0,0,0,.31.18.83.83,0,0,0,.35.06.2.2,0,0,0,.19-.08Z"/><path d="M67,102.38a4,4,0,0,0,1.13.24l-.23-.39s-.19,0,0,0h0c.11,0,0,0,0,0h0l.07,0a1,1,0,0,0-.38-.05.67.67,0,0,0-.31.07s-.1.08-.06.15a.44.44,0,0,0,.22.14,2.3,2.3,0,0,0,1,0,.39.39,0,0,0,.21-.08.1.1,0,0,0,0-.13.45.45,0,0,0-.13-.1,1.05,1.05,0,0,0-.35-.08H68l-.22,0h0l.07,0,0,0-.1,0-.21-.08a1,1,0,0,0-.38,0,.57.57,0,0,0-.31.07s-.1.08-.06.15a.5.5,0,0,0,.22.13Z"/><path d="M62.63,104.44a13.1,13.1,0,0,0,.94,2.21q.28.52.6,1a1.94,1.94,0,0,0,.35.45,1,1,0,0,0,.83.14.48.48,0,0,0,.37-.29,4.4,4.4,0,0,0,.18-.62c.1-.4.17-.81.23-1.22s.09-.83.12-1.25a1.4,1.4,0,0,0,0-.5.5.5,0,0,0-.42-.34,4.44,4.44,0,0,0-1.5,0,7.59,7.59,0,0,0-1.49.31c-.19,0-.17.21,0,.28a1.08,1.08,0,0,0,.71,0,5.5,5.5,0,0,1,1-.2l.44,0h.29s.2,0,.12,0l-.17-.08c.1.07.06.23,0,.34s0,.34,0,.51c0,.33-.06.66-.11,1s-.1.66-.17,1c0,.17-.08.33-.13.49a.72.72,0,0,1-.16.39l.13-.08,0,0,.35-.06h0l.35.06c-.05,0-.1-.13-.12-.17a1.88,1.88,0,0,1-.16-.23c-.09-.13-.17-.27-.26-.41-.17-.29-.33-.58-.49-.88a14.81,14.81,0,0,1-.77-1.9c0-.07-.18-.12-.23-.13a1.26,1.26,0,0,0-.39,0c-.13,0-.41.06-.35.24Z"/><path d="M47.71,96a2.11,2.11,0,0,0,.36.09,1.7,1.7,0,0,0,.45,0,1.75,1.75,0,0,0,.7-.23.23.23,0,0,0,.11-.11.08.08,0,0,0,0-.1,1,1,0,0,0-.58-.21,1.61,1.61,0,0,0-.93.2s-.14.09-.12.16a.34.34,0,0,0,.09.14L48,96a1.4,1.4,0,0,0,.6.12,1.24,1.24,0,0,0,.57-.15.52.52,0,0,0,.2-.19.36.36,0,0,0,0-.1.06.06,0,0,0,0-.06.29.29,0,0,0-.14-.15.61.61,0,0,0-.18-.05,1,1,0,0,0-.34,0,1,1,0,0,0-.37.12.37.37,0,0,0-.15.13c0,.06,0,.12.08.15a.61.61,0,0,0,.3,0,1,1,0,0,0,.38-.07.54.54,0,0,0,.21-.15h0l0,0h0l-.07.05h0l-.1,0h0l-.12,0h0l-.13,0h-.3l-.08,0,0,0-.06,0a.1.1,0,0,1,0,0l0,0a.06.06,0,0,1,0,.07v-.05a.09.09,0,0,1,0,.06l.05-.06-.05.05.08-.06,0,0,.1,0h0l.11,0h0l.13,0h.26a.23.23,0,0,1-.11,0l.09,0a.78.78,0,0,1-.21-.09l.06,0a.18.18,0,0,1-.07-.08l0,0v0l-.12.16a.09.09,0,0,1,0,0l-.09,0,.07,0-.12,0,.06,0-.13,0h0l-.1,0a.38.38,0,0,1,.1,0l-.08,0a.37.37,0,0,1,.14.07l0,0,0,0,.1-.21-.09,0,.09,0-.1,0,.12,0-.09,0,.13,0-.09,0,.14,0h-.1l.11,0-.13,0,.08,0h0a.65.65,0,0,0-.31-.05,1,1,0,0,0-.38.07l-.09,0a.29.29,0,0,0-.12.1v.06a.16.16,0,0,0,.09.09Z"/><path d="M52.88,97.34a3.74,3.74,0,0,0,1,1.17.58.58,0,0,0,.23.09,1.16,1.16,0,0,0,.32,0l.23,0c.05,0,.14-.06.15-.13a.78.78,0,0,0-.36-.73.77.77,0,0,0-.3-.11,1,1,0,0,0-.38,0c-.08,0-.2,0-.24.11a.11.11,0,0,0,0,.15.69.69,0,0,1,.13.11l-.05,0a.74.74,0,0,1,.16.27l0,0a.65.65,0,0,1,0,.24l.94-.05a3.7,3.7,0,0,1-.42-.37l.05,0a3.08,3.08,0,0,1-.53-.75.41.41,0,0,0-.23-.13,1.2,1.2,0,0,0-.38,0,.61.61,0,0,0-.3.08s-.1.08-.06.15Z"/><path d="M48.7,97.25l-.17,1.19a10.2,10.2,0,0,0-.14,1.11,1.19,1.19,0,0,0,.31.94,1.08,1.08,0,0,0,1.29.16,3.82,3.82,0,0,0,.67-.72,6.56,6.56,0,0,1,.73-.76,4.16,4.16,0,0,1,.39-.32,2.71,2.71,0,0,0,.39-.3c.3-.37-.24-.65-.54-.75A9.92,9.92,0,0,0,49,97.38c-.12,0-.38,0-.25.21a.93.93,0,0,0,.64.26,9.76,9.76,0,0,1,1.77.23,1.69,1.69,0,0,1,.35.1l-.15-.08c-.11,0,0,0,0,0s0,.09-.06.12c-.2.19-.45.33-.65.5a10.52,10.52,0,0,0-1.11,1.2,3.57,3.57,0,0,1-.28.27l-.14.11h0c-.16.1,0,.14.45.15l0,0a2.19,2.19,0,0,1-.1-.34,2.06,2.06,0,0,1,0-.43c.07-.7.2-1.41.3-2.11,0-.3-.92-.53-1-.28Z"/><path d="M55.12,87.42a1.92,1.92,0,0,0,1-.06,1.6,1.6,0,0,0,.68-.39c.08-.08.06-.15,0-.2a1.23,1.23,0,0,0-.42-.1,1.82,1.82,0,0,0-.61.07,1.12,1.12,0,0,0-.68.48v.06s0,.06,0,.07a.46.46,0,0,0,.22.06,1.82,1.82,0,0,0,1.59-.7c0-.06,0-.13-.07-.14a1.43,1.43,0,0,0-.74-.06,1.41,1.41,0,0,0-.63.23.9.9,0,0,0-.18.16c-.06.06-.13.14-.09.23a.29.29,0,0,0,.18.18,1.06,1.06,0,0,0,.68,0,.62.62,0,0,0,.28-.14s.08-.11,0-.16a.35.35,0,0,0-.24-.08,1,1,0,0,0-.38,0,.85.85,0,0,1,.32,0c.08,0,.11,0,.07,0l.08,0,0,0,.06,0s0,0-.06-.06l0,0a.08.08,0,0,1,0,0v0l0,0,0,.06a.68.68,0,0,1,.12-.12l-.07,0,.05,0,0,0-.06,0,0,0-.08,0h0l-.09,0h0s-.16,0-.08,0H56l.07,0-.09,0h0l-.07-.14,0,0,0,0a1,1,0,0,1-.2.2l.07,0a.57.57,0,0,1-.13.08l0,0h0l0,0h0s0,0,.08,0l-.07,0c-.07,0,.15,0,.07,0h0s-.08,0,0,0,0,0,0,0h0l.27.19,0-.08,0,.06a.57.57,0,0,1,.11-.11l-.07,0,.06,0h0c-.12.07-.09,0,0,0h0l-.07,0h0l-.09,0h-.13l.07,0-.09,0,.09,0,0-.2-.11.09.07-.05-.07.05,0,0,0,0,.07,0-.08,0c-.06,0,.13,0,.06,0l-.05,0,.08,0h0s-.08,0,0,0,0,0,0,0h0s.12,0,0,0a1.09,1.09,0,0,0-.36,0,.87.87,0,0,0-.34.12s-.14.09-.12.16.11.1.17.11Z"/><path d="M60.25,88.06a1.89,1.89,0,0,0,.36.48,2.07,2.07,0,0,0,.52.33.81.81,0,0,0,.51,0,.9.9,0,0,0,.23-.08c.05,0,.14-.07.16-.13a.38.38,0,0,0-.13-.42.74.74,0,0,0-.28-.14,1.34,1.34,0,0,0-.74.09.42.42,0,0,0-.21.16.11.11,0,0,0,.08.14.65.65,0,0,0,.31,0,1.18,1.18,0,0,0,.37-.09s-.13,0-.08,0l-.11,0h-.05a.41.41,0,0,1-.11,0h0l-.11,0h0l-.08,0,.08,0-.06,0a.25.25,0,0,1,.11.12l0-.05a.25.25,0,0,1,0,.17v-.06s0,0,0,0l.89-.21a.94.94,0,0,1-.26-.14l.06,0a1.51,1.51,0,0,1-.54-.58l0,0h0s0,0,0-.07a.21.21,0,0,0-.11,0,.87.87,0,0,0-.36,0,.82.82,0,0,0-.34.12l-.07,0a.13.13,0,0,0,0,.12Z"/><path d="M56.79,88.61A23.3,23.3,0,0,0,56.46,91c0,.37-.05.75-.07,1.12,0,.16,0,.32.14.42a.87.87,0,0,0,.61.11,1.28,1.28,0,0,0,.92-.61,8.92,8.92,0,0,0,.54-.82,9.39,9.39,0,0,0,.84-1.92.11.11,0,0,0-.06-.14,4.81,4.81,0,0,0-1.32-.41.9.9,0,0,0-.68.13c-.16.15.08.24.21.26a3.53,3.53,0,0,1,.94.29l-.06-.15a8.63,8.63,0,0,1-.68,1.63,6.73,6.73,0,0,1-.44.73l-.22.33c-.08.11-.19.21-.27.32s0,.07.26,0,.31,0,.27-.08a1.62,1.62,0,0,0,0-.22c0-.16,0-.32,0-.48,0-.32.05-.65.08-1q.1-1,.3-2c0-.22-.94-.23-1,.09Z"/><path d="M68.94,81.55a3.08,3.08,0,0,0,.53.08.81.81,0,0,0,.51-.07.2.2,0,0,0,.09-.18.36.36,0,0,0-.15-.23,1.76,1.76,0,0,0-.62-.29l-.43-.14a2.8,2.8,0,0,0-.31-.09.69.69,0,0,0-.49,0c-.15.07-.11.25,0,.37a1,1,0,0,0,.34.26,2.24,2.24,0,0,0,.39.14.79.79,0,0,0,.43,0c.06,0,.11,0,.13-.1a.2.2,0,0,0,0-.15.61.61,0,0,0-.17-.15,1,1,0,0,0-.38-.16.58.58,0,0,0-.39,0s0,.07,0,.13.14.16.18.19a1.09,1.09,0,0,0,.35.15.58.58,0,0,0,.32,0l.06,0a.09.09,0,0,0,0-.1h0v0h0l0,0h0l-.06,0h-.07l-.23,0c-.4-.31-.55-.4-.45-.24l0-.06h0v0s0,0,0,0l0,0,0,0,.07,0s0,0,0,0h.11l.08,0h0a.38.38,0,0,1,.17.08l0,0h0s0,0,0,0l0,.06a.24.24,0,0,1,0-.08v.06a.24.24,0,0,1,0-.08l0,0a.1.1,0,0,1,0,0l-.07,0a.45.45,0,0,1-.2,0l-.07,0h0l.13,0,.26.08.25.08.11,0s0,0-.08,0a.26.26,0,0,1-.11-.07s0,0-.07-.06,0,0,0,0l0-.06a.07.07,0,0,1,0,.05v-.06a.14.14,0,0,1,0,.06l0-.05-.06.05.06,0,0,0c-.06,0,.09,0,0,0H69c.07,0,.08,0,0,0h0l-.16,0h0l-.08,0a.65.65,0,0,0-.31,0,.11.11,0,0,0-.1.13.39.39,0,0,0,.17.19,1.44,1.44,0,0,0,.36.15Z"/><path d="M73.72,83.24a.76.76,0,0,0,.16.26.79.79,0,0,0,.56.23,1.58,1.58,0,0,0,.48-.06.91.91,0,0,0,.26-.13.35.35,0,0,0,.11-.13.21.21,0,0,0,0-.19.84.84,0,0,0-.25-.28c-.11-.1-.21-.21-.33-.3a.78.78,0,0,0-.2-.11,1.09,1.09,0,0,0-.26,0,1.18,1.18,0,0,0-.42.05.58.58,0,0,0-.21.1s-.07.06-.08.1a.35.35,0,0,0,0,.2.65.65,0,0,0,.18.31,1,1,0,0,0,.5.24,1.21,1.21,0,0,0,.38,0,.48.48,0,0,0,.17,0,.23.23,0,0,0,.12-.06s.09-.1,0-.16a.37.37,0,0,0-.23-.1h0l.11,0-.09,0,.08,0-.12-.07.06,0a.48.48,0,0,1-.15-.2l0,0a.34.34,0,0,1,0-.22v.06a.05.05,0,0,1,0,0l0,0s0,0,0,0l-.07,0h0l-.1,0a1.14,1.14,0,0,1-.45,0h0l-.1,0h0l-.08,0a.24.24,0,0,1,.09.06l0-.05a3.45,3.45,0,0,1,.28.26,1.59,1.59,0,0,1,.13.13.38.38,0,0,1,.1.12l0,0a.16.16,0,0,1,0,.1v-.06s0,.05,0,.08l0-.06,0,0,.07,0,0,0,.1,0h0l.09,0h.22s0,0,0,0,.07,0,0,0h0l.1,0h0l.08,0-.08,0,.06,0a.9.9,0,0,1-.21-.3.15.15,0,0,0-.09-.06.37.37,0,0,0-.15,0,1.21,1.21,0,0,0-.38,0,.58.58,0,0,0-.29.12l-.05,0a.08.08,0,0,0,0,.1Z"/><path d="M69.64,83.55a10.72,10.72,0,0,0-.55,2.07.58.58,0,0,0,0,.45.92.92,0,0,0,.46.31,2.2,2.2,0,0,0,1.27.07,3.31,3.31,0,0,0,1.57-1.12,3.16,3.16,0,0,0,.55-.8.5.5,0,0,0,0-.36c0-.18-.25-.27-.41-.33-.41-.15-.84-.24-1.26-.36l-1.21-.35c-.16,0-.51-.1-.63.05s.23.27.31.3l1.77.5.44.13c.23.06,0,0,0,0s0,.11,0,.12a1.43,1.43,0,0,1-.37.67,6,6,0,0,1-.54.59,4,4,0,0,1-.6.48,1.85,1.85,0,0,1-.29.13l-.09,0s0,0,0,0h0c-.07,0,0,0,0,0s-.06,0,0,0h0s0,0,0,0a.41.41,0,0,1,0-.19c0-.08,0-.17,0-.25a10,10,0,0,1,.53-1.93c.08-.22-.88-.44-1-.14Z"/><path d="M42.42,104.66l.24,0,.17-.38-.27,0h-.25l-.19,0a.14.14,0,0,0-.07.1.14.14,0,0,0,.06.11l.19.15a.34.34,0,0,0,.12.06.37.37,0,0,0,.17,0,.69.69,0,0,0,.2,0H43l.1,0a.21.21,0,0,0,.13-.07l0,0a.13.13,0,0,0-.06-.11l-.2-.15-.45.26.26,0a.67.67,0,0,0,.2,0,.45.45,0,0,0,.16,0l.08,0a.12.12,0,0,0,.07-.07,0,0,0,0,0,0,0,.09.09,0,0,0,0-.08l-.08,0-.21-.07-.25,0-.19,0h-.19l-.15,0a.24.24,0,0,0-.09.06l0,.05a.13.13,0,0,0,.06.11l.07,0,.22.07Z"/><path d="M45.91,106.11l.29.24a.34.34,0,0,0,.12.06.58.58,0,0,0,.17.06l.2,0h.18l.11,0a.29.29,0,0,0,.13-.08l0,0a.15.15,0,0,0-.06-.11l-.3-.24a.27.27,0,0,0-.12-.06.49.49,0,0,0-.17-.06l-.19,0h-.19l-.11,0a.35.35,0,0,0-.13.08l0,0a.13.13,0,0,0,.06.11Z"/><path d="M42.16,106.09a16,16,0,0,0-.45,3.08c0,.25.53.34.7.33a1.42,1.42,0,0,0,.66-.21,3.1,3.1,0,0,0,.46-.35L44.6,108c.14-.12.39-.26.44-.45s-.25-.37-.41-.45l-1.26-.59a.9.9,0,0,0-.68-.07c-.21.09,0,.25.11.3l1,.48c.09,0,.18.1.27.13l0,0c0-.08-.08-.1-.08-.05s-.06.1-.05.09-.29.24-.42.36l-.87.74c-.13.11-.26.23-.4.33a.77.77,0,0,1-.33.18l.7.33a16,16,0,0,1,.45-3.08c0-.17-.34-.28-.45-.3s-.48-.09-.53.09Z"/><path d="M46.92,108.74a1.58,1.58,0,0,0-1.52,1.4c0,.07.08.13.13.16a1,1,0,0,0,.34.09.87.87,0,0,0,.36,0c.06,0,.16,0,.16-.13a1.31,1.31,0,0,1,.12-.47l0,0a1.37,1.37,0,0,1,.43-.52l-.05,0a.71.71,0,0,1,.14-.1l.08,0,0,0s.06,0,0,0,0,0,0,0h0l.08,0h.1a.36.36,0,0,0,.24-.09.11.11,0,0,0,0-.16,1,1,0,0,0-.67-.15Z"/><path d="M101.94,118.83a5.63,5.63,0,0,0,2.42-.79.12.12,0,0,0,0-.16.43.43,0,0,0-.24-.1,1,1,0,0,0-.68.11h0l-.06,0-.09,0-.22.11-.23.1h0l-.05,0-.12,0-.23.07-.11,0s0,0,0,0l-.07,0-.25,0s-.07,0-.1,0,.08,0,0,0h-.07a.82.82,0,0,0-.35.08s-.15.07-.14.15.41.17.51.17Z"/><path d="M38.86,111.07a15.55,15.55,0,0,1-.55,2.94c-.07.23.9.37,1,.07a15.67,15.67,0,0,0,.56-3c0-.18-.38-.23-.49-.23s-.5,0-.51.17Z"/><path d="M132.58,84.29a14.47,14.47,0,0,0-.72,3.32c0,.25.95.24,1-.06l.49-3.18-1,.06a5.83,5.83,0,0,1-.76,2.32h1l.1-.71c0-.28-.83-.16-.94,0a2,2,0,0,0-.43,2.19c0,.12.39.12.49.11s.38,0,.47-.18a4.2,4.2,0,0,0,.71-2l-1,.12a2.54,2.54,0,0,0,.67.92.64.64,0,0,0,.49.12c.12,0,.42,0,.47-.18a3.56,3.56,0,0,0,.17-1.83l-1,.12,1.34,1.35a.72.72,0,0,0,.56.11c.09,0,.45-.07.42-.23a2.66,2.66,0,0,0-.8-1.44.66.66,0,0,0-.55-.1c-.07,0-.48.08-.42.22l.36.94c.1.26,1,.24,1-.07a1.56,1.56,0,0,0-.56-1.2l-.9.21a15.71,15.71,0,0,1,3.24,3.47c.15.21,1.1.12,1-.17l-.77-1.58-.95.17,1.16,1.72,1-.16A4.62,4.62,0,0,0,135,86.77c-.91-.08-2.17.22-2.48,1.21-.1.29.88.3,1,0a1.16,1.16,0,0,1,1.33-.83,4.52,4.52,0,0,1,2.07,1.55c.17.19,1.13.09,1-.16l-1.16-1.73c-.14-.21-1.09-.12-.95.17l.76,1.58,1-.17a16.4,16.4,0,0,0-3.35-3.56.86.86,0,0,0-.63,0c-.06,0-.42.13-.28.25a1.4,1.4,0,0,1,.52,1.11l1-.07-.36-.93-1,.11a2.4,2.4,0,0,1,.75,1.34l1-.12-1.34-1.35a.7.7,0,0,0-.56-.11c-.09,0-.45.07-.42.22a3.39,3.39,0,0,1-.14,1.73l1-.07A2.66,2.66,0,0,1,133,86c-.1-.23-.95-.15-1,.12a4,4,0,0,1-.68,1.92l1-.06a1.76,1.76,0,0,1,.35-1.87l-.94,0-.09.71c0,.28.87.17,1,0a6.06,6.06,0,0,0,.79-2.42c0-.25-.95-.24-1,.06l-.49,3.18,1-.06a13.71,13.71,0,0,1,.69-3.22c.1-.29-.88-.3-1,0Z"/><path d="M131.52,88.1a1.57,1.57,0,0,0,0,.91c.05.22.91.5.95.23l.25-1.45-1-.28a2.12,2.12,0,0,0,.42,1.26c.11.16.72.42.89.22a5,5,0,0,0,1.09-2.29l-1-.23a7.3,7.3,0,0,0,.21,1.31c.07.27.71.4.92.27a.87.87,0,0,0,.44-.67l-.95-.23.18,1.12c.05.27.74.41.93.27a1.07,1.07,0,0,0,.43-1c0-.27-1-.49-1-.17l.06.72c0,.29.74.38.93.27a.61.61,0,0,0,.33-.43l-.95-.23a7.44,7.44,0,0,0,.46,1.3.8.8,0,0,0,.92.27,1.16,1.16,0,0,0,.54-.69l-1-.28-.06.65c0,.29.9.55,1,.28a1.22,1.22,0,0,0-.52-1.29c-.17-.12-.64-.33-.83-.15a.58.58,0,0,0-.06.81c.11.17.72.41.89.21a.83.83,0,0,0,.23-.54l-.92-.17A12.92,12.92,0,0,0,138.85,91c.15.09.66.28.77.05.34-.71-.4-1.66-1-2-.27-.14-.79-.3-1.07-.07s-.1.54.16.67l.35-.29c-2.06-.59-4.64-.88-6.29.81l.93.33c0-.31.07-.63.11-.94,0-.15,0-.33.17-.41s.26,0,.36,0a6.7,6.7,0,0,1,1.74.57,4.85,4.85,0,0,0,3.46.38c.2-.08,0-.25-.09-.32a7.06,7.06,0,0,0-5.41-.67l.83.41a3.34,3.34,0,0,0,1-1.44c.08-.26-.87-.56-1-.28a3,3,0,0,1-.91,1.34c-.14.12.13.27.21.31a.9.9,0,0,0,.62.1,5.2,5.2,0,0,1,4,.42l-.09-.31c-1.29.49-2.56-.42-3.77-.77a3.49,3.49,0,0,0-1.75-.19.46.46,0,0,0-.38.45c-.06.35-.08.71-.13,1.07s.76.5.93.32c1.41-1.44,3.48-1.31,5.28-.79.11,0,.41.11.5,0s-.06-.23-.15-.28c.1.05.05,0,.1,0s.05-.12-.11-.1-.2,0-.11,0,.25.29.33.41a1,1,0,0,1,.16,1l.77,0a12,12,0,0,1-3.15-2.7c-.09-.11-.91-.46-.92-.16a.68.68,0,0,1-.17.45l.89.21a.38.38,0,0,1,.07-.49l-.82-.15a.87.87,0,0,1,.32.94l1,.28.06-.65c0-.28-.87-.56-1-.28a1,1,0,0,1-.47.59l.92.28a8.35,8.35,0,0,1-.46-1.3c-.06-.21-.88-.5-1-.22a.45.45,0,0,1-.27.34l.93.27-.06-.72-1-.17a.87.87,0,0,1-.37.84l.93.27-.19-1.12c0-.23-.92-.49-1-.23a.69.69,0,0,1-.37.58l.92.28a6.38,6.38,0,0,1-.2-1.31c0-.24-.91-.48-1-.23a4.62,4.62,0,0,1-1,2.2l.89.21a1.86,1.86,0,0,1-.34-1c0-.28-.92-.55-1-.28L131.49,89l1,.22a1.42,1.42,0,0,1,0-.79c.08-.27-.87-.56-.95-.29Z"/><path d="M133.78,88.23l-.31,1.17c-.05.18.28.19.38.18a13.57,13.57,0,0,1,2.92,0l.45-.42-2.79-.28-.32,0c-.05,0-.14,0-.18,0s0-.17,0-.23l0-.36.1-1.42c0-.23-1-.16-1,.16l-.11,1.57c0,.19-.06.41.1.55a1.16,1.16,0,0,0,.68.18l3.07.31a.88.88,0,0,0,.67-.18c.15-.17-.1-.23-.22-.24a14.61,14.61,0,0,0-3.17,0l.39.18.31-1.16c.08-.3-.9-.22-1,0Z"/><path d="M133.53,86.07l.72.51a.94.94,0,0,0,.32.15,1.08,1.08,0,0,0,.36,0s.16,0,.18-.1a.21.21,0,0,0-.11-.18l-.71-.5a1.2,1.2,0,0,0-.32-.16.89.89,0,0,0-.36,0c-.05,0-.16,0-.18.1s0,.13.1.17Z"/><path d="M121.16,116.37c0-1.32.08-2.64.16-4,0-.55.15-1.12.17-1.67a7,7,0,0,0-.5-2.2c-.2-.63-.42-1.26-.65-1.87l-1-.2a15.67,15.67,0,0,1,1.44,5.75c0,.24.92.5,1,.25a6.25,6.25,0,0,0-.16-2.47,6.73,6.73,0,0,0-.46-1.15,1.36,1.36,0,0,1-.17-1.23l-.92-.19c2.19,2.45,5.59,2.84,8.67,3.36.12,0,.41.07.4-.13s-.42-.3-.54-.32a6.48,6.48,0,0,0-6,2c-.2.24.7.61.89.4a5.78,5.78,0,0,1,5.3-2l-.14-.45c-1.41-.24-2.83-.5-4.22-.84a6.5,6.5,0,0,1-3.42-2c-.14-.15-.78-.48-.92-.19-.35.72.3,1.5.53,2.17a5.82,5.82,0,0,1,.26,2.68l1,.26a15.67,15.67,0,0,0-1.44-5.75c-.12-.25-1-.45-1-.2a15.82,15.82,0,0,1,1.13,3.8,9.68,9.68,0,0,1-.13,1.6c-.06.83-.09,1.67-.13,2.51,0,.56,0,1.11-.05,1.67,0,.32.94.53,1,.31Z"/><path d="M124.35,108.68c1.42.22,6.07.8,6.25,1s1.3.07,1.3.07l-10.41,6-1-8.21,3.84,1.21"/><path d="M39.57,111.92a3.4,3.4,0,0,0,1.7,1.78,46.44,46.44,0,0,0,4.84,1.08l1.64-.8a12.46,12.46,0,0,1,2-2.53,18,18,0,0,0,2.14-1.91l1.7-1.65.47,1.19A13.41,13.41,0,0,1,53,110.56c-.39.4-1.35,1.51-1.89,1.56a2.58,2.58,0,0,0-1.14.54l-1.53,1.81s-1.19-.38,0,.46a3.36,3.36,0,0,0,2.26.68l-2.44,2.19s2,2.68,2.14,3.17a19.22,19.22,0,0,0,2.2,2.45s3.59,1,4,1.07,4.06,1,4.32,1.06a12.66,12.66,0,0,0,3.07-.71c.44-.26,2.94-2.38,2.94-2.38l.19-.82,2.2,1.59a36.06,36.06,0,0,0,3.41,1.38c.76.18,3.13.22,3.69.37a42.83,42.83,0,0,0,4.48,0,18.51,18.51,0,0,1,2.56-2c.25,0,.81-1,1-1a13,13,0,0,1,1.85.81,63.18,63.18,0,0,0,6.53,1.27S69.91,127.55,63,126.48s-18.38-3-21.71-7.5S39.57,111.92,39.57,111.92Z"/><path d="M184.12,140.66c-3.58.24-6.3,2.74-9.14,4.64a14.34,14.34,0,0,1-5.38,2.32,54.31,54.31,0,0,1-6.75.5,24.88,24.88,0,0,0-10.32,3.08,96.73,96.73,0,0,0-9.23,6,45,45,0,0,1-10.84,6c-.35.12.5.56.75.47,6.91-2.39,12.34-7.46,18.53-11.15a25.89,25.89,0,0,1,10.12-3.8c4.17-.51,8.45.06,12.28-2,3.46-1.87,6.42-5.32,10.55-5.6.52,0-.32-.51-.57-.5Z"/><path d="M24.93,176.27a24.66,24.66,0,0,1,6.25-.05,19.25,19.25,0,0,0,5.75-.69c1.92-.52,3.82-1.11,5.79-1.49a59.87,59.87,0,0,1,6.28-.8c2.39-.18,4.78-.26,7.17-.34.59,0,.59-.42,0-.4a97.71,97.71,0,0,0-12.67,1,52.83,52.83,0,0,0-6,1.41,19.47,19.47,0,0,1-6.29.94,26.83,26.83,0,0,0-6.82.11c-.18,0-.29.13-.18.28s.54.09.69.06Z"/><path d="M37.58,194.91c6-5.48,14.93-4.58,22.41-5.56a34.82,34.82,0,0,0,6-1.29c2.3-.73,4.51-1.7,6.72-2.65a82.49,82.49,0,0,1,14.12-4.57c5.39-1.24,10.86-2.06,16.32-2.87.18,0,.3-.11.2-.27s-.53-.13-.68-.11c-9.85,1.48-19.8,3-29.06,6.83-2.26.94-4.49,2-6.79,2.8a32.73,32.73,0,0,1-6.46,1.64c-4,.6-8.1.65-12.13,1.19-4.21.57-8.39,1.77-11.59,4.71-.16.14.73.36,1,.15Z"/><path d="M149.84,13.64s2.42,1.43,2.68,2.26S161.19,17,161.19,17s17.85-2.91,29.23,7c0,0,7.73,3.7,7.29,4.82s-6.62,21.51-6.62,21.51-1.9,8.93-4.82,9-12.48-1.07-17.77-3.07c-12.49-4.73-17.58-6.08-17.58-6.08s-7.95-2.28-9.25.15c0,0-3.42.79-2.86-1.1s1.62-2,1.62-2L140,45.73Z"/><path class="cls-3" d="M165,27.31l-2.33-3.26s1.66-3.43.33-3.37-2.24.44-2.48,1.13-2.83-.44-2.85.94.14,2.07,1.07,2.48,2.09,1,2.2,1.52a10.06,10.06,0,0,0,1.45,2.14s.93,7.65,3,9.82l-9.31,4s-2.29-1.41-2.75-.16-.42,1.91,1,2.59a2.88,2.88,0,0,0,.46,2.11,1.37,1.37,0,0,0,1.72.4,6.27,6.27,0,0,0,.61-1.36l4.55-2.19s-.74,4.36,3.17,6.35a10.13,10.13,0,0,0,7.55.64s2.61-2.43,2.73-3.2,2.27,3.25,2.27,3.25-.86,3,1.13,2.87,1.3-2,1.3-2,2.95.52,3.12-.57-.2-1.68-1.13-1.69a4.93,4.93,0,0,1-1.78-.41s-5.08-7.18-4.83-7.14,5-1.92,5.91-3.7.9-3.22,1.43-3.66a43.11,43.11,0,0,1,5.1-2.77c.2,0,2.94,1,3-.92s-2.31-1.21-2.31-1.21.57-2.42-.63-2.34A1.72,1.72,0,0,0,186.21,29c-.11.31-4.48,2.14-4.48,2.14S176.28,21.22,165,27.31Z"/><path class="cls-3" d="M152.11,18.34s-1.06-.76-2.66,4.43-6.37,23.33-6.37,23.33.69,1.29,1.17.78,1.17-2.49,3.05-7c.48-1.14,4.91-17.72,4.91-19S152.11,18.34,152.11,18.34Z"/><path class="cls-4" d="M162,42.26a16.48,16.48,0,0,0,13.54,4.47l.05-4.54s-7.49-.57-10.42-3.39Z"/><path class="cls-4" d="M173.16,42.28c0,.2-.29,4.44-.29,4.44"/><line class="cls-4" x1="169.75" y1="41.29" x2="168.48" y2="45.71"/><line class="cls-4" x1="167.01" y1="40.28" x2="163.93" y2="44.02"/><path class="cls-4" d="M163.55,40.53s3,3.7,12.11,4.31"/><circle cx="167.76" cy="36.24" r="1.98"/><circle cx="175.63" cy="39.03" r="1.98"/><ellipse cx="170.86" cy="39.34" rx="0.65" ry="0.94" transform="translate(105.9 202.19) rotate(-81.22)"/><path class="cls-3" d="M164.08,29S166.7,22.7,176,25.52,182.17,36,182.17,36s2.21,1,1.54,1.95-2,.61-3.06.19-19.9-7.69-19.9-7.69-.24-1.42.55-1.43S162.47,28.31,164.08,29Z"/><path d="M163.15,29l20,8a16,16,0,0,1-.57-1.86c0-.33-7.81-4.9-17.6-7.2C165,28,163.74,27.32,163.15,29Z"/><path d="M123.49,102.64a11.7,11.7,0,0,1,3.25-1.87c.21-.08,0-.26-.12-.31a1,1,0,0,0-.69-.06,12.26,12.26,0,0,0-3.36,1.94c-.16.12.22.29.29.31s.47.12.63,0Z"/><path d="M129.93,100.05l.19-.08,0,0,.09,0,.11,0h.12c.12,0-.08,0,0,0h.15c-.09,0-.1,0-.05,0h.11l.08,0h0l.06,0,.08,0s0,0,0,0l.06,0a1,1,0,0,0,.7.09c.06,0,.15,0,.16-.12s-.07-.13-.13-.16a2.94,2.94,0,0,0-2.57-.05c-.2.1,0,.25.14.29a1,1,0,0,0,.69,0Z"/><path class="cls-1" d="M126.85,102.66a14.34,14.34,0,0,1,1.69,2.58c.16-1.12.28-2.24.35-3.37a9.4,9.4,0,0,0-2.13.94"/><path d="M126.38,102.74a15.23,15.23,0,0,1,1.68,2.58c.08.15.44.13.56.11s.39-.05.42-.22c.16-1.12.28-2.24.35-3.37,0-.11-.19-.15-.26-.16a1.06,1.06,0,0,0-.5,0,10.11,10.11,0,0,0-2.3,1c-.2.11.09.24.19.26a1,1,0,0,0,.68-.12,9.18,9.18,0,0,1,2-.86l-.76-.12c-.07,1.13-.19,2.25-.35,3.37l1-.11a14.78,14.78,0,0,0-1.69-2.59c-.13-.15-.45-.13-.62-.1s-.46.11-.33.27Z"/><path d="M125.56,95.85a11,11,0,0,0-6.17,6.83,4.21,4.21,0,0,0-.07,2.78,4,4,0,0,0,1.48,1.71,11.12,11.12,0,0,0,4.89,1.81,18.19,18.19,0,0,0,5.36.14,6.16,6.16,0,0,0,4.11-2.87c1.91-2.61,3-6.75.12-9.15A10.74,10.74,0,0,0,130,95.25a7.65,7.65,0,0,0-5.34.68c-.19.12.09.24.19.27a1,1,0,0,0,.68-.09c1.45-.91,3.19-.66,4.78-.36a8.89,8.89,0,0,1,4,1.52c2.57,2.06,1.88,5.77.33,8.2-.84,1.3-1.92,2.8-3.5,3.2a13.56,13.56,0,0,1-5,0,10.31,10.31,0,0,1-4.36-1.56,4,4,0,0,1-1.45-1.53,3.71,3.71,0,0,1-.1-2.46,10.56,10.56,0,0,1,6-7c.2-.09.13-.19,0-.28a.92.92,0,0,0-.71,0Z"/></g></svg>