<svg id="Layer_1" data-name="Layer 1" xmlns="http://www.w3.org/2000/svg" viewBox="0 0 255.72 140.62"><defs><style>.cls-1,.cls-3,.cls-5{fill:#010101;}.cls-1,.cls-5{stroke:#1d1d1b;}.cls-1,.cls-2{stroke-linecap:round;}.cls-1,.cls-2,.cls-5{stroke-linejoin:round;stroke-width:0.3px;}.cls-2,.cls-4{fill:#1d1d1b;}.cls-2{stroke:#010101;}</style></defs><path class="cls-1" d="M173.07,34.41a1.18,1.18,0,0,1,.18-.13l-.6.34c1.11-.6,2.1.69,2.54,1.54a5.38,5.38,0,0,0,.93,1.47,3.37,3.37,0,0,0,1.73.71,10.84,10.84,0,0,1,3.82,1.57,4.47,4.47,0,0,1,2.1,2.77,2.47,2.47,0,0,1-.37,1.73,1.93,1.93,0,0,1-.28.36l-.12.12c-.09.1-.23.11,0,0a1.92,1.92,0,0,1-.86.09,2.1,2.1,0,0,0-.6.35c-.43,1.38,1.23,2.28,1.67,3.42a1.64,1.64,0,0,1,.14.84,1.08,1.08,0,0,1-.1.35.64.64,0,0,1-.08.14c-.09.12-.28.19,0,.09s-.11,0-.19.1l-.21.12a4,4,0,0,0-.49.29c-1.27.91.27,2.54.47,3.57a2.59,2.59,0,0,1-.32,1.72,2.73,2.73,0,0,1-.49.63c-.09.09-.33.24-.11.13a2,2,0,0,1-.49.15,2.63,2.63,0,0,1-3-2.18c0,.08-.62.26-.61.35a2.64,2.64,0,0,0,2.84,2.2,3.55,3.55,0,0,0,2.51-1.79,2.49,2.49,0,0,0,.13-1.93,7.25,7.25,0,0,1-.83-2.12,1.44,1.44,0,0,1,.25-.88c.09-.17.22-.08,0-.06s-.12.07,0,0l.31-.16c.45-.25.93-.49,1-1.06.2-1.7-2.35-2.55-1.82-4.26l-.6.35a2.85,2.85,0,0,0,2.57-1.52,3.08,3.08,0,0,0-1.06-3.68A9.92,9.92,0,0,0,178.67,38a3.55,3.55,0,0,1-2.07-.88,11.76,11.76,0,0,1-1.08-1.85,2.23,2.23,0,0,0-1.73-1.17,2.33,2.33,0,0,0-1.32.63c.17-.15.43-.19.6-.35Z" transform="translate(-9.12 -15.69)"/><path class="cls-1" d="M181.23,57.06a5.45,5.45,0,0,1,.45,3.2,2.27,2.27,0,0,1-.64,1.07s-.23.18-.23.21.35-.16,0-.07a1.57,1.57,0,0,1-.65,0c-.08,0-.58.38-.6.35a3.1,3.1,0,0,1,.61,2.5,3.58,3.58,0,0,1-.48,1.3,3.72,3.72,0,0,1-.4.49,2.39,2.39,0,0,1-.23.22l-.25.18c.24-.14.3-.18.17-.12a5.69,5.69,0,0,0-.68.18,2.83,2.83,0,0,1-.65,0,3.47,3.47,0,0,1-1.3-.37,3.18,3.18,0,0,1-1.67-2.1c0,.07-.62.28-.61.35a3.22,3.22,0,0,0,2,2.25,3.17,3.17,0,0,0,2.81-.24,3.51,3.51,0,0,0,1.77-2,3.2,3.2,0,0,0-.51-3l-.6.35a2.85,2.85,0,0,0,2.29-1.1c.94-1.19.42-2.77,0-4,0,0-.62.3-.6.35Z" transform="translate(-9.12 -15.69)"/><path class="cls-1" d="M177.67,66.82a10.66,10.66,0,0,1-2.9,5.57,3.71,3.71,0,0,1-2.68,1.47A1.68,1.68,0,0,1,170.38,72c0,.15-.58.2-.61.35-.24,1.25,1.16,2,2.23,1.79a6.51,6.51,0,0,0,2.6-1.42,10.66,10.66,0,0,0,3.68-6.28c0,.15-.58.2-.61.35Z" transform="translate(-9.12 -15.69)"/><path class="cls-1" d="M171,72.4a5.09,5.09,0,0,1-.78,2,5.73,5.73,0,0,1-.66.8l-.39.35a2,2,0,0,1-.45.3,5.16,5.16,0,0,1-4.5-.22,5.59,5.59,0,0,0-.6.35,2.87,2.87,0,0,1,.1,1.69,3.55,3.55,0,0,1-.87,1.44c-.15.17.07,0-.13.09a3.5,3.5,0,0,1-.46.14,3.11,3.11,0,0,1-.86,0,2.77,2.77,0,0,1-1.55-.66c-.06,0-.55.4-.61.35a2.88,2.88,0,0,0,2.05.67A3.86,3.86,0,0,0,163,79.1a2.85,2.85,0,0,0,1.31-3.5l-.6.35a5.64,5.64,0,0,0,8-3.9c0,.14-.58.19-.61.35Z" transform="translate(-9.12 -15.69)"/><path class="cls-1" d="M148.88,76.91a7.66,7.66,0,0,0,7.22,3.23,7,7,0,0,0,3.22-1.34c1.08-.83,1.8-2.63.69-3.75a2.15,2.15,0,0,0-3,.22c.17-.16.44-.2.61-.35s.09-.12-.18,0l-.09,0a1.84,1.84,0,0,1,2.42.92,2.71,2.71,0,0,1-.94,3.12,5.3,5.3,0,0,1-3.3.79A7.84,7.84,0,0,1,152.3,79a7.41,7.41,0,0,1-2.81-2.46s-.6.36-.61.35Z" transform="translate(-9.12 -15.69)"/><path class="cls-1" d="M140.4,75.68a2.1,2.1,0,0,0,.29,2.21A3.45,3.45,0,0,0,143,79.06,9.35,9.35,0,0,0,148.6,78l.58-.34a9.32,9.32,0,0,1-5.74,1.07,3.36,3.36,0,0,1-2.18-1.2,2.11,2.11,0,0,1-.26-2.16c-.08.17-.52.18-.6.35Z" transform="translate(-9.12 -15.69)"/><path class="cls-1" d="M126.89,71.69a3.22,3.22,0,0,0,2.44,3.74,4.21,4.21,0,0,0,3.74-1.49l-.6.35a4.12,4.12,0,0,0,3.78,4.61,4.91,4.91,0,0,0,2.69-.86,4.23,4.23,0,0,0,1.95-2.29c0,.16-.55.18-.61.35a3.91,3.91,0,0,1-.68,1.25,4.81,4.81,0,0,1-.5.51l-.28.22-.19.13c.24-.13.23-.14,0,0a3.84,3.84,0,0,1-2.73.18,4.2,4.2,0,0,1-2.79-4.44c0,.11-.52.25-.6.35s-.21.24-.33.35l-.19.16c-.18.16.06,0,.09,0-.07.12-.48.2-.61.24l-.47.1a3.12,3.12,0,0,1-1.92-.36,3.28,3.28,0,0,1-1.54-3.41c0,.15-.58.2-.61.35Z" transform="translate(-9.12 -15.69)"/><path class="cls-1" d="M114.07,44.3a3.69,3.69,0,0,0-3,2.51,5.59,5.59,0,0,0,.1,3c.26,1.06.64,2.1,1,3.14q1.07,3.27,2.22,6.51c.36,1,.7,2,1.09,3a7.62,7.62,0,0,0,1.44,2.46,5.28,5.28,0,0,0,5.3,1.35l.6-.35a2.56,2.56,0,0,0-1.72,1.65,2.78,2.78,0,0,0,1.31,2.93,6.28,6.28,0,0,0,3.74,1.12,3.84,3.84,0,0,0,2.42-1.15,1.87,1.87,0,0,0-.25-2.82c-.11-.06-.5.41-.61.35a1.8,1.8,0,0,1,.49,2.49,1.67,1.67,0,0,1-.52.6c.16-.09-.2,0-.2,0a3,3,0,0,1-.52.11,4.87,4.87,0,0,1-2-.21,4.8,4.8,0,0,1-3.11-2.15,2.34,2.34,0,0,1-.2-1.56,2.21,2.21,0,0,1,.27-.7,1.64,1.64,0,0,1,.26-.33.93.93,0,0,1,.15-.13c-.28.14-.33.18-.14.1s.39-.28.6-.35a5.22,5.22,0,0,1-4.46-.66c-1.52-1-2.14-2.74-2.73-4.39-.71-2-1.4-3.94-2.07-5.92-.33-1-.65-2-1-2.94a28.13,28.13,0,0,1-.89-3,4.8,4.8,0,0,1,.13-2.93,3.37,3.37,0,0,1,.67-1l.22-.21.14-.11c-.11.06-.12.08,0,0a2.37,2.37,0,0,1,.64-.14c.21,0,.4-.33.61-.35Z" transform="translate(-9.12 -15.69)"/><path class="cls-1" d="M144.38,35.69a3.19,3.19,0,0,0-2.66.59,2.82,2.82,0,0,0-1.49,2.45c0-.12.57-.23.6-.35a2,2,0,0,0-1-2.27,2.74,2.74,0,0,0-2.74.08,6,6,0,0,0-1.8,1.32,11.07,11.07,0,0,0-1.62,2.91l.61-.35a3.59,3.59,0,0,0-2.46-1.48,3.78,3.78,0,0,0-2.43.55,3.9,3.9,0,0,0-1.7,1.73,3.54,3.54,0,0,0-.11,2.8l.6-.35a5.32,5.32,0,0,0-3.52-.62A6.77,6.77,0,0,0,122,43.82a5.41,5.41,0,0,0-2.1,6.1s.62-.3.61-.35a5.42,5.42,0,0,1,1.34-5.49,3.24,3.24,0,0,1,.53-.45c.25-.17.27-.19.07-.07l.22-.11.36-.14a5.48,5.48,0,0,1,4.54.36,5.59,5.59,0,0,0,.6-.35,3.55,3.55,0,0,1-.07-2.32,3.35,3.35,0,0,1,1.26-1.82,3.28,3.28,0,0,1,2.31-.14,3.51,3.51,0,0,1,2,1.38,4.93,4.93,0,0,0,.61-.35,13.54,13.54,0,0,1,1.22-2.4,4.84,4.84,0,0,1,.85-1l.27-.22c.1-.08.35-.16.12-.08a5.11,5.11,0,0,1,.66-.22,2.41,2.41,0,0,1,2.16.52,2,2,0,0,1,.67,2l.6-.35a2.71,2.71,0,0,1,.95-2.06l.27-.21c.26-.2-.32.11,0,0s.34-.12.53-.16a2.48,2.48,0,0,1,1.21.07c.16.05.46-.39.6-.35Z" transform="translate(-9.12 -15.69)"/><path class="cls-1" d="M118.87,48.58c-.23.18.13,0-.13.07l-.3.09a2.64,2.64,0,0,1-.62,0,3.46,3.46,0,0,1-1.27-.29,4,4,0,0,1-1.9-1.7c-1.11-2-.5-4.57,0-6.69,1-4.4,2.33-9,5.77-12.19a9.75,9.75,0,0,1,3.14-2,9.21,9.21,0,0,1,3.52-.58c.2,0,.41-.36.61-.35a10.57,10.57,0,0,0-6,1.84,14,14,0,0,0-4.88,5.33,29.88,29.88,0,0,0-2.65,7.7c-.54,2.35-1.41,5.44.11,7.61a3.9,3.9,0,0,0,2.8,1.65,3.5,3.5,0,0,0,2.42-.9c-.17.14-.42.2-.6.35Z" transform="translate(-9.12 -15.69)"/><path class="cls-1" d="M127,22.68a2.22,2.22,0,0,0,.55,3.91,2.59,2.59,0,0,0,2.08-.33,3.84,3.84,0,0,0,.74-.5,11.8,11.8,0,0,1,.93-1.05l-.22.13.11-.06-.39.21c1-.4,1.72.44,2.32,1.06a2.68,2.68,0,0,0,2,.92,3.73,3.73,0,0,0,3-1.81l-.6.35A3.65,3.65,0,0,0,140,28a3.83,3.83,0,0,0,3.19-.44c.06,0,.23-.18.3-.18a3.21,3.21,0,0,0-1.69.65,2.5,2.5,0,0,0-1.14,2.08c0,2.14,2,3.48,3.57,4.49.1.06.52-.41.61-.35-1.36-.85-2.84-1.81-3.38-3.4a2.87,2.87,0,0,1,0-2.1,2.59,2.59,0,0,1,.62-.84s.22-.14.11-.09.11,0,.13,0a2.48,2.48,0,0,1,.54-.06l.3-.17c.3-.18-.21.07-.27.09a3.17,3.17,0,0,1-.41.12,3.64,3.64,0,0,1-.74.07,4.21,4.21,0,0,1-1.56-.34,3.63,3.63,0,0,1-2.08-2.3c0,.06-.57.28-.6.35a2.45,2.45,0,0,1-.43.62c-.07.08-.23.17-.28.26s.12-.07.18-.09c-.1,0-.23.11-.33.15a2.83,2.83,0,0,1-1.55.11,2.87,2.87,0,0,1-1.47-.92,3,3,0,0,0-1.64-1.1,2,2,0,0,0-1.22.44c-.45.28-.65.73-1,1.09-.05.05-.12.09-.17.15s.2,0,.07,0a2.65,2.65,0,0,0-.37.12,2.43,2.43,0,0,1-.85,0,2.1,2.1,0,0,1-1.4-.77,2.31,2.31,0,0,1,.52-3.21c-.19.13-.42.21-.61.35Z" transform="translate(-9.12 -15.69)"/><path class="cls-1" d="M145.42,33.55A6.73,6.73,0,0,0,155,30.62c.79-1.74.9-4.28-.66-5.64s-3.8-.87-5.55-.46a8.59,8.59,0,0,0-2.4.95,2.61,2.61,0,0,0-1.51,1.85c0-.14.58-.21.61-.35a1.94,1.94,0,0,1,.39-1,2.06,2.06,0,0,1,.28-.31,2.52,2.52,0,0,1,.25-.21l.17-.12c-.26.15-.26.15,0,0a10,10,0,0,1,2.14-.64c1.56-.32,3.45-.58,4.82.42s1.64,3.15,1.22,4.76a6.47,6.47,0,0,1-1.1,2.27,7.83,7.83,0,0,1-.83.9l-.46.36c-.1.07-.45.26-.13.1l-.48.21A6.27,6.27,0,0,1,146,33.2c-.09-.06-.52.41-.6.35Z" transform="translate(-9.12 -15.69)"/><path class="cls-1" d="M145.84,30.35c1.18.56,2.52,1,3.76.36a3,3,0,0,0,1.3-1.05,1.35,1.35,0,0,0-.08-1.49,1.17,1.17,0,0,0-1.47-.45c-.18.09-.43.26-.58.34a1.19,1.19,0,0,1,1.48.51,1.38,1.38,0,0,1-.11,1.67,2.65,2.65,0,0,1-.34.33l-.1.07c-.18.12-.06.05.37-.21l-.29.13a2.57,2.57,0,0,1-1,.15,6,6,0,0,1-2.34-.71s-.27.15-.31.17-.26.19-.3.18Z" transform="translate(-9.12 -15.69)"/><path class="cls-1" d="M148.47,25a8.64,8.64,0,0,1,4.78-4.23,13,13,0,0,1,7.06-.39,21,21,0,0,1,6.86,2.78,13.31,13.31,0,0,1,4.52,4.37c2.52,4.26.55,9.2-2.52,12.58a14.78,14.78,0,0,1-5.86,4.13,12.22,12.22,0,0,1-6.64.51,9.61,9.61,0,0,1-6.09-3.93,8.43,8.43,0,0,1-1.3-6.73c0,.15-.57.19-.61.35a8.41,8.41,0,0,0,1.13,6.46,9.5,9.5,0,0,0,5.58,4c4.57,1.26,9.29-.6,12.77-3.59s6.74-8.32,4.67-13.14a12,12,0,0,0-4.54-5.07,21,21,0,0,0-7.21-3.08,13,13,0,0,0-7.52.48,11.45,11.45,0,0,0-4.79,3.4,8.35,8.35,0,0,0-.89,1.41c.08-.17.51-.17.6-.35Z" transform="translate(-9.12 -15.69)"/><path class="cls-1" d="M154.45,26.83a10.67,10.67,0,0,1,5.48,6.67,4.44,4.44,0,0,1,0,2.26,4.12,4.12,0,0,1-1,1.6c-.11.13-.11.1,0,0a.92.92,0,0,1-.23.09,1.3,1.3,0,0,1-.39.09,2.33,2.33,0,0,1-.95-.08,2.22,2.22,0,0,1-1.32-1,1.57,1.57,0,0,1,.2-1.74l.14-.15c.05,0,.29-.2.09-.09s0,0,0,0a2.64,2.64,0,0,1,.3-.07,1.24,1.24,0,0,1,.86.2c.1.06.52-.41.61-.35a1.52,1.52,0,0,0-1.6.07,2.72,2.72,0,0,0-1.24,1.08c-.7,1.41.94,2.65,2.24,2.52a3.86,3.86,0,0,0,1.57-.68,3.34,3.34,0,0,0,1.31-1.67c.65-1.77-.18-3.73-1.14-5.22a11.32,11.32,0,0,0-4.24-3.89c-.12-.06-.5.41-.61.35Z" transform="translate(-9.12 -15.69)"/><path class="cls-1" d="M126.45,24a3.15,3.15,0,0,1,1-1.62s.36-.25.18-.15a2,2,0,0,1,.46-.17,3,3,0,0,1,1-.09,5.31,5.31,0,0,0,.6-.35A1.6,1.6,0,0,1,130,20a1.63,1.63,0,0,1,1.51-.59c1.44.13,2.57,1.26,3.52,2.23a3.42,3.42,0,0,0,.61-.35,1.86,1.86,0,0,1,.55-1.39,2.37,2.37,0,0,1,.28-.27,1.44,1.44,0,0,1,.25-.18c-.07,0-.2.08,0,.06a6.66,6.66,0,0,0,1-.3,17.74,17.74,0,0,0,1.9-.51c.63-.22,1.24-.5,1.88-.68,1-.29,2.42-.33,3.15.61a1.87,1.87,0,0,1,.38,1.33,2.22,2.22,0,0,1-.24.6c0,.09-.13.06,0,0s.15-.07.21-.09a5.32,5.32,0,0,1,.5-.21,2.52,2.52,0,0,1,2-.07,1.36,1.36,0,0,1,.84,1.37c0-.13.55-.21.61-.35a1.17,1.17,0,0,1,.41-.5l-.09.06.09-.06-.52.3a1,1,0,0,1,1.47,1.27c.05-.16.56-.18.61-.35a1.06,1.06,0,0,0-1.27-1.36,2.24,2.24,0,0,0-1.31,1l.61-.35A1.34,1.34,0,0,0,148,20a2.42,2.42,0,0,0-1.94,0,4.4,4.4,0,0,0-.5.21c-.09,0-.2.12-.29.12s0,0,0-.05a1.72,1.72,0,0,0,.26-.77,1.86,1.86,0,0,0-.63-1.41c-1-.91-2.6-.51-3.75-.08a18.64,18.64,0,0,1-2.18.74,9.48,9.48,0,0,0-1.95.57c-1,.47-2.07,1.18-2,2.38l.61-.35c-1.13-1.14-2.74-2.73-4.51-2.09-1.08.39-2.48,1.37-2,2.69l.6-.35a3.89,3.89,0,0,0-2.27.71,3.19,3.19,0,0,0-1.55,2c0-.16.57-.19.6-.35Z" transform="translate(-9.12 -15.69)"/><path class="cls-1" d="M137.29,19.34a9.93,9.93,0,0,0-10.52-3.07,13.64,13.64,0,0,0-8.27,7.1,16.65,16.65,0,0,0-1.58,7.25c0-.11.61-.23.61-.35a15.36,15.36,0,0,1,4.1-10.86,10.58,10.58,0,0,1,4.79-2.87,10.16,10.16,0,0,1,5.25,0,9.46,9.46,0,0,1,5,3.18s.59-.37.61-.35Z" transform="translate(-9.12 -15.69)"/><path class="cls-2" d="M125.06,25.11a2.13,2.13,0,0,0-1.36-.56,2.37,2.37,0,0,0-1.37.38,3,3,0,0,0-1.16,1,2.21,2.21,0,0,0-.31,1.44,1.8,1.8,0,0,1,.31-.17s.3-.15.3-.18a2.25,2.25,0,0,1,.56-1.78,2.18,2.18,0,0,1,.22-.21l.13-.1c.32-.22-.67.35-.3.17a2.23,2.23,0,0,1,2.38.38,3.18,3.18,0,0,0,.3-.17,2.63,2.63,0,0,1,.3-.18Z" transform="translate(-9.12 -15.69)"/><path class="cls-1" d="M118.66,36.09a4.49,4.49,0,0,1,1.7-3.48l.18-.14c.48-.34-.48.22.06,0a3.38,3.38,0,0,1,.44-.18,4.68,4.68,0,0,1,1-.21,4.44,4.44,0,0,1,2.07.31,1.24,1.24,0,0,0,.31-.18s.26-.19.3-.17a4.59,4.59,0,0,0-2.46-.26,5.92,5.92,0,0,0-2,.86,4.55,4.55,0,0,0-2.21,3.83s.27-.16.3-.18.31-.13.31-.17Z" transform="translate(-9.12 -15.69)"/><path class="cls-3" d="M135.85,30.37a2.28,2.28,0,0,0-1.71,3.11,2.76,2.76,0,0,0,3.82,1.3,2.65,2.65,0,0,0,.46-4,2.53,2.53,0,0,0-3.87.68" transform="translate(-9.12 -15.69)"/><path class="cls-4" d="M136,30.29a2.66,2.66,0,0,0-2.15,2.55,2.73,2.73,0,0,0,5.31.41,2.4,2.4,0,0,0-1.48-3,2.69,2.69,0,0,0-1.93.17,2.63,2.63,0,0,0-1.31,1.17c0-.07.22-.07.26-.15a2.33,2.33,0,0,1,.46-.62,1.61,1.61,0,0,1,.32-.25l.06,0,.09,0,.2-.07a2.69,2.69,0,0,1,1.54,0A2.32,2.32,0,0,1,139,32.81a2.71,2.71,0,0,1-.56,1.5,2.18,2.18,0,0,1-.25.28l-.14.12a.18.18,0,0,1-.07,0c-.23.17.08,0-.07.05a2.64,2.64,0,0,1-.81.22,2.82,2.82,0,0,1-2.76-1.49,2.3,2.3,0,0,1-.06-1.87,2.35,2.35,0,0,1,.55-.74l.18-.15.14-.1s.07,0,0,0a3,3,0,0,1,.58-.24c.09,0,.17-.12.26-.15Z" transform="translate(-9.12 -15.69)"/><path class="cls-1" d="M146.17,45.38a3,3,0,0,0-2.07-.27,4.71,4.71,0,0,0-1.47.69,3,3,0,0,0-1.18,3.57l.6-.35c-.76-.46-1.52,0-2.18.41a2,2,0,0,0-.77,2.47c.89,2.14,3.78,2.59,5.74,1.89a7,7,0,0,0,2.61-1.66c-.15.16-.45.19-.6.35a5.09,5.09,0,0,1-.65.58l-.22.16c-.16.1-.13.08.09,0a5.31,5.31,0,0,1-.52.23,5.67,5.67,0,0,1-1.57.35,4.84,4.84,0,0,1-3.12-.82,2.67,2.67,0,0,1-1.27-2.69,1.87,1.87,0,0,1,.3-.62,3.58,3.58,0,0,1,.26-.29l.11-.1c.1-.07.05,0-.15.07a2.07,2.07,0,0,0,.36-.11l.27,0a1.37,1.37,0,0,1,.71.21,3.93,3.93,0,0,0,.6-.35,3,3,0,0,1,.61-3.11c.09-.1.21-.17.3-.27s0-.06-.16.06l.3-.13a3.62,3.62,0,0,1,.79-.18,3,3,0,0,1,1.67.34c.12.06.5-.41.61-.35Z" transform="translate(-9.12 -15.69)"/><path class="cls-1" d="M139.32,59.42a2.54,2.54,0,0,0,.71,3.36,2.64,2.64,0,0,0,1.79.43c.08,0,.33-.11.37-.08s.14.4.17.47a3.67,3.67,0,0,0,.46.76,3.55,3.55,0,0,0,3.29,1.35,5.11,5.11,0,0,0,2.59-1.3c-.16.15-.43.2-.6.35l-.3.26-.07,0-.18.07a3.51,3.51,0,0,1-.83.22,3.44,3.44,0,0,1-1.56-.12,3.67,3.67,0,0,1-2.24-2.1,2.53,2.53,0,0,0-.12-.36,1.76,1.76,0,0,0-.37.08,2.36,2.36,0,0,1-.75,0,2.53,2.53,0,0,1-1.43-.73,2.58,2.58,0,0,1-.32-3c-.1.17-.51.17-.61.35Z" transform="translate(-9.12 -15.69)"/><path class="cls-3" d="M140.84,62.17a16.57,16.57,0,0,0-5.05,5.19c-.49.8-.88,1.91-.24,2.6a2.2,2.2,0,0,0,2.07.32A15.06,15.06,0,0,0,145.36,66" transform="translate(-9.12 -15.69)"/><path class="cls-4" d="M140.71,62.24a16.76,16.76,0,0,0-3.42,3,17.26,17.26,0,0,0-1.46,1.94,3.84,3.84,0,0,0-.74,2c0,3,5.79.14,7-.54a15.78,15.78,0,0,0,3.43-2.66c-.06.07-.19.08-.26.15a14.47,14.47,0,0,1-5,3.39,13.87,13.87,0,0,1-2.45.75,2.2,2.2,0,0,1-2.07-.33c-1.12-1.19.62-3.26,1.35-4.19A16.78,16.78,0,0,1,141,62.1l-.25.14Z" transform="translate(-9.12 -15.69)"/><path class="cls-3" d="M120.64,72.27a2.91,2.91,0,0,0,2.58,2.16c.79.1,3.48-.24,4.13-.78s.21-2.13-.72-2.4a2.52,2.52,0,0,1-2.1,0c-.77-.37-1.53-1.19-2.47-1A1.91,1.91,0,0,0,120.64,72.27Z" transform="translate(-9.12 -15.69)"/><path class="cls-4" d="M120.51,72.35a3,3,0,0,0,3.1,2.17,13,13,0,0,0,1.76-.19,6.43,6.43,0,0,0,1.61-.45,1.37,1.37,0,0,0,.75-.67,1.71,1.71,0,0,0-.33-1.58,1.3,1.3,0,0,0-.32-.3.47.47,0,0,0-.43-.11,3.2,3.2,0,0,1-1.34.13c-.84-.15-1.42-.79-2.18-1.11a2,2,0,0,0-2.62,2.11s.26-.11.26-.15a1.93,1.93,0,0,1,.64-1.69,1.56,1.56,0,0,1,1.82.06,5.44,5.44,0,0,0,1.93,1,2.51,2.51,0,0,0,1-.08c.17,0,.28-.14.45-.07a1.74,1.74,0,0,1,.36.24,1.84,1.84,0,0,1,.55,1.38.91.91,0,0,1-.7.9,9.87,9.87,0,0,1-3.09.48,3,3,0,0,1-3-2.17S120.5,72.31,120.51,72.35Z" transform="translate(-9.12 -15.69)"/><path class="cls-3" d="M163.45,78.64c.84,1.14.77.73,2,1.84.48.42.74.24,1.28.59a1.91,1.91,0,0,0,1.82.26c1.11-.52,0-3.44-.61-4.53s-3.34-.19-4-1" transform="translate(-9.12 -15.69)"/><path class="cls-4" d="M163.32,78.72a4.74,4.74,0,0,0,1,1c.2.13.39.27.58.42a4.57,4.57,0,0,0,.86.66,7,7,0,0,1,.87.32,2.55,2.55,0,0,0,1.06.41,1.68,1.68,0,0,0,1.22-.37,1.4,1.4,0,0,0,.3-1.17,7,7,0,0,0-.39-1.68,12.48,12.48,0,0,0-.61-1.46,1.23,1.23,0,0,0-1-.65,12.89,12.89,0,0,0-1.76-.1,1.84,1.84,0,0,1-1.35-.4s-.25.17-.26.15a1.53,1.53,0,0,0,1.09.39c.49,0,1,0,1.47.05a2.2,2.2,0,0,1,1.21.32,2.56,2.56,0,0,1,.6,1,11.19,11.19,0,0,1,.55,1.6,3.89,3.89,0,0,1,.14,1.44,1.16,1.16,0,0,1-.17.47s-.18.17-.1.12a1.19,1.19,0,0,1-.59.1,2.2,2.2,0,0,1-1-.3,3.78,3.78,0,0,0-.85-.37,2.82,2.82,0,0,1-1-.63,7.36,7.36,0,0,0-.63-.47,4.84,4.84,0,0,1-1-1.05s-.26.15-.26.15Z" transform="translate(-9.12 -15.69)"/><path class="cls-3" d="M173.24,73.65c2,.59,4.43,1.56,6.45,2.16a1.36,1.36,0,0,0,1.1,0c.47-.3.4-1,.24-1.52a16.78,16.78,0,0,0-3.57-5.79" transform="translate(-9.12 -15.69)"/><path class="cls-4" d="M173.11,73.72c1.17.35,2.33.77,3.49,1.18l1.73.6A11,11,0,0,0,180,76a1.1,1.1,0,0,0,1.28-1.07,4.4,4.4,0,0,0-.4-1.5,12.18,12.18,0,0,0-.8-1.62,24.14,24.14,0,0,0-2.49-3.36s-.25.16-.26.15A22.78,22.78,0,0,1,180,72.3a10.49,10.49,0,0,1,.86,2c.16.52.28,1.22-.22,1.58l.25-.15c-.58.3-1.37-.08-1.94-.27s-1.24-.42-1.85-.63c-1.25-.44-2.49-.89-3.75-1.27-.07,0-.2.17-.26.15Z" transform="translate(-9.12 -15.69)"/><path class="cls-1" d="M48.84,111.93a2.9,2.9,0,0,1-3.33-.89,3.8,3.8,0,0,1-.63-3.91,8.32,8.32,0,0,1,2.91-3.7,6,6,0,0,1,4.48-1.19,4.36,4.36,0,0,1,3.44,2.65s.61-.28.61-.35l-.09-1.36-.56.33a3.26,3.26,0,0,1,3.72.46,4.16,4.16,0,0,0,.61-.35,4.59,4.59,0,0,1,1-3,5.76,5.76,0,0,1,.59-.62l.29-.24.29-.2L62,99.7c.12-.17.7-.28.91-.33a4.07,4.07,0,0,1,.79-.11,4.75,4.75,0,0,1,4.68,3.67s.55-.3.6-.35a3.68,3.68,0,0,1,.37-.32c-.2.13.21-.06.27-.08a3.39,3.39,0,0,1,.83-.16,3.17,3.17,0,0,1,1.76.4,2.38,2.38,0,0,0,.61-.35,14.33,14.33,0,0,1,9.07-4.23c2.66-.25,7.55.11,7,3.94-.27,2-1.94,3.33-3.45,4.49l.61-.35a7,7,0,0,1,3-2.82,7.63,7.63,0,0,1,3.88-.66,7.94,7.94,0,0,1,6.23,4.36s.57-.3.61-.35a5,5,0,0,1,.78-.81c.11-.09.34-.35.49-.36l-.16.08.22-.1a2.41,2.41,0,0,1,.33-.15,7,7,0,0,1,2.29-.49,8.82,8.82,0,0,1,4.71,1.29,16.26,16.26,0,0,1,4,3.34,6.19,6.19,0,0,1,1.84,4.42,3.9,3.9,0,0,1-.94,2.19,1.84,1.84,0,0,1-.85.65,2.53,2.53,0,0,1-1.19.06l-.61.35a4.17,4.17,0,0,0,2.84-.81c1-.59,1.92-1.48,3.13-1.64a1.7,1.7,0,0,1,2,1.17,1.85,1.85,0,0,1,0,1,1.44,1.44,0,0,1-.2.39.47.47,0,0,1-.1.1c.39-.18.49-.24.33-.18s-.18,0-.28,0-.42.37-.6.35a4.87,4.87,0,0,1,3.92,5.81,5.79,5.79,0,0,1-2.19,3.28l-.3.21c-.23.17,0,0,0,0l-.55.26a6,6,0,0,1-1,.31,6.54,6.54,0,0,1-2.25.08,8.28,8.28,0,0,1-4.55-2.21s-.56.39-.6.35a7.4,7.4,0,0,0,8.64,1.41,7,7,0,0,0,2.88-2.7,4.88,4.88,0,0,0,.22-4.22,4.69,4.69,0,0,0-3.65-2.91l-.6.35a1.77,1.77,0,0,0,1.48-1.14,1.7,1.7,0,0,0-1.06-2c-1.15-.34-2.27.34-3.23.91-1.25.74-2.16,1.76-3.73,1.48-.18,0-.44.38-.61.35a3.92,3.92,0,0,0,3.61-1.89c1.07-1.71.52-3.7-.56-5.24a14.91,14.91,0,0,0-4.54-4.12,8.7,8.7,0,0,0-5.54-1.34,7.13,7.13,0,0,0-4.53,2.47l.61-.35a8,8,0,0,0-5.4-4.23,8.35,8.35,0,0,0-6.21,1.34,8,8,0,0,0-2.67,2.71c.09-.15.46-.24.61-.35,1.49-1.14,3.13-2.44,3.44-4.42a3.32,3.32,0,0,0-2.63-3.71,12.33,12.33,0,0,0-5.34-.18,15.9,15.9,0,0,0-5,1.66,17.77,17.77,0,0,0-4.35,3.15l.61-.35a3.85,3.85,0,0,0-4.44.86l.6-.35a4.65,4.65,0,0,0-5.7-3.49A5.26,5.26,0,0,0,59.39,104l.61-.35a3.29,3.29,0,0,0-3.81-.42c-.07,0-.57.27-.56.33l.08,1.36.61-.35a4.37,4.37,0,0,0-3.38-2.64,6.53,6.53,0,0,0-4.38,1A10.41,10.41,0,0,0,45.05,106a4.66,4.66,0,0,0-.71,4.59c.7,1.38,2.39,2.42,3.9,1.71.21-.1.39-.26.6-.35Z" transform="translate(-9.12 -15.69)"/><path class="cls-1" d="M122.24,124.11a2.13,2.13,0,0,1,.33-.4l.15-.14c.11-.08.11-.08,0,0s-.1.06,0,0a4.67,4.67,0,0,0,.5-.14,2.5,2.5,0,0,1,.47,0A2.16,2.16,0,0,1,125.9,126a2.59,2.59,0,0,1-.33.93,2.94,2.94,0,0,1-.31.41c-.14.16-.56.36-.06.13-.17.08-.42.33-.6.35,2-.19,4.24-.13,5.54,1.58a2.6,2.6,0,0,1,.48,2.41,2.54,2.54,0,0,1-.69,1l-.09.08c-.13.09-.12.09,0,0s.13-.08,0,0l-.11,0a2,2,0,0,1-.69.05c-.1,0-.56.39-.61.35,1.62,1.53,1.46,4,.48,5.79a6.29,6.29,0,0,1-1,1.37,5.73,5.73,0,0,1-.56.54,3.15,3.15,0,0,1-.3.24,2.53,2.53,0,0,0-.27.18c-.12.12.34-.16,0,0a11.5,11.5,0,0,1-4.27,1,31.89,31.89,0,0,1-5-.23,2.56,2.56,0,0,0-.61.35,6.36,6.36,0,0,1-2.46,5.2c-.11.09-.24.17-.36.26.28-.19-.19.08-.25.1a4.54,4.54,0,0,1-.7.26,6.9,6.9,0,0,1-1.55.27,6.32,6.32,0,0,1-3-.63,2.52,2.52,0,0,0-.61.35,5.65,5.65,0,0,1-1,1.37,6.53,6.53,0,0,1-.63.55l-.41.29c-.19.13,0,0,0,0l-.3.15a12.83,12.83,0,0,1-3.54,1,27.53,27.53,0,0,1-7.42.21c-2.3-.27-4.81-1.15-5.86-3.4a5.27,5.27,0,0,1,1.5-6.2l.23-.16c.31-.23-.62.3,0,0l.42-.16a4.86,4.86,0,0,1,.93-.23,5.63,5.63,0,0,1,1.92.09,5.11,5.11,0,0,1,3.15,2.15s.6-.35.61-.35a5.23,5.23,0,0,0-6.69-1.71,5.65,5.65,0,0,0-2.38,2.11,5.34,5.34,0,0,0-.63,3.73c.54,2.76,3.24,4,5.77,4.41a23,23,0,0,0,4.15.17,29.33,29.33,0,0,0,4.07-.38c2.56-.45,5.44-1.61,6.74-4l-.61.35a6.39,6.39,0,0,0,3.6.58,7.56,7.56,0,0,0,2.83-1.08,6.41,6.41,0,0,0,3.16-5.66l-.61.35c3.12.32,6.53.63,9.4-.89a7.48,7.48,0,0,0,2.52-1.94,6.53,6.53,0,0,0,1.4-3.31A4.14,4.14,0,0,0,129,133l-.61.35a3,3,0,0,0,2-.78,2.43,2.43,0,0,0,.74-2.73c-.89-2.41-3.82-2.59-6-2.38l-.6.35a3.33,3.33,0,0,0,1.68-1.43,2.26,2.26,0,0,0-2.83-3.22,3.56,3.56,0,0,0-1.81,1.27c.11-.17.49-.18.6-.35Z" transform="translate(-9.12 -15.69)"/><path class="cls-1" d="M91,151.26c-1.44.83-3.22,1.78-4.93,1.26A2.76,2.76,0,0,1,84,149.7c0,.13-.53.23-.61.35a6.12,6.12,0,0,1-.95,1.2,4.43,4.43,0,0,1-1.26.93,6.66,6.66,0,0,1-3,.6,6.48,6.48,0,0,1-6-6.57c0,.12-.6.23-.6.35A6.55,6.55,0,0,0,75,152.41a6.46,6.46,0,0,0,6.39-.31A6.92,6.92,0,0,0,84,149.7l-.61.35c-.22,1.57,1.29,2.79,2.73,2.94,1.73.18,3.34-.8,4.78-1.63.09-.05.27-.21.37-.21l-.21.11Z" transform="translate(-9.12 -15.69)"/><path class="cls-1" d="M71.79,150a7.7,7.7,0,0,1-2.28,2.84,6.55,6.55,0,0,1-3.44,1.22,7.66,7.66,0,0,1-3.71-.66,8.38,8.38,0,0,1-1.6-1,8.17,8.17,0,0,1-.7-.62,3.71,3.71,0,0,0-.27-.29c-.18-.13,0-.07-.24,0a1.54,1.54,0,0,0-.3.11c-2.63.94-5.65,1.45-8.25.14a6,6,0,0,1-2.6-2.47,13.64,13.64,0,0,1-1-4.38,18.88,18.88,0,0,1-.43-5.18,3.65,3.65,0,0,1,.86-1.93,1.72,1.72,0,0,1,1.78-.51l.61-.35a5.64,5.64,0,0,1-4.55-4.26,4.91,4.91,0,0,1,.3-3.18,5.34,5.34,0,0,1,1.46-1.88l.27-.22.24-.17c.28-.21-.22.08,0,0a8.38,8.38,0,0,1,1.82-.58,4.91,4.91,0,0,1,1.87.09c.16,0,.44-.39.6-.35a5.29,5.29,0,0,0-3.54.42,7.84,7.84,0,0,0-2.39,1.68,5.14,5.14,0,0,0-.14,6.71,5.34,5.34,0,0,0,3.48,2.08c.18,0,.44-.39.61-.35A3.37,3.37,0,0,0,47.4,138c-1.16,1.13-1.14,2.85-1,4.34.21,1.74.43,3.49.73,5.21a5.93,5.93,0,0,0,2.1,3.82c2.51,2,5.89,1.73,8.77.8l.61-.21a1.82,1.82,0,0,1,.3-.11c.19,0,.06-.08.24,0s.51.52.77.74a7.77,7.77,0,0,0,5.91,1.75,9,9,0,0,0,3.55-1.4,7.8,7.8,0,0,0,3-3.32c-.08.17-.53.18-.61.35Z" transform="translate(-9.12 -15.69)"/><path class="cls-3" d="M29.28,149.17c3.09.76,6.17,1.6,9.29,2.28,2.67.58,5.56.86,8.11-.35a8.7,8.7,0,0,0,2.71-1.89c-.15.16-.46.18-.61.35a6.1,6.1,0,0,1-.79.73,6.42,6.42,0,0,1-.53.38c.16-.09.16-.09,0,0l-.35.17a8.81,8.81,0,0,1-2,.6,13.58,13.58,0,0,1-4.84-.1c-1.72-.31-3.42-.77-5.12-1.19l-5.32-1.32c-.16,0-.44.39-.6.35Z" transform="translate(-9.12 -15.69)"/><path class="cls-1" d="M29.05,149a11,11,0,0,1-7.59-.11,15.41,15.41,0,0,1-6.36-4.54,28.27,28.27,0,0,1-4.2-6.87,9.26,9.26,0,0,1-1-4,4.18,4.18,0,0,1,1.61-3.19,1.94,1.94,0,0,1,.44-.31c-.38.14,0,0,.06,0l.24-.1a6.32,6.32,0,0,1,1-.31,7.26,7.26,0,0,1,2.13-.14,18.33,18.33,0,0,1,4.92,1.29c.09,0,.55-.4.6-.35a8.27,8.27,0,0,1-2.18-7.64,7.54,7.54,0,0,1,1.94-3.58,8.21,8.21,0,0,1,.77-.67l.43-.31.17-.11.29-.15a8.61,8.61,0,0,1,2-.66,7.9,7.9,0,0,1,4.56.41c.07,0,.57-.39.6-.35a4.36,4.36,0,0,1,.17-5.36,4.18,4.18,0,0,1,.53-.5l.09-.07c.28-.18.25-.17-.08,0a4,4,0,0,0,.43-.19,4.53,4.53,0,0,1,1.41-.28,4.18,4.18,0,0,1,2.71.83,4.59,4.59,0,0,0,.61-.35,5.19,5.19,0,0,1,1.14-3.53,6.5,6.5,0,0,1,.68-.71,3.11,3.11,0,0,1,.28-.23l.2-.15q.38-.24,0,0a2.47,2.47,0,0,1,1-.38,4.08,4.08,0,0,1,.91-.13,5.33,5.33,0,0,1,5.33,4.39c0-.08.62-.26.61-.35A5.39,5.39,0,0,0,41,105.94a6,6,0,0,0-5.17,2.29,5.2,5.2,0,0,0-1.15,3.53l.61-.35a4.28,4.28,0,0,0-3.19-.79,5.81,5.81,0,0,0-2.39,1,4.29,4.29,0,0,0-.89,6l.6-.35a7.84,7.84,0,0,0-4.49-.42,10.13,10.13,0,0,0-3.5,1.48,7.78,7.78,0,0,0-3.47,7.81,8,8,0,0,0,2.29,4.54l.6-.35c-2.65-1-5.64-2-8.36-.69a6.54,6.54,0,0,0-2.37,1.75,4.69,4.69,0,0,0-.67,4,17.32,17.32,0,0,0,1.61,4,28.72,28.72,0,0,0,2.18,3.66,17,17,0,0,0,6.2,5.57,11.4,11.4,0,0,0,9,.72c.22-.08.39-.27.61-.35Z" transform="translate(-9.12 -15.69)"/><path class="cls-3" d="M27.68,118a2.77,2.77,0,0,0,.59,4.72l.61-.35a2.8,2.8,0,0,0-2.13,1.38,2.52,2.52,0,0,0,1.15,3.09,7,7,0,0,0,4.16.76,5.84,5.84,0,0,0,2.83-1.07,2.54,2.54,0,0,0,.92-3.31s-.61.35-.61.35a2.49,2.49,0,0,1-.58,3,3.08,3.08,0,0,1-1.81.61,9.36,9.36,0,0,1-2.05,0,4,4,0,0,1-3.37-2,2.12,2.12,0,0,1-.1-1.69,1.88,1.88,0,0,1,.45-.69.93.93,0,0,1,.18-.16c-.25.13-.28.15-.1.08s.29-.06.45-.07.5-.4.61-.35a2.77,2.77,0,0,1-.6-4.72c-.18.14-.42.21-.6.35Z" transform="translate(-9.12 -15.69)"/><path class="cls-1" d="M239.76,103.69a5.92,5.92,0,0,0-3.15,2.28l.6-.35a7.73,7.73,0,0,0-7-6.43c-2.31-.16-4.59.61-6.78,1.22s-4.43,1.25-6.65,1.85a25.09,25.09,0,0,1-6.6,1.08c-2.23,0-4.43-.49-6.66-.55a10.23,10.23,0,0,0-5.38,1.12,6.09,6.09,0,0,0-3.09,3.48,3.54,3.54,0,0,0,1.74,4.33,3.44,3.44,0,0,0,3.88-.59c-.17.14-.43.2-.61.35l-.08.06c-.12.09-.1.09,0,0l.12-.06-.26.12a2.79,2.79,0,0,1-.39.1,2.85,2.85,0,0,1-1,0,3.64,3.64,0,0,1-1.76-.78,3.56,3.56,0,0,1-1.08-3.9,5.3,5.3,0,0,1,1.17-2,5.7,5.7,0,0,1,.85-.78c.08-.06.41-.27.16-.13a3.26,3.26,0,0,1,.38-.18c.23-.1.45-.19.68-.27a13.29,13.29,0,0,1,5.61-.41,38.26,38.26,0,0,0,6.24.41,30.55,30.55,0,0,0,6-1.19l6.17-1.72a22.8,22.8,0,0,1,6.21-1.22,7.75,7.75,0,0,1,7.46,6.45c0-.06.55-.27.6-.35a5,5,0,0,1,1.3-1.33c.28-.21-.35.15,0,0l.24-.12c.14,0,.28-.11.42-.15a4.9,4.9,0,0,1,.92-.21" transform="translate(-9.12 -15.69)"/><path class="cls-1" d="M195.5,109.58a4.5,4.5,0,0,0-5.33-.79,5.78,5.78,0,0,0-1.94,1.53,4.58,4.58,0,0,0-.91,2.83l.61-.35a13.34,13.34,0,0,0-4.91-3,6.18,6.18,0,0,0-2.8-.18,5.81,5.81,0,0,0-1.88.76c-2.53,1.48-3.57,5-1.52,7.28a5,5,0,0,0,4.65,1.62l.61-.35c-2.41.51-4.92,2.55-4.82,5.19a4.27,4.27,0,0,0,1.84,3.39,3.46,3.46,0,0,0,3.49.11,3.85,3.85,0,0,0,2.36-2.65c0,.15-.58.2-.61.35a3,3,0,0,1-.58,1.34,3.94,3.94,0,0,1-.49.51l-.17.13s-.3.16-.12.09-.25.09-.31.1a3.36,3.36,0,0,1-2.91-.3,4.31,4.31,0,0,1-1.29-5.74A5.19,5.19,0,0,1,179.7,120a5.74,5.74,0,0,1,.5-.36s-.29.15,0,0a3.49,3.49,0,0,1,.34-.15,5.31,5.31,0,0,1,1-.29c.22,0,.39-.3.61-.35a4.84,4.84,0,0,1-5.76-4.43,5.09,5.09,0,0,1,1.52-3.66l.35-.31a2.42,2.42,0,0,1,.33-.24l-.09,0c-.16.09-.12.07.11,0a4.73,4.73,0,0,1,1.22-.35,6.09,6.09,0,0,1,2.51.16,13,13,0,0,1,5,3.07,4.16,4.16,0,0,0,.61-.35c0-1.52.82-3.47,2.36-4a4.55,4.55,0,0,1,4.61,1.12s.57-.39.6-.35Z" transform="translate(-9.12 -15.69)"/><path class="cls-1" d="M177.86,121.82a5.72,5.72,0,0,0-6.67-2.11,6.33,6.33,0,0,0-2.58,1.73,5.62,5.62,0,0,0-1.27,3.58,5.43,5.43,0,0,0,1.53,3.9l.61-.35a6.26,6.26,0,0,0-3.37.75,5.32,5.32,0,0,0-2.26,2c-1,1.81,0,4.66,2.21,4.89l.6-.35a6.72,6.72,0,0,0-5,2.57,4,4,0,0,0,.83,5.67,3.37,3.37,0,0,0,3.18.29c.21-.1.4-.26.61-.35a3.37,3.37,0,0,1-3.14-.26,3.6,3.6,0,0,1-1.68-2.87,4.52,4.52,0,0,1,1.22-3.35,5.77,5.77,0,0,1,.7-.61l.21-.14c-.2.1-.16.09.11-.05l.49-.2a6.51,6.51,0,0,1,1.85-.35c.19,0,.42-.37.6-.35-1.87-.19-2.9-2.31-2.53-4a3.49,3.49,0,0,1,.58-1.27,3.39,3.39,0,0,1,1.22-1.13c-.43.17.08,0,.16-.05l.34-.13a6.5,6.5,0,0,1,.84-.22,6.13,6.13,0,0,1,1.6-.11c.09,0,.56-.39.61-.35a5.67,5.67,0,0,1-1-6.4,4.78,4.78,0,0,1,1-1.4,7,7,0,0,1,.73-.59c.14-.11-.14.1-.15.09a2.8,2.8,0,0,0,.28-.13,4.43,4.43,0,0,1,.47-.17,5.81,5.81,0,0,1,3.33,0,5.32,5.32,0,0,1,3.07,2.22s.6-.36.61-.35Z" transform="translate(-9.12 -15.69)"/><path class="cls-1" d="M166,144.84c-1,1.91.54,4.28,2.52,4.68a4.74,4.74,0,0,0,3.19-.56,7.89,7.89,0,0,0,2.4-1.84l-.6.35a6.18,6.18,0,0,0,3.14,5.05,6,6,0,0,0,5.86-.12,7.37,7.37,0,0,0,2.35-1.87l-.61.35a8,8,0,0,0,6.26,3.34,8.86,8.86,0,0,0,5.91-2.32,7.93,7.93,0,0,0,2.26-3.4c0,.17-.55.19-.61.35a7.88,7.88,0,0,1-1.58,2.73,6.37,6.37,0,0,1-2.62,1.84,7.79,7.79,0,0,1-6.28-.49,8,8,0,0,1-2.73-2.4,7,7,0,0,0-.61.35A5.66,5.66,0,0,1,183,152.1c-.25.16-.27.18-.05.05l-.33.16-.35.15a6.4,6.4,0,0,1-.85.26,5.88,5.88,0,0,1-3.47-.23,6.18,6.18,0,0,1-3.82-5.37c0,.07-.54.27-.6.35a7.49,7.49,0,0,1-1.16,1.09c-.07,0-.53.3-.2.14-.14.06-.27.13-.41.18a4.19,4.19,0,0,1-.68.23,4,4,0,0,1-2.86-.27,3.39,3.39,0,0,1-1.6-4.35c-.09.17-.51.17-.6.35Z" transform="translate(-9.12 -15.69)"/><path class="cls-1" d="M202.37,129c-2.89-1.66-6.68-.15-8.48,2.44a8.35,8.35,0,0,0-1.43,5.06,5.63,5.63,0,0,0,2.09,4.41,3.87,3.87,0,0,0,4.09.24c.2-.11.41-.22.6-.35a2.51,2.51,0,0,0,.37-.27c.06,0,.11-.1.17-.15s.2-.18,0-.19a2.66,2.66,0,0,0-1.59.62A3.1,3.1,0,0,0,197,143a18.6,18.6,0,0,0-.23,3.16,8.18,8.18,0,0,0,1.74,5.2,4.66,4.66,0,0,0,4.77,1.65,6.6,6.6,0,0,0,1.78-.89,3.72,3.72,0,0,0,1.44-2.17c-.05.17-.55.18-.6.35a4,4,0,0,1-1,1.85l-.43.33s.54-.25,0,0l-.21.09a4.66,4.66,0,0,1-.89.23,4.55,4.55,0,0,1-3.72-1.27c-2.44-2.27-2.55-6.08-1.94-9.14a4.55,4.55,0,0,1,.35-1.08c.08-.15.45-.82.66-.79-.06,0-.28.1,0,.06l.24-.05c.06,0,.47,0,.49,0s-.28.29-.31.32l-.18.14.12-.06-.19.08a3.94,3.94,0,0,1-3.61-.48c-2.43-1.72-2.49-5.43-1.47-7.94a7.71,7.71,0,0,1,1.31-2.16,6.75,6.75,0,0,1,.86-.83l.21-.16c.06,0,.53-.31.21-.15a4.88,4.88,0,0,1,.66-.29,5.68,5.68,0,0,1,4.83.32c.11.06.51-.41.61-.35Z" transform="translate(-9.12 -15.69)"/><path class="cls-1" d="M205.34,150a10.12,10.12,0,0,0,6.62,5.83,9.47,9.47,0,0,0,4.52.1,11.89,11.89,0,0,0,3.64-1.57,10,10,0,0,0,3.52-3.6l-.61.35c1.54,2.43,4.8,2.74,7.39,2.38,1.85-.26,3.67-.76,5.54-.87a11.2,11.2,0,0,1,2.83.23,5.67,5.67,0,0,0,2.62.12c1.09-.33,2.6-1.44,2-2.73l-.61.35a9.62,9.62,0,0,0,7.67,1.07,10.71,10.71,0,0,0,5.43-3.72,9.36,9.36,0,0,0,1.72-3.81c0,.15-.58.2-.61.35a9.08,9.08,0,0,1-5,6.51,9.56,9.56,0,0,1-8.59-.75s-.6.37-.61.35a1.51,1.51,0,0,1-.3,1.64,2.91,2.91,0,0,1-.31.3c-.19.18-.07.05,0,0l-.23.07a3.59,3.59,0,0,1-1.22.08c-.83-.06-1.63-.3-2.46-.4a11.79,11.79,0,0,0-2.52,0c-2.95.33-5.85,1.4-8.82.65a5.34,5.34,0,0,1-3.3-2.23s-.58.3-.61.35a9.74,9.74,0,0,1-2.74,3.08,8.89,8.89,0,0,1-4.1,1.55A9.94,9.94,0,0,1,206,149.65s-.62.31-.61.35Z" transform="translate(-9.12 -15.69)"/><path class="cls-1" d="M257.72,143.77c3.32-2.45,6.39-5.77,6.9-10a8.9,8.9,0,0,0-1.18-5.78,6.85,6.85,0,0,0-4.29-3,6.05,6.05,0,0,0-2.9,0,7.68,7.68,0,0,0-2.08,1l.6-.34c1.48-2.57,3-5.26,3.29-8.28.22-2.59-.59-5.39-2.91-6.83a5.32,5.32,0,0,0-3.41-.8,4.36,4.36,0,0,0-.81.2,2.11,2.11,0,0,1-.34.13,3.84,3.84,0,0,1,.08-.55,6.84,6.84,0,0,0-.09-1.81,6.62,6.62,0,0,0-4.62-5.14,7.52,7.52,0,0,0-7,2c.16-.16.44-.19.6-.35a8.14,8.14,0,0,1,.63-.54,1.61,1.61,0,0,0,.3-.21c.12-.11-.06,0-.09.05l.56-.26a6.8,6.8,0,0,1,1.66-.45,6.42,6.42,0,0,1,7.38,5.67,6,6,0,0,1,0,1.75,1.13,1.13,0,0,0,0,.18c0,.1,0,0,.1,0a2.7,2.7,0,0,0,.4-.14,3.82,3.82,0,0,1,.82-.15,5.23,5.23,0,0,1,3.18.78,6.93,6.93,0,0,1,3,6.36c-.12,3.21-1.76,6.07-3.33,8.78.08-.13.46-.25.6-.34.37-.24-.51.23.12,0a.85.85,0,0,1,.22-.09,5.05,5.05,0,0,1,.55-.18,4.86,4.86,0,0,1,1.26-.19,6.72,6.72,0,0,1,2.43.38,6.87,6.87,0,0,1,3.74,3.15c1.88,3.44.94,7.67-1.22,10.74a20.8,20.8,0,0,1-4.75,4.66c.19-.14.42-.22.61-.35Z" transform="translate(-9.12 -15.69)"/><path class="cls-1" d="M210.81,89.22c-2.21-1.07-4.88-2.27-7.29-1a4.56,4.56,0,0,0-2,1.65,2.88,2.88,0,0,0,0,3l.61-.35a2.66,2.66,0,0,0-3.1-.18,4.18,4.18,0,0,0-2,2.23c-.92,2.4.24,5.46,2.92,6,2.2.44,3.77-1.31,5.22-2.64a6.1,6.1,0,0,1,.61-.51s.2-.11.21-.15l-.21.11.19-.08a2,2,0,0,1,.41-.14,4.45,4.45,0,0,1,2.14.13,8,8,0,0,0,4.06-.09,9,9,0,0,0,3.15-1.67,2.24,2.24,0,0,0,1-1.73,1.2,1.2,0,0,0-1.12-1.19c-.11,0-.54.4-.61.35,1.17.88,2.49.39,3.61-.28A3.25,3.25,0,0,0,220,88.86a5.22,5.22,0,0,0-3.76-3.46,8.79,8.79,0,0,0-5.75.23c-1.53.69-3.06,2-2.82,3.83,0-.08.62-.25.6-.35a3.21,3.21,0,0,1,2.38-3.41,9.38,9.38,0,0,1,4.85,0A5.5,5.5,0,0,1,219,88.33a3.65,3.65,0,0,1-.08,3.86,3.51,3.51,0,0,1-.37.4c-.08.07-.63.48-.27.24s-.21.07-.33.11a3,3,0,0,1-.52.13,2.47,2.47,0,0,1-1.88-.46l-.61.35a1.11,1.11,0,0,1,1,.75,1.57,1.57,0,0,1-.23,1.49A4.93,4.93,0,0,1,212.6,97a8.42,8.42,0,0,1-3.67-.09,4.6,4.6,0,0,0-1.88-.12,3.8,3.8,0,0,0-1.06.45,9.22,9.22,0,0,0-1.93,1.49,13.28,13.28,0,0,1-1.1,1l-.28.21s-.29.16-.12.09,0,0-.06,0a5.09,5.09,0,0,1-.79.21,4.06,4.06,0,0,1-4.42-3.94,4.6,4.6,0,0,1,1.14-3.46q.16-.17.33-.3c.08-.07.18-.12.25-.18-.1.09-.22.11,0,.06a4,4,0,0,1,.92-.16,2.42,2.42,0,0,1,1.63.6s.59-.37.61-.35a2.8,2.8,0,0,1-.23-2.53,3.25,3.25,0,0,1,.72-1.14,2.33,2.33,0,0,1,.28-.26c.07,0,.14-.11.21-.15s.14-.11-.12.06c0,0,.75-.29.81-.31,2.24-.6,4.8.19,6.77,1.15.12.06.12-.18.23-.13Z" transform="translate(-9.12 -15.69)"/><path class="cls-5" d="M186.69,87a3.14,3.14,0,0,0-3.26-.23,2.79,2.79,0,0,0-1.66,1.91,1.74,1.74,0,0,0,1.5,2.07,2.53,2.53,0,0,0,2-.8,3.12,3.12,0,0,1-.59.34,2.69,2.69,0,0,0-1.19,2.52,2.55,2.55,0,0,0,1.91,2.12,2.94,2.94,0,0,0,2.38-.53,2.75,2.75,0,0,0,1.4-2.41l-.61.35a3.28,3.28,0,0,0,2.29.42,4.86,4.86,0,0,0,1.61-.72,3.22,3.22,0,0,0,1.27-4l-.6.35a1.69,1.69,0,0,0,1.41-2,2.91,2.91,0,0,0-1.3-1.45,9.34,9.34,0,0,0-2.18-1c-1.3-.4-3-.74-4.3-.09-.9.45-2,1.31-1.39,2.45l.6-.35a2.29,2.29,0,0,0-2.69-.69,3.21,3.21,0,0,0-1.82,1.57,2.89,2.89,0,0,0,.62,3.11,3.69,3.69,0,0,0,3.25.94c.22,0,.39-.32.61-.35-2,.35-4.18-.91-4.08-3.11a2.65,2.65,0,0,1,.4-1.31,2.86,2.86,0,0,1,.46-.52c.19-.18-.2,0,.05,0l.31-.09a2.23,2.23,0,0,1,2.29.81s.6-.36.6-.35a1.39,1.39,0,0,1,0-1.33,1.18,1.18,0,0,1,1.1-.71,7.76,7.76,0,0,1,3.44.41A6.87,6.87,0,0,1,193.43,86a1.79,1.79,0,0,1,.53,1.3,1.59,1.59,0,0,1-.14.57c0,.09-.12.17-.17.26a1.14,1.14,0,0,1-.11.11c.3-.14.36-.19.16-.13a6,6,0,0,0-.6.35,3.25,3.25,0,0,1-.65,3.48,1.7,1.7,0,0,1-.38.33c.19-.11-.15,0-.17,0a3.26,3.26,0,0,1-2.76-.29,2.84,2.84,0,0,0-.61.35,2.58,2.58,0,0,1-1.1,2.22c.16-.09,0,0-.11,0l-.29.07a2.59,2.59,0,0,1-1.82-.39,2.57,2.57,0,0,1,0-4.29l-.59.34c-.12.12-.35.27.12,0l.09-.05a1.76,1.76,0,0,1-2.44-2,2.36,2.36,0,0,1,.46-.94s.38-.44.42-.41-.36.15-.06.06a2,2,0,0,1,.32-.1,3.27,3.27,0,0,1,2.54.52C186.17,87.4,186.6,86.94,186.69,87Z" transform="translate(-9.12 -15.69)"/></svg>