<svg id="Layer_1" data-name="Layer 1" xmlns="http://www.w3.org/2000/svg" viewBox="0 0 209.92 148.85"><defs><style>.cls-1{fill:#fff;}</style></defs><path d="M128.65,79.91a4.44,4.44,0,0,0,4.72-1.72c.12-.17-.77-.56-1-.29a3.77,3.77,0,0,1-3.9,1.56c-.11,0-.43,0-.41.14s.42.28.55.31Z" transform="translate(-33.27 -9.63)"/><path d="M119.27,78.07a5.22,5.22,0,0,0,6.25,2.55c.14-.05.33-.16.16-.29a.87.87,0,0,0-.69,0,4.19,4.19,0,0,1-4.77-2.42c-.11-.24-1.09-.11-1,.18Z" transform="translate(-33.27 -9.63)"/><path d="M110.06,23.68,97.77,16.49l-6-3.53c-1.59-.93-3.39-2-5.31-1.68a5.59,5.59,0,0,0-3.72,3.19,15.09,15.09,0,0,0-1.63,5.21c-.5,3.76.14,7.57.78,11.28.67,3.88,1.45,7.82,1.2,11.78s-1.72,8-3,11.81-2.33,7.64-2,11.65a20.23,20.23,0,0,0,3.72,10.14,20.72,20.72,0,0,0,19.08,8.31,21,21,0,0,0,2.61-.48c.35-.09-.48-.56-.74-.49a19,19,0,0,1-19.49-6.45,20.1,20.1,0,0,1-4.1-9.54,25,25,0,0,1,1.32-11c1.14-3.69,2.62-7.3,3.27-11.13A33.32,33.32,0,0,0,83.4,34.7a96.47,96.47,0,0,1-1.53-10.82c-.15-3.44.34-7.26,2.43-10.11a5.18,5.18,0,0,1,1.88-1.69,3.75,3.75,0,0,1,3.28.12,62.43,62.43,0,0,1,5.67,3.25l11.53,6.74,2.81,1.64c.14.08.5.28.66.17s.09-.23-.07-.32Z" transform="translate(-33.27 -9.63)"/><path d="M142.32,81.31c6.69,2.53,14.05-1.13,18.05-6.61,5.06-7,4.74-16.38,3.95-24.52-.44-4.45-1.56-8.78-2.21-13.19a35,35,0,0,1-.45-6.63,50.39,50.39,0,0,1,1.13-6.57,22.17,22.17,0,0,0,.18-6.85,11.73,11.73,0,0,0-1.81-5.39c-1.66-2.19-4.56-2.28-7-1.39a12.6,12.6,0,0,0-3.94,2.45,38,38,0,0,0-3.64,4.17,44.18,44.18,0,0,1-7.88,7.14l-2.48,1.82.78-.07a46.74,46.74,0,0,0-27.47-3.48c-.67.12-.15.46.28.38A44.86,44.86,0,0,1,136.34,26a1,1,0,0,0,.79-.07,68.79,68.79,0,0,0,8-6.41,39.8,39.8,0,0,0,3.44-3.9,18.94,18.94,0,0,1,3.5-3.6c2-1.51,5.06-2.95,7.33-1.12a7.54,7.54,0,0,1,2.19,4.25,20.08,20.08,0,0,1,.45,6.51c-.18,2.15-.82,4.19-1.16,6.32a24.9,24.9,0,0,0-.16,6.1c.35,4.18,1.38,8.27,2.07,12.41a70.12,70.12,0,0,1,.94,12.28,31.87,31.87,0,0,1-2.28,12.18c-2.6,6-9,11.63-16,10.71A10.84,10.84,0,0,1,143,81c-.24-.09-1.18.12-.7.3Z" transform="translate(-33.27 -9.63)"/><path d="M82.87,79.81a30.86,30.86,0,0,0-4.74,39.91,29.37,29.37,0,0,0,10.17,9.65c4.2,2.29,10.1,3.63,14.12.24l-.89-.2c3.86,4.82,10.67,6.82,16.62,5.44a14.43,14.43,0,0,0,4.81-2.09c.2-.13-.64-.53-.9-.36a15.06,15.06,0,0,1-19.65-3c-.14-.18-.68-.38-.89-.2-3.64,3.06-8.79,2-12.64-.07a28.61,28.61,0,0,1-9.76-9.25A30.72,30.72,0,0,1,75.39,93.4a31.13,31.13,0,0,1,8.38-13.22c.2-.19-.68-.57-.9-.37Z" transform="translate(-33.27 -9.63)"/><path d="M73.51,107c-3.28.76-6-2.32-8-4.44-1.81-1.93-3.74-3.57-6.4-4.11A12.52,12.52,0,0,0,47,103.15c-3.2,4.33-2.87,10.41-.51,15,2.57,5,7.6,8.32,12.87,10,7.1,2.23,14.69,1.59,21.94.59.11,0,.51-.06.48-.25s-.4-.17-.51-.15c-6.44.89-13.14,1.54-19.52-.05-5.25-1.3-10.37-4.13-13.4-8.73-2.86-4.34-3.73-10.3-1.24-15,2.14-4.06,7.11-6.72,11.68-5.71,3.09.69,5,3.1,7.12,5.27s4.79,4,7.89,3.24c.66-.16.12-.46-.3-.37Z" transform="translate(-33.27 -9.63)"/><path d="M160.59,73.91c2.61,7.32,4.91,14.86,5.55,22.64a87.29,87.29,0,0,1,0,9.57c-.07,2.71-.13,5.42-.35,8.12-.41,4.92-1.25,10.37-4.53,14.28a14,14,0,0,1-6.7,4.15,36.13,36.13,0,0,1-9.17,1.53c-7.17.41-14.33-.48-21.49-.69-.43,0-.92.39-.23.41,6.52.19,13,.93,19.55.77a46.63,46.63,0,0,0,9.49-1.07,19.65,19.65,0,0,0,7.64-3.24c4.06-3.16,5.48-8.5,6.13-13.37a81.68,81.68,0,0,0,.59-8.27c.09-2.92.25-5.85.22-8.76-.1-8-2.18-15.83-4.74-23.37-.32-.93-.65-1.86-1-2.79-.1-.3-1.07-.12-1,.09Z" transform="translate(-33.27 -9.63)"/><path d="M94,47.32a14.94,14.94,0,0,1,15.9-6.12c.16,0,.57.12.69,0s0-.23-.16-.28A16.15,16.15,0,0,0,93,47.16c-.16.23.79.4.95.16Z" transform="translate(-33.27 -9.63)"/><path d="M136.62,41.18a17.61,17.61,0,0,1,16.71,5.61c.17.19,1.12.3.89,0a19.42,19.42,0,0,0-18.38-6.07c-.23,0,0,.26.1.31a1,1,0,0,0,.68.11Z" transform="translate(-33.27 -9.63)"/><path d="M122.79,49.42a3.78,3.78,0,0,0,4.19.08c.07,0,.18-.13.1-.21a2.73,2.73,0,0,0-3.72,0c-.08.08-.06.15,0,.2a6.2,6.2,0,0,0,4.76.4c.06,0,.38-.12.33-.25-.81-2-4.42-1.89-4.93.27a2.38,2.38,0,0,0,1,2.55A2.83,2.83,0,0,0,127.8,52a1.86,1.86,0,0,0,.26-2.63,2.78,2.78,0,0,0-2.75-.57,1.91,1.91,0,0,0-1.13.79,1.19,1.19,0,0,0,0,.77,2.12,2.12,0,0,0,.39.85,2.59,2.59,0,0,0,3.3.66,2.5,2.5,0,0,0,1.2-1.38,2.14,2.14,0,0,0,.12-.87.83.83,0,0,0-.09-.39,1.63,1.63,0,0,0-.51-.3,6.12,6.12,0,0,0-4.64-.19c-.14.05-.31.19-.14.3s.51,0,.69,0a4.41,4.41,0,0,1,3.72.51l-.09-.09a2,2,0,0,1-.64,2,1,1,0,0,1-.72.31,1.75,1.75,0,0,1-1-.48,2.13,2.13,0,0,1-.62-1,2,2,0,0,1,0-.55.52.52,0,0,1,.25-.41,1.06,1.06,0,0,1,.26-.17l.21,0a1.62,1.62,0,0,1,.74.14,1.55,1.55,0,0,1,1,1.4,1.86,1.86,0,0,1-1.09,1.63,1.26,1.26,0,0,1-1.51-.53,2.26,2.26,0,0,1-.38-1.9,1.66,1.66,0,0,1,.55-.9,1.09,1.09,0,0,1,.7-.26,1.92,1.92,0,0,1,1.7,1.15l.33-.25a4.6,4.6,0,0,1-3.61-.39l0,.2a1.27,1.27,0,0,1,1.9.16l.1-.21a2.19,2.19,0,0,1-2.51-.16.73.73,0,0,0-.63,0c-.06,0-.47.18-.31.29Z" transform="translate(-33.27 -9.63)"/><path d="M144.64,44.17l-1.33,1.1c-.05,0-.08.11,0,.16a2.55,2.55,0,0,0,2.77.54c.1,0,.2-.09.22-.2a1.4,1.4,0,0,0-.67-1.34,2.34,2.34,0,0,0-1.89-.31,1.59,1.59,0,0,0-.86.47.36.36,0,0,0-.09.26,1.15,1.15,0,0,0,0,.26,1.39,1.39,0,0,0,.22.46,1.81,1.81,0,0,0,2.31.38,1.37,1.37,0,0,0,.56-1.83.38.38,0,0,0-.24-.09,1,1,0,0,0-.39,0c-.11,0-.41.12-.31.29a1.09,1.09,0,0,1,.06.85,1.47,1.47,0,0,1-.1.22,1,1,0,0,1-.11.17,1.14,1.14,0,0,1-.16.15h0l0,0s-.14.06,0,0h0c-.1,0,.09,0,0,0s0,0,0,0l-.07,0-.06,0h0l-.12-.06a.9.9,0,0,1-.19-.15,1.06,1.06,0,0,1-.34-.94l-.06.11.15-.15,0,0s0,0,0,0l.08-.05h0c.12,0-.07,0,0,0h0s.16,0,0,0h.12l.1,0c-.06,0-.07,0,0,0l0,0,.11,0s.12.05,0,0l.18.08.17.1.05,0s0,0,0,0l.09.07a1.3,1.3,0,0,1,.26.31,1.11,1.11,0,0,1,.15.76l.22-.2s-.17.05-.05,0l-.1,0h0c-.13,0,.07,0,0,0s-.1,0,0,0l-.14,0c-.09,0,.05,0,0,0l-.12,0a1.71,1.71,0,0,1-.4-.18,2,2,0,0,1-.35-.3l0,.16,1.33-1.11c.17-.14-.1-.24-.21-.25a.93.93,0,0,0-.67.16Z" transform="translate(-33.27 -9.63)"/><path d="M108.67,43.59l-1.77.25c-.08,0-.61.12-.45.31a3,3,0,0,0,3.15.89c.25-.07.7-.16.77-.44a1,1,0,0,0,0-.56,1.49,1.49,0,0,0-.93-.77c-.91-.31-2.25,0-2.31,1.14a1.72,1.72,0,0,0,.48,1.21,1.89,1.89,0,0,0,1.36.57,2.35,2.35,0,0,0,2.43-2.41c0-.27-1-.18-1,.12a2,2,0,0,1-.7,1.63,1.08,1.08,0,0,1-.3.19l-.13.05c.07,0,0,0,0,0s-.07,0-.08,0,0,0-.05,0l-.13,0a1,1,0,0,1-.32-.21,1.5,1.5,0,0,1-.51-1.39.9.9,0,0,1,.38-.54c-.06,0,.12,0,0,0h0a.38.38,0,0,1,.14,0,.92.92,0,0,1,.68,1.08l.11-.1a1.14,1.14,0,0,1-.48.14c.08,0-.07,0-.08,0h-.12l-.3,0a2.13,2.13,0,0,1-1.11-.75l-.45.31,1.78-.26c.12,0,.48-.07.47-.25s-.42-.16-.52-.14Z" transform="translate(-33.27 -9.63)"/><path d="M125.3,80.89a1.37,1.37,0,0,1,.34-1,1.69,1.69,0,0,1,.35-.31,2.07,2.07,0,0,1,.45-.22l.13,0h.07l.14,0s0,0,0,0H127q-.11,0,0,0s.17,0,0,0l.12,0s0,0,0,0l.06,0a.69.69,0,0,1,.17.1,1.19,1.19,0,0,1,.34.37c.1.18.43.19.6.19s.47-.06.37-.23a2.26,2.26,0,0,0-2.07-.9,2.66,2.66,0,0,0-2,.86,1.52,1.52,0,0,0-.36,1c0,.3,1,.33,1,.06Z" transform="translate(-33.27 -9.63)"/><path class="cls-1" d="M111.76,115c-1.12,3.27-.38,1-1.5,4.31-3,8.67-5.77,21.79-.8,29.48,4.24,6.54,12.64,7.82,20.34,9,7.1,1.11,14.27-.24,21.45-.06,4.75.12,9.86-.08,13.68-2.91,4.82-3.57,6.08-10.12,7-16,.65-4.31,1.31-8.71.62-13s-3-8.59-6.83-10.61c-2.91-1.51-6.34-1.58-9.62-1.62L112.5,113" transform="translate(-33.27 -9.63)"/><path d="M111.28,114.83a107.31,107.31,0,0,0-4,13.47c-1.11,5.48-1.71,11.55.09,17a14.93,14.93,0,0,0,4.24,6.47,20.61,20.61,0,0,0,7,3.86,53.07,53.07,0,0,0,8.53,2,56.66,56.66,0,0,0,10.24.89c3.83-.05,7.64-.42,11.47-.5,3.3-.07,6.6.19,9.87-.35a14.32,14.32,0,0,0,8-3.79,17.56,17.56,0,0,0,4.07-7.31,61.67,61.67,0,0,0,1.8-9,39.8,39.8,0,0,0,.48-11.16,16.66,16.66,0,0,0-3.29-8.07,12.54,12.54,0,0,0-7.43-4.46c-3.38-.71-6.94-.52-10.38-.56l-11.43-.14-22.88-.27-5.47-.07c-.23,0-.18.15-.09.27a1,1,0,0,0,.67.22l43.59.52c3.34,0,6.93.08,9.84,1.94a13.15,13.15,0,0,1,5.06,6.85,24,24,0,0,1,.94,10,87.84,87.84,0,0,1-1.41,9.7c-1.09,5.55-3.24,11.38-8.84,13.76a23.06,23.06,0,0,1-9,1.46c-1.66,0-3.31-.06-5,0-1.87,0-3.75.15-5.62.26a68.44,68.44,0,0,1-11.09,0,74.73,74.73,0,0,1-8.67-1.47c-5.27-1.19-10.59-3.42-13.28-8.41-2.6-4.84-2.44-10.81-1.68-16.08a75.47,75.47,0,0,1,3.79-14.48c.26-.73.51-1.46.76-2.19.09-.27-.86-.59-1-.31Z" transform="translate(-33.27 -9.63)"/><path d="M167,115.52a7.84,7.84,0,0,0-3.35-5.57l-.78.26a2.34,2.34,0,0,0,3-1.59,2.91,2.91,0,0,0-1.79-3.58c-1.85-.88-4.07-.79-6.07-.89l-7.79-.4-15.88-.81-7.83-.4c-2.55-.13-5.12-.36-7.68-.37-2,0-4.7.52-5.43,2.75a2.5,2.5,0,0,0,3.22,3l-.69-.26c-.69.48-1.62.69-2.15,1.36a7.75,7.75,0,0,0-1,1.85c-.64,1.51-1.2,3-1.76,4.58-.11.3.87.35,1,.09.56-1.52,1.12-3,1.74-4.53a8.27,8.27,0,0,1,1-1.87c.48-.63,1.4-.83,2.07-1.3.33-.22-.57-.29-.69-.25-.85.26-1.62-.81-1.79-1.53a2.59,2.59,0,0,1,.72-2.21c1.47-1.65,3.9-1.33,5.88-1.23l13,.66c8.65.44,17.3.84,25.95,1.33,1.66.09,3.89.28,4.83,1.89a2.57,2.57,0,0,1,.12,2.12c-.17.48-.7,1.44-1.32,1.25-.14,0-1.13,0-.78.26a7.58,7.58,0,0,1,3.21,5.38c0,.29,1,.24,1,0Z" transform="translate(-33.27 -9.63)"/><path d="M124.13,81.53c3.89,2.53,7.93,5.16,10.69,9,3,4.08,3.58,9,4,13.91a72.2,72.2,0,0,0,1,8.3c.06.31,1,.25,1,0-1-5-.75-10.08-1.83-15a19.37,19.37,0,0,0-2.68-6.63A23.39,23.39,0,0,0,131.56,86,65.53,65.53,0,0,0,125,81.35a1,1,0,0,0-.69-.09c-.1,0-.38.14-.18.27Z" transform="translate(-33.27 -9.63)"/><path d="M128.6,80c1.74,3.7,6.06,4.91,9.13,7.18a9.55,9.55,0,0,1,2.13,2.08,8.69,8.69,0,0,1,1.4,3.72c.51,3.08.71,6.23,1.06,9.34.4,3.58.85,7.15,1.42,10.71,0,.32,1,.32,1,.1-1-6.36-1.54-12.78-2.36-19.17a9.32,9.32,0,0,0-2.84-6.14,28.52,28.52,0,0,0-5-3.27c-2-1.14-3.93-2.44-4.92-4.56-.12-.26-1.09-.25-1,0Z" transform="translate(-33.27 -9.63)"/><path d="M161.79,99.9a134.69,134.69,0,0,1-8.39,14.3c-.13.19.76.6.94.34a134.69,134.69,0,0,0,8.39-14.3c.12-.23-.8-.61-.94-.34Z" transform="translate(-33.27 -9.63)"/><path class="cls-1" d="M148.36,93.83c.87.67,3,2.22,4,2.33" transform="translate(-33.27 -9.63)"/><path d="M147.92,93.9a24.18,24.18,0,0,0,2,1.44,6.05,6.05,0,0,0,2.44,1c.12,0,.49,0,.51-.17s-.39-.22-.49-.23c.15,0,0,0,0,0s.07,0,0,0l-.24-.08L152,95.8l-.25-.11a9.7,9.7,0,0,1-1.08-.62c-.63-.41-1.24-.85-1.84-1.31a.91.91,0,0,0-.68-.12c-.12,0-.38.12-.2.26Z" transform="translate(-33.27 -9.63)"/><path class="cls-1" d="M152.41,96.16c6.12,2,19.75,8.22,25.87,10.26l-4.75-14.81c-.45-1.38-1-2.93-2.38-3.48-.9-.36-21.84,5.51-22.79,5.7" transform="translate(-33.27 -9.63)"/><path d="M152.15,96.31c3.3,1.11,6.51,2.47,9.72,3.8,3.72,1.54,7.43,3.11,11.17,4.6,1.64.65,3.3,1.3,5,1.86.14.05.84.12.75-.17l-2.64-8.23-1.32-4.11c-.39-1.21-.73-2.46-1.22-3.64s-1.38-2.56-2.76-2.5a10.4,10.4,0,0,0-1.92.32c-5.25,1.13-10.44,2.61-15.63,4l-3.54.95-1.13.31-.37.09-.12,0c-.63.13.17.44.48.38,1.34-.27,2.66-.7,4-1.06l7.79-2.09c2.54-.67,5.08-1.34,7.64-1.94.81-.19,1.63-.38,2.45-.53l.39-.06c.14,0,.14,0,.23,0s0,0,0,0c-.29-.07-.11,0,.1.12a3.31,3.31,0,0,1,1,1.14,17.35,17.35,0,0,1,1.35,3.58l1.39,4.35,2.87,8.93.75-.18c-3.3-1.1-6.52-2.47-9.73-3.8-3.72-1.54-7.43-3.11-11.17-4.6-1.64-.65-3.3-1.29-5-1.86-.29-.09-1.14.11-.52.31Z" transform="translate(-33.27 -9.63)"/><path d="M152.57,95.92a119.93,119.93,0,0,0,19.06-7.76c.32-.16-.59-.42-.83-.3a118.56,118.56,0,0,1-18.89,7.69c-.5.15.42.44.66.37Z" transform="translate(-33.27 -9.63)"/><path d="M159.82,99.13a24.49,24.49,0,0,0,12.36-11c.12-.23-.83-.24-1,0a23.78,23.78,0,0,1-11.94,10.72c-.6.24.26.39.55.28Z" transform="translate(-33.27 -9.63)"/><path d="M170.66,88.12l-.45,15.67c0,.24,1,.17,1-.14L171.65,88c0-.25-1-.18-1,.13Z" transform="translate(-33.27 -9.63)"/><path d="M170.65,90.55a38.54,38.54,0,0,1-5.19,11c-.12.18.77.56,1,.29a39.07,39.07,0,0,0,5.19-11c.08-.28-.88-.56-1-.29Z" transform="translate(-33.27 -9.63)"/><path d="M132.12,125.87a9.56,9.56,0,0,0-6.93,3.13,6,6,0,0,0-.6,6.95c1.3,2,3.65,2.91,5.85,3.42a24.8,24.8,0,0,0,8.59.37,25.91,25.91,0,0,0,9.38-3l-.91-.12a9.35,9.35,0,0,0,7,5.42c1.45.19,3.17-.11,3.89-1.53a2.32,2.32,0,0,0-.92-2.92c-.85-.68-2.06-1.14-2.64-2.11-.91-1.53.78-2.75,2-3.31s2.8-1.26,3-2.87a3.53,3.53,0,0,0-1.73-3.23,5.79,5.79,0,0,0-5-.11,13.12,13.12,0,0,0-4.44,3.64l.74-.06a9.17,9.17,0,0,1-4.41-3.25,9.68,9.68,0,0,1-1.25-2.3,3.92,3.92,0,0,0-1.38-2,4.32,4.32,0,0,0-4.32.28c-1.59.91-2.75,2.66-4.65,3-.63.1.17.43.48.39,1.58-.25,2.72-1.31,3.92-2.29A6.16,6.16,0,0,1,140,122a1.92,1.92,0,0,1,2.34,1.25c.35.73.6,1.51,1,2.22a10,10,0,0,0,5.42,4.39c.18.06.58.11.74-.06a15.85,15.85,0,0,1,3.43-3.11c1.37-.81,3.27-1.27,4.63-.2a3.12,3.12,0,0,1,1.11,3.2c-.4,1.37-1.91,1.81-3.05,2.37-1,.48-2.11,1.34-2.06,2.55a2.82,2.82,0,0,0,1.43,2,8.16,8.16,0,0,1,2.24,1.75,2.09,2.09,0,0,1-.94,3c-1.61.78-3.74-.3-5-1.28a9.08,9.08,0,0,1-2.83-3.57c-.11-.25-.71-.23-.9-.12a24.59,24.59,0,0,1-15.52,2.82,10,10,0,0,1-6-2.69,5.52,5.52,0,0,1-.6-6.38,8.26,8.26,0,0,1,6.88-3.91c.68,0,.21-.44-.23-.41Z" transform="translate(-33.27 -9.63)"/><path d="M134.69,130.08a4.39,4.39,0,0,0-5-1.28,3.59,3.59,0,0,0-2,4.37,4.1,4.1,0,0,0,4.49,2.37,3.65,3.65,0,0,0,3-3.84c-.17-2.24-2.51-3.58-4.6-3.38-.16,0-.33.09-.21.26s.5.16.67.15a3.12,3.12,0,0,1,3.1,2.46,3.49,3.49,0,0,1-1.79,3.73,2.74,2.74,0,0,1-3.5-1.26,3.4,3.4,0,0,1,.68-4,2.75,2.75,0,0,1,4.09.39.77.77,0,0,0,.6.21c.06,0,.49,0,.37-.2Z" transform="translate(-33.27 -9.63)"/><path d="M138,130.8a1,1,0,0,1,1.32.12l0-.16-.73.86c-.13.16.28.25.34.26a1.2,1.2,0,0,1,.92.88l.25-.16-.8.22c-.21.06-.35.18-.11.31a2.18,2.18,0,0,1,1,2.21,2,2,0,0,1-1.69,1.66c-.12,0-.43.05-.36.23s.48.17.61.16a2.62,2.62,0,0,0,2.4-1.85,2.42,2.42,0,0,0-1.27-2.67l-.11.31.8-.23s.27-.06.25-.16a1.81,1.81,0,0,0-1.64-1.29l.34.25.73-.86c.05-.06,0-.12,0-.15a2.67,2.67,0,0,0-3-.16c-.19.12.06.24.17.27a.94.94,0,0,0,.68,0Z" transform="translate(-33.27 -9.63)"/><path d="M142.29,130.3a1.13,1.13,0,0,1,.68-.55c.2-.06.3,0,.47.15a1.28,1.28,0,0,1-.06,1.72c-.11.11.13.23.2.26l.92.31-.2-.26-.7,1.28c-.14.24.45.32.58.32s0,0,0,0l.11.08a.9.9,0,0,1,.23.31.84.84,0,0,1,0,.74.81.81,0,0,1-.47.36s-.08,0,0,0,0,0,0,0a.67.67,0,0,1-.21-.2.76.76,0,0,0-.6-.21c-.07,0-.49,0-.37.2a1.77,1.77,0,0,0,2.58.17,1.05,1.05,0,0,0,0-1.21,1.7,1.7,0,0,0-1.42-.66l.58.32.71-1.27c.07-.13-.1-.22-.2-.25l-.93-.31.2.25a1.46,1.46,0,0,0-.32-2.28,2,2,0,0,0-2.65.51c-.15.27.81.46.94.22Z" transform="translate(-33.27 -9.63)"/><path d="M134.8,139.6a4.56,4.56,0,0,0,2.37,3.84,2.72,2.72,0,0,0,2.31.2,3,3,0,0,0,1.58-1.54,2.9,2.9,0,0,0,0-2.49.71.71,0,0,0-.56-.29c-.07,0-.48,0-.4.14a2.9,2.9,0,0,1-.94,3.49,2.2,2.2,0,0,1-.84.38.77.77,0,0,1-.55-.06,3.62,3.62,0,0,1-1.36-1.33,4,4,0,0,1-.67-2.08c0-.32-1-.49-1-.26Z" transform="translate(-33.27 -9.63)"/><path d="M142.12,139c-.13,1.68,1.61,2.79,3.13,2.72a3.37,3.37,0,0,0,2.15-.88,4.89,4.89,0,0,0,1.14-2.05,3.68,3.68,0,0,0,.31-1.11,1.88,1.88,0,0,0-.38-1.14c-.11-.18-.41-.2-.6-.2s-.47,0-.37.21a1.7,1.7,0,0,1,.35,1.1,4,4,0,0,1-.31,1A8.13,8.13,0,0,1,147,140a3.17,3.17,0,0,1-.84.91,1.78,1.78,0,0,1-2,.25,2.19,2.19,0,0,1-1.09-2c0-.28-1-.37-1-.09Z" transform="translate(-33.27 -9.63)"/><path d="M131.83,126a22.14,22.14,0,0,1,16.25,3.92c.21.16,1.16,0,.87-.17a24,24,0,0,0-17.62-4.11c-.18,0-.29.11-.18.26s.53.12.68.1Z" transform="translate(-33.27 -9.63)"/><circle cx="97.98" cy="123.15" r="1.01"/><path d="M125.76,136.15a5,5,0,0,1,2.08,0,.53.53,0,0,0,.39,0c.1-.07,0-.14-.1-.15a6.62,6.62,0,0,0-2.66,0c-.08,0-.2.08-.1.15a.48.48,0,0,0,.39,0Z" transform="translate(-33.27 -9.63)"/><path d="M117.51,124s.15,0,0,0h0c.06,0-.13,0-.06,0s-.14,0-.06,0,.1,0-.08,0h0c-.17,0-.1,0-.06,0h0l0,0h0l.17.11-.06,0a.6.6,0,0,1,.2.27l0-.05a.56.56,0,0,1,0,.36l0-.05a.92.92,0,0,1-.18.3l0-.05-.09.08a.1.1,0,0,0,0,0c-.06,0,0,0,0,0s-.21.07,0,0l-.06,0h.06c-.09,0,.14,0,.06,0s.13,0,.06,0,.11,0,0,0h0l0,0c-.06,0,.08,0,0,0l-.09-.07,0,0a.75.75,0,0,1-.18-.28l0,.06a.86.86,0,0,1,0-.5v0a.76.76,0,0,1,.15-.28l0,0,.08-.06a.12.12,0,0,0,0-.16.41.41,0,0,0-.24-.11,1.21,1.21,0,0,0-.38,0,.68.68,0,0,0-.3.11.81.81,0,0,0-.29.85.83.83,0,0,0,.22.4,1.09,1.09,0,0,0,.71.28,1.4,1.4,0,0,0,1.31-.54.68.68,0,0,0,.1-.48.74.74,0,0,0-.24-.42,1.2,1.2,0,0,0-.65-.31,2,2,0,0,0-.59,0,1.26,1.26,0,0,0-.43.13c-.05,0-.15.08-.14.15s.1.12.15.13a1.08,1.08,0,0,0,.36,0,.85.85,0,0,0,.35-.08Z" transform="translate(-33.27 -9.63)"/><path d="M120.06,130.31a1.38,1.38,0,0,0-.67,0,.83.83,0,0,0-.35.14.74.74,0,0,0-.31.46.53.53,0,0,0,.11.47,1.07,1.07,0,0,0,.71.31c.47,0,1.15-.06,1.33-.56a1,1,0,0,0-.34-1.14,1.78,1.78,0,0,0-.9-.35,2.59,2.59,0,0,0-1.07.08c-.06,0-.18,0-.22.12s0,.11.05.15a.59.59,0,0,0,.3.09,1.22,1.22,0,0,0,.38,0l.11,0h.14s.1,0,0,0h.06l.11,0c-.11,0,0,0,0,0l.06,0,0,0c.06,0,0,0,0,0l.09,0,.08.06s0,0,0,0l0,0a.94.94,0,0,1,.2.35l0-.06a.89.89,0,0,1,0,.51l0-.05a.48.48,0,0,1-.08.16.18.18,0,0,1,0,.07l0,0s0,0,0,0l-.07.05s-.06,0,0,0,0,0,0,0l-.07,0,0,0s-.09,0,0,0h0s-.08,0,0,0,0,0,0,0,.13,0,.07,0h0c.08,0,0,0,0,0s0,0,0,0l0,0,0,0h0a1,1,0,0,1-.08-.14l0,0a.58.58,0,0,1,0-.32v.05a.35.35,0,0,1,.06-.14l0-.07,0,0h0l.06,0s0,0,0,0h0l0,0h-.26c-.14,0-.1,0-.06,0a.86.86,0,0,0,.39,0,.62.62,0,0,0,.3-.09c.17-.14-.06-.24-.18-.27Z" transform="translate(-33.27 -9.63)"/><path d="M117.24,118.81a1,1,0,0,0,.74-.49,1,1,0,0,0,.09-.71.71.71,0,0,0-.23-.38,1,1,0,0,0-.47-.23,1.67,1.67,0,0,0-1.31.19.87.87,0,0,0-.41.82c0,.18.35.21.5.21a.84.84,0,0,0,.35,0s.16-.07.15-.14a.66.66,0,0,1,0-.34l0,.06a.82.82,0,0,1,.23-.32l0,0a.39.39,0,0,1,.1-.08l0,0s.1,0,0,0l.12,0c-.13,0-.06,0,0,0h-.18l-.06,0,.06,0s-.08,0,0,0l.09.07,0,0a.92.92,0,0,1,.16.27l0-.06a1,1,0,0,1,0,.56l0-.06a.83.83,0,0,1-.22.33l.05,0-.07,0s-.07,0-.07,0,.09,0,0,0h0a.38.38,0,0,0-.23.11.1.1,0,0,0,0,.15,1,1,0,0,0,.68.1Z" transform="translate(-33.27 -9.63)"/><path d="M125.72,82.25l4-.75c.13,0,.36-.1.21-.25a1,1,0,0,0-.68-.14l-4,.75c-.13,0-.36.1-.2.26a.87.87,0,0,0,.67.13Z" transform="translate(-33.27 -9.63)"/><path d="M128.24,84l3-1c.12,0,.36-.15.18-.27a.92.92,0,0,0-.69-.06l-3,1c-.11,0-.36.15-.17.28a.89.89,0,0,0,.68,0Z" transform="translate(-33.27 -9.63)"/><path d="M131.1,85.68l2.5-1c.05,0,.14-.08.14-.15s-.1-.11-.16-.13a1.05,1.05,0,0,0-.7,0l-2.5,1s-.15.08-.14.15.1.12.15.14a1.09,1.09,0,0,0,.71,0Z" transform="translate(-33.27 -9.63)"/><path d="M132.49,87.24a6.13,6.13,0,0,0,4.18-.85c.19-.12-.08-.24-.19-.26a.94.94,0,0,0-.68.09,4.41,4.41,0,0,1-1.45.6,4,4,0,0,1-1.37.06.94.94,0,0,0-.68.09c-.16.14.06.25.19.27Z" transform="translate(-33.27 -9.63)"/><path d="M134.57,89.29l4-1c.18,0,.21-.18.05-.28a1,1,0,0,0-.69-.13l-4,1c-.18.05-.21.17,0,.28a1,1,0,0,0,.7.13Z" transform="translate(-33.27 -9.63)"/><path d="M135.88,91.49l4.25-.75c.11,0,.42-.09.34-.26s-.5-.13-.63-.11l-4.25.75c-.11,0-.42.09-.33.27s.49.13.62.1Z" transform="translate(-33.27 -9.63)"/><path d="M138.05,94.05l3.75-.25c.19,0,.21-.17.06-.28a1.08,1.08,0,0,0-.68-.17l-3.75.26c-.2,0-.21.17-.07.27a1.05,1.05,0,0,0,.69.17Z" transform="translate(-33.27 -9.63)"/><path d="M138.86,96.05l3-.24c.11,0,.45,0,.36-.23s-.46-.18-.6-.17l-3,.24c-.11,0-.45,0-.36.23s.46.18.6.17Z" transform="translate(-33.27 -9.63)"/><path d="M139.28,97.8H142c.05,0,.16,0,.18-.09s-.05-.14-.09-.18a1.09,1.09,0,0,0-.68-.22h-2.75c-.05,0-.16,0-.18.09s.05.15.1.18a1,1,0,0,0,.67.22Z" transform="translate(-33.27 -9.63)"/><path d="M139.73,99.75,142,99.5c.12,0,.36-.12.19-.26a.87.87,0,0,0-.67-.12l-2.25.25c-.13,0-.37.12-.2.26a1,1,0,0,0,.68.12Z" transform="translate(-33.27 -9.63)"/><path d="M139.44,101.29h2.75c.12,0,.38-.05.24-.22a.9.9,0,0,0-.64-.24H139c-.13,0-.39,0-.25.22a1,1,0,0,0,.65.24Z" transform="translate(-33.27 -9.63)"/><path d="M140.53,105.8h3c.2,0,.22-.16.09-.27a1.06,1.06,0,0,0-.68-.21h-3c-.2,0-.22.15-.08.27a1.07,1.07,0,0,0,.67.21Z" transform="translate(-33.27 -9.63)"/><path d="M140.37,108l2.75-.22c.1,0,.46-.07.35-.24s-.45-.15-.61-.14l-2.75.21c-.1,0-.45.08-.35.25s.45.15.61.14Z" transform="translate(-33.27 -9.63)"/><path d="M140.42,109.61l3.5.23c.13,0,.37,0,.26-.2a1,1,0,0,0-.63-.29l-3.5-.23c-.13,0-.38,0-.26.21a.94.94,0,0,0,.63.28Z" transform="translate(-33.27 -9.63)"/><path d="M140.2,110.88a3.76,3.76,0,0,0,3.41.42c.2-.08,0-.24-.08-.32a.89.89,0,0,0-.67-.16,2.77,2.77,0,0,1-.62.19,2.64,2.64,0,0,1-.55,0l-.17,0h-.05l-.17,0h0l-.08,0-.12,0-.08,0-.08,0s0,0,0,0l-.14-.09a1,1,0,0,0-.67-.16c-.22.07,0,.25.08.32Z" transform="translate(-33.27 -9.63)"/><path d="M33.52,130.52,81.83,132l13.7.41c.16,0,.57,0,.66-.19s0-.23-.22-.24l-48.31-1.44L34,130.1c-.16,0-.57,0-.66.18s0,.24.22.24Z" transform="translate(-33.27 -9.63)"/><path d="M85.73,139.76h15c.1,0,.51,0,.51-.18s-.38-.22-.49-.22h-15c-.11,0-.52,0-.51.17s.37.23.49.23Z" transform="translate(-33.27 -9.63)"/><path d="M99.12,139.76h7c.15,0,.54,0,.6-.19s-.26-.22-.37-.22h-7c-.14,0-.54,0-.6.19s.26.22.37.22Z" transform="translate(-33.27 -9.63)"/><path d="M173.84,128l26.91,1.39,26.9,1.39,15.19.79c.68,0,.25-.41-.18-.43l-26.91-1.39-26.9-1.39-15.19-.79c-.68,0-.25.41.18.43Z" transform="translate(-33.27 -9.63)"/><path d="M174,136.32l33.06,2.23,9.45.64c.16,0,.57,0,.67-.14s0-.24-.21-.25l-33.06-2.24-9.44-.64c-.17,0-.58,0-.68.14s0,.24.21.26Z" transform="translate(-33.27 -9.63)"/><path d="M126.17,49.05a1.72,1.72,0,0,0-1,.68,1.14,1.14,0,0,0-.08,1.1,1.34,1.34,0,0,0,1.29.63,1,1,0,0,0,1-.59.82.82,0,0,0-.55-.92c-.41-.16-1.14-.21-1.36.27a.63.63,0,0,0,.18.79,1,1,0,0,0,1.09.05.88.88,0,0,0,.32-.46A.69.69,0,0,0,127,50a.6.6,0,0,0-.26-.14,1.3,1.3,0,0,0-.33-.07,1.45,1.45,0,0,0-.55,0,.73.73,0,0,0-.59.91c0,.07.16.12.22.14a1.24,1.24,0,0,0,.38.05c.11,0,.44,0,.37-.22a.13.13,0,0,1,0-.09.51.51,0,0,1,0-.13.14.14,0,0,1,0-.06s0,0,0,0l.09-.12,0-.05h0l0,0,0,0,0,0,0,0h-.13a.53.53,0,0,1-.12,0s-.14,0-.06,0l-.12-.1a.61.61,0,0,1,0,.48.5.5,0,0,1-.11.2l-.08.09s0,0,0,0l-.06,0,.57,0,.08,0,0,0c-.06,0,.06,0,0,0l0,0c0,.05,0,0,0,0s0,0,0-.08,0,0,0,0,0,0,0,0a.69.69,0,0,1,0-.2l0-.09c0,.05,0,0,0,0l0-.06s.08-.08,0,0l0,0c0-.05-.07,0,0,0s-.13,0-.11,0h-.15c-.08,0-.1,0-.06,0h0s0,0,0,0,.08.06.09.08,0,0,0,0l0,.06a.46.46,0,0,1,.08.23.54.54,0,0,1,0,.23.76.76,0,0,1-.08.11s0,0,0,0l0,0h0s-.09.07-.12.06h.1l0,0,0,0c-.07,0,.06,0,0,0l0,0s0,0-.05-.05,0,0,0,0a1.1,1.1,0,0,1-.09-.14,1,1,0,0,1,.28-1.14l.1-.08.15-.09.07,0s0,0,0,0l0,0,.19-.05c.06,0,.15-.07.16-.13s-.08-.13-.13-.16a1.15,1.15,0,0,0-.71-.06Z" transform="translate(-33.27 -9.63)"/><path d="M108.2,43.81a.47.47,0,0,0-.29.41.51.51,0,0,0,.29.47,1.29,1.29,0,0,0,1,.11.49.49,0,0,0,.38-.38c0-.18-.34-.26-.46-.28s-.47-.07-.53.11l-.21.65c0,.11.21.21.27.23a1.11,1.11,0,0,0,.54,0,.78.78,0,0,0,.65-.94c0-.06-.15-.13-.2-.15a1.24,1.24,0,0,0-.38-.09.91.91,0,0,0-.72.24.84.84,0,0,0-.2.45,1,1,0,0,0,.1.5,1.17,1.17,0,0,0,.77.44,1.11,1.11,0,0,0,1.31-.64.86.86,0,0,0-.64-1.05,1.56,1.56,0,0,0-1.74.27.11.11,0,0,0,0,.11,1.76,1.76,0,0,0,1.44.62,1.21,1.21,0,0,0,1.13-.56,1.09,1.09,0,0,0,0-1.09,1.64,1.64,0,0,0-1.45-.64,1.28,1.28,0,0,0-1.17.7c0,.06.09.15.12.17a.8.8,0,0,0,.34.11c.15,0,.45.06.52-.11a.89.89,0,0,1,.24-.3.53.53,0,0,1,.15-.08l.07,0s0,0,0,0h.12s-.08,0,0,0h0c.09,0-.11,0,0,0h-.06c.08,0-.07,0,0,0a.05.05,0,0,1,0,0s-.07,0,0,0l0,0,.08.07,0,.06a1,1,0,0,1,.13.77.73.73,0,0,1-.2.34.17.17,0,0,1-.06.06l-.05,0-.09,0h-.05s.05,0,0,0-.13,0,0,0h0c-.09,0,0,0,0,0h0c-.06,0,.13,0,0,0s.1,0,0,0h0l0,0h0l0,0,0,0,0,0,0,.11.15-.16h0s0,0,0,0l.11,0h.1s-.09,0,0,0,.08,0,0,0h0l-.07,0,.06,0-.06,0c.1,0-.06,0,0,0s0,0,0,0l0,0,0,0a.47.47,0,0,1,.1.38.71.71,0,0,1-.18.38l-.07.07-.06,0-.09,0h.12l.13,0,0,0h0l0,0,0,0s0,0,0,0a.52.52,0,0,1-.08-.31.76.76,0,0,1,0-.21,1.16,1.16,0,0,1,.06-.15.8.8,0,0,1,.13-.13s0,0,0,0l0,0s0,0,0,0-.12,0-.11,0l-.58-.24a.63.63,0,0,1-.07.38.57.57,0,0,1-.15.16l0,0-.06,0h0l.82.28.22-.64-1-.17a.29.29,0,0,1,0,.1l0,0s0,0,0,0-.06,0,0,0h0a.77.77,0,0,1,.42.1s0,0,0,0a.34.34,0,0,1,0-.22.25.25,0,0,1,0-.09l0,0s0,0,0,0c.21-.09,0-.26-.13-.3a.89.89,0,0,0-.68,0Z" transform="translate(-33.27 -9.63)"/><path d="M144.49,44.47a.39.39,0,0,0-.31.24.41.41,0,0,0,0,.29.58.58,0,0,0,.34.31,1.25,1.25,0,0,0,.85.07.57.57,0,0,0,.33-.24.47.47,0,0,0,.06-.4.71.71,0,0,0-.23-.34,1.31,1.31,0,0,0-.54-.27,1.47,1.47,0,0,0-1.09.09.77.77,0,0,0-.22,1.26,1.55,1.55,0,0,0,1.08.44,1,1,0,0,0,.92-.38.8.8,0,0,0,.14-.76.39.39,0,0,0-.21-.15,1.18,1.18,0,0,0-.38-.09c-.1,0-.45,0-.38.19a.36.36,0,0,1,0,.1v-.06a.7.7,0,0,1-.08.47l0-.05a.93.93,0,0,1-.25.27l.06,0-.1,0-.05,0c-.05,0,.08,0,0,0h-.05c.1,0,.07,0,0,0,.13,0,.09,0,0,0h.09l.08,0s-.09,0,0,0l-.05,0,.06,0,0,0a.09.09,0,0,0-.05,0l0,0,0,0,0,0-.09-.09,0,0a.81.81,0,0,1-.14-.33v0a.61.61,0,0,1,.07-.39l0,.05a.78.78,0,0,1,.25-.26l-.06,0,.19-.09c-.08,0,0,0,0,0h.05c-.11,0-.08,0,0,0s.08,0-.05,0c.05,0,.1,0-.06,0l-.06,0s.06.05-.05,0h0l0,0,0,0s-.06,0,0,0l.09.1-.05-.05a.51.51,0,0,1,.1.21v0a.41.41,0,0,1,0,.24l0,0a.52.52,0,0,1-.14.16l.05,0-.07,0s.08,0,0,0h.15l.24,0,.1.05s.06.06,0,0l0,0,0,.06a.35.35,0,0,1-.06-.14v0a.34.34,0,0,1,0-.2l0,0a.27.27,0,0,1,.07-.08l-.06,0s.08,0,0,0c.05,0,.15,0,.17-.11s-.08-.14-.12-.17a1.12,1.12,0,0,0-.34-.11.87.87,0,0,0-.36,0Z" transform="translate(-33.27 -9.63)"/><path d="M85.55,14.51a32.8,32.8,0,0,0-.29,18.11c.08.29,1.06.11,1-.14a32.5,32.5,0,0,1,.26-18c.09-.29-.89-.24-1,0Z" transform="translate(-33.27 -9.63)"/><path d="M86.09,14.7a16.9,16.9,0,0,1,11.15,7.86c.15.26,1.1.23,1,0A17.82,17.82,0,0,0,86.4,14.35c-.14,0-.55-.1-.63.07s.2.26.32.28Z" transform="translate(-33.27 -9.63)"/><path d="M140.87,27.25A25.62,25.62,0,0,1,156,16c.22-.06.15-.18,0-.28a.92.92,0,0,0-.71-.06,26.07,26.07,0,0,0-15.41,11.42c-.16.25.8.43,1,.19Z" transform="translate(-33.27 -9.63)"/><path d="M155.8,16.12a16.35,16.35,0,0,1-1.56,16.4c-.15.2.78.29,1,0A16.55,16.55,0,0,0,156.76,16c-.12-.24-1.09-.12-1,.17Z" transform="translate(-33.27 -9.63)"/></svg>