<svg id="Layer_1" data-name="Layer 1" xmlns="http://www.w3.org/2000/svg" viewBox="0 0 400 300"><defs><style>.cls-1,.cls-2{fill:none;stroke:#010101;stroke-width:3px;}.cls-1{stroke-linecap:round;stroke-linejoin:round;}.cls-2{stroke-miterlimit:10;}.cls-3{fill:#010101;}</style></defs><path class="cls-1" d="M150.65,91.31S130,84,75.93,108.57c0,0,4.64,62.93,16.2,68.35,0,0,17.15,12,29.35,1,9.19-8.29,0-16.26,0-16.26s15.82,0,20.8-11.61c3-7,1.81-12.28-3.24-19.57C139,130.47,168.49,119.33,150.65,91.31Z"/><path class="cls-2" d="M150.65,91.31l140.61,59.06S321,159,311.16,188.2s-7.28,46.45-43.45,61.71-175.58-73-175.58-73"/><line class="cls-2" x1="139.04" y1="130.47" x2="311.16" y2="188.2"/><line class="cls-2" x1="121.48" y1="161.65" x2="293.72" y2="230.98"/><path class="cls-3" d="M106.59,122.26a12.41,12.41,0,0,0,21,5.15c1.33-1.39-.79-3.52-2.13-2.12a9.4,9.4,0,0,1-16-3.83c-.55-1.85-3.44-1.06-2.9.8Z"/><path class="cls-3" d="M81.17,142c7.08-12.06,10.56-19.42,17.64-31.47a136.59,136.59,0,0,1,8.82-13.93l-31.7,11.94Z"/><path class="cls-3" d="M265.39,251.7c9.9,6,20.67,10.38,31.45,14.58,1.8.7,2.58-2.2.79-2.89-10.54-4.11-21-8.37-30.72-14.28-1.66-1-3.17,1.58-1.52,2.59Z"/><path class="cls-3" d="M314.5,261.05c-5.12-.38-10.79-1.77-15.54,1s-3.68,8.65-1.39,12.62a15.5,15.5,0,0,0,5.46,5.51,1.5,1.5,0,0,0,1.52-2.59,12.43,12.43,0,0,1-4.7-5c-1-1.87-2-4.91-.65-6.83,1.19-1.74,3.93-2.2,5.87-2.35,3.16-.24,6.29.44,9.43.67,1.92.14,1.91-2.86,0-3Z"/><path class="cls-3" d="M298.4,266.44l10.07,5.47a1.5,1.5,0,0,0,1.51-2.59l-10.06-5.47a1.54,1.54,0,0,0-2.05.54,1.51,1.51,0,0,0,.53,2.05Z"/><path class="cls-3" d="M300.46,223.67c2.62,1.52,5.18,3.13,7.79,4.65a1.5,1.5,0,1,0,1.52-2.59c-2.62-1.52-5.18-3.13-7.8-4.65a1.5,1.5,0,1,0-1.51,2.59Z"/><path class="cls-3" d="M325.94,223.39c-3.61-3.84-9.93-4.95-14.47-2.12a11.27,11.27,0,0,0-4.53,13.39c1.27,3.11,3.8,5.33,6.45,7.28a1.51,1.51,0,0,0,2.05-.54,1.52,1.52,0,0,0-.54-2.05c-2.24-1.65-4.62-3.69-5.42-6.46a8.3,8.3,0,0,1,1.29-6.91c3-4.38,9.57-4.18,13.05-.47,1.32,1.41,3.44-.71,2.12-2.12Z"/><path class="cls-3" d="M308.25,228.32l13.05,6.58a1.55,1.55,0,0,0,2.06-.54,1.52,1.52,0,0,0-.54-2.05l-13.05-6.58a1.5,1.5,0,0,0-1.52,2.59Z"/><path class="cls-3" d="M178.07,103.05a321.81,321.81,0,0,1,25-36.35c9.07-11.19,19.24-21.73,31.6-29.28,11.95-7.29,25.8-12,39.91-11.34,3.32.15,7.28.27,10.31,1.76s3.8,4.57,3,7.6c-.84,3.27-3.44,5.7-6,7.67-3.1,2.34-6.38,4.47-9.59,6.65Q252.07,63.49,231,75.86c-1.79,1-3.59,2.1-5.39,3.13a1.5,1.5,0,0,0,1.52,2.59Q249.52,68.66,271,54.23c3.49-2.34,7-4.7,10.4-7.11,2.95-2.06,5.9-4.28,7.86-7.36a11.62,11.62,0,0,0,1.51-9.37c-1-3.43-4-5.38-7.32-6.21-7.05-1.73-14.79-1.43-21.9-.27a77,77,0,0,0-20.9,6.81c-13.67,6.63-25,16.82-35,28.19-10.24,11.74-19.12,24.63-27.33,37.85q-1.47,2.38-2.92,4.77a1.5,1.5,0,0,0,2.59,1.52Z"/><path class="cls-3" d="M278.74,49.49c3.41-1.59,7-3.31,10.87-3.33,2.82,0,6,1.09,7.6,3.58,1.83,2.93.7,6.63-1.2,9.22-2.18,3-5.39,5.12-8.27,7.35-6.35,4.91-12.55,10.19-19.29,14.55a80.5,80.5,0,0,1-16.36,7.72,84.72,84.72,0,0,1-20.65,4.3c-1.91.18-1.92,3.18,0,3A87.89,87.89,0,0,0,252,91.78a83.12,83.12,0,0,0,18.16-8.45c3.56-2.33,6.9-5,10.27-7.6l11-8.51c3.05-2.37,6.3-4.82,8.15-8.3,1.71-3.23,2.25-7.29.31-10.55s-5.61-4.87-9.22-5.17c-4.73-.39-9.27,1.75-13.45,3.7-1.74.81-.22,3.4,1.52,2.59Z"/><path class="cls-3" d="M286.59,71.59c5.69-.28,13.65.15,16.12,6.43,1.13,2.86.14,6.18-1.17,8.82a23.41,23.41,0,0,1-5.21,6.82c-4.71,4.33-10.78,6.73-16.89,8.3a125.68,125.68,0,0,1-21.13,3.37,146.54,146.54,0,0,1-24.16,0c-1.92-.16-1.91,2.84,0,3a146.54,146.54,0,0,0,24.16,0,126.51,126.51,0,0,0,22.8-3.71c6.62-1.78,13.1-4.63,18-9.5,4.28-4.22,8.61-11.33,6.57-17.56-2.61-8-11.89-9.32-19.13-9-1.92.09-1.93,3.09,0,3Z"/><path class="cls-3" d="M291.53,100.15c5,1.49,12.12,5.74,10.06,12-.95,2.88-3.66,4.8-6.21,6.16a60.1,60.1,0,0,1-11.6,4.44c-8,2.3-16.24,2.61-24.67,2.55-9.24-.06-18.47-.71-27.67-1.55-1.92-.18-1.91,2.82,0,3,14.11,1.3,28.62,2.47,42.77.9a64.45,64.45,0,0,0,11.91-2.47,55.8,55.8,0,0,0,11.68-4.78c2.93-1.7,5.59-4.16,6.68-7.45,2.62-8-5.6-13.72-12.15-15.69-1.85-.55-2.64,2.34-.8,2.89Z"/></svg>